<?xml version="1.0" standalone="no"?>
<!DOCTYPE svg PUBLIC "-//W3C//DTD SVG 20010904//EN"
 "http://www.w3.org/TR/2001/REC-SVG-20010904/DTD/svg10.dtd">
<svg version="1.0" xmlns="http://www.w3.org/2000/svg"
 width="1200.000000pt" height="1263.000000pt" viewBox="0 0 1200.000000 1263.000000"
 preserveAspectRatio="xMidYMid meet">

<g transform="translate(0.000000,1263.000000) scale(0.100000,-0.100000)"
fill="#000000" stroke="none">
<path d="M5380 12602 c-21 -17 -35 -80 -137 -628 -101 -543 -116 -611 -137
-632 -26 -27 -835 -362 -872 -362 -25 0 -65 27 -672 444 -260 178 -382 256
-401 256 -22 0 -104 -78 -459 -433 -237 -238 -432 -438 -432 -445 0 -22 12
-40 353 -536 262 -380 332 -489 335 -519 3 -31 -26 -107 -178 -461 -105 -247
-191 -433 -204 -445 -19 -18 -115 -39 -611 -131 -414 -77 -594 -115 -607 -126
-17 -16 -18 -48 -18 -624 0 -564 1 -609 18 -628 14 -17 108 -37 592 -127 474
-88 579 -110 597 -127 34 -32 386 -919 381 -961 -3 -22 -106 -180 -328 -502
-178 -258 -325 -481 -328 -494 -4 -20 59 -87 429 -457 340 -340 440 -434 459
-434 16 0 187 112 490 320 387 266 471 320 499 320 25 0 93 -31 243 -111 205
-109 241 -121 260 -89 5 8 195 465 423 1014 303 735 411 1005 405 1020 -4 12
-33 39 -66 60 -303 201 -467 371 -585 605 -207 414 -177 913 80 1301 190 289
485 487 834 561 134 29 360 31 491 6 422 -84 753 -336 940 -714 206 -416 171
-910 -92 -1308 -93 -140 -303 -331 -508 -460 -26 -16 -51 -39 -55 -50 -5 -15
107 -296 407 -1020 227 -550 417 -1007 422 -1015 19 -32 55 -20 260 89 149 80
218 111 243 111 28 0 111 -53 499 -320 300 -206 474 -320 490 -320 19 0 117
93 459 434 370 370 433 437 429 457 -3 13 -150 236 -328 494 -222 322 -325
480 -328 502 -5 42 347 929 381 961 18 17 120 39 567 122 300 55 562 105 582
111 21 5 42 18 48 29 6 12 10 232 10 623 0 577 -1 605 -19 621 -13 12 -187 48
-607 126 -517 96 -591 112 -611 132 -12 13 -104 214 -203 447 -149 347 -181
430 -178 460 3 27 65 125 259 406 390 567 429 624 429 643 0 9 -195 211 -432
449 -351 351 -438 433 -459 433 -18 0 -163 -94 -465 -302 -547 -375 -582 -398
-608 -398 -36 0 -847 336 -873 362 -20 21 -36 92 -136 632 -102 549 -116 611
-136 628 -22 17 -55 18 -621 18 -565 0 -599 -1 -620 -18z"/>
<path d="M377 3244 c-31 -7 -72 -21 -90 -30 -112 -57 -213 -172 -247 -282 -42
-135 -43 -477 -2 -609 44 -139 165 -259 312 -309 78 -27 253 -26 335 1 125 41
253 159 296 275 34 92 42 157 42 340 0 271 -28 363 -149 487 -122 124 -310
173 -497 127z m268 -259 c65 -31 109 -91 125 -172 8 -34 10 -120 8 -222 -4
-191 -16 -230 -85 -292 -50 -45 -100 -63 -178 -63 -113 0 -192 49 -236 147
-23 49 -24 63 -24 247 0 183 1 198 23 241 67 136 224 184 367 114z"/>
<path d="M1698 3241 c-61 -20 -143 -67 -173 -101 -29 -32 -35 -24 -35 45 l0
65 -120 0 -120 0 0 -1610 0 -1610 119 0 120 0 4 408 c4 459 3 459 77 532 50
50 99 70 175 70 76 0 125 -20 175 -70 74 -73 73 -73 77 -532 l4 -408 120 0
119 0 0 435 c0 459 -3 499 -47 593 -109 233 -455 299 -646 123 -24 -23 -47
-41 -51 -41 -3 0 -6 225 -6 501 l0 501 28 -22 c63 -49 147 -101 181 -111 224
-66 456 56 518 273 10 37 16 122 20 274 6 258 -6 392 -42 471 -28 62 -101 143
-159 177 -97 56 -231 71 -338 37z m139 -236 c66 -20 116 -74 140 -152 14 -46
17 -94 17 -228 0 -189 -13 -259 -60 -315 -74 -87 -230 -104 -336 -35 -56 37
-86 109 -100 241 -22 212 16 402 93 457 64 46 157 58 246 32z"/>
<path d="M2801 3244 c-177 -47 -294 -174 -353 -381 -29 -103 -32 -359 -5 -467
40 -160 124 -276 247 -340 213 -112 499 -78 668 79 31 29 55 55 52 57 -3 2
-34 28 -70 58 -107 91 -95 86 -135 56 -168 -129 -400 -110 -494 40 -29 45 -59
163 -46 183 4 8 129 11 391 11 l384 0 0 138 c0 206 -34 311 -135 420 -99 107
-226 161 -375 161 -41 0 -99 -7 -129 -15z m221 -226 c88 -26 159 -122 174
-236 l7 -52 -272 0 c-308 0 -281 -10 -257 93 22 93 83 168 161 195 41 14 139
14 187 0z"/>
<path d="M4122 3245 c-72 -20 -100 -36 -160 -90 l-52 -47 0 71 0 71 -120 0
-120 0 0 -625 0 -625 120 0 120 0 0 398 c0 441 3 471 62 538 50 56 101 78 188
78 106 1 175 -39 223 -129 21 -39 22 -52 25 -462 l3 -423 124 0 125 0 0 413
c-1 226 -5 442 -9 479 -19 144 -110 270 -237 330 -80 37 -205 47 -292 23z"/>
<path d="M5737 3244 c-129 -31 -233 -109 -280 -212 -18 -39 -22 -65 -22 -152
0 -95 3 -110 27 -155 49 -92 141 -159 253 -183 28 -6 109 -16 180 -22 166 -14
209 -25 241 -63 23 -27 26 -38 22 -84 -8 -97 -78 -143 -228 -151 -144 -7 -266
31 -368 115 l-43 35 -84 -77 c-47 -42 -85 -80 -85 -83 2 -24 185 -141 269
-173 248 -93 568 -44 701 107 64 73 75 108 75 234 0 129 -14 174 -75 243 -72
82 -155 110 -383 126 -195 15 -250 37 -263 108 -11 57 11 109 58 140 36 24 53
28 138 31 115 5 179 -10 286 -68 l71 -38 64 76 c35 42 67 81 72 88 10 17 -93
87 -176 121 -126 51 -325 68 -450 37z"/>
<path d="M6935 3246 c-27 -7 -63 -18 -79 -25 -57 -23 -148 -96 -191 -153 -87
-116 -110 -225 -103 -493 7 -252 35 -332 157 -448 124 -119 301 -164 479 -122
183 43 325 192 364 380 7 35 12 139 12 250 0 266 -24 350 -136 470 -64 69
-143 116 -233 140 -70 18 -200 18 -270 1z m257 -257 c59 -29 76 -46 105 -103
57 -112 55 -420 -4 -527 -83 -153 -324 -170 -430 -30 -51 66 -58 105 -58 306
0 167 2 184 24 233 28 63 87 117 151 137 60 20 156 12 212 -16z"/>
<path d="M9547 3250 c-58 -15 -135 -57 -183 -102 l-44 -41 0 72 0 71 -120 0
-120 0 0 -625 0 -625 119 0 120 0 3 418 c3 376 5 421 21 457 42 94 117 139
227 140 64 0 82 -4 121 -27 l46 -27 86 102 86 102 -22 19 c-51 44 -129 70
-217 73 -47 1 -102 -2 -123 -7z"/>
<path d="M10355 3254 c-131 -28 -212 -69 -291 -148 -118 -118 -166 -258 -166
-481 0 -223 47 -360 167 -481 160 -161 424 -199 642 -92 57 28 183 129 183
148 0 4 -38 42 -84 84 l-84 76 -38 -37 c-63 -59 -136 -87 -224 -87 -146 0
-244 61 -290 180 -35 88 -40 286 -11 383 28 92 72 148 145 185 50 26 68 30
144 30 74 1 96 -3 142 -25 31 -14 72 -40 92 -58 20 -17 40 -31 44 -31 5 1 45
34 89 75 l80 75 -62 60 c-69 65 -173 121 -261 139 -51 11 -176 13 -217 5z"/>
<path d="M11351 3244 c-175 -47 -296 -181 -352 -391 -28 -102 -30 -330 -6
-443 36 -163 132 -297 259 -359 215 -106 490 -70 666 87 l54 47 -86 73 c-47
39 -88 72 -91 72 -3 0 -27 -16 -54 -36 -93 -66 -222 -92 -323 -64 -107 30
-186 129 -196 245 l-5 65 393 0 393 0 -6 148 c-7 161 -20 222 -70 317 -103
193 -356 298 -576 239z m244 -233 c85 -38 141 -123 152 -227 l6 -54 -267 0
-266 0 0 40 c0 49 30 130 64 175 41 53 116 85 200 85 47 0 85 -7 111 -19z"/>
<path d="M7800 2833 c0 -230 5 -446 10 -481 34 -235 249 -394 480 -354 85 14
156 49 216 104 l44 41 0 -72 0 -71 120 0 120 0 0 625 0 625 -120 0 -120 0 0
-398 c0 -459 -2 -475 -75 -547 -30 -30 -59 -49 -96 -59 -66 -20 -92 -20 -157
-1 -66 20 -119 66 -148 130 -24 50 -24 52 -24 463 l0 412 -125 0 -125 0 0
-417z"/>
<path d="M5310 1460 c0 -176 -2 -320 -4 -320 -3 0 -34 22 -70 49 -87 66 -159
92 -256 92 -91 0 -118 -6 -185 -39 -72 -36 -117 -74 -158 -134 -66 -97 -72
-137 -72 -458 0 -252 2 -292 19 -349 33 -110 123 -210 229 -255 144 -60 329
-29 440 73 24 23 47 41 51 41 3 0 6 -29 6 -65 l0 -65 120 0 120 0 0 875 0 875
-120 0 -120 0 0 -320z m-144 -439 c55 -25 98 -81 120 -155 25 -87 25 -345 -1
-433 -22 -77 -70 -135 -130 -159 -68 -26 -191 -16 -244 19 -77 51 -111 160
-111 357 0 216 36 315 129 363 68 34 172 38 237 8z"/>
<path d="M2825 1279 c-96 -8 -162 -29 -233 -76 -49 -33 -92 -76 -92 -93 0 -7
131 -111 167 -133 9 -6 25 2 48 21 51 45 96 57 220 56 90 0 119 -4 157 -21 71
-32 88 -67 88 -179 l0 -92 -227 -4 c-187 -4 -237 -8 -278 -23 -100 -36 -178
-104 -217 -190 -19 -42 -23 -67 -23 -155 0 -94 3 -111 28 -161 74 -152 274
-239 482 -210 97 14 140 33 193 84 l42 41 0 -57 0 -57 120 0 120 0 0 468 c0
517 -1 527 -63 618 -83 123 -278 183 -532 163z m353 -821 c-5 -128 -20 -161
-86 -191 -40 -18 -67 -21 -172 -22 -112 0 -130 3 -173 24 -74 36 -106 101 -86
174 25 94 88 115 338 116 l183 1 -4 -102z"/>
<path d="M4222 1278 c-79 -9 -158 -44 -215 -97 -24 -23 -47 -41 -51 -41 -3 0
-6 29 -6 65 l0 65 -120 0 -120 0 0 -620 0 -620 119 0 120 0 3 413 c3 394 4
414 24 457 46 98 106 135 225 135 75 0 90 -3 125 -26 l39 -26 88 104 c100 118
100 109 2 158 -61 30 -149 43 -233 33z"/>
<path d="M7885 1278 c-134 -11 -236 -55 -305 -135 l-31 -34 91 -70 c50 -38 94
-69 98 -69 4 0 12 8 19 19 33 53 181 82 312 62 139 -22 163 -50 169 -193 l4
-98 -188 0 c-212 0 -290 -10 -369 -44 -178 -79 -253 -312 -160 -496 33 -65
119 -141 191 -169 86 -33 195 -45 289 -32 97 14 151 37 192 84 18 20 35 37 38
37 3 0 5 -25 5 -55 l0 -55 120 0 121 0 -3 483 c-4 533 -2 524 -71 613 -90 118
-277 173 -522 152z m353 -816 c-6 -125 -23 -163 -86 -194 -41 -20 -63 -23
-172 -23 -114 0 -129 2 -174 25 -61 31 -87 64 -93 121 -8 78 42 138 130 159
18 5 115 8 216 9 l184 1 -5 -98z"/>
<path d="M9282 1278 c-79 -9 -158 -44 -215 -97 -24 -23 -47 -41 -51 -41 -3 0
-6 29 -6 65 l0 65 -120 0 -120 0 0 -620 0 -620 120 0 120 0 0 398 c0 433 3
459 55 529 62 80 203 108 301 58 27 -14 52 -25 56 -25 3 0 45 46 92 102 97
114 97 103 -2 153 -61 30 -146 43 -230 33z"/>
<path d="M10060 1279 c-200 -21 -353 -163 -415 -384 -26 -92 -32 -340 -11
-446 33 -166 119 -296 240 -364 89 -50 171 -69 296 -68 164 1 279 45 405 155
l39 35 -34 30 c-19 17 -60 51 -90 76 l-54 45 -37 -29 c-21 -16 -64 -42 -96
-56 -78 -37 -202 -39 -279 -4 -92 40 -150 125 -161 237 l-6 54 392 0 391 0 0
123 c0 68 -7 152 -15 191 -58 272 -283 433 -565 405z m180 -245 c78 -31 150
-146 150 -240 l0 -34 -266 0 -267 0 6 53 c8 68 52 152 99 190 70 56 183 69
278 31z"/>
<path d="M5700 1261 c0 -7 112 -361 326 -1029 l65 -202 108 0 107 0 130 435
c71 239 133 433 138 432 7 -2 111 -339 251 -814 l16 -53 108 0 108 0 193 603
c106 331 195 610 198 620 4 16 -5 17 -124 15 l-128 -3 -120 -438 c-66 -240
-123 -434 -127 -430 -4 5 -70 202 -146 438 l-140 430 -89 3 -89 2 -139 -432
c-77 -238 -143 -437 -147 -442 -4 -5 -13 11 -19 35 -46 171 -213 780 -221 807
l-11 32 -124 0 c-68 0 -124 -4 -124 -9z"/>
</g>
</svg>
