  0
SECTION
  2
HEADER
  9
$ACADVER
  1
AC1014
  9
$HANDSEED
  5
FFFF
  9
$INSUNITS
 70
     4
  9
$MEASUREMENT
 70
     1
  0
ENDSEC
  0
SECTION
  2
TABLES
  0
TABLE
  2
VPORT
  5
8
330
0
100
AcDbSymbolTable
 70
     4
  0
VPORT
  5
2E
330
8
100
AcDbSymbolTableRecord
100
AcDbViewportTableRecord
  2
*ACTIVE
 70
     0
 10
0.0
 20
0.0
 11
1.0
 21
1.0
 12
210.0
 22
148.5
 13
0.0
 23
0.0
 14
10.0
 24
10.0
 15
10.0
 25
10.0
 16
0.0
 26
0.0
 36
1.0
 17
0.0
 27
0.0
 37
0.0
 40
341.0
 41
1.24
 42
50.0
 43
0.0
 44
0.0
 50
0.0
 51
0.0
 71
     0
 72
   100
 73
     1
 74
     3
 75
     0
 76
     0
 77
     0
 78
     0
  0
ENDTAB
  0
TABLE
  2
LTYPE
  5
5
330
0
100
AcDbSymbolTable
 70
     1
  0
LTYPE
  5
14
330
5
100
AcDbSymbolTableRecord
100
AcDbLinetypeTableRecord
  2
BYBLOCK
 70
     0
  3

 72
    65
 73
     0
 40
0.0
  0
LTYPE
  5
15
330
5
100
AcDbSymbolTableRecord
100
AcDbLinetypeTableRecord
  2
BYLAYER
 70
     0
  3

 72
    65
 73
     0
 40
0.0
  0
LTYPE
  5
16
330
5
100
AcDbSymbolTableRecord
100
AcDbLinetypeTableRecord
  2
CONTINUOUS
 70
     0
  3
Solid line
 72
    65
 73
     0
 40
0.0
  0
ENDTAB
  0
TABLE
  2
LAYER
  5
2
100
AcDbSymbolTable
 70
2
  0
LAYER
  5
50
100
AcDbSymbolTableRecord
100
AcDbLayerTableRecord
  2
0
 70
0
  6
CONTINUOUS
  0
LAYER
  5
51
100
AcDbSymbolTableRecord
100
AcDbLayerTableRecord
  2
Layer_1
 70
0
  6
CONTINUOUS
  0
ENDTAB
  0
TABLE
  2
STYLE
  5
3
330
0
100
AcDbSymbolTable
 70
     1
  0
STYLE
  5
11
330
3
100
AcDbSymbolTableRecord
100
AcDbTextStyleTableRecord
  2
STANDARD
 70
     0
 40
0.0
 41
1.0
 50
0.0
 71
     0
 42
2.5
  3
txt
  4

  0
ENDTAB
  0
TABLE
  2
VIEW
  5
6
330
0
100
AcDbSymbolTable
 70
     0
  0
ENDTAB
  0
TABLE
  2
UCS
  5
7
330
0
100
AcDbSymbolTable
 70
     0
  0
ENDTAB
  0
TABLE
  2
APPID
  5
9
330
0
100
AcDbSymbolTable
 70
     2
  0
APPID
  5
12
330
9
100
AcDbSymbolTableRecord
100
AcDbRegAppTableRecord
  2
ACAD
 70
     0
  0
ENDTAB
  0
TABLE
  2
DIMSTYLE
  5
A
330
0
100
AcDbSymbolTable
 70
     1
  0
DIMSTYLE
105
27
330
A
100
AcDbSymbolTableRecord
100
AcDbDimStyleTableRecord
  2
ISO-25
 70
     0
  3

  4

  5

  6

  7

 40
1.0
 41
2.5
 42
0.625
 43
3.75
 44
1.25
 45
0.0
 46
0.0
 47
0.0
 48
0.0
140
2.5
141
2.5
142
0.0
143
0.03937007874016
144
1.0
145
0.0
146
1.0
147
0.625
 71
     0
 72
     0
 73
     0
 74
     0
 75
     0
 76
     0
 77
     1
 78
     8
170
     0
171
     3
172
     1
173
     0
174
     0
175
     0
176
     0
177
     0
178
     0
270
     2
271
     2
272
     2
273
     2
274
     3
340
11
275
     0
280
     0
281
     0
282
     0
283
     0
284
     8
285
     0
286
     0
287
     3
288
     0
  0
ENDTAB
  0
TABLE
  2
BLOCK_RECORD
  5
1
330
0
100
AcDbSymbolTable
 70
     1
  0
BLOCK_RECORD
  5
1F
330
1
100
AcDbSymbolTableRecord
100
AcDbBlockTableRecord
  2
*MODEL_SPACE
  0
BLOCK_RECORD
  5
1B
330
1
100
AcDbSymbolTableRecord
100
AcDbBlockTableRecord
  2
*PAPER_SPACE
  0
ENDTAB
  0
ENDSEC
  0
SECTION
  2
BLOCKS
  0
BLOCK
  5
20
330
1F
100
AcDbEntity
  8
0
100
AcDbBlockBegin
  2
*MODEL_SPACE
 70
     0
 10
0.0
 20
0.0
 30
0.0
  3
*MODEL_SPACE
  1

  0
ENDBLK
  5
21
330
1F
100
AcDbEntity
  8
0
100
AcDbBlockEnd
  0
BLOCK
  5
1C
330
1B
100
AcDbEntity
 67
     1
  8
0
100
AcDbBlockBegin
  2
*PAPER_SPACE
  1

  0
ENDBLK
  5
1D
330
1B
100
AcDbEntity
 67
     1
  8
0
100
AcDbBlockEnd
  0
ENDSEC
  0
SECTION
  2
ENTITIES
  0
SPLINE
  5
100
100
AcDbEntity
  8
Layer_1
 62
7
100
AcDbSpline
 70
8
 71
3
 72
8
 73
4
 74
0
 40
0
 40
0
 40
0
 40
0
 40
1
 40
1
 40
1
 40
1
 10
46.038014
 20
141.536500
 30
0.0
 10
45.954024
 20
142.305360
 30
0.0
 10
45.981964
 20
142.343210
 30
0.0
 10
47.325790
 20
142.793270
 30
0.0
  0
SPLINE
  5
101
100
AcDbEntity
  8
Layer_1
 62
7
100
AcDbSpline
 70
8
 71
3
 72
8
 73
4
 74
0
 40
0
 40
0
 40
0
 40
0
 40
1
 40
1
 40
1
 40
1
 10
47.325790
 20
142.793270
 30
0.0
 10
49.537424
 20
143.543240
 30
0.0
 10
50.741360
 20
144.706020
 30
0.0
 10
51.133310
 20
146.431060
 30
0.0
  0
SPLINE
  5
102
100
AcDbEntity
  8
Layer_1
 62
7
100
AcDbSpline
 70
8
 71
3
 72
8
 73
4
 74
0
 40
0
 40
0
 40
0
 40
0
 40
1
 40
1
 40
1
 40
1
 10
51.133310
 20
146.431060
 30
0.0
 10
51.301288
 20
147.162410
 30
0.0
 10
51.273199
 20
147.218850
 30
0.0
 10
50.685275
 20
147.218850
 30
0.0
  0
SPLINE
  5
103
100
AcDbEntity
  8
Layer_1
 62
7
100
AcDbSpline
 70
8
 71
3
 72
8
 73
4
 74
0
 40
0
 40
0
 40
0
 40
0
 40
1
 40
1
 40
1
 40
1
 10
50.685275
 20
147.218850
 30
0.0
 10
49.453514
 20
147.218850
 30
0.0
 10
47.913824
 20
146.824710
 30
0.0
 10
46.961988
 20
146.243380
 30
0.0
  0
LWPOLYLINE
  5
104
100
AcDbEntity
  8
Layer_1
 62
7
100
AcDbPolyline
 90
3
 70
0
 10
50.265661
 20
140.692660
 30
0.0
 10
46.122244
 20
140.749160
 30
0.0
 10
46.038014
 20
141.536500
 30
0.0
  0
SPLINE
  5
105
100
AcDbEntity
  8
Layer_1
 62
7
100
AcDbSpline
 70
8
 71
3
 72
8
 73
4
 74
0
 40
0
 40
0
 40
0
 40
0
 40
1
 40
1
 40
1
 40
1
 10
47.605877
 20
148.981660
 30
0.0
 10
50.685358
 20
150.313100
 30
0.0
 10
52.225233
 20
152.244600
 30
0.0
 10
52.225233
 20
154.813700
 30
0.0
  0
SPLINE
  5
106
100
AcDbEntity
  8
Layer_1
 62
7
100
AcDbSpline
 70
8
 71
3
 72
8
 73
4
 74
0
 40
0
 40
0
 40
0
 40
0
 40
1
 40
1
 40
1
 40
1
 10
52.225233
 20
154.813700
 30
0.0
 10
52.225233
 20
157.420180
 30
0.0
 10
50.545121
 20
160.026990
 30
0.0
 10
46.877756
 20
163.102280
 30
0.0
  0
SPLINE
  5
107
100
AcDbEntity
  8
Layer_1
 62
7
100
AcDbSpline
 70
8
 71
3
 72
8
 73
4
 74
0
 40
0
 40
0
 40
0
 40
0
 40
1
 40
1
 40
1
 40
1
 10
46.877756
 20
163.102280
 30
0.0
 10
45.226011
 20
164.471020
 30
0.0
 10
44.526191
 20
164.771240
 30
0.0
 10
43.490366
 20
164.471200
 30
0.0
  0
SPLINE
  5
108
100
AcDbEntity
  8
Layer_1
 62
7
100
AcDbSpline
 70
8
 71
3
 72
8
 73
4
 74
0
 40
0
 40
0
 40
0
 40
0
 40
1
 40
1
 40
1
 40
1
 10
43.490366
 20
164.471200
 30
0.0
 10
42.538529
 20
164.208660
 30
0.0
 10
39.095120
 20
161.207960
 30
0.0
 10
37.863319
 20
159.614190
 30
0.0
  0
SPLINE
  5
109
100
AcDbEntity
  8
Layer_1
 62
7
100
AcDbSpline
 70
8
 71
3
 72
8
 73
4
 74
0
 40
0
 40
0
 40
0
 40
0
 40
1
 40
1
 40
1
 40
1
 10
37.863319
 20
159.614190
 30
0.0
 10
34.755842
 20
155.469990
 30
0.0
 10
35.847598
 20
151.288180
 30
0.0
 10
40.606821
 20
149.187880
 30
0.0
  0
SPLINE
  5
10a
100
AcDbEntity
  8
Layer_1
 62
7
100
AcDbSpline
 70
8
 71
3
 72
8
 73
4
 74
0
 40
0
 40
0
 40
0
 40
0
 40
1
 40
1
 40
1
 40
1
 10
40.606821
 20
149.187880
 30
0.0
 10
42.482497
 20
148.362760
 30
0.0
 10
42.622718
 20
148.193930
 30
0.0
 10
42.622718
 20
146.581200
 30
0.0
  0
LWPOLYLINE
  5
10b
100
AcDbEntity
  8
Layer_1
 62
7
100
AcDbPolyline
 90
5
 70
0
 10
46.961988
 20
146.243380
 30
0.0
 10
45.982203
 20
145.680800
 30
0.0
 10
45.982203
 20
146.975090
 30
0.0
 10
45.982203
 20
148.268940
 30
0.0
 10
47.605877
 20
148.981660
 30
0.0
  0
SPLINE
  5
10c
100
AcDbEntity
  8
Layer_1
 62
7
100
AcDbSpline
 70
8
 71
3
 72
8
 73
4
 74
0
 40
0
 40
0
 40
0
 40
0
 40
1
 40
1
 40
1
 40
1
 10
41.726649
 20
146.056150
 30
0.0
 10
40.634831
 20
146.731240
 30
0.0
 10
39.067123
 20
147.218850
 30
0.0
 10
37.863319
 20
147.218850
 30
0.0
  0
SPLINE
  5
10d
100
AcDbEntity
  8
Layer_1
 62
7
100
AcDbSpline
 70
8
 71
3
 72
8
 73
4
 74
0
 40
0
 40
0
 40
0
 40
0
 40
1
 40
1
 40
1
 40
1
 10
37.863319
 20
147.218850
 30
0.0
 10
37.135454
 20
147.218850
 30
0.0
 10
37.023060
 20
147.143950
 30
0.0
 10
37.023060
 20
146.731340
 30
0.0
  0
SPLINE
  5
10e
100
AcDbEntity
  8
Layer_1
 62
7
100
AcDbSpline
 70
8
 71
3
 72
8
 73
4
 74
0
 40
0
 40
0
 40
0
 40
0
 40
1
 40
1
 40
1
 40
1
 10
37.023060
 20
146.731340
 30
0.0
 10
37.023060
 20
145.193620
 30
0.0
 10
38.871128
 20
143.393220
 30
0.0
 10
41.082761
 20
142.793270
 30
0.0
  0
SPLINE
  5
10f
100
AcDbEntity
  8
Layer_1
 62
7
100
AcDbSpline
 70
8
 71
3
 72
8
 73
4
 74
0
 40
0
 40
0
 40
0
 40
0
 40
1
 40
1
 40
1
 40
1
 10
41.082761
 20
142.793270
 30
0.0
 10
42.314521
 20
142.436970
 30
0.0
 10
42.342632
 20
142.417880
 30
0.0
 10
42.342632
 20
141.536500
 30
0.0
  0
LWPOLYLINE
  5
110
100
AcDbEntity
  8
Layer_1
 62
7
100
AcDbPolyline
 90
3
 70
0
 10
42.622718
 20
146.581200
 30
0.0
 10
42.622718
 20
145.456030
 30
0.0
 10
41.726649
 20
146.056150
 30
0.0
  0
SPLINE
  5
111
100
AcDbEntity
  8
Layer_1
 62
7
100
AcDbSpline
 70
8
 71
3
 72
8
 73
4
 74
0
 40
0
 40
0
 40
0
 40
0
 40
1
 40
1
 40
1
 40
1
 10
23.921013
 20
141.517460
 30
0.0
 10
23.837023
 20
142.267570
 30
0.0
 10
23.892893
 20
142.324140
 30
0.0
 10
25.068746
 20
142.774210
 30
0.0
  0
SPLINE
  5
112
100
AcDbEntity
  8
Layer_1
 62
7
100
AcDbSpline
 70
8
 71
3
 72
8
 73
4
 74
0
 40
0
 40
0
 40
0
 40
0
 40
1
 40
1
 40
1
 40
1
 10
25.068746
 20
142.774210
 30
0.0
 10
27.784274
 20
143.843110
 30
0.0
 10
29.799999
 20
145.868620
 30
0.0
 10
30.191948
 20
147.912520
 30
0.0
  0
SPLINE
  5
113
100
AcDbEntity
  8
Layer_1
 62
7
100
AcDbSpline
 70
8
 71
3
 72
8
 73
4
 74
0
 40
0
 40
0
 40
0
 40
0
 40
1
 40
1
 40
1
 40
1
 10
30.191948
 20
147.912520
 30
0.0
 10
30.387883
 20
149.037680
 30
0.0
 10
29.996294
 20
150.687680
 30
0.0
 10
29.128447
 20
152.225050
 30
0.0
  0
SPLINE
  5
114
100
AcDbEntity
  8
Layer_1
 62
7
100
AcDbSpline
 70
8
 71
3
 72
8
 73
4
 74
0
 40
0
 40
0
 40
0
 40
0
 40
1
 40
1
 40
1
 40
1
 10
29.128447
 20
152.225050
 30
0.0
 10
27.952639
 20
154.325350
 30
0.0
 10
23.053200
 20
158.657210
 30
0.0
 10
21.821399
 20
158.657210
 30
0.0
  0
SPLINE
  5
115
100
AcDbEntity
  8
Layer_1
 62
7
100
AcDbSpline
 70
8
 71
3
 72
8
 73
4
 74
0
 40
0
 40
0
 40
0
 40
0
 40
1
 40
1
 40
1
 40
1
 10
21.821399
 20
158.657210
 30
0.0
 10
21.121530
 20
158.657210
 30
0.0
 10
19.917319
 20
157.813330
 30
0.0
 10
18.097595
 20
156.125590
 30
0.0
  0
SPLINE
  5
116
100
AcDbEntity
  8
Layer_1
 62
7
100
AcDbSpline
 70
8
 71
3
 72
8
 73
4
 74
0
 40
0
 40
0
 40
0
 40
0
 40
1
 40
1
 40
1
 40
1
 10
18.097595
 20
156.125590
 30
0.0
 10
14.038281
 20
152.281650
 30
0.0
 10
12.862252
 20
148.699950
 30
0.0
 10
14.793921
 20
145.905950
 30
0.0
  0
SPLINE
  5
117
100
AcDbEntity
  8
Layer_1
 62
7
100
AcDbSpline
 70
8
 71
3
 72
8
 73
4
 74
0
 40
0
 40
0
 40
0
 40
0
 40
1
 40
1
 40
1
 40
1
 10
14.793921
 20
145.905950
 30
0.0
 10
15.745758
 20
144.518260
 30
0.0
 10
16.865979
 20
143.655760
 30
0.0
 10
18.517725
 20
142.999420
 30
0.0
  0
SPLINE
  5
118
100
AcDbEntity
  8
Layer_1
 62
7
100
AcDbSpline
 70
8
 71
3
 72
8
 73
4
 74
0
 40
0
 40
0
 40
0
 40
0
 40
1
 40
1
 40
1
 40
1
 10
18.517725
 20
142.999420
 30
0.0
 10
19.889467
 20
142.455590
 30
0.0
 10
19.945545
 20
142.418060
 30
0.0
 10
19.945545
 20
141.555430
 30
0.0
  0
LWPOLYLINE
  5
119
100
AcDbEntity
  8
Layer_1
 62
7
100
AcDbPolyline
 90
5
 70
0
 10
42.342632
 20
141.536500
 30
0.0
 10
42.342632
 20
140.655100
 30
0.0
 10
33.187635
 20
140.692600
 30
0.0
 10
24.004733
 20
140.749100
 30
0.0
 10
23.921013
 20
141.517460
 30
0.0
  0
SPLINE
  5
11a
100
AcDbEntity
  8
Layer_1
 62
7
100
AcDbSpline
 70
8
 71
3
 72
8
 73
4
 74
0
 40
0
 40
0
 40
0
 40
0
 40
1
 40
1
 40
1
 40
1
 10
14.653878
 20
140.655040
 30
0.0
 10
9.474753
 20
140.655040
 30
0.0
 10
9.334623
 20
140.636340
 30
0.0
 10
8.914693
 20
140.242590
 30
0.0
  0
SPLINE
  5
11b
100
AcDbEntity
  8
Layer_1
 62
7
100
AcDbSpline
 70
8
 71
3
 72
8
 73
4
 74
0
 40
0
 40
0
 40
0
 40
0
 40
1
 40
1
 40
1
 40
1
 10
8.914693
 20
140.242590
 30
0.0
 10
8.158823
 20
139.530140
 30
0.0
 10
8.466789
 20
137.635380
 30
0.0
 10
9.390633
 20
137.241570
 30
0.0
  0
SPLINE
  5
11c
100
AcDbEntity
  8
Layer_1
 62
7
100
AcDbSpline
 70
8
 71
3
 72
8
 73
4
 74
0
 40
0
 40
0
 40
0
 40
0
 40
1
 40
1
 40
1
 40
1
 10
9.390633
 20
137.241570
 30
0.0
 10
9.586600
 20
137.166570
 30
0.0
 10
52.955144
 20
137.092320
 30
0.0
 10
105.754260
 20
137.092320
 30
0.0
  0
SPLINE
  5
11d
100
AcDbEntity
  8
Layer_1
 62
7
100
AcDbSpline
 70
8
 71
3
 72
8
 73
4
 74
0
 40
0
 40
0
 40
0
 40
0
 40
1
 40
1
 40
1
 40
1
 10
105.754260
 20
137.092320
 30
0.0
 10
192.231450
 20
137.092320
 30
0.0
 10
201.865950
 20
137.129220
 30
0.0
 10
202.425880
 20
137.391710
 30
0.0
  0
SPLINE
  5
11e
100
AcDbEntity
  8
Layer_1
 62
7
100
AcDbSpline
 70
8
 71
3
 72
8
 73
4
 74
0
 40
0
 40
0
 40
0
 40
0
 40
1
 40
1
 40
1
 40
1
 10
202.425880
 20
137.391710
 30
0.0
 10
202.957810
 20
137.635500
 30
0.0
 10
203.041860
 20
137.842340
 30
0.0
 10
203.041860
 20
138.948750
 30
0.0
  0
SPLINE
  5
11f
100
AcDbEntity
  8
Layer_1
 62
7
100
AcDbSpline
 70
8
 71
3
 72
8
 73
4
 74
0
 40
0
 40
0
 40
0
 40
0
 40
1
 40
1
 40
1
 40
1
 10
203.041860
 20
138.948750
 30
0.0
 10
203.041860
 20
139.792480
 30
0.0
 10
202.901510
 20
140.298800
 30
0.0
 10
202.677540
 20
140.448820
 30
0.0
  0
SPLINE
  5
120
100
AcDbEntity
  8
Layer_1
 62
7
100
AcDbSpline
 70
8
 71
3
 72
8
 73
4
 74
0
 40
0
 40
0
 40
0
 40
0
 40
1
 40
1
 40
1
 40
1
 10
202.677540
 20
140.448820
 30
0.0
 10
202.425580
 20
140.561330
 30
0.0
 10
200.326250
 20
140.673820
 30
0.0
 10
196.994680
 20
140.692580
 30
0.0
  0
LWPOLYLINE
  5
121
100
AcDbEntity
  8
Layer_1
 62
7
100
AcDbPolyline
 90
3
 70
0
 10
19.945545
 20
141.555430
 30
0.0
 10
19.945545
 20
140.655040
 30
0.0
 10
14.653878
 20
140.655040
 30
0.0
  0
SPLINE
  5
122
100
AcDbEntity
  8
Layer_1
 62
7
100
AcDbSpline
 70
8
 71
3
 72
8
 73
4
 74
0
 40
0
 40
0
 40
0
 40
0
 40
1
 40
1
 40
1
 40
1
 10
191.619320
 20
141.535930
 30
0.0
 10
191.535320
 20
142.286030
 30
0.0
 10
191.590920
 20
142.342570
 30
0.0
 10
192.682820
 20
142.717620
 30
0.0
  0
SPLINE
  5
123
100
AcDbEntity
  8
Layer_1
 62
7
100
AcDbSpline
 70
8
 71
3
 72
8
 73
4
 74
0
 40
0
 40
0
 40
0
 40
0
 40
1
 40
1
 40
1
 40
1
 10
192.682820
 20
142.717620
 30
0.0
 10
195.314480
 20
143.617750
 30
0.0
 10
197.190710
 20
145.511610
 30
0.0
 10
197.778640
 20
147.836940
 30
0.0
  0
SPLINE
  5
124
100
AcDbEntity
  8
Layer_1
 62
7
100
AcDbSpline
 70
8
 71
3
 72
8
 73
4
 74
0
 40
0
 40
0
 40
0
 40
0
 40
1
 40
1
 40
1
 40
1
 10
197.778640
 20
147.836940
 30
0.0
 10
198.394160
 20
150.311940
 30
0.0
 10
196.742170
 20
153.368860
 30
0.0
 10
193.075050
 20
156.650570
 30
0.0
  0
SPLINE
  5
125
100
AcDbEntity
  8
Layer_1
 62
7
100
AcDbSpline
 70
8
 71
3
 72
8
 73
4
 74
0
 40
0
 40
0
 40
0
 40
0
 40
1
 40
1
 40
1
 40
1
 10
193.075050
 20
156.650570
 30
0.0
 10
190.135430
 20
159.256840
 30
0.0
 10
189.631540
 20
159.258460
 30
0.0
 10
186.551930
 20
156.575470
 30
0.0
  0
SPLINE
  5
126
100
AcDbEntity
  8
Layer_1
 62
7
100
AcDbSpline
 70
8
 71
3
 72
8
 73
4
 74
0
 40
0
 40
0
 40
0
 40
0
 40
1
 40
1
 40
1
 40
1
 10
186.551930
 20
156.575470
 30
0.0
 10
184.060260
 20
154.437660
 30
0.0
 10
182.827700
 20
152.956140
 30
0.0
 10
182.044200
 20
151.193400
 30
0.0
  0
SPLINE
  5
127
100
AcDbEntity
  8
Layer_1
 62
7
100
AcDbSpline
 70
8
 71
3
 72
8
 73
4
 74
0
 40
0
 40
0
 40
0
 40
0
 40
1
 40
1
 40
1
 40
1
 10
182.044200
 20
151.193400
 30
0.0
 10
180.532390
 20
147.855770
 30
0.0
 10
182.436740
 20
144.479950
 30
0.0
 10
186.747780
 20
142.792210
 30
0.0
  0
SPLINE
  5
128
100
AcDbEntity
  8
Layer_1
 62
7
100
AcDbSpline
 70
8
 71
3
 72
8
 73
4
 74
0
 40
0
 40
0
 40
0
 40
0
 40
1
 40
1
 40
1
 40
1
 10
186.747780
 20
142.792210
 30
0.0
 10
187.895630
 20
142.342150
 30
0.0
 10
187.951600
 20
142.286000
 30
0.0
 10
187.867610
 20
141.535900
 30
0.0
  0
LWPOLYLINE
  5
129
100
AcDbEntity
  8
Layer_1
 62
7
100
AcDbPolyline
 90
3
 70
0
 10
196.994680
 20
140.692580
 30
0.0
 10
191.703020
 20
140.748580
 30
0.0
 10
191.619320
 20
141.535930
 30
0.0
  0
SPLINE
  5
12a
100
AcDbEntity
  8
Layer_1
 62
7
100
AcDbSpline
 70
8
 71
3
 72
8
 73
4
 74
0
 40
0
 40
0
 40
0
 40
0
 40
1
 40
1
 40
1
 40
1
 10
169.501850
 20
141.554890
 30
0.0
 10
169.417850
 20
142.323740
 30
0.0
 10
169.473950
 20
142.361220
 30
0.0
 10
170.425820
 20
142.642520
 30
0.0
  0
SPLINE
  5
12b
100
AcDbEntity
  8
Layer_1
 62
7
100
AcDbSpline
 70
8
 71
3
 72
8
 73
4
 74
0
 40
0
 40
0
 40
0
 40
0
 40
1
 40
1
 40
1
 40
1
 10
170.425820
 20
142.642520
 30
0.0
 10
172.805510
 20
143.298860
 30
0.0
 10
174.765610
 20
145.136290
 30
0.0
 10
174.765610
 20
146.692750
 30
0.0
  0
SPLINE
  5
12c
100
AcDbEntity
  8
Layer_1
 62
7
100
AcDbSpline
 70
8
 71
3
 72
8
 73
4
 74
0
 40
0
 40
0
 40
0
 40
0
 40
1
 40
1
 40
1
 40
1
 10
174.765610
 20
146.692750
 30
0.0
 10
174.765610
 20
147.105310
 30
0.0
 10
174.625470
 20
147.218240
 30
0.0
 10
174.177530
 20
147.218240
 30
0.0
  0
SPLINE
  5
12d
100
AcDbEntity
  8
Layer_1
 62
7
100
AcDbSpline
 70
8
 71
3
 72
8
 73
4
 74
0
 40
0
 40
0
 40
0
 40
0
 40
1
 40
1
 40
1
 40
1
 10
174.177530
 20
147.218240
 30
0.0
 10
172.973680
 20
147.218240
 30
0.0
 10
171.293800
 20
146.749040
 30
0.0
 10
170.397920
 20
146.167700
 30
0.0
  0
LWPOLYLINE
  5
12e
100
AcDbEntity
  8
Layer_1
 62
7
100
AcDbPolyline
 90
5
 70
0
 10
187.867610
 20
141.535900
 30
0.0
 10
187.783910
 20
140.748550
 30
0.0
 10
178.684720
 20
140.748550
 30
0.0
 10
169.586050
 20
140.748550
 30
0.0
 10
169.501850
 20
141.554890
 30
0.0
  0
SPLINE
  5
12f
100
AcDbEntity
  8
Layer_1
 62
7
100
AcDbSpline
 70
8
 71
3
 72
8
 73
4
 74
0
 40
0
 40
0
 40
0
 40
0
 40
1
 40
1
 40
1
 40
1
 10
170.929670
 20
148.962060
 30
0.0
 10
172.945410
 20
149.843430
 30
0.0
 10
174.037680
 20
150.668510
 30
0.0
 10
174.933560
 20
151.981190
 30
0.0
  0
SPLINE
  5
130
100
AcDbEntity
  8
Layer_1
 62
7
100
AcDbSpline
 70
8
 71
3
 72
8
 73
4
 74
0
 40
0
 40
0
 40
0
 40
0
 40
1
 40
1
 40
1
 40
1
 10
174.933560
 20
151.981190
 30
0.0
 10
176.921300
 20
154.925350
 30
0.0
 10
175.633180
 20
158.582590
 30
0.0
 10
171.209750
 20
162.501550
 30
0.0
  0
SPLINE
  5
131
100
AcDbEntity
  8
Layer_1
 62
7
100
AcDbSpline
 70
8
 71
3
 72
8
 73
4
 74
0
 40
0
 40
0
 40
0
 40
0
 40
1
 40
1
 40
1
 40
1
 10
171.209750
 20
162.501550
 30
0.0
 10
168.942450
 20
164.508090
 30
0.0
 10
168.130380
 20
164.883150
 30
0.0
 10
167.010530
 20
164.470600
 30
0.0
  0
SPLINE
  5
132
100
AcDbEntity
  8
Layer_1
 62
7
100
AcDbSpline
 70
8
 71
3
 72
8
 73
4
 74
0
 40
0
 40
0
 40
0
 40
0
 40
1
 40
1
 40
1
 40
1
 10
167.010530
 20
164.470600
 30
0.0
 10
165.274750
 20
163.814260
 30
0.0
 10
161.466890
 20
159.894770
 30
0.0
 10
160.291040
 20
157.531940
 30
0.0
  0
SPLINE
  5
133
100
AcDbEntity
  8
Layer_1
 62
7
100
AcDbSpline
 70
8
 71
3
 72
8
 73
4
 74
0
 40
0
 40
0
 40
0
 40
0
 40
1
 40
1
 40
1
 40
1
 10
160.291040
 20
157.531940
 30
0.0
 10
158.611260
 20
154.212730
 30
0.0
 10
160.459190
 20
150.593460
 30
0.0
 10
164.686640
 20
148.849460
 30
0.0
  0
SPLINE
  5
134
100
AcDbEntity
  8
Layer_1
 62
7
100
AcDbSpline
 70
8
 71
3
 72
8
 73
4
 74
0
 40
0
 40
0
 40
0
 40
0
 40
1
 40
1
 40
1
 40
1
 10
164.686640
 20
148.849460
 30
0.0
 10
166.030470
 20
148.305630
 30
0.0
 10
166.086550
 20
148.230530
 30
0.0
 10
166.086550
 20
146.767820
 30
0.0
  0
LWPOLYLINE
  5
135
100
AcDbEntity
  8
Layer_1
 62
7
100
AcDbPolyline
 90
5
 70
0
 10
170.397920
 20
146.167700
 30
0.0
 10
169.446040
 20
145.586580
 30
0.0
 10
169.446040
 20
146.955500
 30
0.0
 10
169.446040
 20
148.324420
 30
0.0
 10
170.929670
 20
148.962060
 30
0.0
  0
SPLINE
  5
136
100
AcDbEntity
  8
Layer_1
 62
7
100
AcDbSpline
 70
8
 71
3
 72
8
 73
4
 74
0
 40
0
 40
0
 40
0
 40
0
 40
1
 40
1
 40
1
 40
1
 10
165.190480
 20
146.055540
 30
0.0
 10
164.098630
 20
146.730630
 30
0.0
 10
162.531000
 20
147.218240
 30
0.0
 10
161.327150
 20
147.218240
 30
0.0
  0
SPLINE
  5
137
100
AcDbEntity
  8
Layer_1
 62
7
100
AcDbSpline
 70
8
 71
3
 72
8
 73
4
 74
0
 40
0
 40
0
 40
0
 40
0
 40
1
 40
1
 40
1
 40
1
 10
161.327150
 20
147.218240
 30
0.0
 10
160.487260
 20
147.218240
 30
0.0
 10
160.459390
 20
147.199140
 30
0.0
 10
160.655360
 20
146.524070
 30
0.0
  0
SPLINE
  5
138
100
AcDbEntity
  8
Layer_1
 62
7
100
AcDbSpline
 70
8
 71
3
 72
8
 73
4
 74
0
 40
0
 40
0
 40
0
 40
0
 40
1
 40
1
 40
1
 40
1
 10
160.655360
 20
146.524070
 30
0.0
 10
161.131300
 20
144.761310
 30
0.0
 10
162.867070
 20
143.261110
 30
0.0
 10
165.106770
 20
142.623530
 30
0.0
  0
SPLINE
  5
139
100
AcDbEntity
  8
Layer_1
 62
7
100
AcDbSpline
 70
8
 71
3
 72
8
 73
4
 74
0
 40
0
 40
0
 40
0
 40
0
 40
1
 40
1
 40
1
 40
1
 10
165.106770
 20
142.623530
 30
0.0
 10
166.058650
 20
142.360980
 30
0.0
 10
166.114720
 20
142.305000
 30
0.0
 10
166.030740
 20
141.554890
 30
0.0
  0
LWPOLYLINE
  5
13a
100
AcDbEntity
  8
Layer_1
 62
7
100
AcDbPolyline
 90
3
 70
0
 10
166.086550
 20
146.767820
 30
0.0
 10
166.086550
 20
145.455430
 30
0.0
 10
165.190480
 20
146.055540
 30
0.0
  0
LWPOLYLINE
  5
13b
100
AcDbEntity
  8
Layer_1
 62
7
100
AcDbPolyline
 90
4
 70
0
 10
166.030740
 20
141.554890
 30
0.0
 10
165.946540
 20
140.748550
 30
0.0
 10
161.747310
 20
140.748550
 30
0.0
 10
50.265661
 20
140.692660
 30
0.0
  0
SPLINE
  5
13c
100
AcDbEntity
  8
Layer_1
 62
7
100
AcDbSpline
 70
8
 71
3
 72
8
 73
4
 74
0
 40
0
 40
0
 40
0
 40
0
 40
1
 40
1
 40
1
 40
1
 10
45.730025
 20
159.651330
 30
0.0
 10
46.681862
 20
158.713700
 30
0.0
 10
47.633816
 20
157.475990
 30
0.0
 10
47.941777
 20
156.800890
 30
0.0
  0
SPLINE
  5
13d
100
AcDbEntity
  8
Layer_1
 62
7
100
AcDbSpline
 70
8
 71
3
 72
8
 73
4
 74
0
 40
0
 40
0
 40
0
 40
0
 40
1
 40
1
 40
1
 40
1
 10
47.941777
 20
156.800890
 30
0.0
 10
48.249697
 20
156.144550
 30
0.0
 10
48.501949
 20
155.300630
 30
0.0
 10
48.501949
 20
154.925920
 30
0.0
  0
SPLINE
  5
13e
100
AcDbEntity
  8
Layer_1
 62
7
100
AcDbSpline
 70
8
 71
3
 72
8
 73
4
 74
0
 40
0
 40
0
 40
0
 40
0
 40
1
 40
1
 40
1
 40
1
 10
48.501949
 20
154.925920
 30
0.0
 10
48.501949
 20
153.875780
 30
0.0
 10
47.773603
 20
152.450460
 30
0.0
 10
46.877759
 20
151.719110
 30
0.0
  0
LWPOLYLINE
  5
13f
100
AcDbEntity
  8
Layer_1
 62
7
100
AcDbPolyline
 90
2
 70
0
 10
44.078446
 20
161.301540
 30
0.0
 10
45.730025
 20
159.651330
 30
0.0
  0
SPLINE
  5
140
100
AcDbEntity
  8
Layer_1
 62
7
100
AcDbSpline
 70
8
 71
3
 72
8
 73
4
 74
0
 40
0
 40
0
 40
0
 40
0
 40
1
 40
1
 40
1
 40
1
 10
45.925879
 20
153.613070
 30
0.0
 10
45.813893
 20
155.844640
 30
0.0
 10
45.701966
 20
156.276030
 30
0.0
 10
45.114042
 20
157.063630
 30
0.0
  0
SPLINE
  5
141
100
AcDbEntity
  8
Layer_1
 62
7
100
AcDbSpline
 70
8
 71
3
 72
8
 73
4
 74
0
 40
0
 40
0
 40
0
 40
0
 40
1
 40
1
 40
1
 40
1
 10
45.114042
 20
157.063630
 30
0.0
 10
44.750129
 20
157.569950
 30
0.0
 10
44.330140
 20
157.963590
 30
0.0
 10
44.162162
 20
157.963590
 30
0.0
  0
SPLINE
  5
142
100
AcDbEntity
  8
Layer_1
 62
7
100
AcDbSpline
 70
8
 71
3
 72
8
 73
4
 74
0
 40
0
 40
0
 40
0
 40
0
 40
1
 40
1
 40
1
 40
1
 10
44.162162
 20
157.963590
 30
0.0
 10
44.022180
 20
157.963590
 30
0.0
 10
43.630381
 20
157.682240
 30
0.0
 10
43.322420
 20
157.325940
 30
0.0
  0
SPLINE
  5
143
100
AcDbEntity
  8
Layer_1
 62
7
100
AcDbSpline
 70
8
 71
3
 72
8
 73
4
 74
0
 40
0
 40
0
 40
0
 40
0
 40
1
 40
1
 40
1
 40
1
 10
43.322420
 20
157.325940
 30
0.0
 10
42.846522
 20
156.782110
 30
0.0
 10
42.734525
 20
156.275400
 30
0.0
 10
42.678532
 20
153.912910
 30
0.0
  0
LWPOLYLINE
  5
144
100
AcDbEntity
  8
Layer_1
 62
7
100
AcDbPolyline
 90
3
 70
0
 10
46.877759
 20
151.719110
 30
0.0
 10
46.065922
 20
151.081450
 30
0.0
 10
45.925879
 20
153.613070
 30
0.0
  0
SPLINE
  5
145
100
AcDbEntity
  8
Layer_1
 62
7
100
AcDbSpline
 70
8
 71
3
 72
8
 73
4
 74
0
 40
0
 40
0
 40
0
 40
0
 40
1
 40
1
 40
1
 40
1
 10
41.866695
 20
151.568970
 30
0.0
 10
40.522909
 20
152.412830
 30
0.0
 10
39.962845
 20
153.369550
 30
0.0
 10
39.990841
 20
154.906920
 30
0.0
  0
SPLINE
  5
146
100
AcDbEntity
  8
Layer_1
 62
7
100
AcDbSpline
 70
8
 71
3
 72
8
 73
4
 74
0
 40
0
 40
0
 40
0
 40
0
 40
1
 40
1
 40
1
 40
1
 10
39.990841
 20
154.906920
 30
0.0
 10
40.018841
 20
156.632160
 30
0.0
 10
40.718866
 20
157.926400
 30
0.0
 10
42.678532
 20
159.895090
 30
0.0
  0
LWPOLYLINE
  5
147
100
AcDbEntity
  8
Layer_1
 62
7
100
AcDbPolyline
 90
3
 70
0
 10
42.678532
 20
153.912910
 30
0.0
 10
42.566394
 20
151.118990
 30
0.0
 10
41.866695
 20
151.568970
 30
0.0
  0
SPLINE
  5
148
100
AcDbEntity
  8
Layer_1
 62
7
100
AcDbSpline
 70
8
 71
3
 72
8
 73
4
 74
0
 40
0
 40
0
 40
0
 40
0
 40
1
 40
1
 40
1
 40
1
 10
167.822310
 20
161.095320
 30
0.0
 10
167.934300
 20
161.095320
 30
0.0
 10
168.550410
 20
160.589210
 30
0.0
 10
169.194320
 20
159.951610
 30
0.0
  0
SPLINE
  5
149
100
AcDbEntity
  8
Layer_1
 62
7
100
AcDbSpline
 70
8
 71
3
 72
8
 73
4
 74
0
 40
0
 40
0
 40
0
 40
0
 40
1
 40
1
 40
1
 40
1
 10
169.194320
 20
159.951610
 30
0.0
 10
171.014090
 20
158.132620
 30
0.0
 10
171.769940
 20
156.894820
 30
0.0
 10
171.909920
 20
155.338350
 30
0.0
  0
SPLINE
  5
14a
100
AcDbEntity
  8
Layer_1
 62
7
100
AcDbSpline
 70
8
 71
3
 72
8
 73
4
 74
0
 40
0
 40
0
 40
0
 40
0
 40
1
 40
1
 40
1
 40
1
 10
171.909920
 20
155.338350
 30
0.0
 10
172.049900
 20
153.725630
 30
0.0
 10
171.573990
 20
152.638090
 30
0.0
 10
170.314150
 20
151.831720
 30
0.0
  0
LWPOLYLINE
  5
14b
100
AcDbEntity
  8
Layer_1
 62
7
100
AcDbPolyline
 90
2
 70
0
 10
42.678532
 20
159.895090
 30
0.0
 10
44.078446
 20
161.301540
 30
0.0
  0
SPLINE
  5
14c
100
AcDbEntity
  8
Layer_1
 62
7
100
AcDbSpline
 70
8
 71
3
 72
8
 73
4
 74
0
 40
0
 40
0
 40
0
 40
0
 40
1
 40
1
 40
1
 40
1
 10
169.390180
 20
153.819290
 30
0.0
 10
169.306180
 20
155.844580
 30
0.0
 10
169.165900
 20
156.482320
 30
0.0
 10
168.689960
 20
157.213330
 30
0.0
  0
SPLINE
  5
14d
100
AcDbEntity
  8
Layer_1
 62
7
100
AcDbSpline
 70
8
 71
3
 72
8
 73
4
 74
0
 40
0
 40
0
 40
0
 40
0
 40
1
 40
1
 40
1
 40
1
 10
168.689960
 20
157.213330
 30
0.0
 10
168.354000
 20
157.700900
 30
0.0
 10
167.934390
 20
158.094740
 30
0.0
 10
167.794410
 20
158.094740
 30
0.0
  0
SPLINE
  5
14e
100
AcDbEntity
  8
Layer_1
 62
7
100
AcDbSpline
 70
8
 71
3
 72
8
 73
4
 74
0
 40
0
 40
0
 40
0
 40
0
 40
1
 40
1
 40
1
 40
1
 10
167.794410
 20
158.094740
 30
0.0
 10
167.626430
 20
158.094740
 30
0.0
 10
167.206380
 20
157.738360
 30
0.0
 10
166.870430
 20
157.307390
 30
0.0
  0
SPLINE
  5
14f
100
AcDbEntity
  8
Layer_1
 62
7
100
AcDbSpline
 70
8
 71
3
 72
8
 73
4
 74
0
 40
0
 40
0
 40
0
 40
0
 40
1
 40
1
 40
1
 40
1
 10
166.870430
 20
157.307390
 30
0.0
 10
166.310900
 20
156.594790
 30
0.0
 10
166.226300
 20
156.163370
 30
0.0
 10
166.142310
 20
153.819290
 30
0.0
  0
LWPOLYLINE
  5
150
100
AcDbEntity
  8
Layer_1
 62
7
100
AcDbPolyline
 90
3
 70
0
 10
170.314150
 20
151.831720
 30
0.0
 10
169.501800
 20
151.325210
 30
0.0
 10
169.390180
 20
153.819290
 30
0.0
  0
SPLINE
  5
151
100
AcDbEntity
  8
Layer_1
 62
7
100
AcDbSpline
 70
8
 71
3
 72
8
 73
4
 74
0
 40
0
 40
0
 40
0
 40
0
 40
1
 40
1
 40
1
 40
1
 10
165.470520
 20
151.475350
 30
0.0
 10
163.622760
 20
152.563010
 30
0.0
 10
163.062890
 20
155.094640
 30
0.0
 10
164.182740
 20
157.101170
 30
0.0
  0
SPLINE
  5
152
100
AcDbEntity
  8
Layer_1
 62
7
100
AcDbSpline
 70
8
 71
3
 72
8
 73
4
 74
0
 40
0
 40
0
 40
0
 40
0
 40
1
 40
1
 40
1
 40
1
 10
164.182740
 20
157.101170
 30
0.0
 10
165.022640
 20
158.657300
 30
0.0
 10
167.262790
 20
161.095320
 30
0.0
 10
167.822310
 20
161.095320
 30
0.0
  0
LWPOLYLINE
  5
153
100
AcDbEntity
  8
Layer_1
 62
7
100
AcDbPolyline
 90
3
 70
0
 10
166.142310
 20
153.819290
 30
0.0
 10
166.030690
 20
151.137540
 30
0.0
 10
165.470520
 20
151.475350
 30
0.0
  0
SPLINE
  5
154
100
AcDbEntity
  8
Layer_1
 62
7
100
AcDbSpline
 70
8
 71
3
 72
8
 73
4
 74
0
 40
0
 40
0
 40
0
 40
0
 40
1
 40
1
 40
1
 40
1
 10
189.743460
 20
155.282270
 30
0.0
 10
189.771460
 20
155.282270
 30
0.0
 10
190.415370
 20
154.682010
 30
0.0
 10
191.171280
 20
153.931900
 30
0.0
  0
SPLINE
  5
155
100
AcDbEntity
  8
Layer_1
 62
7
100
AcDbSpline
 70
8
 71
3
 72
8
 73
4
 74
0
 40
0
 40
0
 40
0
 40
0
 40
1
 40
1
 40
1
 40
1
 10
191.171280
 20
153.931900
 30
0.0
 10
193.242610
 20
151.850360
 30
0.0
 10
193.942680
 20
150.594080
 30
0.0
 10
193.942680
 20
148.812580
 30
0.0
  0
SPLINE
  5
156
100
AcDbEntity
  8
Layer_1
 62
7
100
AcDbSpline
 70
8
 71
3
 72
8
 73
4
 74
0
 40
0
 40
0
 40
0
 40
0
 40
1
 40
1
 40
1
 40
1
 10
193.942680
 20
148.812580
 30
0.0
 10
193.942680
 20
147.706170
 30
0.0
 10
193.802870
 20
147.143450
 30
0.0
 10
193.410930
 20
146.655870
 30
0.0
  0
SPLINE
  5
157
100
AcDbEntity
  8
Layer_1
 62
7
100
AcDbSpline
 70
8
 71
3
 72
8
 73
4
 74
0
 40
0
 40
0
 40
0
 40
0
 40
1
 40
1
 40
1
 40
1
 10
193.410930
 20
146.655870
 30
0.0
 10
192.823000
 20
145.924520
 30
0.0
 10
191.871120
 20
145.155800
 30
0.0
 10
191.507170
 20
145.155800
 30
0.0
  0
SPLINE
  5
158
100
AcDbEntity
  8
Layer_1
 62
7
100
AcDbSpline
 70
8
 71
3
 72
8
 73
4
 74
0
 40
0
 40
0
 40
0
 40
0
 40
1
 40
1
 40
1
 40
1
 10
191.507170
 20
145.155800
 30
0.0
 10
191.395190
 20
145.155800
 30
0.0
 10
191.283410
 20
146.243380
 30
0.0
 10
191.283410
 20
147.574820
 30
0.0
  0
SPLINE
  5
159
100
AcDbEntity
  8
Layer_1
 62
7
100
AcDbSpline
 70
8
 71
3
 72
8
 73
4
 74
0
 40
0
 40
0
 40
0
 40
0
 40
1
 40
1
 40
1
 40
1
 10
191.283410
 20
147.574820
 30
0.0
 10
191.283410
 20
149.243790
 30
0.0
 10
191.143250
 20
150.237790
 30
0.0
 10
190.863290
 20
150.781620
 30
0.0
  0
SPLINE
  5
15a
100
AcDbEntity
  8
Layer_1
 62
7
100
AcDbSpline
 70
8
 71
3
 72
8
 73
4
 74
0
 40
0
 40
0
 40
0
 40
0
 40
1
 40
1
 40
1
 40
1
 10
190.863290
 20
150.781620
 30
0.0
 10
190.023390
 20
152.394340
 30
0.0
 10
189.435710
 20
152.373620
 30
0.0
 10
188.567820
 20
150.725120
 30
0.0
  0
SPLINE
  5
15b
100
AcDbEntity
  8
Layer_1
 62
7
100
AcDbSpline
 70
8
 71
3
 72
8
 73
4
 74
0
 40
0
 40
0
 40
0
 40
0
 40
1
 40
1
 40
1
 40
1
 10
188.567820
 20
150.725120
 30
0.0
 10
188.175870
 20
149.975020
 30
0.0
 10
188.063460
 20
149.168640
 30
0.0
 10
188.063460
 20
147.349630
 30
0.0
  0
LWPOLYLINE
  5
15c
100
AcDbEntity
  8
Layer_1
 62
7
100
AcDbPolyline
 90
1
 70
1
 10
167.822310
 20
161.095320
 30
0.0
  0
SPLINE
  5
15d
100
AcDbEntity
  8
Layer_1
 62
7
100
AcDbSpline
 70
8
 71
3
 72
8
 73
4
 74
0
 40
0
 40
0
 40
0
 40
0
 40
1
 40
1
 40
1
 40
1
 10
187.167900
 20
145.605810
 30
0.0
 10
185.292550
 20
146.956000
 30
0.0
 10
184.955910
 20
149.262570
 30
0.0
 10
186.299740
 20
151.475380
 30
0.0
  0
SPLINE
  5
15e
100
AcDbEntity
  8
Layer_1
 62
7
100
AcDbSpline
 70
8
 71
3
 72
8
 73
4
 74
0
 40
0
 40
0
 40
0
 40
0
 40
1
 40
1
 40
1
 40
1
 10
186.299740
 20
151.475380
 30
0.0
 10
186.831670
 20
152.356750
 30
0.0
 10
189.463500
 20
155.282290
 30
0.0
 10
189.743460
 20
155.282290
 30
0.0
  0
LWPOLYLINE
  5
15f
100
AcDbEntity
  8
Layer_1
 62
7
100
AcDbPolyline
 90
3
 70
0
 10
188.063460
 20
147.349630
 30
0.0
 10
188.063460
 20
144.949610
 30
0.0
 10
187.167900
 20
145.605810
 30
0.0
  0
LWPOLYLINE
  5
160
100
AcDbEntity
  8
Layer_1
 62
7
100
AcDbPolyline
 90
1
 70
1
 10
189.743460
 20
155.282290
 30
0.0
  0
SPLINE
  5
161
100
AcDbEntity
  8
Layer_1
 62
7
100
AcDbSpline
 70
8
 71
3
 72
8
 73
4
 74
0
 40
0
 40
0
 40
0
 40
0
 40
1
 40
1
 40
1
 40
1
 10
22.633244
 20
154.625640
 30
0.0
 10
22.969160
 20
154.344350
 30
0.0
 10
23.697030
 20
153.594470
 30
0.0
 10
24.256917
 20
152.956870
 30
0.0
  0
SPLINE
  5
162
100
AcDbEntity
  8
Layer_1
 62
7
100
AcDbSpline
 70
8
 71
3
 72
8
 73
4
 74
0
 40
0
 40
0
 40
0
 40
0
 40
1
 40
1
 40
1
 40
1
 10
24.256917
 20
152.956870
 30
0.0
 10
26.944489
 20
149.956800
 30
0.0
 10
26.972055
 20
147.012250
 30
0.0
 10
24.340637
 20
145.362020
 30
0.0
  0
LWPOLYLINE
  5
163
100
AcDbEntity
  8
Layer_1
 62
7
100
AcDbPolyline
 90
2
 70
0
 10
22.017261
 20
155.150680
 30
0.0
 10
22.633244
 20
154.625640
 30
0.0
  0
SPLINE
  5
164
100
AcDbEntity
  8
Layer_1
 62
7
100
AcDbSpline
 70
8
 71
3
 72
8
 73
4
 74
0
 40
0
 40
0
 40
0
 40
0
 40
1
 40
1
 40
1
 40
1
 10
23.528800
 20
147.612350
 30
0.0
 10
23.472810
 20
149.862660
 30
0.0
 10
23.360851
 20
150.443830
 30
0.0
 10
22.884912
 20
151.043920
 30
0.0
  0
SPLINE
  5
165
100
AcDbEntity
  8
Layer_1
 62
7
100
AcDbSpline
 70
8
 71
3
 72
8
 73
4
 74
0
 40
0
 40
0
 40
0
 40
0
 40
1
 40
1
 40
1
 40
1
 10
22.884912
 20
151.043920
 30
0.0
 10
22.101054
 20
152.094070
 30
0.0
 10
21.708927
 20
152.093220
 30
0.0
 10
21.009058
 20
151.024920
 30
0.0
  0
SPLINE
  5
166
100
AcDbEntity
  8
Layer_1
 62
7
100
AcDbSpline
 70
8
 71
3
 72
8
 73
4
 74
0
 40
0
 40
0
 40
0
 40
0
 40
1
 40
1
 40
1
 40
1
 10
21.009058
 20
151.024920
 30
0.0
 10
20.505123
 20
150.293570
 30
0.0
 10
20.365442
 20
149.674920
 30
0.0
 10
20.281453
 20
147.630890
 30
0.0
  0
LWPOLYLINE
  5
167
100
AcDbEntity
  8
Layer_1
 62
7
100
AcDbPolyline
 90
3
 70
0
 10
24.340637
 20
145.362020
 30
0.0
 10
23.640938
 20
144.930590
 30
0.0
 10
23.528800
 20
147.612350
 30
0.0
  0
SPLINE
  5
168
100
AcDbEntity
  8
Layer_1
 62
7
100
AcDbSpline
 70
8
 71
3
 72
8
 73
4
 74
0
 40
0
 40
0
 40
0
 40
0
 40
1
 40
1
 40
1
 40
1
 10
19.357479
 20
145.643300
 30
0.0
 10
17.257831
 20
146.993490
 30
0.0
 10
17.117817
 20
149.562560
 30
0.0
 10
19.049487
 20
152.150080
 30
0.0
  0
SPLINE
  5
169
100
AcDbEntity
  8
Layer_1
 62
7
100
AcDbSpline
 70
8
 71
3
 72
8
 73
4
 74
0
 40
0
 40
0
 40
0
 40
0
 40
1
 40
1
 40
1
 40
1
 10
19.049487
 20
152.150080
 30
0.0
 10
19.693403
 20
152.993950
 30
0.0
 10
20.617391
 20
154.006840
 30
0.0
 10
21.093290
 20
154.419400
 30
0.0
  0
LWPOLYLINE
  5
16a
100
AcDbEntity
  8
Layer_1
 62
7
100
AcDbPolyline
 90
3
 70
0
 10
20.281453
 20
147.630890
 30
0.0
 10
20.169316
 20
145.136800
 30
0.0
 10
19.357479
 20
145.643300
 30
0.0
  0
SPLINE
  5
16b
100
AcDbEntity
  8
Layer_1
 62
7
100
AcDbSpline
 70
8
 71
3
 72
8
 73
4
 74
0
 40
0
 40
0
 40
0
 40
0
 40
1
 40
1
 40
1
 40
1
 10
27.675054
 20
132.569770
 30
0.0
 10
29.614155
 20
132.569770
 30
0.0
 10
31.303372
 20
132.189947
 30
0.0
 10
32.742705
 20
131.430300
 30
0.0
  0
SPLINE
  5
16c
100
AcDbEntity
  8
Layer_1
 62
7
100
AcDbSpline
 70
8
 71
3
 72
8
 73
4
 74
0
 40
0
 40
0
 40
0
 40
0
 40
1
 40
1
 40
1
 40
1
 10
32.742705
 20
131.430300
 30
0.0
 10
34.182038
 20
130.670647
 30
0.0
 10
35.301519
 20
129.551163
 30
0.0
 10
36.101148
 20
128.071850
 30
0.0
  0
SPLINE
  5
16d
100
AcDbEntity
  8
Layer_1
 62
7
100
AcDbSpline
 70
8
 71
3
 72
8
 73
4
 74
0
 40
0
 40
0
 40
0
 40
0
 40
1
 40
1
 40
1
 40
1
 10
36.101148
 20
128.071850
 30
0.0
 10
36.900777
 20
126.592537
 30
0.0
 10
37.300592
 20
124.803367
 30
0.0
 10
37.300592
 20
122.704340
 30
0.0
  0
LWPOLYLINE
  5
16e
100
AcDbEntity
  8
Layer_1
 62
7
100
AcDbPolyline
 90
2
 70
0
 10
21.093290
 20
154.419400
 30
0.0
 10
22.017261
 20
155.150680
 30
0.0
  0
SPLINE
  5
16f
100
AcDbEntity
  8
Layer_1
 62
7
100
AcDbSpline
 70
8
 71
3
 72
8
 73
4
 74
0
 40
0
 40
0
 40
0
 40
0
 40
1
 40
1
 40
1
 40
1
 10
18.049516
 20
122.704340
 30
0.0
 10
18.049516
 20
124.803367
 30
0.0
 10
18.449331
 20
126.592537
 30
0.0
 10
19.248960
 20
128.071850
 30
0.0
  0
SPLINE
  5
170
100
AcDbEntity
  8
Layer_1
 62
7
100
AcDbSpline
 70
8
 71
3
 72
8
 73
4
 74
0
 40
0
 40
0
 40
0
 40
0
 40
1
 40
1
 40
1
 40
1
 10
19.248960
 20
128.071850
 30
0.0
 10
20.048589
 20
129.551163
 30
0.0
 10
21.168070
 20
130.670647
 30
0.0
 10
22.607403
 20
131.430300
 30
0.0
  0
SPLINE
  5
171
100
AcDbEntity
  8
Layer_1
 62
7
100
AcDbSpline
 70
8
 71
3
 72
8
 73
4
 74
0
 40
0
 40
0
 40
0
 40
0
 40
1
 40
1
 40
1
 40
1
 10
22.607403
 20
131.430300
 30
0.0
 10
24.046736
 20
132.189947
 30
0.0
 10
25.735953
 20
132.569770
 30
0.0
 10
27.675054
 20
132.569770
 30
0.0
  0
LWPOLYLINE
  5
172
100
AcDbEntity
  8
Layer_1
 62
7
100
AcDbPolyline
 90
8
 70
0
 10
37.300592
 20
122.704340
 30
0.0
 10
37.300592
 20
111.219670
 30
0.0
 10
32.442844
 20
111.219670
 30
0.0
 10
32.442844
 20
116.257330
 30
0.0
 10
22.847292
 20
116.257330
 30
0.0
 10
22.847292
 20
111.219670
 30
0.0
 10
18.049516
 20
111.219670
 30
0.0
 10
18.049516
 20
122.704340
 30
0.0
  0
LWPOLYLINE
  5
173
100
AcDbEntity
  8
Layer_1
 62
7
100
AcDbPolyline
 90
1
 70
1
 10
27.675054
 20
132.569770
 30
0.0
  0
SPLINE
  5
174
100
AcDbEntity
  8
Layer_1
 62
7
100
AcDbSpline
 70
8
 71
3
 72
8
 73
4
 74
0
 40
0
 40
0
 40
0
 40
0
 40
1
 40
1
 40
1
 40
1
 10
32.442844
 20
123.154130
 30
0.0
 10
32.442844
 20
124.893323
 30
0.0
 10
32.013043
 20
126.202717
 30
0.0
 10
31.153441
 20
127.082310
 30
0.0
  0
SPLINE
  5
175
100
AcDbEntity
  8
Layer_1
 62
7
100
AcDbSpline
 70
8
 71
3
 72
8
 73
4
 74
0
 40
0
 40
0
 40
0
 40
0
 40
1
 40
1
 40
1
 40
1
 10
31.153441
 20
127.082310
 30
0.0
 10
30.293840
 20
127.981897
 30
0.0
 10
29.124382
 20
128.431690
 30
0.0
 10
27.645068
 20
128.431690
 30
0.0
  0
SPLINE
  5
176
100
AcDbEntity
  8
Layer_1
 62
7
100
AcDbSpline
 70
8
 71
3
 72
8
 73
4
 74
0
 40
0
 40
0
 40
0
 40
0
 40
1
 40
1
 40
1
 40
1
 10
27.645068
 20
128.431690
 30
0.0
 10
26.145763
 20
128.431690
 30
0.0
 10
24.966309
 20
127.981897
 30
0.0
 10
24.106708
 20
127.082310
 30
0.0
  0
SPLINE
  5
177
100
AcDbEntity
  8
Layer_1
 62
7
100
AcDbSpline
 70
8
 71
3
 72
8
 73
4
 74
0
 40
0
 40
0
 40
0
 40
0
 40
1
 40
1
 40
1
 40
1
 10
24.106708
 20
127.082310
 30
0.0
 10
23.267097
 20
126.202717
 30
0.0
 10
22.847292
 20
124.893323
 30
0.0
 10
22.847292
 20
123.154130
 30
0.0
  0
LWPOLYLINE
  5
178
100
AcDbEntity
  8
Layer_1
 62
7
100
AcDbPolyline
 90
2
 70
0
 10
32.442844
 20
120.155520
 30
0.0
 10
32.442844
 20
123.154130
 30
0.0
  0
LWPOLYLINE
  5
179
100
AcDbEntity
  8
Layer_1
 62
7
100
AcDbPolyline
 90
3
 70
0
 10
22.847292
 20
123.154130
 30
0.0
 10
22.847292
 20
120.155520
 30
0.0
 10
32.442844
 20
120.155520
 30
0.0
  0
SPLINE
  5
17a
100
AcDbEntity
  8
Layer_1
 62
7
100
AcDbSpline
 70
8
 71
3
 72
8
 73
4
 74
0
 40
0
 40
0
 40
0
 40
0
 40
1
 40
1
 40
1
 40
1
 10
58.410792
 20
113.918410
 30
0.0
 10
58.410792
 20
110.959783
 30
0.0
 10
57.641149
 20
108.760803
 30
0.0
 10
56.101862
 20
107.321470
 30
0.0
  0
SPLINE
  5
17b
100
AcDbEntity
  8
Layer_1
 62
7
100
AcDbSpline
 70
8
 71
3
 72
8
 73
4
 74
0
 40
0
 40
0
 40
0
 40
0
 40
1
 40
1
 40
1
 40
1
 10
56.101862
 20
107.321470
 30
0.0
 10
54.562576
 20
105.882137
 30
0.0
 10
52.313619
 20
105.162470
 30
0.0
 10
49.354990
 20
105.162470
 30
0.0
  0
SPLINE
  5
17c
100
AcDbEntity
  8
Layer_1
 62
7
100
AcDbSpline
 70
8
 71
3
 72
8
 73
4
 74
0
 40
0
 40
0
 40
0
 40
0
 40
1
 40
1
 40
1
 40
1
 10
49.354990
 20
105.162470
 30
0.0
 10
47.795713
 20
105.162470
 30
0.0
 10
46.316398
 20
105.352383
 30
0.0
 10
44.917047
 20
105.732210
 30
0.0
  0
SPLINE
  5
17d
100
AcDbEntity
  8
Layer_1
 62
7
100
AcDbSpline
 70
8
 71
3
 72
8
 73
4
 74
0
 40
0
 40
0
 40
0
 40
0
 40
1
 40
1
 40
1
 40
1
 10
44.917047
 20
105.732210
 30
0.0
 10
43.517696
 20
106.112037
 30
0.0
 10
42.358233
 20
106.661780
 30
0.0
 10
41.438660
 20
107.381440
 30
0.0
  0
LWPOLYLINE
  5
17e
100
AcDbEntity
  8
Layer_1
 62
7
100
AcDbPolyline
 90
2
 70
0
 10
58.410792
 20
127.352190
 30
0.0
 10
58.410792
 20
113.918410
 30
0.0
  0
SPLINE
  5
17f
100
AcDbEntity
  8
Layer_1
 62
7
100
AcDbSpline
 70
8
 71
3
 72
8
 73
4
 74
0
 40
0
 40
0
 40
0
 40
0
 40
1
 40
1
 40
1
 40
1
 10
43.297798
 20
110.739890
 30
0.0
 10
43.977483
 20
110.180150
 30
0.0
 10
44.837084
 20
109.740353
 30
0.0
 10
45.876602
 20
109.420500
 30
0.0
  0
SPLINE
  5
180
100
AcDbEntity
  8
Layer_1
 62
7
100
AcDbSpline
 70
8
 71
3
 72
8
 73
4
 74
0
 40
0
 40
0
 40
0
 40
0
 40
1
 40
1
 40
1
 40
1
 10
45.876602
 20
109.420500
 30
0.0
 10
46.916120
 20
109.080660
 30
0.0
 10
47.955638
 20
108.910740
 30
0.0
 10
48.995157
 20
108.910740
 30
0.0
  0
SPLINE
  5
181
100
AcDbEntity
  8
Layer_1
 62
7
100
AcDbSpline
 70
8
 71
3
 72
8
 73
4
 74
0
 40
0
 40
0
 40
0
 40
0
 40
1
 40
1
 40
1
 40
1
 10
48.995157
 20
108.910740
 30
0.0
 10
50.614406
 20
108.910740
 30
0.0
 10
51.803855
 20
109.280567
 30
0.0
 10
52.563502
 20
110.020220
 30
0.0
  0
SPLINE
  5
182
100
AcDbEntity
  8
Layer_1
 62
7
100
AcDbSpline
 70
8
 71
3
 72
8
 73
4
 74
0
 40
0
 40
0
 40
0
 40
0
 40
1
 40
1
 40
1
 40
1
 10
52.563502
 20
110.020220
 30
0.0
 10
53.343141
 20
110.739887
 30
0.0
 10
53.732960
 20
111.839377
 30
0.0
 10
53.732960
 20
113.318690
 30
0.0
  0
LWPOLYLINE
  5
183
100
AcDbEntity
  8
Layer_1
 62
7
100
AcDbPolyline
 90
2
 70
0
 10
41.438660
 20
107.381440
 30
0.0
 10
43.297798
 20
110.739890
 30
0.0
  0
SPLINE
  5
184
100
AcDbEntity
  8
Layer_1
 62
7
100
AcDbSpline
 70
8
 71
3
 72
8
 73
4
 74
0
 40
0
 40
0
 40
0
 40
0
 40
1
 40
1
 40
1
 40
1
 10
53.732960
 20
114.008370
 30
0.0
 10
52.513525
 20
112.668990
 30
0.0
 10
50.814313
 20
111.999300
 30
0.0
 10
48.635323
 20
111.999300
 30
0.0
  0
SPLINE
  5
185
100
AcDbEntity
  8
Layer_1
 62
7
100
AcDbSpline
 70
8
 71
3
 72
8
 73
4
 74
0
 40
0
 40
0
 40
0
 40
0
 40
1
 40
1
 40
1
 40
1
 10
48.635323
 20
111.999300
 30
0.0
 10
47.156009
 20
111.999300
 30
0.0
 10
45.796639
 20
112.319153
 30
0.0
 10
44.557214
 20
112.958860
 30
0.0
  0
SPLINE
  5
186
100
AcDbEntity
  8
Layer_1
 62
7
100
AcDbSpline
 70
8
 71
3
 72
8
 73
4
 74
0
 40
0
 40
0
 40
0
 40
0
 40
1
 40
1
 40
1
 40
1
 10
44.557214
 20
112.958860
 30
0.0
 10
43.337779
 20
113.618553
 30
0.0
 10
42.368229
 20
114.538127
 30
0.0
 10
41.648562
 20
115.717580
 30
0.0
  0
SPLINE
  5
187
100
AcDbEntity
  8
Layer_1
 62
7
100
AcDbSpline
 70
8
 71
3
 72
8
 73
4
 74
0
 40
0
 40
0
 40
0
 40
0
 40
1
 40
1
 40
1
 40
1
 10
41.648562
 20
115.717580
 30
0.0
 10
40.928896
 20
116.897033
 30
0.0
 10
40.569063
 20
118.256403
 30
0.0
 10
40.569063
 20
119.795690
 30
0.0
  0
SPLINE
  5
188
100
AcDbEntity
  8
Layer_1
 62
7
100
AcDbSpline
 70
8
 71
3
 72
8
 73
4
 74
0
 40
0
 40
0
 40
0
 40
0
 40
1
 40
1
 40
1
 40
1
 10
40.569063
 20
119.795690
 30
0.0
 10
40.569063
 20
121.334977
 30
0.0
 10
40.928896
 20
122.694347
 30
0.0
 10
41.648562
 20
123.873800
 30
0.0
  0
SPLINE
  5
189
100
AcDbEntity
  8
Layer_1
 62
7
100
AcDbSpline
 70
8
 71
3
 72
8
 73
4
 74
0
 40
0
 40
0
 40
0
 40
0
 40
1
 40
1
 40
1
 40
1
 10
41.648562
 20
123.873800
 30
0.0
 10
42.368229
 20
125.053253
 30
0.0
 10
43.337779
 20
125.962830
 30
0.0
 10
44.557214
 20
126.602530
 30
0.0
  0
SPLINE
  5
18a
100
AcDbEntity
  8
Layer_1
 62
7
100
AcDbSpline
 70
8
 71
3
 72
8
 73
4
 74
0
 40
0
 40
0
 40
0
 40
0
 40
1
 40
1
 40
1
 40
1
 10
44.557214
 20
126.602530
 30
0.0
 10
45.796639
 20
127.262230
 30
0.0
 10
47.156009
 20
127.592080
 30
0.0
 10
48.635323
 20
127.592080
 30
0.0
  0
SPLINE
  5
18b
100
AcDbEntity
  8
Layer_1
 62
7
100
AcDbSpline
 70
8
 71
3
 72
8
 73
4
 74
0
 40
0
 40
0
 40
0
 40
0
 40
1
 40
1
 40
1
 40
1
 10
48.635323
 20
127.592080
 30
0.0
 10
50.974239
 20
127.592080
 30
0.0
 10
52.753414
 20
126.822437
 30
0.0
 10
53.972849
 20
125.283150
 30
0.0
  0
LWPOLYLINE
  5
18c
100
AcDbEntity
  8
Layer_1
 62
7
100
AcDbPolyline
 90
2
 70
0
 10
53.732960
 20
113.318690
 30
0.0
 10
53.732960
 20
114.008370
 30
0.0
  0
SPLINE
  5
18d
100
AcDbEntity
  8
Layer_1
 62
7
100
AcDbSpline
 70
8
 71
3
 72
8
 73
4
 74
0
 40
0
 40
0
 40
0
 40
0
 40
1
 40
1
 40
1
 40
1
 10
49.564893
 20
115.837520
 30
0.0
 10
50.804318
 20
115.837520
 30
0.0
 10
51.813850
 20
116.197353
 30
0.0
 10
52.593489
 20
116.917020
 30
0.0
  0
SPLINE
  5
18e
100
AcDbEntity
  8
Layer_1
 62
7
100
AcDbSpline
 70
8
 71
3
 72
8
 73
4
 74
0
 40
0
 40
0
 40
0
 40
0
 40
1
 40
1
 40
1
 40
1
 10
52.593489
 20
116.917020
 30
0.0
 10
53.393118
 20
117.656680
 30
0.0
 10
53.792933
 20
118.616237
 30
0.0
 10
53.792933
 20
119.795690
 30
0.0
  0
SPLINE
  5
18f
100
AcDbEntity
  8
Layer_1
 62
7
100
AcDbSpline
 70
8
 71
3
 72
8
 73
4
 74
0
 40
0
 40
0
 40
0
 40
0
 40
1
 40
1
 40
1
 40
1
 10
53.792933
 20
119.795690
 30
0.0
 10
53.792933
 20
120.975143
 30
0.0
 10
53.393118
 20
121.924703
 30
0.0
 10
52.593489
 20
122.644370
 30
0.0
  0
SPLINE
  5
190
100
AcDbEntity
  8
Layer_1
 62
7
100
AcDbSpline
 70
8
 71
3
 72
8
 73
4
 74
0
 40
0
 40
0
 40
0
 40
0
 40
1
 40
1
 40
1
 40
1
 10
52.593489
 20
122.644370
 30
0.0
 10
51.813850
 20
123.384030
 30
0.0
 10
50.804318
 20
123.753860
 30
0.0
 10
49.564893
 20
123.753860
 30
0.0
  0
SPLINE
  5
191
100
AcDbEntity
  8
Layer_1
 62
7
100
AcDbSpline
 70
8
 71
3
 72
8
 73
4
 74
0
 40
0
 40
0
 40
0
 40
0
 40
1
 40
1
 40
1
 40
1
 10
49.564893
 20
123.753860
 30
0.0
 10
48.325467
 20
123.753860
 30
0.0
 10
47.305939
 20
123.384030
 30
0.0
 10
46.506310
 20
122.644370
 30
0.0
  0
SPLINE
  5
192
100
AcDbEntity
  8
Layer_1
 62
7
100
AcDbSpline
 70
8
 71
3
 72
8
 73
4
 74
0
 40
0
 40
0
 40
0
 40
0
 40
1
 40
1
 40
1
 40
1
 10
46.506310
 20
122.644370
 30
0.0
 10
45.706681
 20
121.924703
 30
0.0
 10
45.306866
 20
120.975143
 30
0.0
 10
45.306866
 20
119.795690
 30
0.0
  0
SPLINE
  5
193
100
AcDbEntity
  8
Layer_1
 62
7
100
AcDbSpline
 70
8
 71
3
 72
8
 73
4
 74
0
 40
0
 40
0
 40
0
 40
0
 40
1
 40
1
 40
1
 40
1
 10
45.306866
 20
119.795690
 30
0.0
 10
45.306866
 20
118.616237
 30
0.0
 10
45.706681
 20
117.656680
 30
0.0
 10
46.506310
 20
116.917020
 30
0.0
  0
SPLINE
  5
194
100
AcDbEntity
  8
Layer_1
 62
7
100
AcDbSpline
 70
8
 71
3
 72
8
 73
4
 74
0
 40
0
 40
0
 40
0
 40
0
 40
1
 40
1
 40
1
 40
1
 10
46.506310
 20
116.917020
 30
0.0
 10
47.305939
 20
116.197353
 30
0.0
 10
48.325467
 20
115.837520
 30
0.0
 10
49.564893
 20
115.837520
 30
0.0
  0
LWPOLYLINE
  5
195
100
AcDbEntity
  8
Layer_1
 62
7
100
AcDbPolyline
 90
3
 70
0
 10
53.972849
 20
125.283150
 30
0.0
 10
53.972849
 20
127.352190
 30
0.0
 10
58.410792
 20
127.352190
 30
0.0
  0
SPLINE
  5
196
100
AcDbEntity
  8
Layer_1
 62
7
100
AcDbSpline
 70
8
 71
3
 72
8
 73
4
 74
0
 40
0
 40
0
 40
0
 40
0
 40
1
 40
1
 40
1
 40
1
 10
67.226729
 20
125.223170
 30
0.0
 10
67.786470
 20
126.002810
 30
0.0
 10
68.536122
 20
126.592537
 30
0.0
 10
69.475686
 20
126.992350
 30
0.0
  0
SPLINE
  5
197
100
AcDbEntity
  8
Layer_1
 62
7
100
AcDbSpline
 70
8
 71
3
 72
8
 73
4
 74
0
 40
0
 40
0
 40
0
 40
0
 40
1
 40
1
 40
1
 40
1
 10
69.475686
 20
126.992350
 30
0.0
 10
70.435241
 20
127.392170
 30
0.0
 10
71.534732
 20
127.592080
 30
0.0
 10
72.774157
 20
127.592080
 30
0.0
  0
LWPOLYLINE
  5
198
100
AcDbEntity
  8
Layer_1
 62
7
100
AcDbPolyline
 90
1
 70
1
 10
49.564893
 20
115.837520
 30
0.0
  0
SPLINE
  5
199
100
AcDbEntity
  8
Layer_1
 62
7
100
AcDbSpline
 70
8
 71
3
 72
8
 73
4
 74
0
 40
0
 40
0
 40
0
 40
0
 40
1
 40
1
 40
1
 40
1
 10
72.774157
 20
123.274080
 30
0.0
 10
72.254398
 20
123.314080
 30
0.0
 10
71.904561
 20
123.334080
 30
0.0
 10
71.724644
 20
123.334080
 30
0.0
  0
SPLINE
  5
19a
100
AcDbEntity
  8
Layer_1
 62
7
100
AcDbSpline
 70
8
 71
3
 72
8
 73
4
 74
0
 40
0
 40
0
 40
0
 40
0
 40
1
 40
1
 40
1
 40
1
 10
71.724644
 20
123.334080
 30
0.0
 10
70.385265
 20
123.334080
 30
0.0
 10
69.335751
 20
122.954257
 30
0.0
 10
68.576103
 20
122.194610
 30
0.0
  0
SPLINE
  5
19b
100
AcDbEntity
  8
Layer_1
 62
7
100
AcDbSpline
 70
8
 71
3
 72
8
 73
4
 74
0
 40
0
 40
0
 40
0
 40
0
 40
1
 40
1
 40
1
 40
1
 10
68.576103
 20
122.194610
 30
0.0
 10
67.816456
 20
121.454950
 30
0.0
 10
67.436632
 20
120.335467
 30
0.0
 10
67.436632
 20
118.836160
 30
0.0
  0
LWPOLYLINE
  5
19c
100
AcDbEntity
  8
Layer_1
 62
7
100
AcDbPolyline
 90
2
 70
0
 10
72.774157
 20
127.592080
 30
0.0
 10
72.774157
 20
123.274080
 30
0.0
  0
LWPOLYLINE
  5
19d
100
AcDbEntity
  8
Layer_1
 62
7
100
AcDbPolyline
 90
6
 70
0
 10
67.436632
 20
118.836160
 30
0.0
 10
67.436632
 20
111.219700
 30
0.0
 10
62.758800
 20
111.219700
 30
0.0
 10
62.758800
 20
127.352220
 30
0.0
 10
67.226729
 20
127.352220
 30
0.0
 10
67.226729
 20
125.223170
 30
0.0
  0
SPLINE
  5
19e
100
AcDbEntity
  8
Layer_1
 62
7
100
AcDbSpline
 70
8
 71
3
 72
8
 73
4
 74
0
 40
0
 40
0
 40
0
 40
0
 40
1
 40
1
 40
1
 40
1
 10
77.901778
 20
129.601140
 30
0.0
 10
77.042177
 20
129.601140
 30
0.0
 10
76.342501
 20
129.851027
 30
0.0
 10
75.802751
 20
130.350800
 30
0.0
  0
SPLINE
  5
19f
100
AcDbEntity
  8
Layer_1
 62
7
100
AcDbSpline
 70
8
 71
3
 72
8
 73
4
 74
0
 40
0
 40
0
 40
0
 40
0
 40
1
 40
1
 40
1
 40
1
 10
75.802751
 20
130.350800
 30
0.0
 10
75.263001
 20
130.850567
 30
0.0
 10
74.993126
 20
131.470277
 30
0.0
 10
74.993126
 20
132.209930
 30
0.0
  0
SPLINE
  5
1a0
100
AcDbEntity
  8
Layer_1
 62
7
100
AcDbSpline
 70
8
 71
3
 72
8
 73
4
 74
0
 40
0
 40
0
 40
0
 40
0
 40
1
 40
1
 40
1
 40
1
 10
74.993126
 20
132.209930
 30
0.0
 10
74.993126
 20
132.949590
 30
0.0
 10
75.263001
 20
133.569303
 30
0.0
 10
75.802751
 20
134.069070
 30
0.0
  0
SPLINE
  5
1a1
100
AcDbEntity
  8
Layer_1
 62
7
100
AcDbSpline
 70
8
 71
3
 72
8
 73
4
 74
0
 40
0
 40
0
 40
0
 40
0
 40
1
 40
1
 40
1
 40
1
 10
75.802751
 20
134.069070
 30
0.0
 10
76.342501
 20
134.568843
 30
0.0
 10
77.042177
 20
134.818730
 30
0.0
 10
77.901778
 20
134.818730
 30
0.0
  0
SPLINE
  5
1a2
100
AcDbEntity
  8
Layer_1
 62
7
100
AcDbSpline
 70
8
 71
3
 72
8
 73
4
 74
0
 40
0
 40
0
 40
0
 40
0
 40
1
 40
1
 40
1
 40
1
 10
77.901778
 20
134.818730
 30
0.0
 10
78.761379
 20
134.818730
 30
0.0
 10
79.461055
 20
134.578840
 30
0.0
 10
80.000805
 20
134.099060
 30
0.0
  0
SPLINE
  5
1a3
100
AcDbEntity
  8
Layer_1
 62
7
100
AcDbSpline
 70
8
 71
3
 72
8
 73
4
 74
0
 40
0
 40
0
 40
0
 40
0
 40
1
 40
1
 40
1
 40
1
 10
80.000805
 20
134.099060
 30
0.0
 10
80.540554
 20
133.619280
 30
0.0
 10
80.810429
 20
133.019557
 30
0.0
 10
80.810429
 20
132.299890
 30
0.0
  0
SPLINE
  5
1a4
100
AcDbEntity
  8
Layer_1
 62
7
100
AcDbSpline
 70
8
 71
3
 72
8
 73
4
 74
0
 40
0
 40
0
 40
0
 40
0
 40
1
 40
1
 40
1
 40
1
 10
80.810429
 20
132.299890
 30
0.0
 10
80.810429
 20
131.520257
 30
0.0
 10
80.540554
 20
130.870560
 30
0.0
 10
80.000805
 20
130.350800
 30
0.0
  0
SPLINE
  5
1a5
100
AcDbEntity
  8
Layer_1
 62
7
100
AcDbSpline
 70
8
 71
3
 72
8
 73
4
 74
0
 40
0
 40
0
 40
0
 40
0
 40
1
 40
1
 40
1
 40
1
 10
80.000805
 20
130.350800
 30
0.0
 10
79.461055
 20
129.851027
 30
0.0
 10
78.761379
 20
129.601140
 30
0.0
 10
77.901778
 20
129.601140
 30
0.0
  0
LWPOLYLINE
  5
1a6
100
AcDbEntity
  8
Layer_1
 62
7
100
AcDbPolyline
 90
4
 70
1
 10
75.562862
 20
127.352190
 30
0.0
 10
80.240694
 20
127.352190
 30
0.0
 10
80.240694
 20
111.219670
 30
0.0
 10
75.562862
 20
111.219670
 30
0.0
  0
LWPOLYLINE
  5
1a7
100
AcDbEntity
  8
Layer_1
 62
7
100
AcDbPolyline
 90
1
 70
1
 10
77.901778
 20
129.601140
 30
0.0
  0
SPLINE
  5
1a8
100
AcDbEntity
  8
Layer_1
 62
7
100
AcDbSpline
 70
8
 71
3
 72
8
 73
4
 74
0
 40
0
 40
0
 40
0
 40
0
 40
1
 40
1
 40
1
 40
1
 10
109.747040
 20
110.979780
 30
0.0
 10
108.047827
 20
110.979780
 30
0.0
 10
106.518537
 20
111.329617
 30
0.0
 10
105.159170
 20
112.029290
 30
0.0
  0
SPLINE
  5
1a9
100
AcDbEntity
  8
Layer_1
 62
7
100
AcDbSpline
 70
8
 71
3
 72
8
 73
4
 74
0
 40
0
 40
0
 40
0
 40
0
 40
1
 40
1
 40
1
 40
1
 10
105.159170
 20
112.029290
 30
0.0
 10
103.819790
 20
112.748957
 30
0.0
 10
102.770277
 20
113.738497
 30
0.0
 10
102.010630
 20
114.997910
 30
0.0
  0
SPLINE
  5
1aa
100
AcDbEntity
  8
Layer_1
 62
7
100
AcDbSpline
 70
8
 71
3
 72
8
 73
4
 74
0
 40
0
 40
0
 40
0
 40
0
 40
1
 40
1
 40
1
 40
1
 10
102.010630
 20
114.997910
 30
0.0
 10
101.250977
 20
116.257330
 30
0.0
 10
100.871150
 20
117.686670
 30
0.0
 10
100.871150
 20
119.285930
 30
0.0
  0
SPLINE
  5
1ab
100
AcDbEntity
  8
Layer_1
 62
7
100
AcDbSpline
 70
8
 71
3
 72
8
 73
4
 74
0
 40
0
 40
0
 40
0
 40
0
 40
1
 40
1
 40
1
 40
1
 10
100.871150
 20
119.285930
 30
0.0
 10
100.871150
 20
120.885183
 30
0.0
 10
101.250977
 20
122.314520
 30
0.0
 10
102.010630
 20
123.573940
 30
0.0
  0
SPLINE
  5
1ac
100
AcDbEntity
  8
Layer_1
 62
7
100
AcDbSpline
 70
8
 71
3
 72
8
 73
4
 74
0
 40
0
 40
0
 40
0
 40
0
 40
1
 40
1
 40
1
 40
1
 10
102.010630
 20
123.573940
 30
0.0
 10
102.770277
 20
124.833353
 30
0.0
 10
103.819790
 20
125.812900
 30
0.0
 10
105.159170
 20
126.512580
 30
0.0
  0
SPLINE
  5
1ad
100
AcDbEntity
  8
Layer_1
 62
7
100
AcDbSpline
 70
8
 71
3
 72
8
 73
4
 74
0
 40
0
 40
0
 40
0
 40
0
 40
1
 40
1
 40
1
 40
1
 10
105.159170
 20
126.512580
 30
0.0
 10
106.518537
 20
127.232247
 30
0.0
 10
108.047827
 20
127.592080
 30
0.0
 10
109.747040
 20
127.592080
 30
0.0
  0
SPLINE
  5
1ae
100
AcDbEntity
  8
Layer_1
 62
7
100
AcDbSpline
 70
8
 71
3
 72
8
 73
4
 74
0
 40
0
 40
0
 40
0
 40
0
 40
1
 40
1
 40
1
 40
1
 10
109.747040
 20
127.592080
 30
0.0
 10
111.446253
 20
127.592080
 30
0.0
 10
112.965550
 20
127.232247
 30
0.0
 10
114.304930
 20
126.512580
 30
0.0
  0
SPLINE
  5
1af
100
AcDbEntity
  8
Layer_1
 62
7
100
AcDbSpline
 70
8
 71
3
 72
8
 73
4
 74
0
 40
0
 40
0
 40
0
 40
0
 40
1
 40
1
 40
1
 40
1
 10
114.304930
 20
126.512580
 30
0.0
 10
115.644310
 20
125.812900
 30
0.0
 10
116.693823
 20
124.833353
 30
0.0
 10
117.453470
 20
123.573940
 30
0.0
  0
SPLINE
  5
1b0
100
AcDbEntity
  8
Layer_1
 62
7
100
AcDbSpline
 70
8
 71
3
 72
8
 73
4
 74
0
 40
0
 40
0
 40
0
 40
0
 40
1
 40
1
 40
1
 40
1
 10
117.453470
 20
123.573940
 30
0.0
 10
118.213117
 20
122.314520
 30
0.0
 10
118.592940
 20
120.885183
 30
0.0
 10
118.592940
 20
119.285930
 30
0.0
  0
SPLINE
  5
1b1
100
AcDbEntity
  8
Layer_1
 62
7
100
AcDbSpline
 70
8
 71
3
 72
8
 73
4
 74
0
 40
0
 40
0
 40
0
 40
0
 40
1
 40
1
 40
1
 40
1
 10
118.592940
 20
119.285930
 30
0.0
 10
118.592940
 20
117.686670
 30
0.0
 10
118.213117
 20
116.257330
 30
0.0
 10
117.453470
 20
114.997910
 30
0.0
  0
SPLINE
  5
1b2
100
AcDbEntity
  8
Layer_1
 62
7
100
AcDbSpline
 70
8
 71
3
 72
8
 73
4
 74
0
 40
0
 40
0
 40
0
 40
0
 40
1
 40
1
 40
1
 40
1
 10
117.453470
 20
114.997910
 30
0.0
 10
116.693823
 20
113.738497
 30
0.0
 10
115.644310
 20
112.748957
 30
0.0
 10
114.304930
 20
112.029290
 30
0.0
  0
SPLINE
  5
1b3
100
AcDbEntity
  8
Layer_1
 62
7
100
AcDbSpline
 70
8
 71
3
 72
8
 73
4
 74
0
 40
0
 40
0
 40
0
 40
0
 40
1
 40
1
 40
1
 40
1
 10
114.304930
 20
112.029290
 30
0.0
 10
112.965550
 20
111.329617
 30
0.0
 10
111.446253
 20
110.979780
 30
0.0
 10
109.747040
 20
110.979780
 30
0.0
  0
LWPOLYLINE
  5
1b4
100
AcDbEntity
  8
Layer_1
 62
7
100
AcDbPolyline
 90
7
 70
1
 10
100.601270
 20
127.352190
 30
0.0
 10
93.794428
 20
111.219670
 30
0.0
 10
88.966666
 20
111.219670
 30
0.0
 10
82.189807
 20
127.352190
 30
0.0
 10
87.017569
 20
127.352190
 30
0.0
 10
91.485498
 20
116.377270
 30
0.0
 10
96.103357
 20
127.352190
 30
0.0
  0
SPLINE
  5
1b5
100
AcDbEntity
  8
Layer_1
 62
7
100
AcDbSpline
 70
8
 71
3
 72
8
 73
4
 74
0
 40
0
 40
0
 40
0
 40
0
 40
1
 40
1
 40
1
 40
1
 10
109.747040
 20
114.818000
 30
0.0
 10
110.946487
 20
114.818000
 30
0.0
 10
111.926033
 20
115.217813
 30
0.0
 10
112.685680
 20
116.017440
 30
0.0
  0
SPLINE
  5
1b6
100
AcDbEntity
  8
Layer_1
 62
7
100
AcDbSpline
 70
8
 71
3
 72
8
 73
4
 74
0
 40
0
 40
0
 40
0
 40
0
 40
1
 40
1
 40
1
 40
1
 10
112.685680
 20
116.017440
 30
0.0
 10
113.465320
 20
116.837060
 30
0.0
 10
113.855140
 20
117.926557
 30
0.0
 10
113.855140
 20
119.285930
 30
0.0
  0
SPLINE
  5
1b7
100
AcDbEntity
  8
Layer_1
 62
7
100
AcDbSpline
 70
8
 71
3
 72
8
 73
4
 74
0
 40
0
 40
0
 40
0
 40
0
 40
1
 40
1
 40
1
 40
1
 10
113.855140
 20
119.285930
 30
0.0
 10
113.855140
 20
120.645297
 30
0.0
 10
113.465320
 20
121.724793
 30
0.0
 10
112.685680
 20
122.524420
 30
0.0
  0
SPLINE
  5
1b8
100
AcDbEntity
  8
Layer_1
 62
7
100
AcDbSpline
 70
8
 71
3
 72
8
 73
4
 74
0
 40
0
 40
0
 40
0
 40
0
 40
1
 40
1
 40
1
 40
1
 10
112.685680
 20
122.524420
 30
0.0
 10
111.926033
 20
123.344047
 30
0.0
 10
110.946487
 20
123.753860
 30
0.0
 10
109.747040
 20
123.753860
 30
0.0
  0
SPLINE
  5
1b9
100
AcDbEntity
  8
Layer_1
 62
7
100
AcDbSpline
 70
8
 71
3
 72
8
 73
4
 74
0
 40
0
 40
0
 40
0
 40
0
 40
1
 40
1
 40
1
 40
1
 10
109.747040
 20
123.753860
 30
0.0
 10
108.547593
 20
123.753860
 30
0.0
 10
107.558053
 20
123.344047
 30
0.0
 10
106.778420
 20
122.524420
 30
0.0
  0
SPLINE
  5
1ba
100
AcDbEntity
  8
Layer_1
 62
7
100
AcDbSpline
 70
8
 71
3
 72
8
 73
4
 74
0
 40
0
 40
0
 40
0
 40
0
 40
1
 40
1
 40
1
 40
1
 10
106.778420
 20
122.524420
 30
0.0
 10
105.998780
 20
121.724793
 30
0.0
 10
105.608960
 20
120.645297
 30
0.0
 10
105.608960
 20
119.285930
 30
0.0
  0
SPLINE
  5
1bb
100
AcDbEntity
  8
Layer_1
 62
7
100
AcDbSpline
 70
8
 71
3
 72
8
 73
4
 74
0
 40
0
 40
0
 40
0
 40
0
 40
1
 40
1
 40
1
 40
1
 10
105.608960
 20
119.285930
 30
0.0
 10
105.608960
 20
117.926557
 30
0.0
 10
105.998780
 20
116.837060
 30
0.0
 10
106.778420
 20
116.017440
 30
0.0
  0
SPLINE
  5
1bc
100
AcDbEntity
  8
Layer_1
 62
7
100
AcDbSpline
 70
8
 71
3
 72
8
 73
4
 74
0
 40
0
 40
0
 40
0
 40
0
 40
1
 40
1
 40
1
 40
1
 10
106.778420
 20
116.017440
 30
0.0
 10
107.558053
 20
115.217813
 30
0.0
 10
108.547593
 20
114.818000
 30
0.0
 10
109.747040
 20
114.818000
 30
0.0
  0
LWPOLYLINE
  5
1bd
100
AcDbEntity
  8
Layer_1
 62
7
100
AcDbPolyline
 90
1
 70
1
 10
109.747040
 20
110.979780
 30
0.0
  0
SPLINE
  5
1be
100
AcDbEntity
  8
Layer_1
 62
7
100
AcDbSpline
 70
8
 71
3
 72
8
 73
4
 74
0
 40
0
 40
0
 40
0
 40
0
 40
1
 40
1
 40
1
 40
1
 10
127.498830
 20
110.979780
 30
0.0
 10
125.679677
 20
110.979780
 30
0.0
 10
124.260333
 20
111.459557
 30
0.0
 10
123.240800
 20
112.419110
 30
0.0
  0
SPLINE
  5
1bf
100
AcDbEntity
  8
Layer_1
 62
7
100
AcDbSpline
 70
8
 71
3
 72
8
 73
4
 74
0
 40
0
 40
0
 40
0
 40
0
 40
1
 40
1
 40
1
 40
1
 10
123.240800
 20
112.419110
 30
0.0
 10
122.221273
 20
113.398657
 30
0.0
 10
121.711510
 20
114.778017
 30
0.0
 10
121.711510
 20
116.557190
 30
0.0
  0
LWPOLYLINE
  5
1c0
100
AcDbEntity
  8
Layer_1
 62
7
100
AcDbPolyline
 90
1
 70
1
 10
109.747040
 20
114.818000
 30
0.0
  0
SPLINE
  5
1c1
100
AcDbEntity
  8
Layer_1
 62
7
100
AcDbSpline
 70
8
 71
3
 72
8
 73
4
 74
0
 40
0
 40
0
 40
0
 40
0
 40
1
 40
1
 40
1
 40
1
 10
126.389340
 20
116.827070
 30
0.0
 10
126.389340
 20
116.147383
 30
0.0
 10
126.559263
 20
115.617627
 30
0.0
 10
126.899110
 20
115.237800
 30
0.0
  0
SPLINE
  5
1c2
100
AcDbEntity
  8
Layer_1
 62
7
100
AcDbSpline
 70
8
 71
3
 72
8
 73
4
 74
0
 40
0
 40
0
 40
0
 40
0
 40
1
 40
1
 40
1
 40
1
 10
126.899110
 20
115.237800
 30
0.0
 10
127.258943
 20
114.877967
 30
0.0
 10
127.758710
 20
114.698050
 30
0.0
 10
128.398410
 20
114.698050
 30
0.0
  0
SPLINE
  5
1c3
100
AcDbEntity
  8
Layer_1
 62
7
100
AcDbSpline
 70
8
 71
3
 72
8
 73
4
 74
0
 40
0
 40
0
 40
0
 40
0
 40
1
 40
1
 40
1
 40
1
 10
128.398410
 20
114.698050
 30
0.0
 10
128.638303
 20
114.698050
 30
0.0
 10
128.878193
 20
114.728050
 30
0.0
 10
129.118080
 20
114.788050
 30
0.0
  0
SPLINE
  5
1c4
100
AcDbEntity
  8
Layer_1
 62
7
100
AcDbSpline
 70
8
 71
3
 72
8
 73
4
 74
0
 40
0
 40
0
 40
0
 40
0
 40
1
 40
1
 40
1
 40
1
 10
129.118080
 20
114.788050
 30
0.0
 10
129.377960
 20
114.848050
 30
0.0
 10
129.577867
 20
114.918017
 30
0.0
 10
129.717800
 20
114.997950
 30
0.0
  0
LWPOLYLINE
  5
1c5
100
AcDbEntity
  8
Layer_1
 62
7
100
AcDbPolyline
 90
4
 70
0
 10
121.711510
 20
116.557190
 30
0.0
 10
121.711510
 20
133.469350
 30
0.0
 10
126.389340
 20
133.469350
 30
0.0
 10
126.389340
 20
116.827070
 30
0.0
  0
SPLINE
  5
1c6
100
AcDbEntity
  8
Layer_1
 62
7
100
AcDbSpline
 70
8
 71
3
 72
8
 73
4
 74
0
 40
0
 40
0
 40
0
 40
0
 40
1
 40
1
 40
1
 40
1
 10
129.927700
 20
111.369640
 30
0.0
 10
129.148067
 20
111.109760
 30
0.0
 10
128.338443
 20
110.979820
 30
0.0
 10
127.498830
 20
110.979820
 30
0.0
  0
LWPOLYLINE
  5
1c7
100
AcDbEntity
  8
Layer_1
 62
7
100
AcDbPolyline
 90
2
 70
0
 10
129.717800
 20
114.997950
 30
0.0
 10
129.927700
 20
111.369640
 30
0.0
  0
SPLINE
  5
1c8
100
AcDbEntity
  8
Layer_1
 62
7
100
AcDbSpline
 70
8
 71
3
 72
8
 73
4
 74
0
 40
0
 40
0
 40
0
 40
0
 40
1
 40
1
 40
1
 40
1
 10
141.952130
 20
111.999300
 30
0.0
 10
141.492343
 20
111.659460
 30
0.0
 10
140.922607
 20
111.399583
 30
0.0
 10
140.242920
 20
111.219670
 30
0.0
  0
SPLINE
  5
1c9
100
AcDbEntity
  8
Layer_1
 62
7
100
AcDbSpline
 70
8
 71
3
 72
8
 73
4
 74
0
 40
0
 40
0
 40
0
 40
0
 40
1
 40
1
 40
1
 40
1
 10
140.242920
 20
111.219670
 30
0.0
 10
139.583227
 20
111.059743
 30
0.0
 10
138.893547
 20
110.979780
 30
0.0
 10
138.173880
 20
110.979780
 30
0.0
  0
SPLINE
  5
1ca
100
AcDbEntity
  8
Layer_1
 62
7
100
AcDbSpline
 70
8
 71
3
 72
8
 73
4
 74
0
 40
0
 40
0
 40
0
 40
0
 40
1
 40
1
 40
1
 40
1
 10
138.173880
 20
110.979780
 30
0.0
 10
136.234780
 20
110.979780
 30
0.0
 10
134.745470
 20
111.469553
 30
0.0
 10
133.705950
 20
112.449100
 30
0.0
  0
SPLINE
  5
1cb
100
AcDbEntity
  8
Layer_1
 62
7
100
AcDbSpline
 70
8
 71
3
 72
8
 73
4
 74
0
 40
0
 40
0
 40
0
 40
0
 40
1
 40
1
 40
1
 40
1
 10
133.705950
 20
112.449100
 30
0.0
 10
132.666430
 20
113.428640
 30
0.0
 10
132.146670
 20
114.867970
 30
0.0
 10
132.146670
 20
116.767090
 30
0.0
  0
LWPOLYLINE
  5
1cc
100
AcDbEntity
  8
Layer_1
 62
7
100
AcDbPolyline
 90
1
 70
1
 10
127.498830
 20
110.979820
 30
0.0
  0
SPLINE
  5
1cd
100
AcDbEntity
  8
Layer_1
 62
7
100
AcDbSpline
 70
8
 71
3
 72
8
 73
4
 74
0
 40
0
 40
0
 40
0
 40
0
 40
1
 40
1
 40
1
 40
1
 10
136.824500
 20
116.827070
 30
0.0
 10
136.824500
 20
116.147383
 30
0.0
 10
136.994423
 20
115.617627
 30
0.0
 10
137.334270
 20
115.237800
 30
0.0
  0
SPLINE
  5
1ce
100
AcDbEntity
  8
Layer_1
 62
7
100
AcDbSpline
 70
8
 71
3
 72
8
 73
4
 74
0
 40
0
 40
0
 40
0
 40
0
 40
1
 40
1
 40
1
 40
1
 10
137.334270
 20
115.237800
 30
0.0
 10
137.674110
 20
114.877967
 30
0.0
 10
138.163880
 20
114.698050
 30
0.0
 10
138.803580
 20
114.698050
 30
0.0
  0
SPLINE
  5
1cf
100
AcDbEntity
  8
Layer_1
 62
7
100
AcDbSpline
 70
8
 71
3
 72
8
 73
4
 74
0
 40
0
 40
0
 40
0
 40
0
 40
1
 40
1
 40
1
 40
1
 10
138.803580
 20
114.698050
 30
0.0
 10
139.523247
 20
114.698050
 30
0.0
 10
140.162953
 20
114.897960
 30
0.0
 10
140.722700
 20
115.297780
 30
0.0
  0
LWPOLYLINE
  5
1d0
100
AcDbEntity
  8
Layer_1
 62
7
100
AcDbPolyline
 90
8
 70
0
 10
132.146670
 20
116.767090
 30
0.0
 10
132.146670
 20
130.920530
 30
0.0
 10
136.824500
 20
130.920530
 30
0.0
 10
136.824500
 20
126.992350
 30
0.0
 10
140.812650
 20
126.992350
 30
0.0
 10
140.812650
 20
123.394020
 30
0.0
 10
136.824500
 20
123.394020
 30
0.0
 10
136.824500
 20
116.827070
 30
0.0
  0
LWPOLYLINE
  5
1d1
100
AcDbEntity
  8
Layer_1
 62
7
100
AcDbPolyline
 90
2
 70
0
 10
140.722700
 20
115.297780
 30
0.0
 10
141.952130
 20
111.999300
 30
0.0
  0
SPLINE
  5
1d2
100
AcDbEntity
  8
Layer_1
 62
7
100
AcDbSpline
 70
8
 71
3
 72
8
 73
4
 74
0
 40
0
 40
0
 40
0
 40
0
 40
1
 40
1
 40
1
 40
1
 10
155.985630
 20
113.078800
 30
0.0
 10
154.826170
 20
111.679453
 30
0.0
 10
153.146950
 20
110.979780
 30
0.0
 10
150.947970
 20
110.979780
 30
0.0
  0
SPLINE
  5
1d3
100
AcDbEntity
  8
Layer_1
 62
7
100
AcDbSpline
 70
8
 71
3
 72
8
 73
4
 74
0
 40
0
 40
0
 40
0
 40
0
 40
1
 40
1
 40
1
 40
1
 10
150.947970
 20
110.979780
 30
0.0
 10
149.428670
 20
110.979780
 30
0.0
 10
148.049307
 20
111.319620
 30
0.0
 10
146.809880
 20
111.999300
 30
0.0
  0
SPLINE
  5
1d4
100
AcDbEntity
  8
Layer_1
 62
7
100
AcDbSpline
 70
8
 71
3
 72
8
 73
4
 74
0
 40
0
 40
0
 40
0
 40
0
 40
1
 40
1
 40
1
 40
1
 10
146.809880
 20
111.999300
 30
0.0
 10
145.590447
 20
112.678987
 30
0.0
 10
144.630893
 20
113.648540
 30
0.0
 10
143.931220
 20
114.907960
 30
0.0
  0
SPLINE
  5
1d5
100
AcDbEntity
  8
Layer_1
 62
7
100
AcDbSpline
 70
8
 71
3
 72
8
 73
4
 74
0
 40
0
 40
0
 40
0
 40
0
 40
1
 40
1
 40
1
 40
1
 10
143.931220
 20
114.907960
 30
0.0
 10
143.231547
 20
116.167373
 30
0.0
 10
142.881710
 20
117.626697
 30
0.0
 10
142.881710
 20
119.285930
 30
0.0
  0
SPLINE
  5
1d6
100
AcDbEntity
  8
Layer_1
 62
7
100
AcDbSpline
 70
8
 71
3
 72
8
 73
4
 74
0
 40
0
 40
0
 40
0
 40
0
 40
1
 40
1
 40
1
 40
1
 10
142.881710
 20
119.285930
 30
0.0
 10
142.881710
 20
120.945157
 30
0.0
 10
143.231547
 20
122.404480
 30
0.0
 10
143.931220
 20
123.663900
 30
0.0
  0
SPLINE
  5
1d7
100
AcDbEntity
  8
Layer_1
 62
7
100
AcDbSpline
 70
8
 71
3
 72
8
 73
4
 74
0
 40
0
 40
0
 40
0
 40
0
 40
1
 40
1
 40
1
 40
1
 10
143.931220
 20
123.663900
 30
0.0
 10
144.630893
 20
124.923313
 30
0.0
 10
145.590447
 20
125.892863
 30
0.0
 10
146.809880
 20
126.572550
 30
0.0
  0
SPLINE
  5
1d8
100
AcDbEntity
  8
Layer_1
 62
7
100
AcDbSpline
 70
8
 71
3
 72
8
 73
4
 74
0
 40
0
 40
0
 40
0
 40
0
 40
1
 40
1
 40
1
 40
1
 10
146.809880
 20
126.572550
 30
0.0
 10
148.049307
 20
127.252237
 30
0.0
 10
149.428670
 20
127.592080
 30
0.0
 10
150.947970
 20
127.592080
 30
0.0
  0
SPLINE
  5
1d9
100
AcDbEntity
  8
Layer_1
 62
7
100
AcDbSpline
 70
8
 71
3
 72
8
 73
4
 74
0
 40
0
 40
0
 40
0
 40
0
 40
1
 40
1
 40
1
 40
1
 10
150.947970
 20
127.592080
 30
0.0
 10
153.007010
 20
127.592080
 30
0.0
 10
154.616263
 20
126.942380
 30
0.0
 10
155.775730
 20
125.642980
 30
0.0
  0
LWPOLYLINE
  5
1da
100
AcDbEntity
  8
Layer_1
 62
7
100
AcDbPolyline
 90
4
 70
0
 10
160.453560
 20
127.352190
 30
0.0
 10
160.453560
 20
111.219670
 30
0.0
 10
155.985630
 20
111.219670
 30
0.0
 10
155.985630
 20
113.078800
 30
0.0
  0
SPLINE
  5
1db
100
AcDbEntity
  8
Layer_1
 62
7
100
AcDbSpline
 70
8
 71
3
 72
8
 73
4
 74
0
 40
0
 40
0
 40
0
 40
0
 40
1
 40
1
 40
1
 40
1
 10
151.757590
 20
114.818000
 30
0.0
 10
152.937043
 20
114.818000
 30
0.0
 10
153.916590
 20
115.217813
 30
0.0
 10
154.696230
 20
116.017440
 30
0.0
  0
SPLINE
  5
1dc
100
AcDbEntity
  8
Layer_1
 62
7
100
AcDbSpline
 70
8
 71
3
 72
8
 73
4
 74
0
 40
0
 40
0
 40
0
 40
0
 40
1
 40
1
 40
1
 40
1
 10
154.696230
 20
116.017440
 30
0.0
 10
155.475870
 20
116.837060
 30
0.0
 10
155.865690
 20
117.926557
 30
0.0
 10
155.865690
 20
119.285930
 30
0.0
  0
SPLINE
  5
1dd
100
AcDbEntity
  8
Layer_1
 62
7
100
AcDbSpline
 70
8
 71
3
 72
8
 73
4
 74
0
 40
0
 40
0
 40
0
 40
0
 40
1
 40
1
 40
1
 40
1
 10
155.865690
 20
119.285930
 30
0.0
 10
155.865690
 20
120.645297
 30
0.0
 10
155.475870
 20
121.724793
 30
0.0
 10
154.696230
 20
122.524420
 30
0.0
  0
SPLINE
  5
1de
100
AcDbEntity
  8
Layer_1
 62
7
100
AcDbSpline
 70
8
 71
3
 72
8
 73
4
 74
0
 40
0
 40
0
 40
0
 40
0
 40
1
 40
1
 40
1
 40
1
 10
154.696230
 20
122.524420
 30
0.0
 10
153.916590
 20
123.344047
 30
0.0
 10
152.937043
 20
123.753860
 30
0.0
 10
151.757590
 20
123.753860
 30
0.0
  0
SPLINE
  5
1df
100
AcDbEntity
  8
Layer_1
 62
7
100
AcDbSpline
 70
8
 71
3
 72
8
 73
4
 74
0
 40
0
 40
0
 40
0
 40
0
 40
1
 40
1
 40
1
 40
1
 10
151.757590
 20
123.753860
 30
0.0
 10
150.558150
 20
123.753860
 30
0.0
 10
149.568610
 20
123.344047
 30
0.0
 10
148.788970
 20
122.524420
 30
0.0
  0
SPLINE
  5
1e0
100
AcDbEntity
  8
Layer_1
 62
7
100
AcDbSpline
 70
8
 71
3
 72
8
 73
4
 74
0
 40
0
 40
0
 40
0
 40
0
 40
1
 40
1
 40
1
 40
1
 10
148.788970
 20
122.524420
 30
0.0
 10
148.009330
 20
121.724793
 30
0.0
 10
147.619510
 20
120.645297
 30
0.0
 10
147.619510
 20
119.285930
 30
0.0
  0
SPLINE
  5
1e1
100
AcDbEntity
  8
Layer_1
 62
7
100
AcDbSpline
 70
8
 71
3
 72
8
 73
4
 74
0
 40
0
 40
0
 40
0
 40
0
 40
1
 40
1
 40
1
 40
1
 10
147.619510
 20
119.285930
 30
0.0
 10
147.619510
 20
117.926557
 30
0.0
 10
148.009330
 20
116.837060
 30
0.0
 10
148.788970
 20
116.017440
 30
0.0
  0
SPLINE
  5
1e2
100
AcDbEntity
  8
Layer_1
 62
7
100
AcDbSpline
 70
8
 71
3
 72
8
 73
4
 74
0
 40
0
 40
0
 40
0
 40
0
 40
1
 40
1
 40
1
 40
1
 10
148.788970
 20
116.017440
 30
0.0
 10
149.568610
 20
115.217813
 30
0.0
 10
150.558150
 20
114.818000
 30
0.0
 10
151.757590
 20
114.818000
 30
0.0
  0
LWPOLYLINE
  5
1e3
100
AcDbEntity
  8
Layer_1
 62
7
100
AcDbPolyline
 90
3
 70
0
 10
155.775730
 20
125.642980
 30
0.0
 10
155.775730
 20
127.352190
 30
0.0
 10
160.453560
 20
127.352190
 30
0.0
  0
LWPOLYLINE
  5
1e4
100
AcDbEntity
  8
Layer_1
 62
7
100
AcDbPolyline
 90
1
 70
1
 10
151.757590
 20
114.818000
 30
0.0
  0
SPLINE
  5
1e5
100
AcDbEntity
  8
Layer_1
 62
7
100
AcDbSpline
 70
8
 71
3
 72
8
 73
4
 74
0
 40
0
 40
0
 40
0
 40
0
 40
1
 40
1
 40
1
 40
1
 10
167.110500
 20
129.601140
 30
0.0
 10
166.250893
 20
129.601140
 30
0.0
 10
165.551217
 20
129.851027
 30
0.0
 10
165.011470
 20
130.350800
 30
0.0
  0
SPLINE
  5
1e6
100
AcDbEntity
  8
Layer_1
 62
7
100
AcDbSpline
 70
8
 71
3
 72
8
 73
4
 74
0
 40
0
 40
0
 40
0
 40
0
 40
1
 40
1
 40
1
 40
1
 10
165.011470
 20
130.350800
 30
0.0
 10
164.471717
 20
130.850567
 30
0.0
 10
164.201840
 20
131.470277
 30
0.0
 10
164.201840
 20
132.209930
 30
0.0
  0
SPLINE
  5
1e7
100
AcDbEntity
  8
Layer_1
 62
7
100
AcDbSpline
 70
8
 71
3
 72
8
 73
4
 74
0
 40
0
 40
0
 40
0
 40
0
 40
1
 40
1
 40
1
 40
1
 10
164.201840
 20
132.209930
 30
0.0
 10
164.201840
 20
132.949590
 30
0.0
 10
164.471717
 20
133.569303
 30
0.0
 10
165.011470
 20
134.069070
 30
0.0
  0
SPLINE
  5
1e8
100
AcDbEntity
  8
Layer_1
 62
7
100
AcDbSpline
 70
8
 71
3
 72
8
 73
4
 74
0
 40
0
 40
0
 40
0
 40
0
 40
1
 40
1
 40
1
 40
1
 10
165.011470
 20
134.069070
 30
0.0
 10
165.551217
 20
134.568843
 30
0.0
 10
166.250893
 20
134.818730
 30
0.0
 10
167.110500
 20
134.818730
 30
0.0
  0
SPLINE
  5
1e9
100
AcDbEntity
  8
Layer_1
 62
7
100
AcDbSpline
 70
8
 71
3
 72
8
 73
4
 74
0
 40
0
 40
0
 40
0
 40
0
 40
1
 40
1
 40
1
 40
1
 10
167.110500
 20
134.818730
 30
0.0
 10
167.970100
 20
134.818730
 30
0.0
 10
168.669773
 20
134.578840
 30
0.0
 10
169.209520
 20
134.099060
 30
0.0
  0
SPLINE
  5
1ea
100
AcDbEntity
  8
Layer_1
 62
7
100
AcDbSpline
 70
8
 71
3
 72
8
 73
4
 74
0
 40
0
 40
0
 40
0
 40
0
 40
1
 40
1
 40
1
 40
1
 10
169.209520
 20
134.099060
 30
0.0
 10
169.749273
 20
133.619280
 30
0.0
 10
170.019150
 20
133.019557
 30
0.0
 10
170.019150
 20
132.299890
 30
0.0
  0
SPLINE
  5
1eb
100
AcDbEntity
  8
Layer_1
 62
7
100
AcDbSpline
 70
8
 71
3
 72
8
 73
4
 74
0
 40
0
 40
0
 40
0
 40
0
 40
1
 40
1
 40
1
 40
1
 10
170.019150
 20
132.299890
 30
0.0
 10
170.019150
 20
131.520257
 30
0.0
 10
169.749273
 20
130.870560
 30
0.0
 10
169.209520
 20
130.350800
 30
0.0
  0
SPLINE
  5
1ec
100
AcDbEntity
  8
Layer_1
 62
7
100
AcDbSpline
 70
8
 71
3
 72
8
 73
4
 74
0
 40
0
 40
0
 40
0
 40
0
 40
1
 40
1
 40
1
 40
1
 10
169.209520
 20
130.350800
 30
0.0
 10
168.669773
 20
129.851027
 30
0.0
 10
167.970100
 20
129.601140
 30
0.0
 10
167.110500
 20
129.601140
 30
0.0
  0
LWPOLYLINE
  5
1ed
100
AcDbEntity
  8
Layer_1
 62
7
100
AcDbPolyline
 90
4
 70
1
 10
164.771580
 20
127.352190
 30
0.0
 10
169.449410
 20
127.352190
 30
0.0
 10
169.449410
 20
111.219670
 30
0.0
 10
164.771580
 20
111.219670
 30
0.0
  0
SPLINE
  5
1ee
100
AcDbEntity
  8
Layer_1
 62
7
100
AcDbSpline
 70
8
 71
3
 72
8
 73
4
 74
0
 40
0
 40
0
 40
0
 40
0
 40
1
 40
1
 40
1
 40
1
 10
181.593800
 20
110.979780
 30
0.0
 10
179.874593
 20
110.979780
 30
0.0
 10
178.325310
 20
111.329617
 30
0.0
 10
176.945950
 20
112.029290
 30
0.0
  0
SPLINE
  5
1ef
100
AcDbEntity
  8
Layer_1
 62
7
100
AcDbSpline
 70
8
 71
3
 72
8
 73
4
 74
0
 40
0
 40
0
 40
0
 40
0
 40
1
 40
1
 40
1
 40
1
 10
176.945950
 20
112.029290
 30
0.0
 10
175.586583
 20
112.748957
 30
0.0
 10
174.517080
 20
113.738497
 30
0.0
 10
173.737440
 20
114.997910
 30
0.0
  0
SPLINE
  5
1f0
100
AcDbEntity
  8
Layer_1
 62
7
100
AcDbSpline
 70
8
 71
3
 72
8
 73
4
 74
0
 40
0
 40
0
 40
0
 40
0
 40
1
 40
1
 40
1
 40
1
 10
173.737440
 20
114.997910
 30
0.0
 10
172.977793
 20
116.257330
 30
0.0
 10
172.597970
 20
117.686670
 30
0.0
 10
172.597970
 20
119.285930
 30
0.0
  0
SPLINE
  5
1f1
100
AcDbEntity
  8
Layer_1
 62
7
100
AcDbSpline
 70
8
 71
3
 72
8
 73
4
 74
0
 40
0
 40
0
 40
0
 40
0
 40
1
 40
1
 40
1
 40
1
 10
172.597970
 20
119.285930
 30
0.0
 10
172.597970
 20
120.885183
 30
0.0
 10
172.977793
 20
122.314520
 30
0.0
 10
173.737440
 20
123.573940
 30
0.0
  0
SPLINE
  5
1f2
100
AcDbEntity
  8
Layer_1
 62
7
100
AcDbSpline
 70
8
 71
3
 72
8
 73
4
 74
0
 40
0
 40
0
 40
0
 40
0
 40
1
 40
1
 40
1
 40
1
 10
173.737440
 20
123.573940
 30
0.0
 10
174.517080
 20
124.833353
 30
0.0
 10
175.586583
 20
125.812900
 30
0.0
 10
176.945950
 20
126.512580
 30
0.0
  0
SPLINE
  5
1f3
100
AcDbEntity
  8
Layer_1
 62
7
100
AcDbSpline
 70
8
 71
3
 72
8
 73
4
 74
0
 40
0
 40
0
 40
0
 40
0
 40
1
 40
1
 40
1
 40
1
 10
176.945950
 20
126.512580
 30
0.0
 10
178.325310
 20
127.232247
 30
0.0
 10
179.874593
 20
127.592080
 30
0.0
 10
181.593800
 20
127.592080
 30
0.0
  0
SPLINE
  5
1f4
100
AcDbEntity
  8
Layer_1
 62
7
100
AcDbSpline
 70
8
 71
3
 72
8
 73
4
 74
0
 40
0
 40
0
 40
0
 40
0
 40
1
 40
1
 40
1
 40
1
 10
181.593800
 20
127.592080
 30
0.0
 10
183.293013
 20
127.592080
 30
0.0
 10
184.772327
 20
127.232247
 30
0.0
 10
186.031740
 20
126.512580
 30
0.0
  0
SPLINE
  5
1f5
100
AcDbEntity
  8
Layer_1
 62
7
100
AcDbSpline
 70
8
 71
3
 72
8
 73
4
 74
0
 40
0
 40
0
 40
0
 40
0
 40
1
 40
1
 40
1
 40
1
 10
186.031740
 20
126.512580
 30
0.0
 10
187.311147
 20
125.812900
 30
0.0
 10
188.240717
 20
124.803367
 30
0.0
 10
188.820450
 20
123.483980
 30
0.0
  0
LWPOLYLINE
  5
1f6
100
AcDbEntity
  8
Layer_1
 62
7
100
AcDbPolyline
 90
1
 70
1
 10
167.110500
 20
129.601140
 30
0.0
  0
SPLINE
  5
1f7
100
AcDbEntity
  8
Layer_1
 62
7
100
AcDbSpline
 70
8
 71
3
 72
8
 73
4
 74
0
 40
0
 40
0
 40
0
 40
0
 40
1
 40
1
 40
1
 40
1
 10
185.192130
 20
121.534880
 30
0.0
 10
184.352517
 20
123.014200
 30
0.0
 10
183.143077
 20
123.753860
 30
0.0
 10
181.563810
 20
123.753860
 30
0.0
  0
SPLINE
  5
1f8
100
AcDbEntity
  8
Layer_1
 62
7
100
AcDbSpline
 70
8
 71
3
 72
8
 73
4
 74
0
 40
0
 40
0
 40
0
 40
0
 40
1
 40
1
 40
1
 40
1
 10
181.563810
 20
123.753860
 30
0.0
 10
180.344377
 20
123.753860
 30
0.0
 10
179.334847
 20
123.354043
 30
0.0
 10
178.535220
 20
122.554410
 30
0.0
  0
SPLINE
  5
1f9
100
AcDbEntity
  8
Layer_1
 62
7
100
AcDbSpline
 70
8
 71
3
 72
8
 73
4
 74
0
 40
0
 40
0
 40
0
 40
0
 40
1
 40
1
 40
1
 40
1
 10
178.535220
 20
122.554410
 30
0.0
 10
177.735587
 20
121.754783
 30
0.0
 10
177.335770
 20
120.665290
 30
0.0
 10
177.335770
 20
119.285930
 30
0.0
  0
SPLINE
  5
1fa
100
AcDbEntity
  8
Layer_1
 62
7
100
AcDbSpline
 70
8
 71
3
 72
8
 73
4
 74
0
 40
0
 40
0
 40
0
 40
0
 40
1
 40
1
 40
1
 40
1
 10
177.335770
 20
119.285930
 30
0.0
 10
177.335770
 20
117.906570
 30
0.0
 10
177.735587
 20
116.817073
 30
0.0
 10
178.535220
 20
116.017440
 30
0.0
  0
SPLINE
  5
1fb
100
AcDbEntity
  8
Layer_1
 62
7
100
AcDbSpline
 70
8
 71
3
 72
8
 73
4
 74
0
 40
0
 40
0
 40
0
 40
0
 40
1
 40
1
 40
1
 40
1
 10
178.535220
 20
116.017440
 30
0.0
 10
179.334847
 20
115.217813
 30
0.0
 10
180.344377
 20
114.818000
 30
0.0
 10
181.563810
 20
114.818000
 30
0.0
  0
SPLINE
  5
1fc
100
AcDbEntity
  8
Layer_1
 62
7
100
AcDbSpline
 70
8
 71
3
 72
8
 73
4
 74
0
 40
0
 40
0
 40
0
 40
0
 40
1
 40
1
 40
1
 40
1
 10
181.563810
 20
114.818000
 30
0.0
 10
183.163070
 20
114.818000
 30
0.0
 10
184.372510
 20
115.557657
 30
0.0
 10
185.192130
 20
117.036970
 30
0.0
  0
LWPOLYLINE
  5
1fd
100
AcDbEntity
  8
Layer_1
 62
7
100
AcDbPolyline
 90
2
 70
0
 10
188.820450
 20
123.483980
 30
0.0
 10
185.192130
 20
121.534880
 30
0.0
  0
SPLINE
  5
1fe
100
AcDbEntity
  8
Layer_1
 62
7
100
AcDbSpline
 70
8
 71
3
 72
8
 73
4
 74
0
 40
0
 40
0
 40
0
 40
0
 40
1
 40
1
 40
1
 40
1
 10
188.820450
 20
115.057890
 30
0.0
 10
188.240717
 20
113.778483
 30
0.0
 10
187.311147
 20
112.778947
 30
0.0
 10
186.031740
 20
112.059280
 30
0.0
  0
SPLINE
  5
1ff
100
AcDbEntity
  8
Layer_1
 62
7
100
AcDbSpline
 70
8
 71
3
 72
8
 73
4
 74
0
 40
0
 40
0
 40
0
 40
0
 40
1
 40
1
 40
1
 40
1
 10
186.031740
 20
112.059280
 30
0.0
 10
184.772327
 20
111.339613
 30
0.0
 10
183.293013
 20
110.979780
 30
0.0
 10
181.593800
 20
110.979780
 30
0.0
  0
LWPOLYLINE
  5
200
100
AcDbEntity
  8
Layer_1
 62
7
100
AcDbPolyline
 90
2
 70
0
 10
185.192130
 20
117.036970
 30
0.0
 10
188.820450
 20
115.057890
 30
0.0
  0
SPLINE
  5
201
100
AcDbEntity
  8
Layer_1
 62
7
100
AcDbSpline
 70
8
 71
3
 72
8
 73
4
 74
0
 40
0
 40
0
 40
0
 40
0
 40
1
 40
1
 40
1
 40
1
 10
27.675054
 20
95.087140
 30
0.0
 10
29.614155
 20
95.087140
 30
0.0
 10
31.303372
 20
94.707317
 30
0.0
 10
32.742705
 20
93.947670
 30
0.0
  0
SPLINE
  5
202
100
AcDbEntity
  8
Layer_1
 62
7
100
AcDbSpline
 70
8
 71
3
 72
8
 73
4
 74
0
 40
0
 40
0
 40
0
 40
0
 40
1
 40
1
 40
1
 40
1
 10
32.742705
 20
93.947670
 30
0.0
 10
34.182038
 20
93.188023
 30
0.0
 10
35.301519
 20
92.068543
 30
0.0
 10
36.101148
 20
90.589230
 30
0.0
  0
SPLINE
  5
203
100
AcDbEntity
  8
Layer_1
 62
7
100
AcDbSpline
 70
8
 71
3
 72
8
 73
4
 74
0
 40
0
 40
0
 40
0
 40
0
 40
1
 40
1
 40
1
 40
1
 10
36.101148
 20
90.589230
 30
0.0
 10
36.900777
 20
89.109917
 30
0.0
 10
37.300592
 20
87.320747
 30
0.0
 10
37.300592
 20
85.221720
 30
0.0
  0
LWPOLYLINE
  5
204
100
AcDbEntity
  8
Layer_1
 62
7
100
AcDbPolyline
 90
1
 70
1
 10
181.593800
 20
110.979780
 30
0.0
  0
SPLINE
  5
205
100
AcDbEntity
  8
Layer_1
 62
7
100
AcDbSpline
 70
8
 71
3
 72
8
 73
4
 74
0
 40
0
 40
0
 40
0
 40
0
 40
1
 40
1
 40
1
 40
1
 10
18.049516
 20
85.221720
 30
0.0
 10
18.049516
 20
87.320747
 30
0.0
 10
18.449331
 20
89.109917
 30
0.0
 10
19.248960
 20
90.589230
 30
0.0
  0
SPLINE
  5
206
100
AcDbEntity
  8
Layer_1
 62
7
100
AcDbSpline
 70
8
 71
3
 72
8
 73
4
 74
0
 40
0
 40
0
 40
0
 40
0
 40
1
 40
1
 40
1
 40
1
 10
19.248960
 20
90.589230
 30
0.0
 10
20.048589
 20
92.068543
 30
0.0
 10
21.168070
 20
93.188023
 30
0.0
 10
22.607403
 20
93.947670
 30
0.0
  0
SPLINE
  5
207
100
AcDbEntity
  8
Layer_1
 62
7
100
AcDbSpline
 70
8
 71
3
 72
8
 73
4
 74
0
 40
0
 40
0
 40
0
 40
0
 40
1
 40
1
 40
1
 40
1
 10
22.607403
 20
93.947670
 30
0.0
 10
24.046736
 20
94.707317
 30
0.0
 10
25.735953
 20
95.087140
 30
0.0
 10
27.675054
 20
95.087140
 30
0.0
  0
LWPOLYLINE
  5
208
100
AcDbEntity
  8
Layer_1
 62
7
100
AcDbPolyline
 90
8
 70
0
 10
37.300592
 20
85.221720
 30
0.0
 10
37.300592
 20
73.737040
 30
0.0
 10
32.442844
 20
73.737040
 30
0.0
 10
32.442844
 20
78.774710
 30
0.0
 10
22.847292
 20
78.774710
 30
0.0
 10
22.847292
 20
73.737040
 30
0.0
 10
18.049516
 20
73.737040
 30
0.0
 10
18.049516
 20
85.221720
 30
0.0
  0
LWPOLYLINE
  5
209
100
AcDbEntity
  8
Layer_1
 62
7
100
AcDbPolyline
 90
1
 70
1
 10
27.675054
 20
95.087140
 30
0.0
  0
SPLINE
  5
20a
100
AcDbEntity
  8
Layer_1
 62
7
100
AcDbSpline
 70
8
 71
3
 72
8
 73
4
 74
0
 40
0
 40
0
 40
0
 40
0
 40
1
 40
1
 40
1
 40
1
 10
32.442844
 20
85.671510
 30
0.0
 10
32.442844
 20
87.410703
 30
0.0
 10
32.013043
 20
88.720097
 30
0.0
 10
31.153441
 20
89.599690
 30
0.0
  0
SPLINE
  5
20b
100
AcDbEntity
  8
Layer_1
 62
7
100
AcDbSpline
 70
8
 71
3
 72
8
 73
4
 74
0
 40
0
 40
0
 40
0
 40
0
 40
1
 40
1
 40
1
 40
1
 10
31.153441
 20
89.599690
 30
0.0
 10
30.293840
 20
90.499270
 30
0.0
 10
29.124382
 20
90.949060
 30
0.0
 10
27.645068
 20
90.949060
 30
0.0
  0
SPLINE
  5
20c
100
AcDbEntity
  8
Layer_1
 62
7
100
AcDbSpline
 70
8
 71
3
 72
8
 73
4
 74
0
 40
0
 40
0
 40
0
 40
0
 40
1
 40
1
 40
1
 40
1
 10
27.645068
 20
90.949060
 30
0.0
 10
26.145763
 20
90.949060
 30
0.0
 10
24.966309
 20
90.499270
 30
0.0
 10
24.106708
 20
89.599690
 30
0.0
  0
SPLINE
  5
20d
100
AcDbEntity
  8
Layer_1
 62
7
100
AcDbSpline
 70
8
 71
3
 72
8
 73
4
 74
0
 40
0
 40
0
 40
0
 40
0
 40
1
 40
1
 40
1
 40
1
 10
24.106708
 20
89.599690
 30
0.0
 10
23.267097
 20
88.720097
 30
0.0
 10
22.847292
 20
87.410703
 30
0.0
 10
22.847292
 20
85.671510
 30
0.0
  0
LWPOLYLINE
  5
20e
100
AcDbEntity
  8
Layer_1
 62
7
100
AcDbPolyline
 90
2
 70
0
 10
32.442844
 20
82.672900
 30
0.0
 10
32.442844
 20
85.671510
 30
0.0
  0
LWPOLYLINE
  5
20f
100
AcDbEntity
  8
Layer_1
 62
7
100
AcDbPolyline
 90
3
 70
0
 10
22.847292
 20
85.671510
 30
0.0
 10
22.847292
 20
82.672900
 30
0.0
 10
32.442844
 20
82.672900
 30
0.0
  0
SPLINE
  5
210
100
AcDbEntity
  8
Layer_1
 62
7
100
AcDbSpline
 70
8
 71
3
 72
8
 73
4
 74
0
 40
0
 40
0
 40
0
 40
0
 40
1
 40
1
 40
1
 40
1
 10
58.410792
 20
76.435790
 30
0.0
 10
58.410792
 20
73.477163
 30
0.0
 10
57.641149
 20
71.278183
 30
0.0
 10
56.101862
 20
69.838850
 30
0.0
  0
SPLINE
  5
211
100
AcDbEntity
  8
Layer_1
 62
7
100
AcDbSpline
 70
8
 71
3
 72
8
 73
4
 74
0
 40
0
 40
0
 40
0
 40
0
 40
1
 40
1
 40
1
 40
1
 10
56.101862
 20
69.838850
 30
0.0
 10
54.562576
 20
68.399517
 30
0.0
 10
52.313619
 20
67.679850
 30
0.0
 10
49.354990
 20
67.679850
 30
0.0
  0
SPLINE
  5
212
100
AcDbEntity
  8
Layer_1
 62
7
100
AcDbSpline
 70
8
 71
3
 72
8
 73
4
 74
0
 40
0
 40
0
 40
0
 40
0
 40
1
 40
1
 40
1
 40
1
 10
49.354990
 20
67.679850
 30
0.0
 10
47.795713
 20
67.679850
 30
0.0
 10
46.316398
 20
67.869763
 30
0.0
 10
44.917047
 20
68.249590
 30
0.0
  0
SPLINE
  5
213
100
AcDbEntity
  8
Layer_1
 62
7
100
AcDbSpline
 70
8
 71
3
 72
8
 73
4
 74
0
 40
0
 40
0
 40
0
 40
0
 40
1
 40
1
 40
1
 40
1
 10
44.917047
 20
68.249590
 30
0.0
 10
43.517696
 20
68.629410
 30
0.0
 10
42.358233
 20
69.179153
 30
0.0
 10
41.438660
 20
69.898820
 30
0.0
  0
LWPOLYLINE
  5
214
100
AcDbEntity
  8
Layer_1
 62
7
100
AcDbPolyline
 90
2
 70
0
 10
58.410792
 20
89.869560
 30
0.0
 10
58.410792
 20
76.435790
 30
0.0
  0
SPLINE
  5
215
100
AcDbEntity
  8
Layer_1
 62
7
100
AcDbSpline
 70
8
 71
3
 72
8
 73
4
 74
0
 40
0
 40
0
 40
0
 40
0
 40
1
 40
1
 40
1
 40
1
 10
43.297798
 20
73.257260
 30
0.0
 10
43.977483
 20
72.697520
 30
0.0
 10
44.837084
 20
72.257727
 30
0.0
 10
45.876602
 20
71.937880
 30
0.0
  0
SPLINE
  5
216
100
AcDbEntity
  8
Layer_1
 62
7
100
AcDbSpline
 70
8
 71
3
 72
8
 73
4
 74
0
 40
0
 40
0
 40
0
 40
0
 40
1
 40
1
 40
1
 40
1
 10
45.876602
 20
71.937880
 30
0.0
 10
46.916120
 20
71.598033
 30
0.0
 10
47.955638
 20
71.428110
 30
0.0
 10
48.995157
 20
71.428110
 30
0.0
  0
SPLINE
  5
217
100
AcDbEntity
  8
Layer_1
 62
7
100
AcDbSpline
 70
8
 71
3
 72
8
 73
4
 74
0
 40
0
 40
0
 40
0
 40
0
 40
1
 40
1
 40
1
 40
1
 10
48.995157
 20
71.428110
 30
0.0
 10
50.614406
 20
71.428110
 30
0.0
 10
51.803855
 20
71.797940
 30
0.0
 10
52.563502
 20
72.537600
 30
0.0
  0
SPLINE
  5
218
100
AcDbEntity
  8
Layer_1
 62
7
100
AcDbSpline
 70
8
 71
3
 72
8
 73
4
 74
0
 40
0
 40
0
 40
0
 40
0
 40
1
 40
1
 40
1
 40
1
 10
52.563502
 20
72.537600
 30
0.0
 10
53.343141
 20
73.257267
 30
0.0
 10
53.732960
 20
74.356757
 30
0.0
 10
53.732960
 20
75.836070
 30
0.0
  0
LWPOLYLINE
  5
219
100
AcDbEntity
  8
Layer_1
 62
7
100
AcDbPolyline
 90
2
 70
0
 10
41.438660
 20
69.898820
 30
0.0
 10
43.297798
 20
73.257260
 30
0.0
  0
SPLINE
  5
21a
100
AcDbEntity
  8
Layer_1
 62
7
100
AcDbSpline
 70
8
 71
3
 72
8
 73
4
 74
0
 40
0
 40
0
 40
0
 40
0
 40
1
 40
1
 40
1
 40
1
 10
53.732960
 20
76.525750
 30
0.0
 10
52.513525
 20
75.186370
 30
0.0
 10
50.814313
 20
74.516680
 30
0.0
 10
48.635323
 20
74.516680
 30
0.0
  0
SPLINE
  5
21b
100
AcDbEntity
  8
Layer_1
 62
7
100
AcDbSpline
 70
8
 71
3
 72
8
 73
4
 74
0
 40
0
 40
0
 40
0
 40
0
 40
1
 40
1
 40
1
 40
1
 10
48.635323
 20
74.516680
 30
0.0
 10
47.156009
 20
74.516680
 30
0.0
 10
45.796639
 20
74.836533
 30
0.0
 10
44.557214
 20
75.476240
 30
0.0
  0
SPLINE
  5
21c
100
AcDbEntity
  8
Layer_1
 62
7
100
AcDbSpline
 70
8
 71
3
 72
8
 73
4
 74
0
 40
0
 40
0
 40
0
 40
0
 40
1
 40
1
 40
1
 40
1
 10
44.557214
 20
75.476240
 30
0.0
 10
43.337779
 20
76.135933
 30
0.0
 10
42.368229
 20
77.055507
 30
0.0
 10
41.648562
 20
78.234960
 30
0.0
  0
SPLINE
  5
21d
100
AcDbEntity
  8
Layer_1
 62
7
100
AcDbSpline
 70
8
 71
3
 72
8
 73
4
 74
0
 40
0
 40
0
 40
0
 40
0
 40
1
 40
1
 40
1
 40
1
 10
41.648562
 20
78.234960
 30
0.0
 10
40.928896
 20
79.414413
 30
0.0
 10
40.569063
 20
80.773783
 30
0.0
 10
40.569063
 20
82.313070
 30
0.0
  0
SPLINE
  5
21e
100
AcDbEntity
  8
Layer_1
 62
7
100
AcDbSpline
 70
8
 71
3
 72
8
 73
4
 74
0
 40
0
 40
0
 40
0
 40
0
 40
1
 40
1
 40
1
 40
1
 10
40.569063
 20
82.313070
 30
0.0
 10
40.569063
 20
83.852357
 30
0.0
 10
40.928896
 20
85.211727
 30
0.0
 10
41.648562
 20
86.391180
 30
0.0
  0
SPLINE
  5
21f
100
AcDbEntity
  8
Layer_1
 62
7
100
AcDbSpline
 70
8
 71
3
 72
8
 73
4
 74
0
 40
0
 40
0
 40
0
 40
0
 40
1
 40
1
 40
1
 40
1
 10
41.648562
 20
86.391180
 30
0.0
 10
42.368229
 20
87.570633
 30
0.0
 10
43.337779
 20
88.480210
 30
0.0
 10
44.557214
 20
89.119910
 30
0.0
  0
SPLINE
  5
220
100
AcDbEntity
  8
Layer_1
 62
7
100
AcDbSpline
 70
8
 71
3
 72
8
 73
4
 74
0
 40
0
 40
0
 40
0
 40
0
 40
1
 40
1
 40
1
 40
1
 10
44.557214
 20
89.119910
 30
0.0
 10
45.796639
 20
89.779603
 30
0.0
 10
47.156009
 20
90.109450
 30
0.0
 10
48.635323
 20
90.109450
 30
0.0
  0
SPLINE
  5
221
100
AcDbEntity
  8
Layer_1
 62
7
100
AcDbSpline
 70
8
 71
3
 72
8
 73
4
 74
0
 40
0
 40
0
 40
0
 40
0
 40
1
 40
1
 40
1
 40
1
 10
48.635323
 20
90.109450
 30
0.0
 10
50.974239
 20
90.109450
 30
0.0
 10
52.753414
 20
89.339807
 30
0.0
 10
53.972849
 20
87.800520
 30
0.0
  0
LWPOLYLINE
  5
222
100
AcDbEntity
  8
Layer_1
 62
7
100
AcDbPolyline
 90
2
 70
0
 10
53.732960
 20
75.836070
 30
0.0
 10
53.732960
 20
76.525750
 30
0.0
  0
SPLINE
  5
223
100
AcDbEntity
  8
Layer_1
 62
7
100
AcDbSpline
 70
8
 71
3
 72
8
 73
4
 74
0
 40
0
 40
0
 40
0
 40
0
 40
1
 40
1
 40
1
 40
1
 10
49.564893
 20
78.354900
 30
0.0
 10
50.804318
 20
78.354900
 30
0.0
 10
51.813850
 20
78.714733
 30
0.0
 10
52.593489
 20
79.434400
 30
0.0
  0
SPLINE
  5
224
100
AcDbEntity
  8
Layer_1
 62
7
100
AcDbSpline
 70
8
 71
3
 72
8
 73
4
 74
0
 40
0
 40
0
 40
0
 40
0
 40
1
 40
1
 40
1
 40
1
 10
52.593489
 20
79.434400
 30
0.0
 10
53.393118
 20
80.174060
 30
0.0
 10
53.792933
 20
81.133617
 30
0.0
 10
53.792933
 20
82.313070
 30
0.0
  0
SPLINE
  5
225
100
AcDbEntity
  8
Layer_1
 62
7
100
AcDbSpline
 70
8
 71
3
 72
8
 73
4
 74
0
 40
0
 40
0
 40
0
 40
0
 40
1
 40
1
 40
1
 40
1
 10
53.792933
 20
82.313070
 30
0.0
 10
53.792933
 20
83.492523
 30
0.0
 10
53.393118
 20
84.442083
 30
0.0
 10
52.593489
 20
85.161750
 30
0.0
  0
SPLINE
  5
226
100
AcDbEntity
  8
Layer_1
 62
7
100
AcDbSpline
 70
8
 71
3
 72
8
 73
4
 74
0
 40
0
 40
0
 40
0
 40
0
 40
1
 40
1
 40
1
 40
1
 10
52.593489
 20
85.161750
 30
0.0
 10
51.813850
 20
85.901403
 30
0.0
 10
50.804318
 20
86.271230
 30
0.0
 10
49.564893
 20
86.271230
 30
0.0
  0
SPLINE
  5
227
100
AcDbEntity
  8
Layer_1
 62
7
100
AcDbSpline
 70
8
 71
3
 72
8
 73
4
 74
0
 40
0
 40
0
 40
0
 40
0
 40
1
 40
1
 40
1
 40
1
 10
49.564893
 20
86.271230
 30
0.0
 10
48.325467
 20
86.271230
 30
0.0
 10
47.305939
 20
85.901403
 30
0.0
 10
46.506310
 20
85.161750
 30
0.0
  0
SPLINE
  5
228
100
AcDbEntity
  8
Layer_1
 62
7
100
AcDbSpline
 70
8
 71
3
 72
8
 73
4
 74
0
 40
0
 40
0
 40
0
 40
0
 40
1
 40
1
 40
1
 40
1
 10
46.506310
 20
85.161750
 30
0.0
 10
45.706681
 20
84.442083
 30
0.0
 10
45.306866
 20
83.492523
 30
0.0
 10
45.306866
 20
82.313070
 30
0.0
  0
SPLINE
  5
229
100
AcDbEntity
  8
Layer_1
 62
7
100
AcDbSpline
 70
8
 71
3
 72
8
 73
4
 74
0
 40
0
 40
0
 40
0
 40
0
 40
1
 40
1
 40
1
 40
1
 10
45.306866
 20
82.313070
 30
0.0
 10
45.306866
 20
81.133617
 30
0.0
 10
45.706681
 20
80.174060
 30
0.0
 10
46.506310
 20
79.434400
 30
0.0
  0
SPLINE
  5
22a
100
AcDbEntity
  8
Layer_1
 62
7
100
AcDbSpline
 70
8
 71
3
 72
8
 73
4
 74
0
 40
0
 40
0
 40
0
 40
0
 40
1
 40
1
 40
1
 40
1
 10
46.506310
 20
79.434400
 30
0.0
 10
47.305939
 20
78.714733
 30
0.0
 10
48.325467
 20
78.354900
 30
0.0
 10
49.564893
 20
78.354900
 30
0.0
  0
LWPOLYLINE
  5
22b
100
AcDbEntity
  8
Layer_1
 62
7
100
AcDbPolyline
 90
3
 70
0
 10
53.972849
 20
87.800520
 30
0.0
 10
53.972849
 20
89.869560
 30
0.0
 10
58.410792
 20
89.869560
 30
0.0
  0
SPLINE
  5
22c
100
AcDbEntity
  8
Layer_1
 62
7
100
AcDbSpline
 70
8
 71
3
 72
8
 73
4
 74
0
 40
0
 40
0
 40
0
 40
0
 40
1
 40
1
 40
1
 40
1
 10
67.226729
 20
87.740550
 30
0.0
 10
67.786470
 20
88.520190
 30
0.0
 10
68.536122
 20
89.109917
 30
0.0
 10
69.475686
 20
89.509730
 30
0.0
  0
SPLINE
  5
22d
100
AcDbEntity
  8
Layer_1
 62
7
100
AcDbSpline
 70
8
 71
3
 72
8
 73
4
 74
0
 40
0
 40
0
 40
0
 40
0
 40
1
 40
1
 40
1
 40
1
 10
69.475686
 20
89.509730
 30
0.0
 10
70.435241
 20
89.909543
 30
0.0
 10
71.534732
 20
90.109450
 30
0.0
 10
72.774157
 20
90.109450
 30
0.0
  0
LWPOLYLINE
  5
22e
100
AcDbEntity
  8
Layer_1
 62
7
100
AcDbPolyline
 90
1
 70
1
 10
49.564893
 20
78.354900
 30
0.0
  0
SPLINE
  5
22f
100
AcDbEntity
  8
Layer_1
 62
7
100
AcDbSpline
 70
8
 71
3
 72
8
 73
4
 74
0
 40
0
 40
0
 40
0
 40
0
 40
1
 40
1
 40
1
 40
1
 10
72.774157
 20
85.791450
 30
0.0
 10
72.254398
 20
85.831450
 30
0.0
 10
71.904561
 20
85.851450
 30
0.0
 10
71.724644
 20
85.851450
 30
0.0
  0
SPLINE
  5
230
100
AcDbEntity
  8
Layer_1
 62
7
100
AcDbSpline
 70
8
 71
3
 72
8
 73
4
 74
0
 40
0
 40
0
 40
0
 40
0
 40
1
 40
1
 40
1
 40
1
 10
71.724644
 20
85.851450
 30
0.0
 10
70.385265
 20
85.851450
 30
0.0
 10
69.335751
 20
85.471623
 30
0.0
 10
68.576103
 20
84.711970
 30
0.0
  0
SPLINE
  5
231
100
AcDbEntity
  8
Layer_1
 62
7
100
AcDbSpline
 70
8
 71
3
 72
8
 73
4
 74
0
 40
0
 40
0
 40
0
 40
0
 40
1
 40
1
 40
1
 40
1
 10
68.576103
 20
84.711970
 30
0.0
 10
67.816456
 20
83.972317
 30
0.0
 10
67.436632
 20
82.852837
 30
0.0
 10
67.436632
 20
81.353530
 30
0.0
  0
LWPOLYLINE
  5
232
100
AcDbEntity
  8
Layer_1
 62
7
100
AcDbPolyline
 90
2
 70
0
 10
72.774157
 20
90.109450
 30
0.0
 10
72.774157
 20
85.791450
 30
0.0
  0
SPLINE
  5
233
100
AcDbEntity
  8
Layer_1
 62
7
100
AcDbSpline
 70
8
 71
3
 72
8
 73
4
 74
0
 40
0
 40
0
 40
0
 40
0
 40
1
 40
1
 40
1
 40
1
 10
83.089344
 20
73.497150
 30
0.0
 10
81.390132
 20
73.497150
 30
0.0
 10
79.860841
 20
73.846990
 30
0.0
 10
78.501471
 20
74.546670
 30
0.0
  0
SPLINE
  5
234
100
AcDbEntity
  8
Layer_1
 62
7
100
AcDbSpline
 70
8
 71
3
 72
8
 73
4
 74
0
 40
0
 40
0
 40
0
 40
0
 40
1
 40
1
 40
1
 40
1
 10
78.501471
 20
74.546670
 30
0.0
 10
77.162092
 20
75.266337
 30
0.0
 10
76.112578
 20
76.255877
 30
0.0
 10
75.352930
 20
77.515290
 30
0.0
  0
SPLINE
  5
235
100
AcDbEntity
  8
Layer_1
 62
7
100
AcDbSpline
 70
8
 71
3
 72
8
 73
4
 74
0
 40
0
 40
0
 40
0
 40
0
 40
1
 40
1
 40
1
 40
1
 10
75.352930
 20
77.515290
 30
0.0
 10
74.593283
 20
78.774703
 30
0.0
 10
74.213459
 20
80.204040
 30
0.0
 10
74.213459
 20
81.803300
 30
0.0
  0
SPLINE
  5
236
100
AcDbEntity
  8
Layer_1
 62
7
100
AcDbSpline
 70
8
 71
3
 72
8
 73
4
 74
0
 40
0
 40
0
 40
0
 40
0
 40
1
 40
1
 40
1
 40
1
 10
74.213459
 20
81.803300
 30
0.0
 10
74.213459
 20
83.402560
 30
0.0
 10
74.593283
 20
84.831897
 30
0.0
 10
75.352930
 20
86.091310
 30
0.0
  0
SPLINE
  5
237
100
AcDbEntity
  8
Layer_1
 62
7
100
AcDbSpline
 70
8
 71
3
 72
8
 73
4
 74
0
 40
0
 40
0
 40
0
 40
0
 40
1
 40
1
 40
1
 40
1
 10
75.352930
 20
86.091310
 30
0.0
 10
76.112578
 20
87.350730
 30
0.0
 10
77.162092
 20
88.330277
 30
0.0
 10
78.501471
 20
89.029950
 30
0.0
  0
SPLINE
  5
238
100
AcDbEntity
  8
Layer_1
 62
7
100
AcDbSpline
 70
8
 71
3
 72
8
 73
4
 74
0
 40
0
 40
0
 40
0
 40
0
 40
1
 40
1
 40
1
 40
1
 10
78.501471
 20
89.029950
 30
0.0
 10
79.860841
 20
89.749617
 30
0.0
 10
81.390132
 20
90.109450
 30
0.0
 10
83.089344
 20
90.109450
 30
0.0
  0
SPLINE
  5
239
100
AcDbEntity
  8
Layer_1
 62
7
100
AcDbSpline
 70
8
 71
3
 72
8
 73
4
 74
0
 40
0
 40
0
 40
0
 40
0
 40
1
 40
1
 40
1
 40
1
 10
83.089344
 20
90.109450
 30
0.0
 10
84.788556
 20
90.109450
 30
0.0
 10
86.307852
 20
89.749617
 30
0.0
 10
87.647231
 20
89.029950
 30
0.0
  0
SPLINE
  5
23a
100
AcDbEntity
  8
Layer_1
 62
7
100
AcDbSpline
 70
8
 71
3
 72
8
 73
4
 74
0
 40
0
 40
0
 40
0
 40
0
 40
1
 40
1
 40
1
 40
1
 10
87.647231
 20
89.029950
 30
0.0
 10
88.986610
 20
88.330277
 30
0.0
 10
90.036124
 20
87.350730
 30
0.0
 10
90.795771
 20
86.091310
 30
0.0
  0
SPLINE
  5
23b
100
AcDbEntity
  8
Layer_1
 62
7
100
AcDbSpline
 70
8
 71
3
 72
8
 73
4
 74
0
 40
0
 40
0
 40
0
 40
0
 40
1
 40
1
 40
1
 40
1
 10
90.795771
 20
86.091310
 30
0.0
 10
91.555419
 20
84.831897
 30
0.0
 10
91.935243
 20
83.402560
 30
0.0
 10
91.935243
 20
81.803300
 30
0.0
  0
SPLINE
  5
23c
100
AcDbEntity
  8
Layer_1
 62
7
100
AcDbSpline
 70
8
 71
3
 72
8
 73
4
 74
0
 40
0
 40
0
 40
0
 40
0
 40
1
 40
1
 40
1
 40
1
 10
91.935243
 20
81.803300
 30
0.0
 10
91.935243
 20
80.204040
 30
0.0
 10
91.555419
 20
78.774703
 30
0.0
 10
90.795771
 20
77.515290
 30
0.0
  0
SPLINE
  5
23d
100
AcDbEntity
  8
Layer_1
 62
7
100
AcDbSpline
 70
8
 71
3
 72
8
 73
4
 74
0
 40
0
 40
0
 40
0
 40
0
 40
1
 40
1
 40
1
 40
1
 10
90.795771
 20
77.515290
 30
0.0
 10
90.036124
 20
76.255877
 30
0.0
 10
88.986610
 20
75.266337
 30
0.0
 10
87.647231
 20
74.546670
 30
0.0
  0
SPLINE
  5
23e
100
AcDbEntity
  8
Layer_1
 62
7
100
AcDbSpline
 70
8
 71
3
 72
8
 73
4
 74
0
 40
0
 40
0
 40
0
 40
0
 40
1
 40
1
 40
1
 40
1
 10
87.647231
 20
74.546670
 30
0.0
 10
86.307852
 20
73.846990
 30
0.0
 10
84.788556
 20
73.497150
 30
0.0
 10
83.089344
 20
73.497150
 30
0.0
  0
LWPOLYLINE
  5
23f
100
AcDbEntity
  8
Layer_1
 62
7
100
AcDbPolyline
 90
6
 70
0
 10
67.436632
 20
81.353530
 30
0.0
 10
67.436632
 20
73.737060
 30
0.0
 10
62.758800
 20
73.737060
 30
0.0
 10
62.758800
 20
89.869580
 30
0.0
 10
67.226729
 20
89.869580
 30
0.0
 10
67.226729
 20
87.740550
 30
0.0
  0
SPLINE
  5
240
100
AcDbEntity
  8
Layer_1
 62
7
100
AcDbSpline
 70
8
 71
3
 72
8
 73
4
 74
0
 40
0
 40
0
 40
0
 40
0
 40
1
 40
1
 40
1
 40
1
 10
83.089344
 20
77.335370
 30
0.0
 10
84.288788
 20
77.335370
 30
0.0
 10
85.268334
 20
77.735187
 30
0.0
 10
86.027982
 20
78.534820
 30
0.0
  0
SPLINE
  5
241
100
AcDbEntity
  8
Layer_1
 62
7
100
AcDbSpline
 70
8
 71
3
 72
8
 73
4
 74
0
 40
0
 40
0
 40
0
 40
0
 40
1
 40
1
 40
1
 40
1
 10
86.027982
 20
78.534820
 30
0.0
 10
86.807621
 20
79.354440
 30
0.0
 10
87.197440
 20
80.443933
 30
0.0
 10
87.197440
 20
81.803300
 30
0.0
  0
SPLINE
  5
242
100
AcDbEntity
  8
Layer_1
 62
7
100
AcDbSpline
 70
8
 71
3
 72
8
 73
4
 74
0
 40
0
 40
0
 40
0
 40
0
 40
1
 40
1
 40
1
 40
1
 10
87.197440
 20
81.803300
 30
0.0
 10
87.197440
 20
83.162673
 30
0.0
 10
86.807621
 20
84.242173
 30
0.0
 10
86.027982
 20
85.041800
 30
0.0
  0
SPLINE
  5
243
100
AcDbEntity
  8
Layer_1
 62
7
100
AcDbSpline
 70
8
 71
3
 72
8
 73
4
 74
0
 40
0
 40
0
 40
0
 40
0
 40
1
 40
1
 40
1
 40
1
 10
86.027982
 20
85.041800
 30
0.0
 10
85.268334
 20
85.861420
 30
0.0
 10
84.288788
 20
86.271230
 30
0.0
 10
83.089344
 20
86.271230
 30
0.0
  0
SPLINE
  5
244
100
AcDbEntity
  8
Layer_1
 62
7
100
AcDbSpline
 70
8
 71
3
 72
8
 73
4
 74
0
 40
0
 40
0
 40
0
 40
0
 40
1
 40
1
 40
1
 40
1
 10
83.089344
 20
86.271230
 30
0.0
 10
81.889900
 20
86.271230
 30
0.0
 10
80.900359
 20
85.861420
 30
0.0
 10
80.120720
 20
85.041800
 30
0.0
  0
SPLINE
  5
245
100
AcDbEntity
  8
Layer_1
 62
7
100
AcDbSpline
 70
8
 71
3
 72
8
 73
4
 74
0
 40
0
 40
0
 40
0
 40
0
 40
1
 40
1
 40
1
 40
1
 10
80.120720
 20
85.041800
 30
0.0
 10
79.341081
 20
84.242173
 30
0.0
 10
78.951262
 20
83.162673
 30
0.0
 10
78.951262
 20
81.803300
 30
0.0
  0
SPLINE
  5
246
100
AcDbEntity
  8
Layer_1
 62
7
100
AcDbSpline
 70
8
 71
3
 72
8
 73
4
 74
0
 40
0
 40
0
 40
0
 40
0
 40
1
 40
1
 40
1
 40
1
 10
78.951262
 20
81.803300
 30
0.0
 10
78.951262
 20
80.443933
 30
0.0
 10
79.341081
 20
79.354440
 30
0.0
 10
80.120720
 20
78.534820
 30
0.0
  0
SPLINE
  5
247
100
AcDbEntity
  8
Layer_1
 62
7
100
AcDbSpline
 70
8
 71
3
 72
8
 73
4
 74
0
 40
0
 40
0
 40
0
 40
0
 40
1
 40
1
 40
1
 40
1
 10
80.120720
 20
78.534820
 30
0.0
 10
80.900359
 20
77.735187
 30
0.0
 10
81.889900
 20
77.335370
 30
0.0
 10
83.089344
 20
77.335370
 30
0.0
  0
LWPOLYLINE
  5
248
100
AcDbEntity
  8
Layer_1
 62
7
100
AcDbPolyline
 90
1
 70
1
 10
83.089344
 20
73.497150
 30
0.0
  0
SPLINE
  5
249
100
AcDbEntity
  8
Layer_1
 62
7
100
AcDbSpline
 70
8
 71
3
 72
8
 73
4
 74
0
 40
0
 40
0
 40
0
 40
0
 40
1
 40
1
 40
1
 40
1
 10
104.769310
 20
74.516680
 30
0.0
 10
104.309523
 20
74.176840
 30
0.0
 10
103.739787
 20
73.916960
 30
0.0
 10
103.060100
 20
73.737040
 30
0.0
  0
SPLINE
  5
24a
100
AcDbEntity
  8
Layer_1
 62
7
100
AcDbSpline
 70
8
 71
3
 72
8
 73
4
 74
0
 40
0
 40
0
 40
0
 40
0
 40
1
 40
1
 40
1
 40
1
 10
103.060100
 20
73.737040
 30
0.0
 10
102.400407
 20
73.577113
 30
0.0
 10
101.710727
 20
73.497150
 30
0.0
 10
100.991060
 20
73.497150
 30
0.0
  0
SPLINE
  5
24b
100
AcDbEntity
  8
Layer_1
 62
7
100
AcDbSpline
 70
8
 71
3
 72
8
 73
4
 74
0
 40
0
 40
0
 40
0
 40
0
 40
1
 40
1
 40
1
 40
1
 10
100.991060
 20
73.497150
 30
0.0
 10
99.051960
 20
73.497150
 30
0.0
 10
97.562651
 20
73.986923
 30
0.0
 10
96.523132
 20
74.966470
 30
0.0
  0
SPLINE
  5
24c
100
AcDbEntity
  8
Layer_1
 62
7
100
AcDbSpline
 70
8
 71
3
 72
8
 73
4
 74
0
 40
0
 40
0
 40
0
 40
0
 40
1
 40
1
 40
1
 40
1
 10
96.523132
 20
74.966470
 30
0.0
 10
95.483614
 20
75.946017
 30
0.0
 10
94.963855
 20
77.385350
 30
0.0
 10
94.963855
 20
79.284470
 30
0.0
  0
LWPOLYLINE
  5
24d
100
AcDbEntity
  8
Layer_1
 62
7
100
AcDbPolyline
 90
1
 70
1
 10
83.089344
 20
77.335370
 30
0.0
  0
SPLINE
  5
24e
100
AcDbEntity
  8
Layer_1
 62
7
100
AcDbSpline
 70
8
 71
3
 72
8
 73
4
 74
0
 40
0
 40
0
 40
0
 40
0
 40
1
 40
1
 40
1
 40
1
 10
99.641687
 20
79.344440
 30
0.0
 10
99.641687
 20
78.664753
 30
0.0
 10
99.811608
 20
78.135000
 30
0.0
 10
100.151450
 20
77.755180
 30
0.0
  0
SPLINE
  5
24f
100
AcDbEntity
  8
Layer_1
 62
7
100
AcDbSpline
 70
8
 71
3
 72
8
 73
4
 74
0
 40
0
 40
0
 40
0
 40
0
 40
1
 40
1
 40
1
 40
1
 10
100.151450
 20
77.755180
 30
0.0
 10
100.491290
 20
77.395347
 30
0.0
 10
100.981063
 20
77.215430
 30
0.0
 10
101.620770
 20
77.215430
 30
0.0
  0
SPLINE
  5
250
100
AcDbEntity
  8
Layer_1
 62
7
100
AcDbSpline
 70
8
 71
3
 72
8
 73
4
 74
0
 40
0
 40
0
 40
0
 40
0
 40
1
 40
1
 40
1
 40
1
 10
101.620770
 20
77.215430
 30
0.0
 10
102.340437
 20
77.215430
 30
0.0
 10
102.980140
 20
77.415337
 30
0.0
 10
103.539880
 20
77.815150
 30
0.0
  0
LWPOLYLINE
  5
251
100
AcDbEntity
  8
Layer_1
 62
7
100
AcDbPolyline
 90
8
 70
0
 10
94.963855
 20
79.284470
 30
0.0
 10
94.963855
 20
93.437910
 30
0.0
 10
99.641687
 20
93.437910
 30
0.0
 10
99.641687
 20
89.509730
 30
0.0
 10
103.629840
 20
89.509730
 30
0.0
 10
103.629840
 20
85.911400
 30
0.0
 10
99.641687
 20
85.911400
 30
0.0
 10
99.641687
 20
79.344440
 30
0.0
  0
LWPOLYLINE
  5
252
100
AcDbEntity
  8
Layer_1
 62
7
100
AcDbPolyline
 90
2
 70
0
 10
103.539880
 20
77.815150
 30
0.0
 10
104.769310
 20
74.516680
 30
0.0
  0
SPLINE
  5
253
100
AcDbEntity
  8
Layer_1
 62
7
100
AcDbSpline
 70
8
 71
3
 72
8
 73
4
 74
0
 40
0
 40
0
 40
0
 40
0
 40
1
 40
1
 40
1
 40
1
 10
119.222630
 20
75.656150
 30
0.0
 10
118.602917
 20
74.956477
 30
0.0
 10
117.863260
 20
74.416727
 30
0.0
 10
117.003660
 20
74.036900
 30
0.0
  0
SPLINE
  5
254
100
AcDbEntity
  8
Layer_1
 62
7
100
AcDbSpline
 70
8
 71
3
 72
8
 73
4
 74
0
 40
0
 40
0
 40
0
 40
0
 40
1
 40
1
 40
1
 40
1
 10
117.003660
 20
74.036900
 30
0.0
 10
116.144060
 20
73.677067
 30
0.0
 10
115.214490
 20
73.497150
 30
0.0
 10
114.214950
 20
73.497150
 30
0.0
  0
SPLINE
  5
255
100
AcDbEntity
  8
Layer_1
 62
7
100
AcDbSpline
 70
8
 71
3
 72
8
 73
4
 74
0
 40
0
 40
0
 40
0
 40
0
 40
1
 40
1
 40
1
 40
1
 10
114.214950
 20
73.497150
 30
0.0
 10
112.095937
 20
73.497150
 30
0.0
 10
110.416717
 20
74.106867
 30
0.0
 10
109.177290
 20
75.326300
 30
0.0
  0
SPLINE
  5
256
100
AcDbEntity
  8
Layer_1
 62
7
100
AcDbSpline
 70
8
 71
3
 72
8
 73
4
 74
0
 40
0
 40
0
 40
0
 40
0
 40
1
 40
1
 40
1
 40
1
 10
109.177290
 20
75.326300
 30
0.0
 10
107.937863
 20
76.545740
 30
0.0
 10
107.318150
 20
78.354903
 30
0.0
 10
107.318150
 20
80.753790
 30
0.0
  0
LWPOLYLINE
  5
257
100
AcDbEntity
  8
Layer_1
 62
7
100
AcDbPolyline
 90
4
 70
0
 10
123.660570
 20
89.869560
 30
0.0
 10
123.660570
 20
73.737040
 30
0.0
 10
119.222630
 20
73.737040
 30
0.0
 10
119.222630
 20
75.656150
 30
0.0
  0
SPLINE
  5
258
100
AcDbEntity
  8
Layer_1
 62
7
100
AcDbSpline
 70
8
 71
3
 72
8
 73
4
 74
0
 40
0
 40
0
 40
0
 40
0
 40
1
 40
1
 40
1
 40
1
 10
111.995980
 20
81.443470
 30
0.0
 10
111.995980
 20
78.844677
 30
0.0
 10
113.085477
 20
77.545280
 30
0.0
 10
115.264470
 20
77.545280
 30
0.0
  0
SPLINE
  5
259
100
AcDbEntity
  8
Layer_1
 62
7
100
AcDbSpline
 70
8
 71
3
 72
8
 73
4
 74
0
 40
0
 40
0
 40
0
 40
0
 40
1
 40
1
 40
1
 40
1
 10
115.264470
 20
77.545280
 30
0.0
 10
116.383950
 20
77.545280
 30
0.0
 10
117.283530
 20
77.905113
 30
0.0
 10
117.963210
 20
78.624780
 30
0.0
  0
SPLINE
  5
25a
100
AcDbEntity
  8
Layer_1
 62
7
100
AcDbSpline
 70
8
 71
3
 72
8
 73
4
 74
0
 40
0
 40
0
 40
0
 40
0
 40
1
 40
1
 40
1
 40
1
 10
117.963210
 20
78.624780
 30
0.0
 10
118.642897
 20
79.364433
 30
0.0
 10
118.982740
 20
80.453927
 30
0.0
 10
118.982740
 20
81.893260
 30
0.0
  0
LWPOLYLINE
  5
25b
100
AcDbEntity
  8
Layer_1
 62
7
100
AcDbPolyline
 90
4
 70
0
 10
107.318150
 20
80.753790
 30
0.0
 10
107.318150
 20
89.869560
 30
0.0
 10
111.995980
 20
89.869560
 30
0.0
 10
111.995980
 20
81.443470
 30
0.0
  0
SPLINE
  5
25c
100
AcDbEntity
  8
Layer_1
 62
7
100
AcDbSpline
 70
8
 71
3
 72
8
 73
4
 74
0
 40
0
 40
0
 40
0
 40
0
 40
1
 40
1
 40
1
 40
1
 10
137.814020
 20
90.109450
 30
0.0
 10
139.813093
 20
90.109450
 30
0.0
 10
141.422347
 20
89.509730
 30
0.0
 10
142.641780
 20
88.310290
 30
0.0
  0
SPLINE
  5
25d
100
AcDbEntity
  8
Layer_1
 62
7
100
AcDbSpline
 70
8
 71
3
 72
8
 73
4
 74
0
 40
0
 40
0
 40
0
 40
0
 40
1
 40
1
 40
1
 40
1
 10
142.641780
 20
88.310290
 30
0.0
 10
143.881207
 20
87.110843
 30
0.0
 10
144.500920
 20
85.331667
 30
0.0
 10
144.500920
 20
82.972760
 30
0.0
  0
LWPOLYLINE
  5
25e
100
AcDbEntity
  8
Layer_1
 62
7
100
AcDbPolyline
 90
3
 70
0
 10
118.982740
 20
81.893260
 30
0.0
 10
118.982740
 20
89.869560
 30
0.0
 10
123.660570
 20
89.869560
 30
0.0
  0
SPLINE
  5
25f
100
AcDbEntity
  8
Layer_1
 62
7
100
AcDbSpline
 70
8
 71
3
 72
8
 73
4
 74
0
 40
0
 40
0
 40
0
 40
0
 40
1
 40
1
 40
1
 40
1
 10
139.823090
 20
82.253090
 30
0.0
 10
139.823090
 20
83.532497
 30
0.0
 10
139.543220
 20
84.482057
 30
0.0
 10
138.983480
 20
85.101770
 30
0.0
  0
SPLINE
  5
260
100
AcDbEntity
  8
Layer_1
 62
7
100
AcDbSpline
 70
8
 71
3
 72
8
 73
4
 74
0
 40
0
 40
0
 40
0
 40
0
 40
1
 40
1
 40
1
 40
1
 10
138.983480
 20
85.101770
 30
0.0
 10
138.423740
 20
85.741477
 30
0.0
 10
137.614113
 20
86.061330
 30
0.0
 10
136.554600
 20
86.061330
 30
0.0
  0
SPLINE
  5
261
100
AcDbEntity
  8
Layer_1
 62
7
100
AcDbSpline
 70
8
 71
3
 72
8
 73
4
 74
0
 40
0
 40
0
 40
0
 40
0
 40
1
 40
1
 40
1
 40
1
 10
136.554600
 20
86.061330
 30
0.0
 10
135.375147
 20
86.061330
 30
0.0
 10
134.435583
 20
85.691500
 30
0.0
 10
133.735910
 20
84.951840
 30
0.0
  0
SPLINE
  5
262
100
AcDbEntity
  8
Layer_1
 62
7
100
AcDbSpline
 70
8
 71
3
 72
8
 73
4
 74
0
 40
0
 40
0
 40
0
 40
0
 40
1
 40
1
 40
1
 40
1
 10
133.735910
 20
84.951840
 30
0.0
 10
133.036237
 20
84.232173
 30
0.0
 10
132.686400
 20
83.152673
 30
0.0
 10
132.686400
 20
81.713340
 30
0.0
  0
LWPOLYLINE
  5
263
100
AcDbEntity
  8
Layer_1
 62
7
100
AcDbPolyline
 90
4
 70
0
 10
144.500920
 20
82.972760
 30
0.0
 10
144.500920
 20
73.737040
 30
0.0
 10
139.823090
 20
73.737040
 30
0.0
 10
139.823090
 20
82.253090
 30
0.0
  0
SPLINE
  5
264
100
AcDbEntity
  8
Layer_1
 62
7
100
AcDbSpline
 70
8
 71
3
 72
8
 73
4
 74
0
 40
0
 40
0
 40
0
 40
0
 40
1
 40
1
 40
1
 40
1
 10
132.476490
 20
87.980440
 30
0.0
 10
133.096203
 20
88.660127
 30
0.0
 10
133.865847
 20
89.179887
 30
0.0
 10
134.785420
 20
89.539720
 30
0.0
  0
SPLINE
  5
265
100
AcDbEntity
  8
Layer_1
 62
7
100
AcDbSpline
 70
8
 71
3
 72
8
 73
4
 74
0
 40
0
 40
0
 40
0
 40
0
 40
1
 40
1
 40
1
 40
1
 10
134.785420
 20
89.539720
 30
0.0
 10
135.704993
 20
89.919540
 30
0.0
 10
136.714527
 20
90.109450
 30
0.0
 10
137.814020
 20
90.109450
 30
0.0
  0
LWPOLYLINE
  5
266
100
AcDbEntity
  8
Layer_1
 62
7
100
AcDbPolyline
 90
6
 70
0
 10
132.686400
 20
81.713340
 30
0.0
 10
132.686400
 20
73.737040
 30
0.0
 10
128.008560
 20
73.737040
 30
0.0
 10
128.008560
 20
89.869560
 30
0.0
 10
132.476490
 20
89.869560
 30
0.0
 10
132.476490
 20
87.980440
 30
0.0
  0
SPLINE
  5
267
100
AcDbEntity
  8
Layer_1
 62
7
100
AcDbSpline
 70
8
 71
3
 72
8
 73
4
 74
0
 40
0
 40
0
 40
0
 40
0
 40
1
 40
1
 40
1
 40
1
 10
158.534420
 20
90.109450
 30
0.0
 10
160.533493
 20
90.109450
 30
0.0
 10
162.142747
 20
89.509730
 30
0.0
 10
163.362180
 20
88.310290
 30
0.0
  0
SPLINE
  5
268
100
AcDbEntity
  8
Layer_1
 62
7
100
AcDbSpline
 70
8
 71
3
 72
8
 73
4
 74
0
 40
0
 40
0
 40
0
 40
0
 40
1
 40
1
 40
1
 40
1
 10
163.362180
 20
88.310290
 30
0.0
 10
164.601607
 20
87.110843
 30
0.0
 10
165.221320
 20
85.331667
 30
0.0
 10
165.221320
 20
82.972760
 30
0.0
  0
LWPOLYLINE
  5
269
100
AcDbEntity
  8
Layer_1
 62
7
100
AcDbPolyline
 90
1
 70
1
 10
137.814020
 20
90.109450
 30
0.0
  0
SPLINE
  5
26a
100
AcDbEntity
  8
Layer_1
 62
7
100
AcDbSpline
 70
8
 71
3
 72
8
 73
4
 74
0
 40
0
 40
0
 40
0
 40
0
 40
1
 40
1
 40
1
 40
1
 10
160.543480
 20
82.253090
 30
0.0
 10
160.543480
 20
83.532497
 30
0.0
 10
160.263610
 20
84.482057
 30
0.0
 10
159.703870
 20
85.101770
 30
0.0
  0
SPLINE
  5
26b
100
AcDbEntity
  8
Layer_1
 62
7
100
AcDbSpline
 70
8
 71
3
 72
8
 73
4
 74
0
 40
0
 40
0
 40
0
 40
0
 40
1
 40
1
 40
1
 40
1
 10
159.703870
 20
85.101770
 30
0.0
 10
159.144130
 20
85.741477
 30
0.0
 10
158.334507
 20
86.061330
 30
0.0
 10
157.275000
 20
86.061330
 30
0.0
  0
SPLINE
  5
26c
100
AcDbEntity
  8
Layer_1
 62
7
100
AcDbSpline
 70
8
 71
3
 72
8
 73
4
 74
0
 40
0
 40
0
 40
0
 40
0
 40
1
 40
1
 40
1
 40
1
 10
157.275000
 20
86.061330
 30
0.0
 10
156.095547
 20
86.061330
 30
0.0
 10
155.155983
 20
85.691500
 30
0.0
 10
154.456310
 20
84.951840
 30
0.0
  0
SPLINE
  5
26d
100
AcDbEntity
  8
Layer_1
 62
7
100
AcDbSpline
 70
8
 71
3
 72
8
 73
4
 74
0
 40
0
 40
0
 40
0
 40
0
 40
1
 40
1
 40
1
 40
1
 10
154.456310
 20
84.951840
 30
0.0
 10
153.756630
 20
84.232173
 30
0.0
 10
153.406790
 20
83.152673
 30
0.0
 10
153.406790
 20
81.713340
 30
0.0
  0
LWPOLYLINE
  5
26e
100
AcDbEntity
  8
Layer_1
 62
7
100
AcDbPolyline
 90
4
 70
0
 10
165.221320
 20
82.972760
 30
0.0
 10
165.221320
 20
73.737040
 30
0.0
 10
160.543480
 20
73.737040
 30
0.0
 10
160.543480
 20
82.253090
 30
0.0
  0
SPLINE
  5
26f
100
AcDbEntity
  8
Layer_1
 62
7
100
AcDbSpline
 70
8
 71
3
 72
8
 73
4
 74
0
 40
0
 40
0
 40
0
 40
0
 40
1
 40
1
 40
1
 40
1
 10
153.196890
 20
87.980440
 30
0.0
 10
153.816603
 20
88.660127
 30
0.0
 10
154.586247
 20
89.179887
 30
0.0
 10
155.505820
 20
89.539720
 30
0.0
  0
SPLINE
  5
270
100
AcDbEntity
  8
Layer_1
 62
7
100
AcDbSpline
 70
8
 71
3
 72
8
 73
4
 74
0
 40
0
 40
0
 40
0
 40
0
 40
1
 40
1
 40
1
 40
1
 10
155.505820
 20
89.539720
 30
0.0
 10
156.425393
 20
89.919540
 30
0.0
 10
157.434927
 20
90.109450
 30
0.0
 10
158.534420
 20
90.109450
 30
0.0
  0
LWPOLYLINE
  5
271
100
AcDbEntity
  8
Layer_1
 62
7
100
AcDbPolyline
 90
6
 70
0
 10
153.406790
 20
81.713340
 30
0.0
 10
153.406790
 20
73.737040
 30
0.0
 10
148.728960
 20
73.737040
 30
0.0
 10
148.728960
 20
89.869560
 30
0.0
 10
153.196890
 20
89.869560
 30
0.0
 10
153.196890
 20
87.980440
 30
0.0
  0
SPLINE
  5
272
100
AcDbEntity
  8
Layer_1
 62
7
100
AcDbSpline
 70
8
 71
3
 72
8
 73
4
 74
0
 40
0
 40
0
 40
0
 40
0
 40
1
 40
1
 40
1
 40
1
 10
177.755520
 20
77.245420
 30
0.0
 10
178.595133
 20
77.245420
 30
0.0
 10
179.334793
 20
77.365363
 30
0.0
 10
179.974500
 20
77.605250
 30
0.0
  0
SPLINE
  5
273
100
AcDbEntity
  8
Layer_1
 62
7
100
AcDbSpline
 70
8
 71
3
 72
8
 73
4
 74
0
 40
0
 40
0
 40
0
 40
0
 40
1
 40
1
 40
1
 40
1
 10
179.974500
 20
77.605250
 30
0.0
 10
180.634193
 20
77.865130
 30
0.0
 10
181.243910
 20
78.264943
 30
0.0
 10
181.803650
 20
78.804690
 30
0.0
  0
LWPOLYLINE
  5
274
100
AcDbEntity
  8
Layer_1
 62
7
100
AcDbPolyline
 90
1
 70
1
 10
158.534420
 20
90.109450
 30
0.0
  0
SPLINE
  5
275
100
AcDbEntity
  8
Layer_1
 62
7
100
AcDbSpline
 70
8
 71
3
 72
8
 73
4
 74
0
 40
0
 40
0
 40
0
 40
0
 40
1
 40
1
 40
1
 40
1
 10
184.292490
 20
76.105940
 30
0.0
 10
182.773197
 20
74.366747
 30
0.0
 10
180.554227
 20
73.497150
 30
0.0
 10
177.635580
 20
73.497150
 30
0.0
  0
SPLINE
  5
276
100
AcDbEntity
  8
Layer_1
 62
7
100
AcDbSpline
 70
8
 71
3
 72
8
 73
4
 74
0
 40
0
 40
0
 40
0
 40
0
 40
1
 40
1
 40
1
 40
1
 10
177.635580
 20
73.497150
 30
0.0
 10
175.816420
 20
73.497150
 30
0.0
 10
174.207167
 20
73.846990
 30
0.0
 10
172.807820
 20
74.546670
 30
0.0
  0
SPLINE
  5
277
100
AcDbEntity
  8
Layer_1
 62
7
100
AcDbSpline
 70
8
 71
3
 72
8
 73
4
 74
0
 40
0
 40
0
 40
0
 40
0
 40
1
 40
1
 40
1
 40
1
 10
172.807820
 20
74.546670
 30
0.0
 10
171.408467
 20
75.266337
 30
0.0
 10
170.328967
 20
76.255877
 30
0.0
 10
169.569320
 20
77.515290
 30
0.0
  0
SPLINE
  5
278
100
AcDbEntity
  8
Layer_1
 62
7
100
AcDbSpline
 70
8
 71
3
 72
8
 73
4
 74
0
 40
0
 40
0
 40
0
 40
0
 40
1
 40
1
 40
1
 40
1
 10
169.569320
 20
77.515290
 30
0.0
 10
168.809673
 20
78.774703
 30
0.0
 10
168.429850
 20
80.204040
 30
0.0
 10
168.429850
 20
81.803300
 30
0.0
  0
SPLINE
  5
279
100
AcDbEntity
  8
Layer_1
 62
7
100
AcDbSpline
 70
8
 71
3
 72
8
 73
4
 74
0
 40
0
 40
0
 40
0
 40
0
 40
1
 40
1
 40
1
 40
1
 10
168.429850
 20
81.803300
 30
0.0
 10
168.429850
 20
83.382567
 30
0.0
 10
168.799677
 20
84.801910
 30
0.0
 10
169.539330
 20
86.061330
 30
0.0
  0
SPLINE
  5
27a
100
AcDbEntity
  8
Layer_1
 62
7
100
AcDbSpline
 70
8
 71
3
 72
8
 73
4
 74
0
 40
0
 40
0
 40
0
 40
0
 40
1
 40
1
 40
1
 40
1
 10
169.539330
 20
86.061330
 30
0.0
 10
170.298977
 20
87.340737
 30
0.0
 10
171.328500
 20
88.330277
 30
0.0
 10
172.627900
 20
89.029950
 30
0.0
  0
SPLINE
  5
27b
100
AcDbEntity
  8
Layer_1
 62
7
100
AcDbSpline
 70
8
 71
3
 72
8
 73
4
 74
0
 40
0
 40
0
 40
0
 40
0
 40
1
 40
1
 40
1
 40
1
 10
172.627900
 20
89.029950
 30
0.0
 10
173.947287
 20
89.749617
 30
0.0
 10
175.426600
 20
90.109450
 30
0.0
 10
177.065840
 20
90.109450
 30
0.0
  0
SPLINE
  5
27c
100
AcDbEntity
  8
Layer_1
 62
7
100
AcDbSpline
 70
8
 71
3
 72
8
 73
4
 74
0
 40
0
 40
0
 40
0
 40
0
 40
1
 40
1
 40
1
 40
1
 10
177.065840
 20
90.109450
 30
0.0
 10
178.605127
 20
90.109450
 30
0.0
 10
180.004480
 20
89.779603
 30
0.0
 10
181.263900
 20
89.119910
 30
0.0
  0
SPLINE
  5
27d
100
AcDbEntity
  8
Layer_1
 62
7
100
AcDbSpline
 70
8
 71
3
 72
8
 73
4
 74
0
 40
0
 40
0
 40
0
 40
0
 40
1
 40
1
 40
1
 40
1
 10
181.263900
 20
89.119910
 30
0.0
 10
182.523313
 20
88.480210
 30
0.0
 10
183.522850
 20
87.540647
 30
0.0
 10
184.262510
 20
86.301220
 30
0.0
  0
SPLINE
  5
27e
100
AcDbEntity
  8
Layer_1
 62
7
100
AcDbSpline
 70
8
 71
3
 72
8
 73
4
 74
0
 40
0
 40
0
 40
0
 40
0
 40
1
 40
1
 40
1
 40
1
 10
184.262510
 20
86.301220
 30
0.0
 10
185.022157
 20
85.081787
 30
0.0
 10
185.401980
 20
83.632457
 30
0.0
 10
185.401980
 20
81.953230
 30
0.0
  0
LWPOLYLINE
  5
27f
100
AcDbEntity
  8
Layer_1
 62
7
100
AcDbPolyline
 90
2
 70
0
 10
181.803650
 20
78.804690
 30
0.0
 10
184.292490
 20
76.105940
 30
0.0
  0
SPLINE
  5
280
100
AcDbEntity
  8
Layer_1
 62
7
100
AcDbSpline
 70
8
 71
3
 72
8
 73
4
 74
0
 40
0
 40
0
 40
0
 40
0
 40
1
 40
1
 40
1
 40
1
 10
173.467510
 20
79.644300
 30
0.0
 10
173.807357
 20
78.844673
 30
0.0
 10
174.337113
 20
78.244953
 30
0.0
 10
175.056780
 20
77.845140
 30
0.0
  0
SPLINE
  5
281
100
AcDbEntity
  8
Layer_1
 62
7
100
AcDbSpline
 70
8
 71
3
 72
8
 73
4
 74
0
 40
0
 40
0
 40
0
 40
0
 40
1
 40
1
 40
1
 40
1
 10
175.056780
 20
77.845140
 30
0.0
 10
175.796433
 20
77.445327
 30
0.0
 10
176.696013
 20
77.245420
 30
0.0
 10
177.755520
 20
77.245420
 30
0.0
  0
LWPOLYLINE
  5
282
100
AcDbEntity
  8
Layer_1
 62
7
100
AcDbPolyline
 90
2
 70
0
 10
185.401980
 20
81.953230
 30
0.0
 10
173.467510
 20
79.644300
 30
0.0
  0
SPLINE
  5
283
100
AcDbEntity
  8
Layer_1
 62
7
100
AcDbSpline
 70
8
 71
3
 72
8
 73
4
 74
0
 40
0
 40
0
 40
0
 40
0
 40
1
 40
1
 40
1
 40
1
 10
177.065840
 20
86.571090
 30
0.0
 10
175.886387
 20
86.571090
 30
0.0
 10
174.926833
 20
86.191267
 30
0.0
 10
174.187180
 20
85.431620
 30
0.0
  0
SPLINE
  5
284
100
AcDbEntity
  8
Layer_1
 62
7
100
AcDbSpline
 70
8
 71
3
 72
8
 73
4
 74
0
 40
0
 40
0
 40
0
 40
0
 40
1
 40
1
 40
1
 40
1
 10
174.187180
 20
85.431620
 30
0.0
 10
173.447520
 20
84.671973
 30
0.0
 10
173.057700
 20
83.622460
 30
0.0
 10
173.017720
 20
82.283080
 30
0.0
  0
LWPOLYLINE
  5
285
100
AcDbEntity
  8
Layer_1
 62
7
100
AcDbPolyline
 90
1
 70
1
 10
177.755520
 20
77.245420
 30
0.0
  0
SPLINE
  5
286
100
AcDbEntity
  8
Layer_1
 62
7
100
AcDbSpline
 70
8
 71
3
 72
8
 73
4
 74
0
 40
0
 40
0
 40
0
 40
0
 40
1
 40
1
 40
1
 40
1
 10
180.874080
 20
83.812370
 30
0.0
 10
180.654180
 20
84.651983
 30
0.0
 10
180.204387
 20
85.321673
 30
0.0
 10
179.524700
 20
85.821440
 30
0.0
  0
SPLINE
  5
287
100
AcDbEntity
  8
Layer_1
 62
7
100
AcDbSpline
 70
8
 71
3
 72
8
 73
4
 74
0
 40
0
 40
0
 40
0
 40
0
 40
1
 40
1
 40
1
 40
1
 10
179.524700
 20
85.821440
 30
0.0
 10
178.845020
 20
86.321207
 30
0.0
 10
178.025400
 20
86.571090
 30
0.0
 10
177.065840
 20
86.571090
 30
0.0
  0
LWPOLYLINE
  5
288
100
AcDbEntity
  8
Layer_1
 62
7
100
AcDbPolyline
 90
2
 70
0
 10
173.017720
 20
82.283080
 30
0.0
 10
180.874080
 20
83.812370
 30
0.0
  0
SPLINE
  5
289
100
AcDbEntity
  8
Layer_1
 62
7
100
AcDbSpline
 70
8
 71
3
 72
8
 73
4
 74
0
 40
0
 40
0
 40
0
 40
0
 40
1
 40
1
 40
1
 40
1
 10
194.337840
 20
73.497150
 30
0.0
 10
192.518687
 20
73.497150
 30
0.0
 10
191.099347
 20
73.976930
 30
0.0
 10
190.079820
 20
74.936490
 30
0.0
  0
SPLINE
  5
28a
100
AcDbEntity
  8
Layer_1
 62
7
100
AcDbSpline
 70
8
 71
3
 72
8
 73
4
 74
0
 40
0
 40
0
 40
0
 40
0
 40
1
 40
1
 40
1
 40
1
 10
190.079820
 20
74.936490
 30
0.0
 10
189.060293
 20
75.916030
 30
0.0
 10
188.550530
 20
77.295390
 30
0.0
 10
188.550530
 20
79.074570
 30
0.0
  0
LWPOLYLINE
  5
28b
100
AcDbEntity
  8
Layer_1
 62
7
100
AcDbPolyline
 90
1
 70
1
 10
177.065840
 20
86.571090
 30
0.0
  0
SPLINE
  5
28c
100
AcDbEntity
  8
Layer_1
 62
7
100
AcDbSpline
 70
8
 71
3
 72
8
 73
4
 74
0
 40
0
 40
0
 40
0
 40
0
 40
1
 40
1
 40
1
 40
1
 10
193.228360
 20
79.344440
 30
0.0
 10
193.228360
 20
78.664753
 30
0.0
 10
193.398280
 20
78.135000
 30
0.0
 10
193.738120
 20
77.755180
 30
0.0
  0
SPLINE
  5
28d
100
AcDbEntity
  8
Layer_1
 62
7
100
AcDbSpline
 70
8
 71
3
 72
8
 73
4
 74
0
 40
0
 40
0
 40
0
 40
0
 40
1
 40
1
 40
1
 40
1
 10
193.738120
 20
77.755180
 30
0.0
 10
194.097953
 20
77.395347
 30
0.0
 10
194.597723
 20
77.215430
 30
0.0
 10
195.237430
 20
77.215430
 30
0.0
  0
SPLINE
  5
28e
100
AcDbEntity
  8
Layer_1
 62
7
100
AcDbSpline
 70
8
 71
3
 72
8
 73
4
 74
0
 40
0
 40
0
 40
0
 40
0
 40
1
 40
1
 40
1
 40
1
 10
195.237430
 20
77.215430
 30
0.0
 10
195.477317
 20
77.215430
 30
0.0
 10
195.717203
 20
77.245430
 30
0.0
 10
195.957090
 20
77.305430
 30
0.0
  0
SPLINE
  5
28f
100
AcDbEntity
  8
Layer_1
 62
7
100
AcDbSpline
 70
8
 71
3
 72
8
 73
4
 74
0
 40
0
 40
0
 40
0
 40
0
 40
1
 40
1
 40
1
 40
1
 10
195.957090
 20
77.305430
 30
0.0
 10
196.216970
 20
77.365430
 30
0.0
 10
196.416877
 20
77.435397
 30
0.0
 10
196.556810
 20
77.515330
 30
0.0
  0
LWPOLYLINE
  5
290
100
AcDbEntity
  8
Layer_1
 62
7
100
AcDbPolyline
 90
4
 70
0
 10
188.550530
 20
79.074570
 30
0.0
 10
188.550530
 20
95.986730
 30
0.0
 10
193.228360
 20
95.986730
 30
0.0
 10
193.228360
 20
79.344440
 30
0.0
  0
SPLINE
  5
291
100
AcDbEntity
  8
Layer_1
 62
7
100
AcDbSpline
 70
8
 71
3
 72
8
 73
4
 74
0
 40
0
 40
0
 40
0
 40
0
 40
1
 40
1
 40
1
 40
1
 10
196.766720
 20
73.887010
 30
0.0
 10
195.987080
 20
73.627130
 30
0.0
 10
195.177453
 20
73.497190
 30
0.0
 10
194.337840
 20
73.497190
 30
0.0
  0
LWPOLYLINE
  5
292
100
AcDbEntity
  8
Layer_1
 62
7
100
AcDbPolyline
 90
2
 70
0
 10
196.556810
 20
77.515330
 30
0.0
 10
196.766720
 20
73.887010
 30
0.0
  0
SPLINE
  5
293
100
AcDbEntity
  8
Layer_1
 62
7
100
AcDbSpline
 70
8
 71
3
 72
8
 73
4
 74
0
 40
0
 40
0
 40
0
 40
0
 40
1
 40
1
 40
1
 40
1
 10
18.155938
 20
181.018735
 30
0.0
 10
17.813061
 20
180.555537
 30
0.0
 10
17.546378
 20
180.143809
 30
0.0
 10
17.546378
 20
180.118070
 30
0.0
  0
SPLINE
  5
294
100
AcDbEntity
  8
Layer_1
 62
7
100
AcDbSpline
 70
8
 71
3
 72
8
 73
4
 74
0
 40
0
 40
0
 40
0
 40
0
 40
1
 40
1
 40
1
 40
1
 10
17.546378
 20
180.118070
 30
0.0
 10
17.546378
 20
180.079445
 30
0.0
 10
18.232133
 20
180.053723
 30
0.0
 10
19.070277
 20
180.053723
 30
0.0
  0
LWPOLYLINE
  5
295
100
AcDbEntity
  8
Layer_1
 62
7
100
AcDbPolyline
 90
1
 70
1
 10
194.337840
 20
73.497190
 30
0.0
  0
SPLINE
  5
296
100
AcDbEntity
  8
Layer_1
 62
7
100
AcDbSpline
 70
8
 71
3
 72
8
 73
4
 74
0
 40
0
 40
0
 40
0
 40
0
 40
1
 40
1
 40
1
 40
1
 10
20.975150
 20
180.645590
 30
0.0
 10
21.775199
 20
181.880784
 30
0.0
 10
21.775199
 20
181.855054
 30
0.0
 10
20.175103
 20
181.855054
 30
0.0
  0
LWPOLYLINE
  5
297
100
AcDbEntity
  8
Layer_1
 62
7
100
AcDbPolyline
 90
3
 70
0
 10
19.070277
 20
180.053723
 30
0.0
 10
20.613225
 20
180.053723
 30
0.0
 10
20.975150
 20
180.645590
 30
0.0
  0
SPLINE
  5
298
100
AcDbEntity
  8
Layer_1
 62
7
100
AcDbSpline
 70
8
 71
3
 72
8
 73
4
 74
0
 40
0
 40
0
 40
0
 40
0
 40
1
 40
1
 40
1
 40
1
 10
22.575248
 20
181.404733
 30
0.0
 10
22.441903
 20
181.160265
 30
0.0
 10
22.175219
 20
180.748536
 30
0.0
 10
22.022831
 20
180.504068
 30
0.0
  0
LWPOLYLINE
  5
299
100
AcDbEntity
  8
Layer_1
 62
7
100
AcDbPolyline
 90
3
 70
0
 10
20.175103
 20
181.855054
 30
0.0
 10
18.765498
 20
181.855054
 30
0.0
 10
18.155938
 20
181.018735
 30
0.0
  0
SPLINE
  5
29a
100
AcDbEntity
  8
Layer_1
 62
7
100
AcDbSpline
 70
8
 71
3
 72
8
 73
4
 74
0
 40
0
 40
0
 40
0
 40
0
 40
1
 40
1
 40
1
 40
1
 10
29.680421
 20
180.890083
 30
0.0
 10
29.813767
 20
181.314681
 30
0.0
 10
29.909006
 20
181.700679
 30
0.0
 10
29.928059
 20
181.765010
 30
0.0
  0
SPLINE
  5
29b
100
AcDbEntity
  8
Layer_1
 62
7
100
AcDbSpline
 70
8
 71
3
 72
8
 73
4
 74
0
 40
0
 40
0
 40
0
 40
0
 40
1
 40
1
 40
1
 40
1
 10
29.928059
 20
181.765010
 30
0.0
 10
29.928059
 20
181.816454
 30
0.0
 10
28.347017
 20
181.855079
 30
0.0
 10
26.384990
 20
181.855079
 30
0.0
  0
LWPOLYLINE
  5
29c
100
AcDbEntity
  8
Layer_1
 62
7
100
AcDbPolyline
 90
5
 70
0
 10
22.022831
 20
180.504068
 30
0.0
 10
21.756148
 20
180.053740
 30
0.0
 10
25.603996
 20
180.079462
 30
0.0
 10
29.432791
 20
180.118086
 30
0.0
 10
29.680421
 20
180.890083
 30
0.0
  0
SPLINE
  5
29d
100
AcDbEntity
  8
Layer_1
 62
7
100
AcDbSpline
 70
8
 71
3
 72
8
 73
4
 74
0
 40
0
 40
0
 40
0
 40
0
 40
1
 40
1
 40
1
 40
1
 10
30.899542
 20
181.379003
 30
0.0
 10
30.804302
 20
181.108804
 30
0.0
 10
30.670965
 20
180.697067
 30
0.0
 10
30.613814
 20
180.478338
 30
0.0
  0
LWPOLYLINE
  5
29e
100
AcDbEntity
  8
Layer_1
 62
7
100
AcDbPolyline
 90
3
 70
0
 10
26.384990
 20
181.855079
 30
0.0
 10
22.860974
 20
181.855079
 30
0.0
 10
22.575248
 20
181.404733
 30
0.0
  0
LWPOLYLINE
  5
29f
100
AcDbEntity
  8
Layer_1
 62
7
100
AcDbPolyline
 90
9
 70
0
 10
30.613814
 20
180.478338
 30
0.0
 10
30.518567
 20
180.053740
 30
0.0
 10
34.404505
 20
180.053740
 30
0.0
 10
38.309497
 20
180.053740
 30
0.0
 10
38.309497
 20
180.954405
 30
0.0
 10
38.309497
 20
181.855062
 30
0.0
 10
34.690241
 20
181.855062
 30
0.0
 10
31.090029
 20
181.855062
 30
0.0
 10
30.899542
 20
181.379003
 30
0.0
  0
SPLINE
  5
2a0
100
AcDbEntity
  8
Layer_1
 62
7
100
AcDbSpline
 70
8
 71
3
 72
8
 73
4
 74
0
 40
0
 40
0
 40
0
 40
0
 40
1
 40
1
 40
1
 40
1
 10
47.795770
 20
180.671337
 30
0.0
 10
47.414795
 20
182.009461
 30
0.0
 10
47.986258
 20
181.855062
 30
0.0
 10
43.452662
 20
181.855062
 30
0.0
  0
LWPOLYLINE
  5
2a1
100
AcDbEntity
  8
Layer_1
 62
7
100
AcDbPolyline
 90
5
 70
0
 10
39.452422
 20
180.954405
 30
0.0
 10
39.452422
 20
180.053740
 30
0.0
 10
43.719344
 20
180.053740
 30
0.0
 10
47.986258
 20
180.053740
 30
0.0
 10
47.795770
 20
180.671337
 30
0.0
  0
SPLINE
  5
2a2
100
AcDbEntity
  8
Layer_1
 62
7
100
AcDbSpline
 70
8
 71
3
 72
8
 73
4
 74
0
 40
0
 40
0
 40
0
 40
0
 40
1
 40
1
 40
1
 40
1
 10
48.652961
 20
181.572002
 30
0.0
 10
48.710138
 20
181.404733
 30
0.0
 10
48.824403
 20
181.005866
 30
0.0
 10
48.881554
 20
180.671337
 30
0.0
  0
LWPOLYLINE
  5
2a3
100
AcDbEntity
  8
Layer_1
 62
7
100
AcDbPolyline
 90
3
 70
0
 10
43.452662
 20
181.855062
 30
0.0
 10
39.452422
 20
181.855062
 30
0.0
 10
39.452422
 20
180.954405
 30
0.0
  0
SPLINE
  5
2a4
100
AcDbEntity
  8
Layer_1
 62
7
100
AcDbSpline
 70
8
 71
3
 72
8
 73
4
 74
0
 40
0
 40
0
 40
0
 40
0
 40
1
 40
1
 40
1
 40
1
 10
52.138888
 20
180.053740
 30
0.0
 10
53.853267
 20
180.053740
 30
0.0
 10
55.262875
 20
180.066642
 30
0.0
 10
55.262875
 20
180.092364
 30
0.0
  0
SPLINE
  5
2a5
100
AcDbEntity
  8
Layer_1
 62
7
100
AcDbSpline
 70
8
 71
3
 72
8
 73
4
 74
0
 40
0
 40
0
 40
0
 40
0
 40
1
 40
1
 40
1
 40
1
 10
55.262875
 20
180.092364
 30
0.0
 10
55.262875
 20
180.105267
 30
0.0
 10
55.053335
 20
180.491232
 30
0.0
 10
54.805706
 20
180.954430
 30
0.0
  0
LWPOLYLINE
  5
2a6
100
AcDbEntity
  8
Layer_1
 62
7
100
AcDbPolyline
 90
3
 70
0
 10
48.881554
 20
180.671337
 30
0.0
 10
49.014891
 20
180.053740
 30
0.0
 10
52.138888
 20
180.053740
 30
0.0
  0
SPLINE
  5
2a7
100
AcDbEntity
  8
Layer_1
 62
7
100
AcDbSpline
 70
8
 71
3
 72
8
 73
4
 74
0
 40
0
 40
0
 40
0
 40
0
 40
1
 40
1
 40
1
 40
1
 10
55.491461
 20
181.764993
 30
0.0
 10
55.529559
 20
181.700646
 30
0.0
 10
55.758143
 20
181.301803
 30
0.0
 10
56.005773
 20
180.864336
 30
0.0
  0
LWPOLYLINE
  5
2a8
100
AcDbEntity
  8
Layer_1
 62
7
100
AcDbPolyline
 90
5
 70
0
 10
54.805706
 20
180.954430
 30
0.0
 10
54.348535
 20
181.790757
 30
0.0
 10
51.453133
 20
181.829381
 30
0.0
 10
48.557720
 20
181.868006
 30
0.0
 10
48.652961
 20
181.572002
 30
0.0
  0
SPLINE
  5
2a9
100
AcDbEntity
  8
Layer_1
 62
7
100
AcDbSpline
 70
8
 71
3
 72
8
 73
4
 74
0
 40
0
 40
0
 40
0
 40
0
 40
1
 40
1
 40
1
 40
1
 10
58.139234
 20
180.053740
 30
0.0
 10
60.044110
 20
180.053740
 30
0.0
 10
59.948862
 20
179.925079
 30
0.0
 10
59.091672
 20
181.250334
 30
0.0
  0
LWPOLYLINE
  5
2aa
100
AcDbEntity
  8
Layer_1
 62
7
100
AcDbPolyline
 90
3
 70
0
 10
56.005773
 20
180.864336
 30
0.0
 10
56.462943
 20
180.053740
 30
0.0
 10
58.139234
 20
180.053740
 30
0.0
  0
SPLINE
  5
2ab
100
AcDbEntity
  8
Layer_1
 62
7
100
AcDbSpline
 70
8
 71
3
 72
8
 73
4
 74
0
 40
0
 40
0
 40
0
 40
0
 40
1
 40
1
 40
1
 40
1
 10
57.072503
 20
181.855062
 30
0.0
 10
56.158163
 20
181.855062
 30
0.0
 10
55.453355
 20
181.816437
 30
0.0
 10
55.491461
 20
181.764993
 30
0.0
  0
LWPOLYLINE
  5
2ac
100
AcDbEntity
  8
Layer_1
 62
7
100
AcDbPolyline
 90
3
 70
0
 10
59.091672
 20
181.250334
 30
0.0
 10
58.710688
 20
181.855062
 30
0.0
 10
57.072503
 20
181.855062
 30
0.0
  0
LWPOLYLINE
  5
2ad
100
AcDbEntity
  8
Layer_1
 62
7
100
AcDbPolyline
 90
1
 70
1
 10
55.491461
 20
181.764993
 30
0.0
  0
SPLINE
  5
2ae
100
AcDbEntity
  8
Layer_1
 62
7
100
AcDbSpline
 70
8
 71
3
 72
8
 73
4
 74
0
 40
0
 40
0
 40
0
 40
0
 40
1
 40
1
 40
1
 40
1
 10
19.622691
 20
178.072287
 30
0.0
 10
19.946520
 20
178.677015
 30
0.0
 10
20.213201
 20
179.217413
 30
0.0
 10
20.213201
 20
179.294612
 30
0.0
  0
SPLINE
  5
2af
100
AcDbEntity
  8
Layer_1
 62
7
100
AcDbSpline
 70
8
 71
3
 72
8
 73
4
 74
0
 40
0
 40
0
 40
0
 40
0
 40
1
 40
1
 40
1
 40
1
 10
20.213201
 20
179.294612
 30
0.0
 10
20.213201
 20
179.358959
 30
0.0
 10
19.508398
 20
179.410412
 30
0.0
 10
18.651204
 20
179.410412
 30
0.0
  0
LWPOLYLINE
  5
2b0
100
AcDbEntity
  8
Layer_1
 62
7
100
AcDbPolyline
 90
5
 70
0
 10
16.270113
 20
178.188079
 30
0.0
 10
15.489116
 20
176.965762
 30
0.0
 10
17.260647
 20
176.965762
 30
0.0
 10
19.032180
 20
176.965762
 30
0.0
 10
19.622691
 20
178.072287
 30
0.0
  0
SPLINE
  5
2b1
100
AcDbEntity
  8
Layer_1
 62
7
100
AcDbSpline
 70
8
 71
3
 72
8
 73
4
 74
0
 40
0
 40
0
 40
0
 40
0
 40
1
 40
1
 40
1
 40
1
 10
20.860855
 20
178.355347
 30
0.0
 10
20.575126
 20
177.763480
 30
0.0
 10
20.308445
 20
177.210222
 30
0.0
 10
20.251299
 20
177.133022
 30
0.0
  0
SPLINE
  5
2b2
100
AcDbEntity
  8
Layer_1
 62
7
100
AcDbSpline
 70
8
 71
3
 72
8
 73
4
 74
0
 40
0
 40
0
 40
0
 40
0
 40
1
 40
1
 40
1
 40
1
 10
20.251299
 20
177.133022
 30
0.0
 10
20.194156
 20
177.004353
 30
0.0
 10
21.089443
 20
176.965762
 30
0.0
 10
24.384873
 20
176.965762
 30
0.0
  0
LWPOLYLINE
  5
2b3
100
AcDbEntity
  8
Layer_1
 62
7
100
AcDbPolyline
 90
3
 70
0
 10
18.651204
 20
179.410412
 30
0.0
 10
17.070160
 20
179.397509
 30
0.0
 10
16.270113
 20
178.188079
 30
0.0
  0
SPLINE
  5
2b4
100
AcDbEntity
  8
Layer_1
 62
7
100
AcDbSpline
 70
8
 71
3
 72
8
 73
4
 74
0
 40
0
 40
0
 40
0
 40
0
 40
1
 40
1
 40
1
 40
1
 10
28.689886
 20
177.261691
 30
0.0
 10
28.861328
 20
177.776350
 30
0.0
 10
29.166109
 20
179.063013
 30
0.0
 10
29.166109
 20
179.243143
 30
0.0
  0
SPLINE
  5
2b5
100
AcDbEntity
  8
Layer_1
 62
7
100
AcDbSpline
 70
8
 71
3
 72
8
 73
4
 74
0
 40
0
 40
0
 40
0
 40
0
 40
1
 40
1
 40
1
 40
1
 10
29.166109
 20
179.243143
 30
0.0
 10
29.166109
 20
179.371812
 30
0.0
 10
28.366061
 20
179.410412
 30
0.0
 10
25.280162
 20
179.410412
 30
0.0
  0
LWPOLYLINE
  5
2b6
100
AcDbEntity
  8
Layer_1
 62
7
100
AcDbPolyline
 90
3
 70
0
 10
24.384873
 20
176.965762
 30
0.0
 10
28.594646
 20
176.965762
 30
0.0
 10
28.689886
 20
177.261691
 30
0.0
  0
SPLINE
  5
2b7
100
AcDbEntity
  8
Layer_1
 62
7
100
AcDbSpline
 70
8
 71
3
 72
8
 73
4
 74
0
 40
0
 40
0
 40
0
 40
0
 40
1
 40
1
 40
1
 40
1
 10
30.232840
 20
179.191682
 30
0.0
 10
30.118547
 20
178.921484
 30
0.0
 10
29.737572
 20
177.364621
 30
0.0
 10
29.737572
 20
177.133022
 30
0.0
  0
SPLINE
  5
2b8
100
AcDbEntity
  8
Layer_1
 62
7
100
AcDbSpline
 70
8
 71
3
 72
8
 73
4
 74
0
 40
0
 40
0
 40
0
 40
0
 40
1
 40
1
 40
1
 40
1
 10
29.737572
 20
177.133022
 30
0.0
 10
29.737572
 20
177.004353
 30
0.0
 10
30.728099
 20
176.965762
 30
0.0
 10
34.023538
 20
176.965762
 30
0.0
  0
LWPOLYLINE
  5
2b9
100
AcDbEntity
  8
Layer_1
 62
7
100
AcDbPolyline
 90
3
 70
0
 10
25.280162
 20
179.410412
 30
0.0
 10
21.394223
 20
179.410412
 30
0.0
 10
20.860855
 20
178.355347
 30
0.0
  0
SPLINE
  5
2ba
100
AcDbEntity
  8
Layer_1
 62
7
100
AcDbSpline
 70
8
 71
3
 72
8
 73
4
 74
0
 40
0
 40
0
 40
0
 40
0
 40
1
 40
1
 40
1
 40
1
 10
34.328318
 20
179.410412
 30
0.0
 10
30.690001
 20
179.410412
 30
0.0
 10
30.328078
 20
179.384690
 30
0.0
 10
30.232840
 20
179.191682
 30
0.0
  0
LWPOLYLINE
  5
2bb
100
AcDbEntity
  8
Layer_1
 62
7
100
AcDbPolyline
 90
5
 70
0
 10
34.023538
 20
176.965762
 30
0.0
 10
38.309497
 20
176.965762
 30
0.0
 10
38.309497
 20
178.188079
 30
0.0
 10
38.309497
 20
179.410412
 30
0.0
 10
34.328318
 20
179.410412
 30
0.0
  0
LWPOLYLINE
  5
2bc
100
AcDbEntity
  8
Layer_1
 62
7
100
AcDbPolyline
 90
1
 70
1
 10
30.232840
 20
179.191682
 30
0.0
  0
SPLINE
  5
2bd
100
AcDbEntity
  8
Layer_1
 62
7
100
AcDbSpline
 70
8
 71
3
 72
8
 73
4
 74
0
 40
0
 40
0
 40
0
 40
0
 40
1
 40
1
 40
1
 40
1
 10
44.119364
 20
176.965762
 30
0.0
 10
46.690943
 20
176.965762
 30
0.0
 10
48.786297
 20
177.004303
 30
0.0
 10
48.786297
 20
177.068692
 30
0.0
  0
SPLINE
  5
2be
100
AcDbEntity
  8
Layer_1
 62
7
100
AcDbSpline
 70
8
 71
3
 72
8
 73
4
 74
0
 40
0
 40
0
 40
0
 40
0
 40
1
 40
1
 40
1
 40
1
 10
48.786297
 20
177.068692
 30
0.0
 10
48.767209
 20
177.120136
 30
0.0
 10
48.614871
 20
177.647689
 30
0.0
 10
48.443428
 20
178.252417
 30
0.0
  0
LWPOLYLINE
  5
2bf
100
AcDbEntity
  8
Layer_1
 62
7
100
AcDbPolyline
 90
3
 70
0
 10
39.452422
 20
178.188079
 30
0.0
 10
39.452422
 20
176.965762
 30
0.0
 10
44.119364
 20
176.965762
 30
0.0
  0
SPLINE
  5
2c0
100
AcDbEntity
  8
Layer_1
 62
7
100
AcDbSpline
 70
8
 71
3
 72
8
 73
4
 74
0
 40
0
 40
0
 40
0
 40
0
 40
1
 40
1
 40
1
 40
1
 10
49.186326
 20
179.256013
 30
0.0
 10
49.186326
 20
179.165944
 30
0.0
 10
49.338715
 20
178.625546
 30
0.0
 10
49.529203
 20
178.059418
 30
0.0
  0
LWPOLYLINE
  5
2c1
100
AcDbEntity
  8
Layer_1
 62
7
100
AcDbPolyline
 90
5
 70
0
 10
48.443428
 20
178.252417
 30
0.0
 10
48.100551
 20
179.346082
 30
0.0
 10
43.776487
 20
179.384706
 30
0.0
 10
39.452422
 20
179.410429
 30
0.0
 10
39.452422
 20
178.188079
 30
0.0
  0
SPLINE
  5
2c2
100
AcDbEntity
  8
Layer_1
 62
7
100
AcDbSpline
 70
8
 71
3
 72
8
 73
4
 74
0
 40
0
 40
0
 40
0
 40
0
 40
1
 40
1
 40
1
 40
1
 10
52.424615
 20
179.384765
 30
0.0
 10
49.891126
 20
179.410487
 30
0.0
 10
49.167281
 20
179.384765
 30
0.0
 10
49.186326
 20
179.256104
 30
0.0
  0
LWPOLYLINE
  5
2c3
100
AcDbEntity
  8
Layer_1
 62
7
100
AcDbPolyline
 90
7
 70
0
 10
49.529203
 20
178.059418
 30
0.0
 10
49.853036
 20
177.030092
 30
0.0
 10
53.396097
 20
176.991551
 30
0.0
 10
56.920114
 20
176.965828
 30
0.0
 10
56.310553
 20
178.149554
 30
0.0
 10
55.700993
 20
179.346140
 30
0.0
 10
52.424615
 20
179.384765
 30
0.0
  0
SPLINE
  5
2c4
100
AcDbEntity
  8
Layer_1
 62
7
100
AcDbSpline
 70
8
 71
3
 72
8
 73
4
 74
0
 40
0
 40
0
 40
0
 40
0
 40
1
 40
1
 40
1
 40
1
 10
56.786776
 20
179.346082
 30
0.0
 10
56.786776
 20
179.307457
 30
0.0
 10
57.091549
 20
178.767084
 30
0.0
 10
57.472524
 20
178.123757
 30
0.0
  0
LWPOLYLINE
  5
2c5
100
AcDbEntity
  8
Layer_1
 62
7
100
AcDbPolyline
 90
1
 70
1
 10
49.186326
 20
179.256104
 30
0.0
  0
SPLINE
  5
2c6
100
AcDbEntity
  8
Layer_1
 62
7
100
AcDbSpline
 70
8
 71
3
 72
8
 73
4
 74
0
 40
0
 40
0
 40
0
 40
0
 40
1
 40
1
 40
1
 40
1
 10
59.948862
 20
176.965762
 30
0.0
 10
60.939397
 20
176.965762
 30
0.0
 10
61.739445
 20
177.004303
 30
0.0
 10
61.739445
 20
177.042928
 30
0.0
  0
SPLINE
  5
2c7
100
AcDbEntity
  8
Layer_1
 62
7
100
AcDbSpline
 70
8
 71
3
 72
8
 73
4
 74
0
 40
0
 40
0
 40
0
 40
0
 40
1
 40
1
 40
1
 40
1
 10
61.739445
 20
177.042928
 30
0.0
 10
61.739445
 20
177.081553
 30
0.0
 10
61.377523
 20
177.634787
 30
0.0
 10
60.958450
 20
178.265253
 30
0.0
  0
LWPOLYLINE
  5
2c8
100
AcDbEntity
  8
Layer_1
 62
7
100
AcDbPolyline
 90
3
 70
0
 10
57.472524
 20
178.123757
 30
0.0
 10
58.158279
 20
176.965762
 30
0.0
 10
59.948862
 20
176.965762
 30
0.0
  0
SPLINE
  5
2c9
100
AcDbEntity
  8
Layer_1
 62
7
100
AcDbSpline
 70
8
 71
3
 72
8
 73
4
 74
0
 40
0
 40
0
 40
0
 40
0
 40
1
 40
1
 40
1
 40
1
 10
58.482112
 20
179.410379
 30
0.0
 10
57.548718
 20
179.410379
 30
0.0
 10
56.786776
 20
179.384656
 30
0.0
 10
56.786776
 20
179.346032
 30
0.0
  0
LWPOLYLINE
  5
2ca
100
AcDbEntity
  8
Layer_1
 62
7
100
AcDbPolyline
 90
3
 70
0
 10
60.958450
 20
178.265253
 30
0.0
 10
60.158402
 20
179.410379
 30
0.0
 10
58.482112
 20
179.410379
 30
0.0
  0
SPLINE
  5
2cb
100
AcDbEntity
  8
Layer_1
 62
7
100
AcDbSpline
 70
8
 71
3
 72
8
 73
4
 74
0
 40
0
 40
0
 40
0
 40
0
 40
1
 40
1
 40
1
 40
1
 10
14.936702
 20
176.039358
 30
0.0
 10
14.822410
 20
175.872097
 30
0.0
 10
14.422386
 20
175.293100
 30
0.0
 10
14.041412
 20
174.752711
 30
0.0
  0
LWPOLYLINE
  5
2cc
100
AcDbEntity
  8
Layer_1
 62
7
100
AcDbPolyline
 90
1
 70
1
 10
56.786776
 20
179.346032
 30
0.0
  0
SPLINE
  5
2cd
100
AcDbEntity
  8
Layer_1
 62
7
100
AcDbSpline
 70
8
 71
3
 72
8
 73
4
 74
0
 40
0
 40
0
 40
0
 40
0
 40
1
 40
1
 40
1
 40
1
 10
17.870206
 20
174.817041
 30
0.0
 10
18.194036
 20
175.396038
 30
0.0
 10
18.517864
 20
175.975027
 30
0.0
 10
18.594059
 20
176.103696
 30
0.0
  0
SPLINE
  5
2ce
100
AcDbEntity
  8
Layer_1
 62
7
100
AcDbSpline
 70
8
 71
3
 72
8
 73
4
 74
0
 40
0
 40
0
 40
0
 40
0
 40
1
 40
1
 40
1
 40
1
 10
18.594059
 20
176.103696
 30
0.0
 10
18.727400
 20
176.296695
 30
0.0
 10
18.575005
 20
176.322426
 30
0.0
 10
16.936818
 20
176.322426
 30
0.0
  0
SPLINE
  5
2cf
100
AcDbEntity
  8
Layer_1
 62
7
100
AcDbSpline
 70
8
 71
3
 72
8
 73
4
 74
0
 40
0
 40
0
 40
0
 40
0
 40
1
 40
1
 40
1
 40
1
 10
16.936818
 20
176.322426
 30
0.0
 10
15.260530
 20
176.322426
 30
0.0
 10
15.108141
 20
176.296704
 30
0.0
 10
14.936702
 20
176.039358
 30
0.0
  0
LWPOLYLINE
  5
2d0
100
AcDbEntity
  8
Layer_1
 62
7
100
AcDbPolyline
 90
5
 70
0
 10
14.041412
 20
174.752711
 30
0.0
 10
13.374705
 20
173.749107
 30
0.0
 10
15.317677
 20
173.749107
 30
0.0
 10
17.279697
 20
173.749107
 30
0.0
 10
17.870206
 20
174.817041
 30
0.0
  0
SPLINE
  5
2d1
100
AcDbEntity
  8
Layer_1
 62
7
100
AcDbSpline
 70
8
 71
3
 72
8
 73
4
 74
0
 40
0
 40
0
 40
0
 40
0
 40
1
 40
1
 40
1
 40
1
 10
19.698886
 20
176.103696
 30
0.0
 10
19.641734
 20
175.975027
 30
0.0
 10
19.336960
 20
175.434630
 30
0.0
 10
19.032180
 20
174.907102
 30
0.0
  0
SPLINE
  5
2d2
100
AcDbEntity
  8
Layer_1
 62
7
100
AcDbSpline
 70
8
 71
3
 72
8
 73
4
 74
0
 40
0
 40
0
 40
0
 40
0
 40
1
 40
1
 40
1
 40
1
 10
19.032180
 20
174.907102
 30
0.0
 10
18.746449
 20
174.379582
 30
0.0
 10
18.498814
 20
173.903515
 30
0.0
 10
18.498814
 20
173.852045
 30
0.0
  0
SPLINE
  5
2d3
100
AcDbEntity
  8
Layer_1
 62
7
100
AcDbSpline
 70
8
 71
3
 72
8
 73
4
 74
0
 40
0
 40
0
 40
0
 40
0
 40
1
 40
1
 40
1
 40
1
 10
18.498814
 20
173.852045
 30
0.0
 10
18.498814
 20
173.787782
 30
0.0
 10
20.594176
 20
173.749107
 30
0.0
 10
23.127657
 20
173.749107
 30
0.0
  0
LWPOLYLINE
  5
2d4
100
AcDbEntity
  8
Layer_1
 62
7
100
AcDbPolyline
 90
1
 70
1
 10
14.936702
 20
176.039358
 30
0.0
  0
SPLINE
  5
2d5
100
AcDbEntity
  8
Layer_1
 62
7
100
AcDbSpline
 70
8
 71
3
 72
8
 73
4
 74
0
 40
0
 40
0
 40
0
 40
0
 40
1
 40
1
 40
1
 40
1
 10
28.080334
 20
174.945702
 30
0.0
 10
28.270813
 20
175.601899
 30
0.0
 10
28.404158
 20
176.180896
 30
0.0
 10
28.404158
 20
176.232365
 30
0.0
  0
SPLINE
  5
2d6
100
AcDbEntity
  8
Layer_1
 62
7
100
AcDbSpline
 70
8
 71
3
 72
8
 73
4
 74
0
 40
0
 40
0
 40
0
 40
0
 40
1
 40
1
 40
1
 40
1
 10
28.404158
 20
176.232365
 30
0.0
 10
28.404158
 20
176.283809
 30
0.0
 10
26.480230
 20
176.322426
 30
0.0
 10
24.118190
 20
176.322426
 30
0.0
  0
SPLINE
  5
2d7
100
AcDbEntity
  8
Layer_1
 62
7
100
AcDbSpline
 70
8
 71
3
 72
8
 73
4
 74
0
 40
0
 40
0
 40
0
 40
0
 40
1
 40
1
 40
1
 40
1
 10
24.118190
 20
176.322426
 30
0.0
 10
20.194152
 20
176.322426
 30
0.0
 10
19.813179
 20
176.296704
 30
0.0
 10
19.698886
 20
176.103696
 30
0.0
  0
LWPOLYLINE
  5
2d8
100
AcDbEntity
  8
Layer_1
 62
7
100
AcDbPolyline
 90
3
 70
0
 10
23.127657
 20
173.749107
 30
0.0
 10
27.775553
 20
173.749107
 30
0.0
 10
28.080334
 20
174.945702
 30
0.0
  0
SPLINE
  5
2d9
100
AcDbEntity
  8
Layer_1
 62
7
100
AcDbSpline
 70
8
 71
3
 72
8
 73
4
 74
0
 40
0
 40
0
 40
0
 40
0
 40
1
 40
1
 40
1
 40
1
 10
29.451844
 20
176.039358
 30
0.0
 10
29.413764
 20
175.872097
 30
0.0
 10
29.280402
 20
175.396038
 30
0.0
 10
29.166109
 20
174.984301
 30
0.0
  0
SPLINE
  5
2da
100
AcDbEntity
  8
Layer_1
 62
7
100
AcDbSpline
 70
8
 71
3
 72
8
 73
4
 74
0
 40
0
 40
0
 40
0
 40
0
 40
1
 40
1
 40
1
 40
1
 10
29.166109
 20
174.984301
 30
0.0
 10
28.823232
 20
173.620446
 30
0.0
 10
28.327963
 20
173.749107
 30
0.0
 10
33.642563
 20
173.749107
 30
0.0
  0
LWPOLYLINE
  5
2db
100
AcDbEntity
  8
Layer_1
 62
7
100
AcDbPolyline
 90
1
 70
1
 10
19.698886
 20
176.103696
 30
0.0
  0
LWPOLYLINE
  5
2dc
100
AcDbEntity
  8
Layer_1
 62
7
100
AcDbPolyline
 90
7
 70
0
 10
33.642563
 20
173.749107
 30
0.0
 10
38.309497
 20
173.749107
 30
0.0
 10
38.309497
 20
175.035771
 30
0.0
 10
38.309497
 20
176.322426
 30
0.0
 10
33.928290
 20
176.322426
 30
0.0
 10
29.547084
 20
176.322426
 30
0.0
 10
29.451844
 20
176.039358
 30
0.0
  0
SPLINE
  5
2dd
100
AcDbEntity
  8
Layer_1
 62
7
100
AcDbSpline
 70
8
 71
3
 72
8
 73
4
 74
0
 40
0
 40
0
 40
0
 40
0
 40
1
 40
1
 40
1
 40
1
 10
49.529203
 20
174.302374
 30
0.0
 10
49.453024
 20
174.598311
 30
0.0
 10
49.281574
 20
175.177300
 30
0.0
 10
49.167281
 20
175.589029
 30
0.0
  0
LWPOLYLINE
  5
2de
100
AcDbEntity
  8
Layer_1
 62
7
100
AcDbPolyline
 90
5
 70
0
 10
39.452422
 20
175.035771
 30
0.0
 10
39.452422
 20
173.749107
 30
0.0
 10
44.576534
 20
173.749107
 30
0.0
 10
49.700646
 20
173.749107
 30
0.0
 10
49.529203
 20
174.302374
 30
0.0
  0
LWPOLYLINE
  5
2df
100
AcDbEntity
  8
Layer_1
 62
7
100
AcDbPolyline
 90
5
 70
0
 10
49.167281
 20
175.589029
 30
0.0
 10
48.957740
 20
176.322426
 30
0.0
 10
44.195559
 20
176.322426
 30
0.0
 10
39.452422
 20
176.322426
 30
0.0
 10
39.452422
 20
175.035771
 30
0.0
  0
SPLINE
  5
2e0
100
AcDbEntity
  8
Layer_1
 62
7
100
AcDbSpline
 70
8
 71
3
 72
8
 73
4
 74
0
 40
0
 40
0
 40
0
 40
0
 40
1
 40
1
 40
1
 40
1
 10
54.653316
 20
173.774896
 30
0.0
 10
57.663011
 20
173.749090
 30
0.0
 10
58.501156
 20
173.774896
 30
0.0
 10
58.501156
 20
173.903556
 30
0.0
  0
SPLINE
  5
2e1
100
AcDbEntity
  8
Layer_1
 62
7
100
AcDbSpline
 70
8
 71
3
 72
8
 73
4
 74
0
 40
0
 40
0
 40
0
 40
0
 40
1
 40
1
 40
1
 40
1
 10
58.501156
 20
173.903556
 30
0.0
 10
58.501156
 20
173.993625
 30
0.0
 10
58.234474
 20
174.572614
 30
0.0
 10
57.891596
 20
175.203081
 30
0.0
  0
LWPOLYLINE
  5
2e2
100
AcDbEntity
  8
Layer_1
 62
7
100
AcDbPolyline
 90
3
 70
0
 10
50.405446
 20
175.074370
 30
0.0
 10
50.824519
 20
173.813437
 30
0.0
 10
54.653316
 20
173.774896
 30
0.0
  0
SPLINE
  5
2e3
100
AcDbEntity
  8
Layer_1
 62
7
100
AcDbSpline
 70
8
 71
3
 72
8
 73
4
 74
0
 40
0
 40
0
 40
0
 40
0
 40
1
 40
1
 40
1
 40
1
 10
58.501156
 20
176.219496
 30
0.0
 10
58.501156
 20
176.077966
 30
0.0
 10
59.282151
 20
174.649772
 30
0.0
 10
59.663127
 20
174.109375
 30
0.0
  0
SPLINE
  5
2e4
100
AcDbEntity
  8
Layer_1
 62
7
100
AcDbSpline
 70
8
 71
3
 72
8
 73
4
 74
0
 40
0
 40
0
 40
0
 40
0
 40
1
 40
1
 40
1
 40
1
 10
59.663127
 20
174.109375
 30
0.0
 10
59.891720
 20
173.749107
 30
0.0
 10
59.910764
 20
173.749107
 30
0.0
 10
61.853730
 20
173.749107
 30
0.0
  0
LWPOLYLINE
  5
2e5
100
AcDbEntity
  8
Layer_1
 62
7
100
AcDbPolyline
 90
5
 70
0
 10
57.891596
 20
175.203081
 30
0.0
 10
57.282044
 20
176.322476
 30
0.0
 10
53.624683
 20
176.322476
 30
0.0
 10
49.986373
 20
176.322476
 30
0.0
 10
50.405446
 20
175.074370
 30
0.0
  0
SPLINE
  5
2e6
100
AcDbEntity
  8
Layer_1
 62
7
100
AcDbSpline
 70
8
 71
3
 72
8
 73
4
 74
0
 40
0
 40
0
 40
0
 40
0
 40
1
 40
1
 40
1
 40
1
 10
60.348881
 20
176.296637
 30
0.0
 10
59.320257
 20
176.309457
 30
0.0
 10
58.501156
 20
176.283734
 30
0.0
 10
58.501156
 20
176.219471
 30
0.0
  0
LWPOLYLINE
  5
2e7
100
AcDbEntity
  8
Layer_1
 62
7
100
AcDbPolyline
 90
5
 70
0
 10
61.853730
 20
173.749107
 30
0.0
 10
63.815756
 20
173.749107
 30
0.0
 10
62.996663
 20
175.010032
 30
0.0
 10
62.196615
 20
176.258096
 30
0.0
 10
60.348881
 20
176.296637
 30
0.0
  0
SPLINE
  5
2e8
100
AcDbEntity
  8
Layer_1
 62
7
100
AcDbSpline
 70
8
 71
3
 72
8
 73
4
 74
0
 40
0
 40
0
 40
0
 40
0
 40
1
 40
1
 40
1
 40
1
 10
13.050878
 20
173.015719
 30
0.0
 10
12.822293
 20
172.912788
 30
0.0
 10
11.260296
 20
170.712598
 30
0.0
 10
11.260296
 20
170.506730
 30
0.0
  0
SPLINE
  5
2e9
100
AcDbEntity
  8
Layer_1
 62
7
100
AcDbSpline
 70
8
 71
3
 72
8
 73
4
 74
0
 40
0
 40
0
 40
0
 40
0
 40
1
 40
1
 40
1
 40
1
 10
11.260296
 20
170.506730
 30
0.0
 10
11.260296
 20
170.442466
 30
0.0
 10
12.212732
 20
170.416661
 30
0.0
 10
13.374705
 20
170.429480
 30
0.0
  0
LWPOLYLINE
  5
2ea
100
AcDbEntity
  8
Layer_1
 62
7
100
AcDbPolyline
 90
1
 70
1
 10
58.501156
 20
176.219471
 30
0.0
  0
SPLINE
  5
2eb
100
AcDbEntity
  8
Layer_1
 62
7
100
AcDbSpline
 70
8
 71
3
 72
8
 73
4
 74
0
 40
0
 40
0
 40
0
 40
0
 40
1
 40
1
 40
1
 40
1
 10
15.774846
 20
172.977085
 30
0.0
 10
15.127189
 20
172.977085
 30
0.0
 10
14.289046
 20
173.015710
 30
0.0
 10
13.927119
 20
173.041349
 30
0.0
  0
SPLINE
  5
2ec
100
AcDbEntity
  8
Layer_1
 62
7
100
AcDbSpline
 70
8
 71
3
 72
8
 73
4
 74
0
 40
0
 40
0
 40
0
 40
0
 40
1
 40
1
 40
1
 40
1
 10
13.927119
 20
173.041349
 30
0.0
 10
13.565194
 20
173.079974
 30
0.0
 10
13.165170
 20
173.067154
 30
0.0
 10
13.050878
 20
173.015627
 30
0.0
  0
LWPOLYLINE
  5
2ed
100
AcDbEntity
  8
Layer_1
 62
7
100
AcDbPolyline
 90
5
 70
0
 10
13.374705
 20
170.429480
 30
0.0
 10
15.508163
 20
170.468105
 30
0.0
 10
16.232016
 20
171.729030
 30
0.0
 10
16.936818
 20
172.977085
 30
0.0
 10
15.774846
 20
172.977085
 30
0.0
  0
SPLINE
  5
2ee
100
AcDbEntity
  8
Layer_1
 62
7
100
AcDbSpline
 70
8
 71
3
 72
8
 73
4
 74
0
 40
0
 40
0
 40
0
 40
0
 40
1
 40
1
 40
1
 40
1
 10
60.215545
 20
172.925650
 30
0.0
 10
60.215545
 20
172.848400
 30
0.0
 10
60.520324
 20
172.243722
 30
0.0
 10
60.901300
 20
171.600403
 30
0.0
  0
LWPOLYLINE
  5
2ef
100
AcDbEntity
  8
Layer_1
 62
7
100
AcDbPolyline
 90
1
 70
1
 10
13.050878
 20
173.015627
 30
0.0
  0
SPLINE
  5
2f0
100
AcDbEntity
  8
Layer_1
 62
7
100
AcDbSpline
 70
8
 71
3
 72
8
 73
4
 74
0
 40
0
 40
0
 40
0
 40
0
 40
1
 40
1
 40
1
 40
1
 10
63.758606
 20
170.403800
 30
0.0
 10
64.958673
 20
170.403800
 30
0.0
 10
65.930164
 20
170.455244
 30
0.0
 10
65.930164
 20
170.519608
 30
0.0
  0
SPLINE
  5
2f1
100
AcDbEntity
  8
Layer_1
 62
7
100
AcDbSpline
 70
8
 71
3
 72
8
 73
4
 74
0
 40
0
 40
0
 40
0
 40
0
 40
1
 40
1
 40
1
 40
1
 10
65.930164
 20
170.519608
 30
0.0
 10
65.930164
 20
170.583871
 30
0.0
 10
65.549188
 20
171.201527
 30
0.0
 10
65.072975
 20
171.883454
 30
0.0
  0
LWPOLYLINE
  5
2f2
100
AcDbEntity
  8
Layer_1
 62
7
100
AcDbPolyline
 90
3
 70
0
 10
60.901300
 20
171.600403
 30
0.0
 10
61.587054
 20
170.403800
 30
0.0
 10
63.758606
 20
170.403800
 30
0.0
  0
SPLINE
  5
2f3
100
AcDbEntity
  8
Layer_1
 62
7
100
AcDbSpline
 70
8
 71
3
 72
8
 73
4
 74
0
 40
0
 40
0
 40
0
 40
0
 40
1
 40
1
 40
1
 40
1
 10
62.215669
 20
173.092843
 30
0.0
 10
60.863203
 20
173.080024
 30
0.0
 10
60.215545
 20
173.028580
 30
0.0
 10
60.215545
 20
172.925566
 30
0.0
  0
LWPOLYLINE
  5
2f4
100
AcDbEntity
  8
Layer_1
 62
7
100
AcDbPolyline
 90
3
 70
0
 10
65.072975
 20
171.883454
 30
0.0
 10
64.234828
 20
173.118649
 30
0.0
 10
62.215669
 20
173.092843
 30
0.0
  0
SPLINE
  5
2f5
100
AcDbEntity
  8
Layer_1
 62
7
100
AcDbSpline
 70
8
 71
3
 72
8
 73
4
 74
0
 40
0
 40
0
 40
0
 40
0
 40
1
 40
1
 40
1
 40
1
 10
18.041646
 20
172.861319
 30
0.0
 10
17.908305
 20
172.719798
 30
0.0
 10
16.784429
 20
170.583930
 30
0.0
 10
16.784429
 20
170.480991
 30
0.0
  0
SPLINE
  5
2f6
100
AcDbEntity
  8
Layer_1
 62
7
100
AcDbSpline
 70
8
 71
3
 72
8
 73
4
 74
0
 40
0
 40
0
 40
0
 40
0
 40
1
 40
1
 40
1
 40
1
 10
16.784429
 20
170.480991
 30
0.0
 10
16.784429
 20
170.429547
 30
0.0
 10
19.032180
 20
170.416727
 30
0.0
 10
21.794250
 20
170.429547
 30
0.0
  0
LWPOLYLINE
  5
2f7
100
AcDbEntity
  8
Layer_1
 62
7
100
AcDbPolyline
 90
1
 70
1
 10
60.215545
 20
172.925566
 30
0.0
  0
SPLINE
  5
2f8
100
AcDbEntity
  8
Layer_1
 62
7
100
AcDbSpline
 70
8
 71
3
 72
8
 73
4
 74
0
 40
0
 40
0
 40
0
 40
0
 40
1
 40
1
 40
1
 40
1
 10
26.994559
 20
171.059955
 30
0.0
 10
27.127896
 20
171.381623
 30
0.0
 10
27.280287
 20
171.947751
 30
0.0
 10
27.356481
 20
172.308011
 30
0.0
  0
LWPOLYLINE
  5
2f9
100
AcDbEntity
  8
Layer_1
 62
7
100
AcDbPolyline
 90
3
 70
0
 10
21.794250
 20
170.429547
 30
0.0
 10
26.785019
 20
170.468088
 30
0.0
 10
26.994559
 20
171.059955
 30
0.0
  0
SPLINE
  5
2fa
100
AcDbEntity
  8
Layer_1
 62
7
100
AcDbSpline
 70
8
 71
3
 72
8
 73
4
 74
0
 40
0
 40
0
 40
0
 40
0
 40
1
 40
1
 40
1
 40
1
 10
22.822879
 20
172.977077
 30
0.0
 10
20.251299
 20
172.977077
 30
0.0
 10
18.098792
 20
172.925633
 30
0.0
 10
18.041646
 20
172.861278
 30
0.0
  0
LWPOLYLINE
  5
2fb
100
AcDbEntity
  8
Layer_1
 62
7
100
AcDbPolyline
 90
3
 70
0
 10
27.356481
 20
172.308011
 30
0.0
 10
27.489818
 20
172.977077
 30
0.0
 10
22.822879
 20
172.977077
 30
0.0
  0
SPLINE
  5
2fc
100
AcDbEntity
  8
Layer_1
 62
7
100
AcDbSpline
 70
8
 71
3
 72
8
 73
4
 74
0
 40
0
 40
0
 40
0
 40
0
 40
1
 40
1
 40
1
 40
1
 10
28.270813
 20
171.754785
 30
0.0
 10
28.080334
 20
171.085727
 30
0.0
 10
27.946988
 20
170.506730
 30
0.0
 10
27.985086
 20
170.468130
 30
0.0
  0
SPLINE
  5
2fd
100
AcDbEntity
  8
Layer_1
 62
7
100
AcDbSpline
 70
8
 71
3
 72
8
 73
4
 74
0
 40
0
 40
0
 40
0
 40
0
 40
1
 40
1
 40
1
 40
1
 10
27.985086
 20
170.468130
 30
0.0
 10
28.042264
 20
170.429505
 30
0.0
 10
30.385230
 20
170.403866
 30
0.0
 10
33.204438
 20
170.403866
 30
0.0
  0
LWPOLYLINE
  5
2fe
100
AcDbEntity
  8
Layer_1
 62
7
100
AcDbPolyline
 90
1
 70
1
 10
18.041646
 20
172.861278
 30
0.0
  0
LWPOLYLINE
  5
2ff
100
AcDbEntity
  8
Layer_1
 62
7
100
AcDbPolyline
 90
7
 70
0
 10
33.204438
 20
170.403866
 30
0.0
 10
38.309497
 20
170.403866
 30
0.0
 10
38.309497
 20
171.690522
 30
0.0
 10
38.309497
 20
172.977185
 30
0.0
 10
33.490173
 20
172.977185
 30
0.0
 10
28.651788
 20
172.977185
 30
0.0
 10
28.270813
 20
171.754785
 30
0.0
  0
SPLINE
  5
300
100
AcDbEntity
  8
Layer_1
 62
7
100
AcDbSpline
 70
8
 71
3
 72
8
 73
4
 74
0
 40
0
 40
0
 40
0
 40
0
 40
1
 40
1
 40
1
 40
1
 10
45.128980
 20
170.429505
 30
0.0
 10
48.557756
 20
170.416603
 30
0.0
 10
50.691210
 20
170.442325
 30
0.0
 10
50.691210
 20
170.519574
 30
0.0
  0
SPLINE
  5
301
100
AcDbEntity
  8
Layer_1
 62
7
100
AcDbSpline
 70
8
 71
3
 72
8
 73
4
 74
0
 40
0
 40
0
 40
0
 40
0
 40
1
 40
1
 40
1
 40
1
 10
50.691210
 20
170.519574
 30
0.0
 10
50.691210
 20
170.583838
 30
0.0
 10
50.557872
 20
171.034233
 30
0.0
 10
50.405483
 20
171.523161
 30
0.0
  0
SPLINE
  5
302
100
AcDbEntity
  8
Layer_1
 62
7
100
AcDbSpline
 70
8
 71
3
 72
8
 73
4
 74
0
 40
0
 40
0
 40
0
 40
0
 40
1
 40
1
 40
1
 40
1
 10
50.405483
 20
171.523161
 30
0.0
 10
50.234047
 20
171.999229
 30
0.0
 10
50.062604
 20
172.526757
 30
0.0
 10
50.024507
 20
172.694026
 30
0.0
  0
LWPOLYLINE
  5
303
100
AcDbEntity
  8
Layer_1
 62
7
100
AcDbPolyline
 90
3
 70
0
 10
39.490528
 20
171.729063
 30
0.0
 10
39.547706
 20
170.468130
 30
0.0
 10
45.128980
 20
170.429505
 30
0.0
  0
SPLINE
  5
304
100
AcDbEntity
  8
Layer_1
 62
7
100
AcDbSpline
 70
8
 71
3
 72
8
 73
4
 74
0
 40
0
 40
0
 40
0
 40
0
 40
1
 40
1
 40
1
 40
1
 10
51.186449
 20
172.501051
 30
0.0
 10
51.262628
 20
172.230861
 30
0.0
 10
51.453133
 20
171.664725
 30
0.0
 10
51.624567
 20
171.240127
 30
0.0
  0
LWPOLYLINE
  5
305
100
AcDbEntity
  8
Layer_1
 62
7
100
AcDbPolyline
 90
5
 70
0
 10
50.024507
 20
172.694026
 30
0.0
 10
49.929268
 20
172.977094
 30
0.0
 10
44.671806
 20
172.977094
 30
0.0
 10
39.433410
 20
172.977094
 30
0.0
 10
39.490528
 20
171.729063
 30
0.0
  0
SPLINE
  5
306
100
AcDbEntity
  8
Layer_1
 62
7
100
AcDbSpline
 70
8
 71
3
 72
8
 73
4
 74
0
 40
0
 40
0
 40
0
 40
0
 40
1
 40
1
 40
1
 40
1
 10
56.081968
 20
170.429505
 30
0.0
 10
58.348765
 20
170.416603
 30
0.0
 10
60.215545
 20
170.442325
 30
0.0
 10
60.215545
 20
170.493769
 30
0.0
  0
SPLINE
  5
307
100
AcDbEntity
  8
Layer_1
 62
7
100
AcDbSpline
 70
8
 71
3
 72
8
 73
4
 74
0
 40
0
 40
0
 40
0
 40
0
 40
1
 40
1
 40
1
 40
1
 10
60.215545
 20
170.493769
 30
0.0
 10
60.215545
 20
170.558033
 30
0.0
 10
59.929809
 20
171.137088
 30
0.0
 10
59.605984
 20
171.780424
 30
0.0
  0
LWPOLYLINE
  5
308
100
AcDbEntity
  8
Layer_1
 62
7
100
AcDbPolyline
 90
3
 70
0
 10
51.624567
 20
171.240127
 30
0.0
 10
51.929347
 20
170.468130
 30
0.0
 10
56.081968
 20
170.429505
 30
0.0
  0
SPLINE
  5
309
100
AcDbEntity
  8
Layer_1
 62
7
100
AcDbSpline
 70
8
 71
3
 72
8
 73
4
 74
0
 40
0
 40
0
 40
0
 40
0
 40
1
 40
1
 40
1
 40
1
 10
38.677044
 20
185.805064
 30
0.0
 10
19.343156
 20
185.792161
 30
0.0
 10
15.342216
 20
185.766439
 30
0.0
 10
14.827927
 20
185.612064
 30
0.0
  0
SPLINE
  5
30a
100
AcDbEntity
  8
Layer_1
 62
7
100
AcDbSpline
 70
8
 71
3
 72
8
 73
4
 74
0
 40
0
 40
0
 40
0
 40
0
 40
1
 40
1
 40
1
 40
1
 10
14.827927
 20
185.612064
 30
0.0
 10
14.504115
 20
185.521995
 30
0.0
 10
14.085125
 20
185.303482
 30
0.0
 10
13.932736
 20
185.123353
 30
0.0
  0
SPLINE
  5
30b
100
AcDbEntity
  8
Layer_1
 62
7
100
AcDbSpline
 70
8
 71
3
 72
8
 73
4
 74
0
 40
0
 40
0
 40
0
 40
0
 40
1
 40
1
 40
1
 40
1
 10
13.932736
 20
185.123353
 30
0.0
 10
13.647027
 20
184.853170
 30
0.0
 10
11.818366
 20
182.060606
 30
0.0
 10
7.723014
 20
175.769067
 30
0.0
  0
SPLINE
  5
30c
100
AcDbEntity
  8
Layer_1
 62
7
100
AcDbSpline
 70
8
 71
3
 72
8
 73
4
 74
0
 40
0
 40
0
 40
0
 40
0
 40
1
 40
1
 40
1
 40
1
 10
7.723014
 20
175.769067
 30
0.0
 10
6.999201
 20
174.675419
 30
0.0
 10
5.798955
 20
172.848633
 30
0.0
 10
5.056078
 20
171.716377
 30
0.0
  0
SPLINE
  5
30d
100
AcDbEntity
  8
Layer_1
 62
7
100
AcDbSpline
 70
8
 71
3
 72
8
 73
4
 74
0
 40
0
 40
0
 40
0
 40
0
 40
1
 40
1
 40
1
 40
1
 10
5.056078
 20
171.716377
 30
0.0
 10
2.789349
 20
168.319617
 30
0.0
 10
2.617984
 20
167.791981
 30
0.0
 10
3.398956
 20
167.007115
 30
0.0
  0
SPLINE
  5
30e
100
AcDbEntity
  8
Layer_1
 62
7
100
AcDbSpline
 70
8
 71
3
 72
8
 73
4
 74
0
 40
0
 40
0
 40
0
 40
0
 40
1
 40
1
 40
1
 40
1
 10
3.398956
 20
167.007115
 30
0.0
 10
4.122789
 20
166.286596
 30
0.0
 10
4.618017
 20
166.235002
 30
0.0
 10
10.827700
 20
166.273602
 30
0.0
  0
LWPOLYLINE
  5
30f
100
AcDbEntity
  8
Layer_1
 62
7
100
AcDbPolyline
 90
5
 70
0
 10
59.605984
 20
171.780424
 30
0.0
 10
58.977371
 20
172.977019
 30
0.0
 10
55.015246
 20
172.977019
 30
0.0
 10
51.053104
 20
172.977019
 30
0.0
 10
51.186449
 20
172.501051
 30
0.0
  0
SPLINE
  5
310
100
AcDbEntity
  8
Layer_1
 62
7
100
AcDbSpline
 70
8
 71
3
 72
8
 73
4
 74
0
 40
0
 40
0
 40
0
 40
0
 40
1
 40
1
 40
1
 40
1
 10
66.392776
 20
166.273594
 30
0.0
 10
72.297715
 20
166.222149
 30
0.0
 10
72.869513
 20
166.260774
 30
0.0
 10
73.688613
 20
166.762613
 30
0.0
  0
SPLINE
  5
311
100
AcDbEntity
  8
Layer_1
 62
7
100
AcDbSpline
 70
8
 71
3
 72
8
 73
4
 74
0
 40
0
 40
0
 40
0
 40
0
 40
1
 40
1
 40
1
 40
1
 10
73.688613
 20
166.762613
 30
0.0
 10
74.241023
 20
167.084265
 30
0.0
 10
74.298299
 20
167.200139
 30
0.0
 10
74.298299
 20
167.817587
 30
0.0
  0
SPLINE
  5
312
100
AcDbEntity
  8
Layer_1
 62
7
100
AcDbSpline
 70
8
 71
3
 72
8
 73
4
 74
0
 40
0
 40
0
 40
0
 40
0
 40
1
 40
1
 40
1
 40
1
 10
74.298299
 20
167.817587
 30
0.0
 10
74.279210
 20
168.409445
 30
0.0
 10
73.917031
 20
169.065775
 30
0.0
 10
71.688323
 20
172.552604
 30
0.0
  0
SPLINE
  5
313
100
AcDbEntity
  8
Layer_1
 62
7
100
AcDbSpline
 70
8
 71
3
 72
8
 73
4
 74
0
 40
0
 40
0
 40
0
 40
0
 40
1
 40
1
 40
1
 40
1
 10
71.688323
 20
172.552604
 30
0.0
 10
67.002545
 20
179.847696
 30
0.0
 10
63.992900
 20
184.479867
 30
0.0
 10
63.611924
 20
184.917318
 30
0.0
  0
SPLINE
  5
314
100
AcDbEntity
  8
Layer_1
 62
7
100
AcDbSpline
 70
8
 71
3
 72
8
 73
4
 74
0
 40
0
 40
0
 40
0
 40
0
 40
1
 40
1
 40
1
 40
1
 10
63.611924
 20
184.917318
 30
0.0
 10
63.402426
 20
185.161778
 30
0.0
 10
62.945055
 20
185.457773
 30
0.0
 10
62.583124
 20
185.573573
 30
0.0
  0
SPLINE
  5
315
100
AcDbEntity
  8
Layer_1
 62
7
100
AcDbSpline
 70
8
 71
3
 72
8
 73
4
 74
0
 40
0
 40
0
 40
0
 40
0
 40
1
 40
1
 40
1
 40
1
 10
62.583124
 20
185.573573
 30
0.0
 10
61.954511
 20
185.792302
 30
0.0
 10
60.430066
 20
185.805055
 30
0.0
 10
38.677044
 20
185.805055
 30
0.0
  0
LWPOLYLINE
  5
316
100
AcDbEntity
  8
Layer_1
 62
7
100
AcDbPolyline
 90
2
 70
0
 10
10.827700
 20
166.273602
 30
0.0
 10
66.392776
 20
166.273594
 30
0.0
  0
LWPOLYLINE
  5
317
100
AcDbEntity
  8
Layer_1
 62
7
100
AcDbPolyline
 90
1
 70
1
 10
38.677044
 20
185.805055
 30
0.0
  0
SPLINE
  5
318
100
AcDbEntity
  8
Layer_1
 62
7
100
AcDbSpline
 70
8
 71
3
 72
8
 73
4
 74
0
 40
0
 40
0
 40
0
 40
0
 40
1
 40
1
 40
1
 40
1
 10
61.497349
 20
181.983847
 30
0.0
 10
62.506939
 20
180.529973
 30
0.0
 10
64.069179
 20
178.123565
 30
0.0
 10
67.212011
 20
173.195840
 30
0.0
  0
SPLINE
  5
319
100
AcDbEntity
  8
Layer_1
 62
7
100
AcDbSpline
 70
8
 71
3
 72
8
 73
4
 74
0
 40
0
 40
0
 40
0
 40
0
 40
1
 40
1
 40
1
 40
1
 10
67.212011
 20
173.195840
 30
0.0
 10
68.012059
 20
171.960654
 30
0.0
 10
68.907456
 20
170.545430
 30
0.0
 10
69.231289
 20
170.069371
 30
0.0
  0
SPLINE
  5
31a
100
AcDbEntity
  8
Layer_1
 62
7
100
AcDbSpline
 70
8
 71
3
 72
8
 73
4
 74
0
 40
0
 40
0
 40
0
 40
0
 40
1
 40
1
 40
1
 40
1
 10
69.231289
 20
170.069371
 30
0.0
 10
69.555121
 20
169.580434
 30
0.0
 10
69.821637
 20
169.104283
 30
0.0
 10
69.821637
 20
169.001353
 30
0.0
  0
SPLINE
  5
31b
100
AcDbEntity
  8
Layer_1
 62
7
100
AcDbSpline
 70
8
 71
3
 72
8
 73
4
 74
0
 40
0
 40
0
 40
0
 40
0
 40
1
 40
1
 40
1
 40
1
 10
69.821637
 20
169.001353
 30
0.0
 10
69.821637
 20
168.859823
 30
0.0
 10
65.001644
 20
168.834135
 30
0.0
 10
38.658043
 20
168.885612
 30
0.0
  0
SPLINE
  5
31c
100
AcDbEntity
  8
Layer_1
 62
7
100
AcDbSpline
 70
8
 71
3
 72
8
 73
4
 74
0
 40
0
 40
0
 40
0
 40
0
 40
1
 40
1
 40
1
 40
1
 10
38.658043
 20
168.885612
 30
0.0
 10
21.514804
 20
168.911334
 30
0.0
 10
7.456281
 20
168.962945
 30
0.0
 10
7.418179
 20
168.988625
 30
0.0
  0
SPLINE
  5
31d
100
AcDbEntity
  8
Layer_1
 62
7
100
AcDbSpline
 70
8
 71
3
 72
8
 73
4
 74
0
 40
0
 40
0
 40
0
 40
0
 40
1
 40
1
 40
1
 40
1
 10
7.418179
 20
168.988625
 30
0.0
 10
7.303892
 20
169.052889
 30
0.0
 10
15.875896
 20
182.228291
 30
0.0
 10
16.694964
 20
183.257583
 30
0.0
  0
SPLINE
  5
31e
100
AcDbEntity
  8
Layer_1
 62
7
100
AcDbSpline
 70
8
 71
3
 72
8
 73
4
 74
0
 40
0
 40
0
 40
0
 40
0
 40
1
 40
1
 40
1
 40
1
 10
16.694964
 20
183.257583
 30
0.0
 10
16.866391
 20
183.476321
 30
0.0
 10
18.028991
 20
183.489066
 30
0.0
 10
38.658059
 20
183.489066
 30
0.0
  0
LWPOLYLINE
  5
31f
100
AcDbEntity
  8
Layer_1
 62
7
100
AcDbPolyline
 90
3
 70
0
 10
38.658043
 20
183.489066
 30
0.0
 10
60.430577
 20
183.489066
 30
0.0
 10
61.497349
 20
181.983847
 30
0.0
  0
SPLINE
  5
320
100
AcDbEntity
  8
Layer_1
 62
7
100
AcDbSpline
 70
8
 71
3
 72
8
 73
4
 74
0
 40
0
 40
0
 40
0
 40
0
 40
1
 40
1
 40
1
 40
1
 10
153.578398
 20
181.023235
 30
0.0
 10
153.235521
 20
180.560037
 30
0.0
 10
152.968838
 20
180.148309
 30
0.0
 10
152.968838
 20
180.122570
 30
0.0
  0
SPLINE
  5
321
100
AcDbEntity
  8
Layer_1
 62
7
100
AcDbSpline
 70
8
 71
3
 72
8
 73
4
 74
0
 40
0
 40
0
 40
0
 40
0
 40
1
 40
1
 40
1
 40
1
 10
152.968838
 20
180.122570
 30
0.0
 10
152.968838
 20
180.083945
 30
0.0
 10
153.654593
 20
180.058223
 30
0.0
 10
154.492737
 20
180.058223
 30
0.0
  0
LWPOLYLINE
  5
322
100
AcDbEntity
  8
Layer_1
 62
7
100
AcDbPolyline
 90
1
 70
1
 10
38.658059
 20
183.489066
 30
0.0
  0
SPLINE
  5
323
100
AcDbEntity
  8
Layer_1
 62
7
100
AcDbSpline
 70
8
 71
3
 72
8
 73
4
 74
0
 40
0
 40
0
 40
0
 40
0
 40
1
 40
1
 40
1
 40
1
 10
156.397610
 20
180.650090
 30
0.0
 10
157.197659
 20
181.885284
 30
0.0
 10
157.197659
 20
181.859554
 30
0.0
 10
155.597563
 20
181.859554
 30
0.0
  0
LWPOLYLINE
  5
324
100
AcDbEntity
  8
Layer_1
 62
7
100
AcDbPolyline
 90
3
 70
0
 10
154.492737
 20
180.058223
 30
0.0
 10
156.035685
 20
180.058223
 30
0.0
 10
156.397610
 20
180.650090
 30
0.0
  0
SPLINE
  5
325
100
AcDbEntity
  8
Layer_1
 62
7
100
AcDbSpline
 70
8
 71
3
 72
8
 73
4
 74
0
 40
0
 40
0
 40
0
 40
0
 40
1
 40
1
 40
1
 40
1
 10
157.997708
 20
181.409233
 30
0.0
 10
157.864363
 20
181.164765
 30
0.0
 10
157.597679
 20
180.753036
 30
0.0
 10
157.445291
 20
180.508568
 30
0.0
  0
LWPOLYLINE
  5
326
100
AcDbEntity
  8
Layer_1
 62
7
100
AcDbPolyline
 90
3
 70
0
 10
155.597563
 20
181.859554
 30
0.0
 10
154.187958
 20
181.859554
 30
0.0
 10
153.578398
 20
181.023235
 30
0.0
  0
SPLINE
  5
327
100
AcDbEntity
  8
Layer_1
 62
7
100
AcDbSpline
 70
8
 71
3
 72
8
 73
4
 74
0
 40
0
 40
0
 40
0
 40
0
 40
1
 40
1
 40
1
 40
1
 10
165.102881
 20
180.894583
 30
0.0
 10
165.236227
 20
181.319181
 30
0.0
 10
165.331466
 20
181.705179
 30
0.0
 10
165.350519
 20
181.769510
 30
0.0
  0
SPLINE
  5
328
100
AcDbEntity
  8
Layer_1
 62
7
100
AcDbSpline
 70
8
 71
3
 72
8
 73
4
 74
0
 40
0
 40
0
 40
0
 40
0
 40
1
 40
1
 40
1
 40
1
 10
165.350519
 20
181.769510
 30
0.0
 10
165.350519
 20
181.820954
 30
0.0
 10
163.769477
 20
181.859579
 30
0.0
 10
161.807450
 20
181.859579
 30
0.0
  0
LWPOLYLINE
  5
329
100
AcDbEntity
  8
Layer_1
 62
7
100
AcDbPolyline
 90
5
 70
0
 10
157.445291
 20
180.508568
 30
0.0
 10
157.178608
 20
180.058240
 30
0.0
 10
161.026456
 20
180.083962
 30
0.0
 10
164.855251
 20
180.122586
 30
0.0
 10
165.102881
 20
180.894583
 30
0.0
  0
SPLINE
  5
32a
100
AcDbEntity
  8
Layer_1
 62
7
100
AcDbSpline
 70
8
 71
3
 72
8
 73
4
 74
0
 40
0
 40
0
 40
0
 40
0
 40
1
 40
1
 40
1
 40
1
 10
166.322002
 20
181.383503
 30
0.0
 10
166.226762
 20
181.113304
 30
0.0
 10
166.093425
 20
180.701567
 30
0.0
 10
166.036274
 20
180.482838
 30
0.0
  0
LWPOLYLINE
  5
32b
100
AcDbEntity
  8
Layer_1
 62
7
100
AcDbPolyline
 90
3
 70
0
 10
161.807450
 20
181.859579
 30
0.0
 10
158.283434
 20
181.859579
 30
0.0
 10
157.997708
 20
181.409233
 30
0.0
  0
LWPOLYLINE
  5
32c
100
AcDbEntity
  8
Layer_1
 62
7
100
AcDbPolyline
 90
9
 70
0
 10
166.036274
 20
180.482838
 30
0.0
 10
165.941027
 20
180.058240
 30
0.0
 10
169.826965
 20
180.058240
 30
0.0
 10
173.731957
 20
180.058240
 30
0.0
 10
173.731957
 20
180.958905
 30
0.0
 10
173.731957
 20
181.859562
 30
0.0
 10
170.112701
 20
181.859562
 30
0.0
 10
166.512489
 20
181.859562
 30
0.0
 10
166.322002
 20
181.383503
 30
0.0
  0
SPLINE
  5
32d
100
AcDbEntity
  8
Layer_1
 62
7
100
AcDbSpline
 70
8
 71
3
 72
8
 73
4
 74
0
 40
0
 40
0
 40
0
 40
0
 40
1
 40
1
 40
1
 40
1
 10
183.218230
 20
180.675837
 30
0.0
 10
182.837255
 20
182.013961
 30
0.0
 10
183.408718
 20
181.859562
 30
0.0
 10
178.875122
 20
181.859562
 30
0.0
  0
LWPOLYLINE
  5
32e
100
AcDbEntity
  8
Layer_1
 62
7
100
AcDbPolyline
 90
5
 70
0
 10
174.874882
 20
180.958905
 30
0.0
 10
174.874882
 20
180.058240
 30
0.0
 10
179.141804
 20
180.058240
 30
0.0
 10
183.408718
 20
180.058240
 30
0.0
 10
183.218230
 20
180.675837
 30
0.0
  0
SPLINE
  5
32f
100
AcDbEntity
  8
Layer_1
 62
7
100
AcDbSpline
 70
8
 71
3
 72
8
 73
4
 74
0
 40
0
 40
0
 40
0
 40
0
 40
1
 40
1
 40
1
 40
1
 10
184.075421
 20
181.576502
 30
0.0
 10
184.132598
 20
181.409233
 30
0.0
 10
184.246863
 20
181.010366
 30
0.0
 10
184.304014
 20
180.675837
 30
0.0
  0
LWPOLYLINE
  5
330
100
AcDbEntity
  8
Layer_1
 62
7
100
AcDbPolyline
 90
3
 70
0
 10
178.875122
 20
181.859562
 30
0.0
 10
174.874882
 20
181.859562
 30
0.0
 10
174.874882
 20
180.958905
 30
0.0
  0
SPLINE
  5
331
100
AcDbEntity
  8
Layer_1
 62
7
100
AcDbSpline
 70
8
 71
3
 72
8
 73
4
 74
0
 40
0
 40
0
 40
0
 40
0
 40
1
 40
1
 40
1
 40
1
 10
187.561348
 20
180.058240
 30
0.0
 10
189.275727
 20
180.058240
 30
0.0
 10
190.685335
 20
180.071142
 30
0.0
 10
190.685335
 20
180.096864
 30
0.0
  0
SPLINE
  5
332
100
AcDbEntity
  8
Layer_1
 62
7
100
AcDbSpline
 70
8
 71
3
 72
8
 73
4
 74
0
 40
0
 40
0
 40
0
 40
0
 40
1
 40
1
 40
1
 40
1
 10
190.685335
 20
180.096864
 30
0.0
 10
190.685335
 20
180.109767
 30
0.0
 10
190.475795
 20
180.495732
 30
0.0
 10
190.228166
 20
180.958930
 30
0.0
  0
LWPOLYLINE
  5
333
100
AcDbEntity
  8
Layer_1
 62
7
100
AcDbPolyline
 90
3
 70
0
 10
184.304014
 20
180.675837
 30
0.0
 10
184.437351
 20
180.058240
 30
0.0
 10
187.561348
 20
180.058240
 30
0.0
  0
SPLINE
  5
334
100
AcDbEntity
  8
Layer_1
 62
7
100
AcDbSpline
 70
8
 71
3
 72
8
 73
4
 74
0
 40
0
 40
0
 40
0
 40
0
 40
1
 40
1
 40
1
 40
1
 10
190.913921
 20
181.769493
 30
0.0
 10
190.952019
 20
181.705146
 30
0.0
 10
191.180603
 20
181.306303
 30
0.0
 10
191.428233
 20
180.868836
 30
0.0
  0
LWPOLYLINE
  5
335
100
AcDbEntity
  8
Layer_1
 62
7
100
AcDbPolyline
 90
5
 70
0
 10
190.228166
 20
180.958930
 30
0.0
 10
189.770995
 20
181.795257
 30
0.0
 10
186.875593
 20
181.833881
 30
0.0
 10
183.980180
 20
181.872506
 30
0.0
 10
184.075421
 20
181.576502
 30
0.0
  0
SPLINE
  5
336
100
AcDbEntity
  8
Layer_1
 62
7
100
AcDbSpline
 70
8
 71
3
 72
8
 73
4
 74
0
 40
0
 40
0
 40
0
 40
0
 40
1
 40
1
 40
1
 40
1
 10
193.561694
 20
180.058240
 30
0.0
 10
195.466570
 20
180.058240
 30
0.0
 10
195.371322
 20
179.929579
 30
0.0
 10
194.514132
 20
181.254834
 30
0.0
  0
LWPOLYLINE
  5
337
100
AcDbEntity
  8
Layer_1
 62
7
100
AcDbPolyline
 90
3
 70
0
 10
191.428233
 20
180.868836
 30
0.0
 10
191.885403
 20
180.058240
 30
0.0
 10
193.561694
 20
180.058240
 30
0.0
  0
SPLINE
  5
338
100
AcDbEntity
  8
Layer_1
 62
7
100
AcDbSpline
 70
8
 71
3
 72
8
 73
4
 74
0
 40
0
 40
0
 40
0
 40
0
 40
1
 40
1
 40
1
 40
1
 10
192.494963
 20
181.859562
 30
0.0
 10
191.580623
 20
181.859562
 30
0.0
 10
190.875815
 20
181.820937
 30
0.0
 10
190.913921
 20
181.769493
 30
0.0
  0
LWPOLYLINE
  5
339
100
AcDbEntity
  8
Layer_1
 62
7
100
AcDbPolyline
 90
3
 70
0
 10
194.514132
 20
181.254834
 30
0.0
 10
194.133148
 20
181.859562
 30
0.0
 10
192.494963
 20
181.859562
 30
0.0
  0
LWPOLYLINE
  5
33a
100
AcDbEntity
  8
Layer_1
 62
7
100
AcDbPolyline
 90
1
 70
1
 10
190.913921
 20
181.769493
 30
0.0
  0
SPLINE
  5
33b
100
AcDbEntity
  8
Layer_1
 62
7
100
AcDbSpline
 70
8
 71
3
 72
8
 73
4
 74
0
 40
0
 40
0
 40
0
 40
0
 40
1
 40
1
 40
1
 40
1
 10
155.045151
 20
178.076787
 30
0.0
 10
155.368980
 20
178.681515
 30
0.0
 10
155.635661
 20
179.221913
 30
0.0
 10
155.635661
 20
179.299112
 30
0.0
  0
SPLINE
  5
33c
100
AcDbEntity
  8
Layer_1
 62
7
100
AcDbSpline
 70
8
 71
3
 72
8
 73
4
 74
0
 40
0
 40
0
 40
0
 40
0
 40
1
 40
1
 40
1
 40
1
 10
155.635661
 20
179.299112
 30
0.0
 10
155.635661
 20
179.363459
 30
0.0
 10
154.930858
 20
179.414912
 30
0.0
 10
154.073664
 20
179.414912
 30
0.0
  0
LWPOLYLINE
  5
33d
100
AcDbEntity
  8
Layer_1
 62
7
100
AcDbPolyline
 90
5
 70
0
 10
151.692573
 20
178.192579
 30
0.0
 10
150.911576
 20
176.970262
 30
0.0
 10
152.683107
 20
176.970262
 30
0.0
 10
154.454640
 20
176.970262
 30
0.0
 10
155.045151
 20
178.076787
 30
0.0
  0
SPLINE
  5
33e
100
AcDbEntity
  8
Layer_1
 62
7
100
AcDbSpline
 70
8
 71
3
 72
8
 73
4
 74
0
 40
0
 40
0
 40
0
 40
0
 40
1
 40
1
 40
1
 40
1
 10
156.283315
 20
178.359847
 30
0.0
 10
155.997586
 20
177.767980
 30
0.0
 10
155.730905
 20
177.214722
 30
0.0
 10
155.673759
 20
177.137522
 30
0.0
  0
SPLINE
  5
33f
100
AcDbEntity
  8
Layer_1
 62
7
100
AcDbSpline
 70
8
 71
3
 72
8
 73
4
 74
0
 40
0
 40
0
 40
0
 40
0
 40
1
 40
1
 40
1
 40
1
 10
155.673759
 20
177.137522
 30
0.0
 10
155.616616
 20
177.008853
 30
0.0
 10
156.511903
 20
176.970262
 30
0.0
 10
159.807333
 20
176.970262
 30
0.0
  0
LWPOLYLINE
  5
340
100
AcDbEntity
  8
Layer_1
 62
7
100
AcDbPolyline
 90
3
 70
0
 10
154.073664
 20
179.414912
 30
0.0
 10
152.492620
 20
179.402009
 30
0.0
 10
151.692573
 20
178.192579
 30
0.0
  0
SPLINE
  5
341
100
AcDbEntity
  8
Layer_1
 62
7
100
AcDbSpline
 70
8
 71
3
 72
8
 73
4
 74
0
 40
0
 40
0
 40
0
 40
0
 40
1
 40
1
 40
1
 40
1
 10
164.112346
 20
177.266191
 30
0.0
 10
164.283788
 20
177.780850
 30
0.0
 10
164.588569
 20
179.067513
 30
0.0
 10
164.588569
 20
179.247643
 30
0.0
  0
SPLINE
  5
342
100
AcDbEntity
  8
Layer_1
 62
7
100
AcDbSpline
 70
8
 71
3
 72
8
 73
4
 74
0
 40
0
 40
0
 40
0
 40
0
 40
1
 40
1
 40
1
 40
1
 10
164.588569
 20
179.247643
 30
0.0
 10
164.588569
 20
179.376312
 30
0.0
 10
163.788521
 20
179.414912
 30
0.0
 10
160.702622
 20
179.414912
 30
0.0
  0
LWPOLYLINE
  5
343
100
AcDbEntity
  8
Layer_1
 62
7
100
AcDbPolyline
 90
3
 70
0
 10
159.807333
 20
176.970262
 30
0.0
 10
164.017106
 20
176.970262
 30
0.0
 10
164.112346
 20
177.266191
 30
0.0
  0
SPLINE
  5
344
100
AcDbEntity
  8
Layer_1
 62
7
100
AcDbSpline
 70
8
 71
3
 72
8
 73
4
 74
0
 40
0
 40
0
 40
0
 40
0
 40
1
 40
1
 40
1
 40
1
 10
165.655300
 20
179.196182
 30
0.0
 10
165.541007
 20
178.925984
 30
0.0
 10
165.160032
 20
177.369121
 30
0.0
 10
165.160032
 20
177.137522
 30
0.0
  0
SPLINE
  5
345
100
AcDbEntity
  8
Layer_1
 62
7
100
AcDbSpline
 70
8
 71
3
 72
8
 73
4
 74
0
 40
0
 40
0
 40
0
 40
0
 40
1
 40
1
 40
1
 40
1
 10
165.160032
 20
177.137522
 30
0.0
 10
165.160032
 20
177.008853
 30
0.0
 10
166.150559
 20
176.970262
 30
0.0
 10
169.445998
 20
176.970262
 30
0.0
  0
LWPOLYLINE
  5
346
100
AcDbEntity
  8
Layer_1
 62
7
100
AcDbPolyline
 90
3
 70
0
 10
160.702622
 20
179.414912
 30
0.0
 10
156.816683
 20
179.414912
 30
0.0
 10
156.283315
 20
178.359847
 30
0.0
  0
SPLINE
  5
347
100
AcDbEntity
  8
Layer_1
 62
7
100
AcDbSpline
 70
8
 71
3
 72
8
 73
4
 74
0
 40
0
 40
0
 40
0
 40
0
 40
1
 40
1
 40
1
 40
1
 10
169.750778
 20
179.414912
 30
0.0
 10
166.112461
 20
179.414912
 30
0.0
 10
165.750538
 20
179.389190
 30
0.0
 10
165.655300
 20
179.196182
 30
0.0
  0
LWPOLYLINE
  5
348
100
AcDbEntity
  8
Layer_1
 62
7
100
AcDbPolyline
 90
5
 70
0
 10
169.445998
 20
176.970262
 30
0.0
 10
173.731957
 20
176.970262
 30
0.0
 10
173.731957
 20
178.192579
 30
0.0
 10
173.731957
 20
179.414912
 30
0.0
 10
169.750778
 20
179.414912
 30
0.0
  0
LWPOLYLINE
  5
349
100
AcDbEntity
  8
Layer_1
 62
7
100
AcDbPolyline
 90
1
 70
1
 10
165.655300
 20
179.196182
 30
0.0
  0
SPLINE
  5
34a
100
AcDbEntity
  8
Layer_1
 62
7
100
AcDbSpline
 70
8
 71
3
 72
8
 73
4
 74
0
 40
0
 40
0
 40
0
 40
0
 40
1
 40
1
 40
1
 40
1
 10
179.541824
 20
176.970262
 30
0.0
 10
182.113403
 20
176.970262
 30
0.0
 10
184.208757
 20
177.008803
 30
0.0
 10
184.208757
 20
177.073192
 30
0.0
  0
SPLINE
  5
34b
100
AcDbEntity
  8
Layer_1
 62
7
100
AcDbSpline
 70
8
 71
3
 72
8
 73
4
 74
0
 40
0
 40
0
 40
0
 40
0
 40
1
 40
1
 40
1
 40
1
 10
184.208757
 20
177.073192
 30
0.0
 10
184.189669
 20
177.124636
 30
0.0
 10
184.037331
 20
177.652189
 30
0.0
 10
183.865888
 20
178.256917
 30
0.0
  0
LWPOLYLINE
  5
34c
100
AcDbEntity
  8
Layer_1
 62
7
100
AcDbPolyline
 90
3
 70
0
 10
174.874882
 20
178.192579
 30
0.0
 10
174.874882
 20
176.970262
 30
0.0
 10
179.541824
 20
176.970262
 30
0.0
  0
SPLINE
  5
34d
100
AcDbEntity
  8
Layer_1
 62
7
100
AcDbSpline
 70
8
 71
3
 72
8
 73
4
 74
0
 40
0
 40
0
 40
0
 40
0
 40
1
 40
1
 40
1
 40
1
 10
184.608786
 20
179.260513
 30
0.0
 10
184.608786
 20
179.170444
 30
0.0
 10
184.761175
 20
178.630046
 30
0.0
 10
184.951663
 20
178.063918
 30
0.0
  0
LWPOLYLINE
  5
34e
100
AcDbEntity
  8
Layer_1
 62
7
100
AcDbPolyline
 90
5
 70
0
 10
183.865888
 20
178.256917
 30
0.0
 10
183.523011
 20
179.350582
 30
0.0
 10
179.198947
 20
179.389206
 30
0.0
 10
174.874882
 20
179.414929
 30
0.0
 10
174.874882
 20
178.192579
 30
0.0
  0
SPLINE
  5
34f
100
AcDbEntity
  8
Layer_1
 62
7
100
AcDbSpline
 70
8
 71
3
 72
8
 73
4
 74
0
 40
0
 40
0
 40
0
 40
0
 40
1
 40
1
 40
1
 40
1
 10
187.847075
 20
179.389265
 30
0.0
 10
185.313586
 20
179.414987
 30
0.0
 10
184.589741
 20
179.389265
 30
0.0
 10
184.608786
 20
179.260604
 30
0.0
  0
LWPOLYLINE
  5
350
100
AcDbEntity
  8
Layer_1
 62
7
100
AcDbPolyline
 90
7
 70
0
 10
184.951663
 20
178.063918
 30
0.0
 10
185.275496
 20
177.034592
 30
0.0
 10
188.818557
 20
176.996051
 30
0.0
 10
192.342574
 20
176.970328
 30
0.0
 10
191.733013
 20
178.154054
 30
0.0
 10
191.123453
 20
179.350640
 30
0.0
 10
187.847075
 20
179.389265
 30
0.0
  0
SPLINE
  5
351
100
AcDbEntity
  8
Layer_1
 62
7
100
AcDbSpline
 70
8
 71
3
 72
8
 73
4
 74
0
 40
0
 40
0
 40
0
 40
0
 40
1
 40
1
 40
1
 40
1
 10
192.209236
 20
179.350582
 30
0.0
 10
192.209236
 20
179.311957
 30
0.0
 10
192.514009
 20
178.771584
 30
0.0
 10
192.894984
 20
178.128257
 30
0.0
  0
LWPOLYLINE
  5
352
100
AcDbEntity
  8
Layer_1
 62
7
100
AcDbPolyline
 90
1
 70
1
 10
184.608786
 20
179.260604
 30
0.0
  0
SPLINE
  5
353
100
AcDbEntity
  8
Layer_1
 62
7
100
AcDbSpline
 70
8
 71
3
 72
8
 73
4
 74
0
 40
0
 40
0
 40
0
 40
0
 40
1
 40
1
 40
1
 40
1
 10
195.371322
 20
176.970262
 30
0.0
 10
196.361857
 20
176.970262
 30
0.0
 10
197.161905
 20
177.008803
 30
0.0
 10
197.161905
 20
177.047428
 30
0.0
  0
SPLINE
  5
354
100
AcDbEntity
  8
Layer_1
 62
7
100
AcDbSpline
 70
8
 71
3
 72
8
 73
4
 74
0
 40
0
 40
0
 40
0
 40
0
 40
1
 40
1
 40
1
 40
1
 10
197.161905
 20
177.047428
 30
0.0
 10
197.161905
 20
177.086053
 30
0.0
 10
196.799983
 20
177.639287
 30
0.0
 10
196.380910
 20
178.269753
 30
0.0
  0
LWPOLYLINE
  5
355
100
AcDbEntity
  8
Layer_1
 62
7
100
AcDbPolyline
 90
3
 70
0
 10
192.894984
 20
178.128257
 30
0.0
 10
193.580739
 20
176.970262
 30
0.0
 10
195.371322
 20
176.970262
 30
0.0
  0
SPLINE
  5
356
100
AcDbEntity
  8
Layer_1
 62
7
100
AcDbSpline
 70
8
 71
3
 72
8
 73
4
 74
0
 40
0
 40
0
 40
0
 40
0
 40
1
 40
1
 40
1
 40
1
 10
193.904572
 20
179.414879
 30
0.0
 10
192.971178
 20
179.414879
 30
0.0
 10
192.209236
 20
179.389156
 30
0.0
 10
192.209236
 20
179.350532
 30
0.0
  0
LWPOLYLINE
  5
357
100
AcDbEntity
  8
Layer_1
 62
7
100
AcDbPolyline
 90
3
 70
0
 10
196.380910
 20
178.269753
 30
0.0
 10
195.580862
 20
179.414879
 30
0.0
 10
193.904572
 20
179.414879
 30
0.0
  0
SPLINE
  5
358
100
AcDbEntity
  8
Layer_1
 62
7
100
AcDbSpline
 70
8
 71
3
 72
8
 73
4
 74
0
 40
0
 40
0
 40
0
 40
0
 40
1
 40
1
 40
1
 40
1
 10
150.359162
 20
176.043858
 30
0.0
 10
150.244870
 20
175.876597
 30
0.0
 10
149.844846
 20
175.297600
 30
0.0
 10
149.463872
 20
174.757211
 30
0.0
  0
LWPOLYLINE
  5
359
100
AcDbEntity
  8
Layer_1
 62
7
100
AcDbPolyline
 90
1
 70
1
 10
192.209236
 20
179.350532
 30
0.0
  0
SPLINE
  5
35a
100
AcDbEntity
  8
Layer_1
 62
7
100
AcDbSpline
 70
8
 71
3
 72
8
 73
4
 74
0
 40
0
 40
0
 40
0
 40
0
 40
1
 40
1
 40
1
 40
1
 10
153.292666
 20
174.821541
 30
0.0
 10
153.616496
 20
175.400538
 30
0.0
 10
153.940324
 20
175.979527
 30
0.0
 10
154.016519
 20
176.108196
 30
0.0
  0
SPLINE
  5
35b
100
AcDbEntity
  8
Layer_1
 62
7
100
AcDbSpline
 70
8
 71
3
 72
8
 73
4
 74
0
 40
0
 40
0
 40
0
 40
0
 40
1
 40
1
 40
1
 40
1
 10
154.016519
 20
176.108196
 30
0.0
 10
154.149860
 20
176.301195
 30
0.0
 10
153.997465
 20
176.326926
 30
0.0
 10
152.359278
 20
176.326926
 30
0.0
  0
SPLINE
  5
35c
100
AcDbEntity
  8
Layer_1
 62
7
100
AcDbSpline
 70
8
 71
3
 72
8
 73
4
 74
0
 40
0
 40
0
 40
0
 40
0
 40
1
 40
1
 40
1
 40
1
 10
152.359278
 20
176.326926
 30
0.0
 10
150.682990
 20
176.326926
 30
0.0
 10
150.530601
 20
176.301204
 30
0.0
 10
150.359162
 20
176.043858
 30
0.0
  0
LWPOLYLINE
  5
35d
100
AcDbEntity
  8
Layer_1
 62
7
100
AcDbPolyline
 90
5
 70
0
 10
149.463872
 20
174.757211
 30
0.0
 10
148.797165
 20
173.753607
 30
0.0
 10
150.740137
 20
173.753607
 30
0.0
 10
152.702157
 20
173.753607
 30
0.0
 10
153.292666
 20
174.821541
 30
0.0
  0
SPLINE
  5
35e
100
AcDbEntity
  8
Layer_1
 62
7
100
AcDbSpline
 70
8
 71
3
 72
8
 73
4
 74
0
 40
0
 40
0
 40
0
 40
0
 40
1
 40
1
 40
1
 40
1
 10
155.121346
 20
176.108196
 30
0.0
 10
155.064194
 20
175.979527
 30
0.0
 10
154.759420
 20
175.439130
 30
0.0
 10
154.454640
 20
174.911602
 30
0.0
  0
SPLINE
  5
35f
100
AcDbEntity
  8
Layer_1
 62
7
100
AcDbSpline
 70
8
 71
3
 72
8
 73
4
 74
0
 40
0
 40
0
 40
0
 40
0
 40
1
 40
1
 40
1
 40
1
 10
154.454640
 20
174.911602
 30
0.0
 10
154.168909
 20
174.384082
 30
0.0
 10
153.921274
 20
173.908015
 30
0.0
 10
153.921274
 20
173.856545
 30
0.0
  0
SPLINE
  5
360
100
AcDbEntity
  8
Layer_1
 62
7
100
AcDbSpline
 70
8
 71
3
 72
8
 73
4
 74
0
 40
0
 40
0
 40
0
 40
0
 40
1
 40
1
 40
1
 40
1
 10
153.921274
 20
173.856545
 30
0.0
 10
153.921274
 20
173.792282
 30
0.0
 10
156.016636
 20
173.753607
 30
0.0
 10
158.550117
 20
173.753607
 30
0.0
  0
LWPOLYLINE
  5
361
100
AcDbEntity
  8
Layer_1
 62
7
100
AcDbPolyline
 90
1
 70
1
 10
150.359162
 20
176.043858
 30
0.0
  0
SPLINE
  5
362
100
AcDbEntity
  8
Layer_1
 62
7
100
AcDbSpline
 70
8
 71
3
 72
8
 73
4
 74
0
 40
0
 40
0
 40
0
 40
0
 40
1
 40
1
 40
1
 40
1
 10
163.502794
 20
174.950202
 30
0.0
 10
163.693273
 20
175.606399
 30
0.0
 10
163.826618
 20
176.185396
 30
0.0
 10
163.826618
 20
176.236865
 30
0.0
  0
SPLINE
  5
363
100
AcDbEntity
  8
Layer_1
 62
7
100
AcDbSpline
 70
8
 71
3
 72
8
 73
4
 74
0
 40
0
 40
0
 40
0
 40
0
 40
1
 40
1
 40
1
 40
1
 10
163.826618
 20
176.236865
 30
0.0
 10
163.826618
 20
176.288309
 30
0.0
 10
161.902690
 20
176.326926
 30
0.0
 10
159.540650
 20
176.326926
 30
0.0
  0
SPLINE
  5
364
100
AcDbEntity
  8
Layer_1
 62
7
100
AcDbSpline
 70
8
 71
3
 72
8
 73
4
 74
0
 40
0
 40
0
 40
0
 40
0
 40
1
 40
1
 40
1
 40
1
 10
159.540650
 20
176.326926
 30
0.0
 10
155.616612
 20
176.326926
 30
0.0
 10
155.235639
 20
176.301204
 30
0.0
 10
155.121346
 20
176.108196
 30
0.0
  0
LWPOLYLINE
  5
365
100
AcDbEntity
  8
Layer_1
 62
7
100
AcDbPolyline
 90
3
 70
0
 10
158.550117
 20
173.753607
 30
0.0
 10
163.198013
 20
173.753607
 30
0.0
 10
163.502794
 20
174.950202
 30
0.0
  0
SPLINE
  5
366
100
AcDbEntity
  8
Layer_1
 62
7
100
AcDbSpline
 70
8
 71
3
 72
8
 73
4
 74
0
 40
0
 40
0
 40
0
 40
0
 40
1
 40
1
 40
1
 40
1
 10
164.874304
 20
176.043858
 30
0.0
 10
164.836224
 20
175.876597
 30
0.0
 10
164.702862
 20
175.400538
 30
0.0
 10
164.588569
 20
174.988801
 30
0.0
  0
SPLINE
  5
367
100
AcDbEntity
  8
Layer_1
 62
7
100
AcDbSpline
 70
8
 71
3
 72
8
 73
4
 74
0
 40
0
 40
0
 40
0
 40
0
 40
1
 40
1
 40
1
 40
1
 10
164.588569
 20
174.988801
 30
0.0
 10
164.245692
 20
173.624946
 30
0.0
 10
163.750423
 20
173.753607
 30
0.0
 10
169.065023
 20
173.753607
 30
0.0
  0
LWPOLYLINE
  5
368
100
AcDbEntity
  8
Layer_1
 62
7
100
AcDbPolyline
 90
1
 70
1
 10
155.121346
 20
176.108196
 30
0.0
  0
LWPOLYLINE
  5
369
100
AcDbEntity
  8
Layer_1
 62
7
100
AcDbPolyline
 90
7
 70
0
 10
169.065023
 20
173.753607
 30
0.0
 10
173.731957
 20
173.753607
 30
0.0
 10
173.731957
 20
175.040271
 30
0.0
 10
173.731957
 20
176.326926
 30
0.0
 10
169.350750
 20
176.326926
 30
0.0
 10
164.969544
 20
176.326926
 30
0.0
 10
164.874304
 20
176.043858
 30
0.0
  0
SPLINE
  5
36a
100
AcDbEntity
  8
Layer_1
 62
7
100
AcDbSpline
 70
8
 71
3
 72
8
 73
4
 74
0
 40
0
 40
0
 40
0
 40
0
 40
1
 40
1
 40
1
 40
1
 10
184.951663
 20
174.306874
 30
0.0
 10
184.875484
 20
174.602811
 30
0.0
 10
184.704034
 20
175.181800
 30
0.0
 10
184.589741
 20
175.593529
 30
0.0
  0
LWPOLYLINE
  5
36b
100
AcDbEntity
  8
Layer_1
 62
7
100
AcDbPolyline
 90
5
 70
0
 10
174.874882
 20
175.040271
 30
0.0
 10
174.874882
 20
173.753607
 30
0.0
 10
179.998994
 20
173.753607
 30
0.0
 10
185.123106
 20
173.753607
 30
0.0
 10
184.951663
 20
174.306874
 30
0.0
  0
LWPOLYLINE
  5
36c
100
AcDbEntity
  8
Layer_1
 62
7
100
AcDbPolyline
 90
5
 70
0
 10
184.589741
 20
175.593529
 30
0.0
 10
184.380200
 20
176.326926
 30
0.0
 10
179.618019
 20
176.326926
 30
0.0
 10
174.874882
 20
176.326926
 30
0.0
 10
174.874882
 20
175.040271
 30
0.0
  0
SPLINE
  5
36d
100
AcDbEntity
  8
Layer_1
 62
7
100
AcDbSpline
 70
8
 71
3
 72
8
 73
4
 74
0
 40
0
 40
0
 40
0
 40
0
 40
1
 40
1
 40
1
 40
1
 10
190.075776
 20
173.779396
 30
0.0
 10
193.085471
 20
173.753590
 30
0.0
 10
193.923616
 20
173.779396
 30
0.0
 10
193.923616
 20
173.908056
 30
0.0
  0
SPLINE
  5
36e
100
AcDbEntity
  8
Layer_1
 62
7
100
AcDbSpline
 70
8
 71
3
 72
8
 73
4
 74
0
 40
0
 40
0
 40
0
 40
0
 40
1
 40
1
 40
1
 40
1
 10
193.923616
 20
173.908056
 30
0.0
 10
193.923616
 20
173.998125
 30
0.0
 10
193.656934
 20
174.577114
 30
0.0
 10
193.314056
 20
175.207581
 30
0.0
  0
LWPOLYLINE
  5
36f
100
AcDbEntity
  8
Layer_1
 62
7
100
AcDbPolyline
 90
3
 70
0
 10
185.827906
 20
175.078870
 30
0.0
 10
186.246979
 20
173.817937
 30
0.0
 10
190.075776
 20
173.779396
 30
0.0
  0
SPLINE
  5
370
100
AcDbEntity
  8
Layer_1
 62
7
100
AcDbSpline
 70
8
 71
3
 72
8
 73
4
 74
0
 40
0
 40
0
 40
0
 40
0
 40
1
 40
1
 40
1
 40
1
 10
193.923616
 20
176.223996
 30
0.0
 10
193.923616
 20
176.082466
 30
0.0
 10
194.704611
 20
174.654272
 30
0.0
 10
195.085587
 20
174.113875
 30
0.0
  0
SPLINE
  5
371
100
AcDbEntity
  8
Layer_1
 62
7
100
AcDbSpline
 70
8
 71
3
 72
8
 73
4
 74
0
 40
0
 40
0
 40
0
 40
0
 40
1
 40
1
 40
1
 40
1
 10
195.085587
 20
174.113875
 30
0.0
 10
195.314180
 20
173.753607
 30
0.0
 10
195.333224
 20
173.753607
 30
0.0
 10
197.276190
 20
173.753607
 30
0.0
  0
LWPOLYLINE
  5
372
100
AcDbEntity
  8
Layer_1
 62
7
100
AcDbPolyline
 90
5
 70
0
 10
193.314056
 20
175.207581
 30
0.0
 10
192.704504
 20
176.326976
 30
0.0
 10
189.047143
 20
176.326976
 30
0.0
 10
185.408833
 20
176.326976
 30
0.0
 10
185.827906
 20
175.078870
 30
0.0
  0
SPLINE
  5
373
100
AcDbEntity
  8
Layer_1
 62
7
100
AcDbSpline
 70
8
 71
3
 72
8
 73
4
 74
0
 40
0
 40
0
 40
0
 40
0
 40
1
 40
1
 40
1
 40
1
 10
195.771341
 20
176.301137
 30
0.0
 10
194.742717
 20
176.313957
 30
0.0
 10
193.923616
 20
176.288234
 30
0.0
 10
193.923616
 20
176.223971
 30
0.0
  0
LWPOLYLINE
  5
374
100
AcDbEntity
  8
Layer_1
 62
7
100
AcDbPolyline
 90
5
 70
0
 10
197.276190
 20
173.753607
 30
0.0
 10
199.238216
 20
173.753607
 30
0.0
 10
198.419123
 20
175.014532
 30
0.0
 10
197.619075
 20
176.262596
 30
0.0
 10
195.771341
 20
176.301137
 30
0.0
  0
SPLINE
  5
375
100
AcDbEntity
  8
Layer_1
 62
7
100
AcDbSpline
 70
8
 71
3
 72
8
 73
4
 74
0
 40
0
 40
0
 40
0
 40
0
 40
1
 40
1
 40
1
 40
1
 10
148.473338
 20
173.020219
 30
0.0
 10
148.244753
 20
172.917288
 30
0.0
 10
146.682756
 20
170.717098
 30
0.0
 10
146.682756
 20
170.511230
 30
0.0
  0
SPLINE
  5
376
100
AcDbEntity
  8
Layer_1
 62
7
100
AcDbSpline
 70
8
 71
3
 72
8
 73
4
 74
0
 40
0
 40
0
 40
0
 40
0
 40
1
 40
1
 40
1
 40
1
 10
146.682756
 20
170.511230
 30
0.0
 10
146.682756
 20
170.446966
 30
0.0
 10
147.635192
 20
170.421161
 30
0.0
 10
148.797165
 20
170.433980
 30
0.0
  0
LWPOLYLINE
  5
377
100
AcDbEntity
  8
Layer_1
 62
7
100
AcDbPolyline
 90
1
 70
1
 10
193.923616
 20
176.223971
 30
0.0
  0
SPLINE
  5
378
100
AcDbEntity
  8
Layer_1
 62
7
100
AcDbSpline
 70
8
 71
3
 72
8
 73
4
 74
0
 40
0
 40
0
 40
0
 40
0
 40
1
 40
1
 40
1
 40
1
 10
151.197306
 20
172.981585
 30
0.0
 10
150.549649
 20
172.981585
 30
0.0
 10
149.711506
 20
173.020210
 30
0.0
 10
149.349579
 20
173.045849
 30
0.0
  0
SPLINE
  5
379
100
AcDbEntity
  8
Layer_1
 62
7
100
AcDbSpline
 70
8
 71
3
 72
8
 73
4
 74
0
 40
0
 40
0
 40
0
 40
0
 40
1
 40
1
 40
1
 40
1
 10
149.349579
 20
173.045849
 30
0.0
 10
148.987654
 20
173.084474
 30
0.0
 10
148.587630
 20
173.071654
 30
0.0
 10
148.473338
 20
173.020127
 30
0.0
  0
LWPOLYLINE
  5
37a
100
AcDbEntity
  8
Layer_1
 62
7
100
AcDbPolyline
 90
5
 70
0
 10
148.797165
 20
170.433980
 30
0.0
 10
150.930623
 20
170.472605
 30
0.0
 10
151.654476
 20
171.733530
 30
0.0
 10
152.359278
 20
172.981585
 30
0.0
 10
151.197306
 20
172.981585
 30
0.0
  0
SPLINE
  5
37b
100
AcDbEntity
  8
Layer_1
 62
7
100
AcDbSpline
 70
8
 71
3
 72
8
 73
4
 74
0
 40
0
 40
0
 40
0
 40
0
 40
1
 40
1
 40
1
 40
1
 10
195.638005
 20
172.930150
 30
0.0
 10
195.638005
 20
172.852900
 30
0.0
 10
195.942784
 20
172.248222
 30
0.0
 10
196.323760
 20
171.604903
 30
0.0
  0
LWPOLYLINE
  5
37c
100
AcDbEntity
  8
Layer_1
 62
7
100
AcDbPolyline
 90
1
 70
1
 10
148.473338
 20
173.020127
 30
0.0
  0
SPLINE
  5
37d
100
AcDbEntity
  8
Layer_1
 62
7
100
AcDbSpline
 70
8
 71
3
 72
8
 73
4
 74
0
 40
0
 40
0
 40
0
 40
0
 40
1
 40
1
 40
1
 40
1
 10
199.181066
 20
170.408300
 30
0.0
 10
200.381133
 20
170.408300
 30
0.0
 10
201.352624
 20
170.459744
 30
0.0
 10
201.352624
 20
170.524108
 30
0.0
  0
SPLINE
  5
37e
100
AcDbEntity
  8
Layer_1
 62
7
100
AcDbSpline
 70
8
 71
3
 72
8
 73
4
 74
0
 40
0
 40
0
 40
0
 40
0
 40
1
 40
1
 40
1
 40
1
 10
201.352624
 20
170.524108
 30
0.0
 10
201.352624
 20
170.588371
 30
0.0
 10
200.971648
 20
171.206027
 30
0.0
 10
200.495435
 20
171.887954
 30
0.0
  0
LWPOLYLINE
  5
37f
100
AcDbEntity
  8
Layer_1
 62
7
100
AcDbPolyline
 90
3
 70
0
 10
196.323760
 20
171.604903
 30
0.0
 10
197.009514
 20
170.408300
 30
0.0
 10
199.181066
 20
170.408300
 30
0.0
  0
SPLINE
  5
380
100
AcDbEntity
  8
Layer_1
 62
7
100
AcDbSpline
 70
8
 71
3
 72
8
 73
4
 74
0
 40
0
 40
0
 40
0
 40
0
 40
1
 40
1
 40
1
 40
1
 10
197.638129
 20
173.097343
 30
0.0
 10
196.285663
 20
173.084524
 30
0.0
 10
195.638005
 20
173.033080
 30
0.0
 10
195.638005
 20
172.930066
 30
0.0
  0
LWPOLYLINE
  5
381
100
AcDbEntity
  8
Layer_1
 62
7
100
AcDbPolyline
 90
3
 70
0
 10
200.495435
 20
171.887954
 30
0.0
 10
199.657288
 20
173.123149
 30
0.0
 10
197.638129
 20
173.097343
 30
0.0
  0
SPLINE
  5
382
100
AcDbEntity
  8
Layer_1
 62
7
100
AcDbSpline
 70
8
 71
3
 72
8
 73
4
 74
0
 40
0
 40
0
 40
0
 40
0
 40
1
 40
1
 40
1
 40
1
 10
153.464106
 20
172.865819
 30
0.0
 10
153.330765
 20
172.724298
 30
0.0
 10
152.206889
 20
170.588430
 30
0.0
 10
152.206889
 20
170.485491
 30
0.0
  0
SPLINE
  5
383
100
AcDbEntity
  8
Layer_1
 62
7
100
AcDbSpline
 70
8
 71
3
 72
8
 73
4
 74
0
 40
0
 40
0
 40
0
 40
0
 40
1
 40
1
 40
1
 40
1
 10
152.206889
 20
170.485491
 30
0.0
 10
152.206889
 20
170.434047
 30
0.0
 10
154.454640
 20
170.421227
 30
0.0
 10
157.216710
 20
170.434047
 30
0.0
  0
LWPOLYLINE
  5
384
100
AcDbEntity
  8
Layer_1
 62
7
100
AcDbPolyline
 90
1
 70
1
 10
195.638005
 20
172.930066
 30
0.0
  0
SPLINE
  5
385
100
AcDbEntity
  8
Layer_1
 62
7
100
AcDbSpline
 70
8
 71
3
 72
8
 73
4
 74
0
 40
0
 40
0
 40
0
 40
0
 40
1
 40
1
 40
1
 40
1
 10
162.417019
 20
171.064455
 30
0.0
 10
162.550356
 20
171.386123
 30
0.0
 10
162.702747
 20
171.952251
 30
0.0
 10
162.778941
 20
172.312511
 30
0.0
  0
LWPOLYLINE
  5
386
100
AcDbEntity
  8
Layer_1
 62
7
100
AcDbPolyline
 90
3
 70
0
 10
157.216710
 20
170.434047
 30
0.0
 10
162.207479
 20
170.472588
 30
0.0
 10
162.417019
 20
171.064455
 30
0.0
  0
SPLINE
  5
387
100
AcDbEntity
  8
Layer_1
 62
7
100
AcDbSpline
 70
8
 71
3
 72
8
 73
4
 74
0
 40
0
 40
0
 40
0
 40
0
 40
1
 40
1
 40
1
 40
1
 10
158.245339
 20
172.981577
 30
0.0
 10
155.673759
 20
172.981577
 30
0.0
 10
153.521252
 20
172.930133
 30
0.0
 10
153.464106
 20
172.865778
 30
0.0
  0
LWPOLYLINE
  5
388
100
AcDbEntity
  8
Layer_1
 62
7
100
AcDbPolyline
 90
3
 70
0
 10
162.778941
 20
172.312511
 30
0.0
 10
162.912278
 20
172.981577
 30
0.0
 10
158.245339
 20
172.981577
 30
0.0
  0
SPLINE
  5
389
100
AcDbEntity
  8
Layer_1
 62
7
100
AcDbSpline
 70
8
 71
3
 72
8
 73
4
 74
0
 40
0
 40
0
 40
0
 40
0
 40
1
 40
1
 40
1
 40
1
 10
163.693273
 20
171.759285
 30
0.0
 10
163.502794
 20
171.090227
 30
0.0
 10
163.369448
 20
170.511230
 30
0.0
 10
163.407546
 20
170.472630
 30
0.0
  0
SPLINE
  5
38a
100
AcDbEntity
  8
Layer_1
 62
7
100
AcDbSpline
 70
8
 71
3
 72
8
 73
4
 74
0
 40
0
 40
0
 40
0
 40
0
 40
1
 40
1
 40
1
 40
1
 10
163.407546
 20
170.472630
 30
0.0
 10
163.464724
 20
170.434005
 30
0.0
 10
165.807690
 20
170.408366
 30
0.0
 10
168.626898
 20
170.408366
 30
0.0
  0
LWPOLYLINE
  5
38b
100
AcDbEntity
  8
Layer_1
 62
7
100
AcDbPolyline
 90
1
 70
1
 10
153.464106
 20
172.865778
 30
0.0
  0
LWPOLYLINE
  5
38c
100
AcDbEntity
  8
Layer_1
 62
7
100
AcDbPolyline
 90
7
 70
0
 10
168.626898
 20
170.408366
 30
0.0
 10
173.731957
 20
170.408366
 30
0.0
 10
173.731957
 20
171.695022
 30
0.0
 10
173.731957
 20
172.981685
 30
0.0
 10
168.912633
 20
172.981685
 30
0.0
 10
164.074248
 20
172.981685
 30
0.0
 10
163.693273
 20
171.759285
 30
0.0
  0
SPLINE
  5
38d
100
AcDbEntity
  8
Layer_1
 62
7
100
AcDbSpline
 70
8
 71
3
 72
8
 73
4
 74
0
 40
0
 40
0
 40
0
 40
0
 40
1
 40
1
 40
1
 40
1
 10
180.551440
 20
170.434005
 30
0.0
 10
183.980216
 20
170.421103
 30
0.0
 10
186.113670
 20
170.446825
 30
0.0
 10
186.113670
 20
170.524074
 30
0.0
  0
SPLINE
  5
38e
100
AcDbEntity
  8
Layer_1
 62
7
100
AcDbSpline
 70
8
 71
3
 72
8
 73
4
 74
0
 40
0
 40
0
 40
0
 40
0
 40
1
 40
1
 40
1
 40
1
 10
186.113670
 20
170.524074
 30
0.0
 10
186.113670
 20
170.588338
 30
0.0
 10
185.980332
 20
171.038733
 30
0.0
 10
185.827943
 20
171.527661
 30
0.0
  0
SPLINE
  5
38f
100
AcDbEntity
  8
Layer_1
 62
7
100
AcDbSpline
 70
8
 71
3
 72
8
 73
4
 74
0
 40
0
 40
0
 40
0
 40
0
 40
1
 40
1
 40
1
 40
1
 10
185.827943
 20
171.527661
 30
0.0
 10
185.656507
 20
172.003729
 30
0.0
 10
185.485064
 20
172.531257
 30
0.0
 10
185.446967
 20
172.698526
 30
0.0
  0
LWPOLYLINE
  5
390
100
AcDbEntity
  8
Layer_1
 62
7
100
AcDbPolyline
 90
3
 70
0
 10
174.912988
 20
171.733563
 30
0.0
 10
174.970166
 20
170.472630
 30
0.0
 10
180.551440
 20
170.434005
 30
0.0
  0
SPLINE
  5
391
100
AcDbEntity
  8
Layer_1
 62
7
100
AcDbSpline
 70
8
 71
3
 72
8
 73
4
 74
0
 40
0
 40
0
 40
0
 40
0
 40
1
 40
1
 40
1
 40
1
 10
186.608909
 20
172.505551
 30
0.0
 10
186.685088
 20
172.235361
 30
0.0
 10
186.875593
 20
171.669225
 30
0.0
 10
187.047027
 20
171.244627
 30
0.0
  0
LWPOLYLINE
  5
392
100
AcDbEntity
  8
Layer_1
 62
7
100
AcDbPolyline
 90
5
 70
0
 10
185.446967
 20
172.698526
 30
0.0
 10
185.351728
 20
172.981594
 30
0.0
 10
180.094266
 20
172.981594
 30
0.0
 10
174.855870
 20
172.981594
 30
0.0
 10
174.912988
 20
171.733563
 30
0.0
  0
SPLINE
  5
393
100
AcDbEntity
  8
Layer_1
 62
7
100
AcDbSpline
 70
8
 71
3
 72
8
 73
4
 74
0
 40
0
 40
0
 40
0
 40
0
 40
1
 40
1
 40
1
 40
1
 10
191.504428
 20
170.434005
 30
0.0
 10
193.771225
 20
170.421103
 30
0.0
 10
195.638005
 20
170.446825
 30
0.0
 10
195.638005
 20
170.498269
 30
0.0
  0
SPLINE
  5
394
100
AcDbEntity
  8
Layer_1
 62
7
100
AcDbSpline
 70
8
 71
3
 72
8
 73
4
 74
0
 40
0
 40
0
 40
0
 40
0
 40
1
 40
1
 40
1
 40
1
 10
195.638005
 20
170.498269
 30
0.0
 10
195.638005
 20
170.562533
 30
0.0
 10
195.352269
 20
171.141588
 30
0.0
 10
195.028444
 20
171.784924
 30
0.0
  0
LWPOLYLINE
  5
395
100
AcDbEntity
  8
Layer_1
 62
7
100
AcDbPolyline
 90
3
 70
0
 10
187.047027
 20
171.244627
 30
0.0
 10
187.351807
 20
170.472630
 30
0.0
 10
191.504428
 20
170.434005
 30
0.0
  0
SPLINE
  5
396
100
AcDbEntity
  8
Layer_1
 62
7
100
AcDbSpline
 70
8
 71
3
 72
8
 73
4
 74
0
 40
0
 40
0
 40
0
 40
0
 40
1
 40
1
 40
1
 40
1
 10
174.099504
 20
185.809564
 30
0.0
 10
154.765616
 20
185.796661
 30
0.0
 10
150.764676
 20
185.770939
 30
0.0
 10
150.250387
 20
185.616564
 30
0.0
  0
SPLINE
  5
397
100
AcDbEntity
  8
Layer_1
 62
7
100
AcDbSpline
 70
8
 71
3
 72
8
 73
4
 74
0
 40
0
 40
0
 40
0
 40
0
 40
1
 40
1
 40
1
 40
1
 10
150.250387
 20
185.616564
 30
0.0
 10
149.926575
 20
185.526495
 30
0.0
 10
149.507585
 20
185.307982
 30
0.0
 10
149.355196
 20
185.127853
 30
0.0
  0
SPLINE
  5
398
100
AcDbEntity
  8
Layer_1
 62
7
100
AcDbSpline
 70
8
 71
3
 72
8
 73
4
 74
0
 40
0
 40
0
 40
0
 40
0
 40
1
 40
1
 40
1
 40
1
 10
149.355196
 20
185.127853
 30
0.0
 10
149.069487
 20
184.857670
 30
0.0
 10
147.240826
 20
182.065106
 30
0.0
 10
143.145474
 20
175.773567
 30
0.0
  0
SPLINE
  5
399
100
AcDbEntity
  8
Layer_1
 62
7
100
AcDbSpline
 70
8
 71
3
 72
8
 73
4
 74
0
 40
0
 40
0
 40
0
 40
0
 40
1
 40
1
 40
1
 40
1
 10
143.145474
 20
175.773567
 30
0.0
 10
142.421661
 20
174.679919
 30
0.0
 10
141.221415
 20
172.853133
 30
0.0
 10
140.478538
 20
171.720877
 30
0.0
  0
SPLINE
  5
39a
100
AcDbEntity
  8
Layer_1
 62
7
100
AcDbSpline
 70
8
 71
3
 72
8
 73
4
 74
0
 40
0
 40
0
 40
0
 40
0
 40
1
 40
1
 40
1
 40
1
 10
140.478538
 20
171.720877
 30
0.0
 10
138.211809
 20
168.324117
 30
0.0
 10
138.040444
 20
167.796481
 30
0.0
 10
138.821416
 20
167.011615
 30
0.0
  0
SPLINE
  5
39b
100
AcDbEntity
  8
Layer_1
 62
7
100
AcDbSpline
 70
8
 71
3
 72
8
 73
4
 74
0
 40
0
 40
0
 40
0
 40
0
 40
1
 40
1
 40
1
 40
1
 10
138.821416
 20
167.011615
 30
0.0
 10
139.545249
 20
166.291096
 30
0.0
 10
140.040477
 20
166.239502
 30
0.0
 10
146.250160
 20
166.278102
 30
0.0
  0
LWPOLYLINE
  5
39c
100
AcDbEntity
  8
Layer_1
 62
7
100
AcDbPolyline
 90
5
 70
0
 10
195.028444
 20
171.784924
 30
0.0
 10
194.399831
 20
172.981519
 30
0.0
 10
190.437706
 20
172.981519
 30
0.0
 10
186.475564
 20
172.981519
 30
0.0
 10
186.608909
 20
172.505551
 30
0.0
  0
SPLINE
  5
39d
100
AcDbEntity
  8
Layer_1
 62
7
100
AcDbSpline
 70
8
 71
3
 72
8
 73
4
 74
0
 40
0
 40
0
 40
0
 40
0
 40
1
 40
1
 40
1
 40
1
 10
201.815236
 20
166.278094
 30
0.0
 10
207.720175
 20
166.226649
 30
0.0
 10
208.291973
 20
166.265274
 30
0.0
 10
209.111073
 20
166.767113
 30
0.0
  0
SPLINE
  5
39e
100
AcDbEntity
  8
Layer_1
 62
7
100
AcDbSpline
 70
8
 71
3
 72
8
 73
4
 74
0
 40
0
 40
0
 40
0
 40
0
 40
1
 40
1
 40
1
 40
1
 10
209.111073
 20
166.767113
 30
0.0
 10
209.663483
 20
167.088765
 30
0.0
 10
209.720759
 20
167.204639
 30
0.0
 10
209.720759
 20
167.822087
 30
0.0
  0
SPLINE
  5
39f
100
AcDbEntity
  8
Layer_1
 62
7
100
AcDbSpline
 70
8
 71
3
 72
8
 73
4
 74
0
 40
0
 40
0
 40
0
 40
0
 40
1
 40
1
 40
1
 40
1
 10
209.720759
 20
167.822087
 30
0.0
 10
209.701670
 20
168.413945
 30
0.0
 10
209.339491
 20
169.070275
 30
0.0
 10
207.110783
 20
172.557104
 30
0.0
  0
SPLINE
  5
3a0
100
AcDbEntity
  8
Layer_1
 62
7
100
AcDbSpline
 70
8
 71
3
 72
8
 73
4
 74
0
 40
0
 40
0
 40
0
 40
0
 40
1
 40
1
 40
1
 40
1
 10
207.110783
 20
172.557104
 30
0.0
 10
202.425005
 20
179.852196
 30
0.0
 10
199.415360
 20
184.484367
 30
0.0
 10
199.034384
 20
184.921818
 30
0.0
  0
SPLINE
  5
3a1
100
AcDbEntity
  8
Layer_1
 62
7
100
AcDbSpline
 70
8
 71
3
 72
8
 73
4
 74
0
 40
0
 40
0
 40
0
 40
0
 40
1
 40
1
 40
1
 40
1
 10
199.034384
 20
184.921818
 30
0.0
 10
198.824886
 20
185.166278
 30
0.0
 10
198.367515
 20
185.462273
 30
0.0
 10
198.005584
 20
185.578073
 30
0.0
  0
SPLINE
  5
3a2
100
AcDbEntity
  8
Layer_1
 62
7
100
AcDbSpline
 70
8
 71
3
 72
8
 73
4
 74
0
 40
0
 40
0
 40
0
 40
0
 40
1
 40
1
 40
1
 40
1
 10
198.005584
 20
185.578073
 30
0.0
 10
197.376971
 20
185.796802
 30
0.0
 10
195.852526
 20
185.809555
 30
0.0
 10
174.099504
 20
185.809555
 30
0.0
  0
LWPOLYLINE
  5
3a3
100
AcDbEntity
  8
Layer_1
 62
7
100
AcDbPolyline
 90
2
 70
0
 10
146.250160
 20
166.278102
 30
0.0
 10
201.815236
 20
166.278094
 30
0.0
  0
LWPOLYLINE
  5
3a4
100
AcDbEntity
  8
Layer_1
 62
7
100
AcDbPolyline
 90
1
 70
1
 10
174.099504
 20
185.809555
 30
0.0
  0
SPLINE
  5
3a5
100
AcDbEntity
  8
Layer_1
 62
7
100
AcDbSpline
 70
8
 71
3
 72
8
 73
4
 74
0
 40
0
 40
0
 40
0
 40
0
 40
1
 40
1
 40
1
 40
1
 10
196.919809
 20
181.988347
 30
0.0
 10
197.929399
 20
180.534473
 30
0.0
 10
199.491639
 20
178.128065
 30
0.0
 10
202.634471
 20
173.200340
 30
0.0
  0
SPLINE
  5
3a6
100
AcDbEntity
  8
Layer_1
 62
7
100
AcDbSpline
 70
8
 71
3
 72
8
 73
4
 74
0
 40
0
 40
0
 40
0
 40
0
 40
1
 40
1
 40
1
 40
1
 10
202.634471
 20
173.200340
 30
0.0
 10
203.434519
 20
171.965154
 30
0.0
 10
204.329916
 20
170.549930
 30
0.0
 10
204.653749
 20
170.073871
 30
0.0
  0
SPLINE
  5
3a7
100
AcDbEntity
  8
Layer_1
 62
7
100
AcDbSpline
 70
8
 71
3
 72
8
 73
4
 74
0
 40
0
 40
0
 40
0
 40
0
 40
1
 40
1
 40
1
 40
1
 10
204.653749
 20
170.073871
 30
0.0
 10
204.977581
 20
169.584934
 30
0.0
 10
205.244097
 20
169.108783
 30
0.0
 10
205.244097
 20
169.005853
 30
0.0
  0
SPLINE
  5
3a8
100
AcDbEntity
  8
Layer_1
 62
7
100
AcDbSpline
 70
8
 71
3
 72
8
 73
4
 74
0
 40
0
 40
0
 40
0
 40
0
 40
1
 40
1
 40
1
 40
1
 10
205.244097
 20
169.005853
 30
0.0
 10
205.244097
 20
168.864323
 30
0.0
 10
200.424104
 20
168.838635
 30
0.0
 10
174.080503
 20
168.890112
 30
0.0
  0
SPLINE
  5
3a9
100
AcDbEntity
  8
Layer_1
 62
7
100
AcDbSpline
 70
8
 71
3
 72
8
 73
4
 74
0
 40
0
 40
0
 40
0
 40
0
 40
1
 40
1
 40
1
 40
1
 10
174.080503
 20
168.890112
 30
0.0
 10
156.937264
 20
168.915834
 30
0.0
 10
142.878741
 20
168.967445
 30
0.0
 10
142.840639
 20
168.993125
 30
0.0
  0
SPLINE
  5
3aa
100
AcDbEntity
  8
Layer_1
 62
7
100
AcDbSpline
 70
8
 71
3
 72
8
 73
4
 74
0
 40
0
 40
0
 40
0
 40
0
 40
1
 40
1
 40
1
 40
1
 10
142.840639
 20
168.993125
 30
0.0
 10
142.726352
 20
169.057389
 30
0.0
 10
151.298356
 20
182.232791
 30
0.0
 10
152.117424
 20
183.262083
 30
0.0
  0
SPLINE
  5
3ab
100
AcDbEntity
  8
Layer_1
 62
7
100
AcDbSpline
 70
8
 71
3
 72
8
 73
4
 74
0
 40
0
 40
0
 40
0
 40
0
 40
1
 40
1
 40
1
 40
1
 10
152.117424
 20
183.262083
 30
0.0
 10
152.288851
 20
183.480821
 30
0.0
 10
153.451451
 20
183.493566
 30
0.0
 10
174.080519
 20
183.493566
 30
0.0
  0
LWPOLYLINE
  5
3ac
100
AcDbEntity
  8
Layer_1
 62
7
100
AcDbPolyline
 90
3
 70
0
 10
174.080503
 20
183.493566
 30
0.0
 10
195.853037
 20
183.493566
 30
0.0
 10
196.919809
 20
181.988347
 30
0.0
  0
SPLINE
  5
3ad
100
AcDbEntity
  8
Layer_1
 62
7
100
AcDbSpline
 70
8
 71
3
 72
8
 73
4
 74
0
 40
0
 40
0
 40
0
 40
0
 40
1
 40
1
 40
1
 40
1
 10
75.598609
 20
140.163843
 30
0.0
 10
75.493664
 20
151.984683
 30
0.0
 10
81.346850
 20
162.955113
 30
0.0
 10
90.927450
 20
168.894143
 30
0.0
  0
SPLINE
  5
3ae
100
AcDbEntity
  8
Layer_1
 62
7
100
AcDbSpline
 70
8
 71
3
 72
8
 73
4
 74
0
 40
0
 40
0
 40
0
 40
0
 40
1
 40
1
 40
1
 40
1
 10
90.927450
 20
168.894143
 30
0.0
 10
100.508030
 20
174.833173
 30
0.0
 10
112.340070
 20
174.825863
 30
0.0
 10
121.914200
 20
168.874943
 30
0.0
  0
SPLINE
  5
3af
100
AcDbEntity
  8
Layer_1
 62
7
100
AcDbSpline
 70
8
 71
3
 72
8
 73
4
 74
0
 40
0
 40
0
 40
0
 40
0
 40
1
 40
1
 40
1
 40
1
 10
121.914200
 20
168.874943
 30
0.0
 10
131.488330
 20
162.924073
 30
0.0
 10
137.329600
 20
151.946423
 30
0.0
 10
137.211820
 20
140.125733
 30
0.0
  0
LWPOLYLINE
  5
3b0
100
AcDbEntity
  8
Layer_1
 62
7
100
AcDbPolyline
 90
1
 70
1
 10
174.080519
 20
183.493566
 30
0.0
  0
SPLINE
  5
3b1
100
AcDbEntity
  8
Layer_1
 62
7
100
AcDbSpline
 70
8
 71
3
 72
8
 73
4
 74
0
 40
0
 40
0
 40
0
 40
0
 40
1
 40
1
 40
1
 40
1
 10
140.853820
 20
140.209633
 30
0.0
 10
140.986590
 20
153.299143
 30
0.0
 10
134.401560
 20
165.455123
 30
0.0
 10
123.608380
 20
172.044743
 30
0.0
  0
SPLINE
  5
3b2
100
AcDbEntity
  8
Layer_1
 62
7
100
AcDbSpline
 70
8
 71
3
 72
8
 73
4
 74
0
 40
0
 40
0
 40
0
 40
0
 40
1
 40
1
 40
1
 40
1
 10
123.608380
 20
172.044743
 30
0.0
 10
112.815210
 20
178.634373
 30
0.0
 10
99.476630
 20
178.642493
 30
0.0
 10
88.676170
 20
172.066043
 30
0.0
  0
SPLINE
  5
3b3
100
AcDbEntity
  8
Layer_1
 62
7
100
AcDbSpline
 70
8
 71
3
 72
8
 73
4
 74
0
 40
0
 40
0
 40
0
 40
0
 40
1
 40
1
 40
1
 40
1
 10
88.676170
 20
172.066043
 30
0.0
 10
77.875702
 20
165.489523
 30
0.0
 10
71.277244
 20
153.341553
 30
0.0
 10
71.395552
 20
140.251883
 30
0.0
  0
LWPOLYLINE
  5
3b4
100
AcDbEntity
  8
Layer_1
 62
7
100
AcDbPolyline
 90
2
 70
0
 10
137.211820
 20
140.125733
 30
0.0
 10
140.853820
 20
140.209633
 30
0.0
  0
LWPOLYLINE
  5
3b5
100
AcDbEntity
  8
Layer_1
 62
7
100
AcDbPolyline
 90
2
 70
0
 10
71.395552
 20
140.251883
 30
0.0
 10
75.598609
 20
140.163843
 30
0.0
  0
LWPOLYLINE
  5
3b6
100
AcDbEntity
  8
Layer_1
 62
7
100
AcDbPolyline
 90
4
 70
1
 10
98.274845
 20
162.791010
 30
0.0
 10
98.274845
 20
138.972700
 30
0.0
 10
113.808320
 20
138.972700
 30
0.0
 10
113.808320
 20
162.791010
 30
0.0
  0
LWPOLYLINE
  5
3b7
100
AcDbEntity
  8
Layer_1
 62
7
100
AcDbPolyline
 90
4
 70
1
 10
100.803760
 20
160.718910
 30
0.0
 10
111.011360
 20
160.755510
 30
0.0
 10
111.121200
 20
140.573260
 30
0.0
 10
100.785460
 20
140.591560
 30
0.0
  0
ENDSEC
  0
SECTION
  2
OBJECTS
  0
DICTIONARY
  5
C
330
0
100
AcDbDictionary
  3
ACAD_GROUP
350
D
  3
ACAD_MLINESTYLE
350
17
  0
DICTIONARY
  5
D
330
C
100
AcDbDictionary
  0
DICTIONARY
  5
1A
330
C
100
AcDbDictionary
  0
DICTIONARY
  5
17
330
C
100
AcDbDictionary
  3
STANDARD
350
18
  0
DICTIONARY
  5
19
330
C
100
AcDbDictionary
  0
ENDSEC
  0
EOF
