<?xml version="1.0" standalone="no"?>
<!DOCTYPE svg PUBLIC "-//W3C//DTD SVG 20010904//EN"
 "http://www.w3.org/TR/2001/REC-SVG-20010904/DTD/svg10.dtd">
<svg version="1.0" xmlns="http://www.w3.org/2000/svg"
 width="1972.000000pt" height="1805.000000pt" viewBox="0 0 1972.000000 1805.000000"
 preserveAspectRatio="xMidYMid meet">

<g transform="translate(0.000000,1805.000000) scale(0.100000,-0.100000)"
fill="#000000" stroke="none">
<path d="M9095 18041 l-230 -6 -18 -55 c-10 -30 -31 -129 -46 -220 -90 -516
-305 -1620 -323 -1657 -11 -24 -32 -51 -46 -61 -30 -21 -11 -12 -482 -204
-190 -77 -429 -175 -531 -219 -216 -91 -259 -103 -335 -97 -44 4 -66 13 -112
45 -275 193 -1452 997 -1470 1004 -35 14 -110 11 -140 -5 -46 -25 -1265 -1256
-1300 -1313 l-31 -51 73 -114 c113 -177 221 -337 476 -703 234 -336 386 -561
490 -724 l53 -83 -18 -52 c-36 -103 -166 -418 -280 -676 -64 -146 -148 -341
-186 -434 -80 -192 -107 -237 -164 -266 -39 -19 -513 -112 -1263 -246 -166
-29 -369 -70 -451 -89 l-148 -36 -7 -91 c-3 -50 -6 -493 -6 -983 l0 -892 58
-26 c62 -27 90 -33 477 -102 906 -161 1268 -232 1308 -259 59 -40 55 -32 241
-501 63 -159 170 -425 237 -590 133 -329 148 -389 116 -467 -9 -21 -195 -297
-414 -615 -493 -716 -537 -783 -569 -845 l-25 -50 40 -51 c22 -29 325 -336
673 -684 552 -551 638 -632 670 -638 64 -12 40 -27 683 419 215 148 497 341
628 427 269 179 233 169 368 100 157 -79 413 -220 618 -338 117 -68 215 -123
217 -121 1 2 138 561 303 1243 272 1124 298 1241 284 1252 -9 7 -22 13 -29 13
-7 0 -280 -326 -605 -725 -433 -530 -596 -722 -605 -714 -9 7 85 222 372 854
211 464 384 848 384 853 0 5 -11 17 -24 25 -23 16 -34 7 -731 -584 -569 -483
-710 -598 -721 -588 -16 13 -33 -14 185 289 139 193 231 330 401 596 106 166
250 298 402 368 115 53 214 75 398 86 271 17 380 45 720 182 293 117 417 162
515 183 73 16 95 17 245 6 255 -20 446 9 657 99 107 46 124 55 320 172 132 79
132 79 163 63 16 -8 30 -17 30 -18 0 -1 -24 -82 -54 -180 -38 -127 -63 -192
-86 -223 -18 -26 -38 -72 -46 -106 -40 -169 -126 -241 -362 -300 -153 -38
-192 -105 -177 -308 11 -159 44 -186 190 -161 87 15 152 44 235 107 79 60 442
414 469 458 11 18 77 223 146 456 102 347 126 437 126 491 2 126 -49 217 -152
274 -50 28 -61 30 -159 30 -58 0 -161 -6 -230 -13 -179 -18 -302 1 -397 62
-19 12 -31 27 -28 36 2 8 31 179 65 380 68 410 88 497 131 589 82 177 252 339
494 471 l61 33 204 -166 c397 -321 485 -416 565 -607 76 -181 197 -259 339
-219 80 22 180 153 211 277 l16 62 -40 167 c-56 235 -179 787 -246 1108 -41
194 -55 284 -52 320 7 83 65 221 135 323 35 52 62 96 59 98 -9 9 -318 -38
-408 -62 -128 -35 -144 -30 -285 88 -123 102 -234 172 -346 219 -76 32 -236
73 -326 84 l-54 7 117 -157 c64 -86 113 -156 108 -154 -4 2 -42 20 -83 40
-189 92 -344 128 -582 136 -185 6 -318 -5 -523 -44 -223 -42 -313 -52 -520
-59 -110 -4 -211 -10 -225 -14 -24 -6 -22 -9 35 -45 128 -83 239 -106 600
-125 175 -9 325 -32 325 -49 0 -3 -383 -91 -851 -193 -468 -103 -854 -190
-857 -193 -12 -11 43 -55 87 -70 55 -18 264 -54 526 -90 105 -14 198 -29 207
-33 11 -5 -150 -73 -477 -201 l-494 -195 6 -30 c3 -17 7 -32 8 -33 1 -2 87
-12 191 -24 195 -21 214 -28 214 -70 0 -15 -537 -403 -1184 -853 -329 -230
-405 -249 -941 -227 -882 36 -1271 56 -1321 70 -17 4 265 72 878 210 497 112
909 206 916 209 6 2 12 19 12 36 l0 32 -187 43 c-186 42 -1248 295 -1498 356
-126 31 -128 32 -85 38 25 3 443 20 930 37 487 18 886 33 887 34 2 1 6 17 9
34 6 28 3 33 -20 41 -183 70 -1673 749 -1646 750 3 0 410 -60 905 -134 834
-124 901 -133 913 -117 7 9 11 24 10 34 -2 9 -149 116 -328 239 -527 360
-1105 764 -1170 817 -15 12 323 -100 850 -283 481 -168 879 -303 883 -302 5 1
-263 284 -595 628 -332 344 -614 638 -628 653 l-24 27 69 -33 c221 -104 1203
-630 1454 -777 l54 -32 23 22 c13 12 24 26 24 30 0 4 -226 331 -501 726 -276
395 -511 732 -523 748 l-20 30 39 -30 c120 -89 799 -641 1193 -969 106 -89
196 -162 200 -163 4 -2 18 6 31 16 l24 18 -368 809 c-202 445 -374 825 -382
844 l-14 35 27 -30 c115 -126 804 -944 1107 -1312 64 -78 68 -82 92 -71 14 6
25 18 25 26 0 8 -101 426 -225 930 -124 503 -224 916 -222 918 3 3 424 -747
727 -1298 138 -250 208 -368 219 -368 48 1 48 -42 -3 915 -26 493 -46 899 -43
901 5 5 35 -76 184 -496 140 -397 413 -1197 413 -1212 0 -11 50 -2 61 10 3 4
56 403 118 887 62 484 116 898 120 920 l7 40 12 -65 c33 -187 199 -1326 244
-1685 l13 -99 32 -7 33 -6 30 96 c106 335 554 1629 569 1644 4 4 7 -13 4 -40
-9 -118 -94 -1785 -91 -1788 2 -2 16 -5 31 -7 28 -3 36 10 453 777 502 921
457 842 449 790 -20 -129 -365 -1641 -400 -1756 -4 -10 4 -20 20 -27 14 -7 28
-12 29 -12 2 0 105 120 227 268 430 514 950 1115 957 1107 2 -2 -163 -371
-367 -821 -353 -777 -371 -818 -355 -835 9 -11 22 -19 28 -19 6 0 63 44 126
97 390 326 1219 993 1279 1028 19 11 58 68 -506 -737 -276 -396 -503 -723
-503 -727 0 -4 11 -18 24 -30 l24 -22 738 421 c407 232 764 436 794 452 47 26
-8 -33 -375 -403 -237 -239 -530 -535 -652 -659 l-223 -225 23 -27 22 -27 635
212 c674 225 1129 372 1134 366 2 -2 -344 -237 -769 -522 l-774 -517 11 -31
c9 -26 14 -29 37 -25 80 17 1221 168 1551 206 96 11 195 22 220 25 33 4 41 3
28 -5 -9 -5 -391 -170 -849 -365 -458 -196 -835 -357 -837 -360 -2 -2 -1 -17
3 -33 l6 -30 142 -6 c78 -4 300 -13 492 -21 554 -23 1250 -57 1254 -61 2 -2 2
-6 0 -8 -2 -2 -416 -96 -919 -208 l-915 -204 -3 -32 c-3 -26 1 -32 20 -37 343
-78 895 -208 1680 -396 76 -18 136 -34 135 -36 -2 -1 -419 -19 -927 -38 -508
-20 -926 -37 -927 -39 -2 -2 -6 -19 -9 -37 l-6 -34 104 -44 c472 -202 1531
-692 1510 -699 -8 -2 -1621 233 -1738 254 -29 5 -33 3 -43 -28 -11 -30 -10
-34 11 -48 381 -253 1445 -1007 1435 -1016 -2 -2 -381 127 -842 286 -462 159
-843 289 -846 287 -3 -1 230 -243 518 -537 288 -294 578 -593 646 -664 l122
-130 -265 136 c-286 146 -745 393 -1119 600 l-233 130 -25 -25 -25 -25 33 -48
c18 -27 253 -363 522 -747 269 -384 488 -700 486 -701 -7 -7 -688 544 -1178
953 -244 203 -245 203 -270 188 -14 -9 -25 -22 -24 -29 2 -8 174 -391 383
-852 209 -461 379 -840 378 -842 -5 -4 -235 268 -691 816 -236 283 -448 537
-471 565 -41 47 -44 49 -69 38 -15 -7 -27 -19 -27 -27 0 -19 586 -2385 593
-2392 6 -7 341 161 567 284 96 52 208 110 248 128 l72 34 143 -91 c169 -109
355 -235 727 -494 313 -218 560 -384 607 -408 46 -24 85 -21 129 11 57 42
1254 1246 1287 1294 49 74 47 81 -145 361 -94 139 -311 455 -482 702 -171 248
-321 470 -333 494 -40 79 -33 120 64 351 36 85 125 308 198 495 236 604 276
691 333 723 44 25 285 73 1086 217 320 58 609 112 644 121 38 10 74 27 92 44
l30 28 0 945 c0 926 0 945 -20 969 -11 14 -37 33 -59 41 -22 9 -187 44 -368
77 -1246 232 -1448 271 -1466 288 -46 41 -106 168 -295 622 -60 146 -148 351
-195 455 -105 236 -110 251 -105 335 3 54 10 77 33 114 17 25 242 353 500 728
259 374 480 700 492 722 12 23 22 58 23 79 0 38 -12 51 -405 450 -430 436
-953 947 -970 947 -28 0 -217 -125 -870 -574 -390 -269 -724 -495 -742 -503
-74 -30 -143 -16 -348 72 -60 26 -274 114 -475 195 -551 224 -552 224 -590
261 -48 46 -58 86 -131 499 -166 945 -260 1410 -297 1467 -9 14 -1338 25
-1737 14z"/>
<path d="M5990 4010 c-193 -24 -432 -151 -595 -315 -49 -49 -354 -464 -1006
-1370 -515 -715 -1101 -1528 -1302 -1808 l-366 -507 772 2 771 3 893 1225
c491 674 896 1226 900 1227 5 1 239 -318 522 -710 l513 -712 -837 -5 -836 -5
-369 -510 -368 -510 1168 -3 c643 -1 1698 -1 2344 0 l1176 3 -1266 1800
c-1380 1963 -1337 1905 -1525 2031 -199 133 -395 188 -589 164z"/>
<path d="M10 2005 l0 -1995 620 0 620 0 0 750 0 750 1053 0 1053 0 395 509
c216 281 395 515 397 520 3 8 -430 11 -1447 11 l-1451 0 2 208 3 207 1152 5
1153 5 394 513 395 512 -2170 0 -2169 0 0 -1995z"/>
<path d="M10840 3994 c-14 -2 -65 -9 -115 -15 -361 -45 -716 -209 -946 -438
-187 -186 -274 -370 -299 -632 -32 -333 74 -617 314 -847 245 -233 568 -374
999 -433 55 -8 483 -14 1307 -18 1141 -7 1229 -8 1290 -25 207 -58 314 -170
281 -296 -28 -104 -115 -166 -321 -228 -50 -15 -189 -17 -1570 -20 l-1515 -3
-338 -437 c-185 -240 -364 -472 -398 -515 l-60 -77 1983 2 1983 3 120 23 c404
74 714 224 955 462 99 98 163 184 219 296 85 170 116 311 115 529 -1 218 -35
362 -128 542 -61 118 -126 202 -240 311 -201 192 -472 332 -781 405 -255 61
-235 60 -1525 66 -1142 6 -1186 7 -1224 25 -51 26 -76 68 -76 131 0 67 27 110
88 138 l47 22 1462 5 1462 5 391 507 c214 279 390 509 390 512 0 6 -3828 6
-3870 0z"/>
<path d="M15571 3938 c-27 -35 -205 -265 -395 -513 l-346 -450 820 -3 820 -2
0 -1480 0 -1480 620 0 620 0 2 1478 3 1477 601 3 601 2 389 502 c214 275 393
507 397 514 7 12 -321 14 -2037 14 l-2046 0 -49 -62z"/>
</g>
</svg>
