<?xml version="1.0" standalone="no"?>
<!DOCTYPE svg PUBLIC "-//W3C//DTD SVG 20010904//EN"
 "http://www.w3.org/TR/2001/REC-SVG-20010904/DTD/svg10.dtd">
<svg version="1.0" xmlns="http://www.w3.org/2000/svg"
 width="474.000000pt" height="173.000000pt" viewBox="0 0 474.000000 173.000000"
 preserveAspectRatio="xMidYMid meet">

<g transform="translate(0.000000,173.000000) scale(0.100000,-0.100000)"
fill="#000000" stroke="none">
<path d="M1857 1516 c-29 -70 -41 -74 -67 -21 -12 25 -25 45 -30 45 -4 0 -20
-33 -35 -72 -26 -68 -28 -85 -33 -264 -4 -182 3 -269 34 -420 5 -28 3 -33 -17
-39 -13 -3 -52 -18 -87 -33 -67 -28 -84 -52 -58 -81 10 -11 16 -35 16 -62 0
-50 50 -372 60 -389 14 -22 337 -39 400 -21 28 8 30 12 85 266 20 94 41 176
47 182 6 7 7 24 4 39 -8 31 -81 67 -173 85 -35 6 -63 16 -63 20 0 5 12 28 26
51 37 58 101 234 114 310 12 75 14 358 2 358 -5 0 -24 -21 -43 -47 l-34 -48
-7 74 c-11 109 -33 120 -58 28 -11 -37 -30 -43 -30 -9 0 26 -20 92 -28 92 -4
0 -15 -20 -25 -44z"/>
<path d="M902 1530 c-5 -13 -5 -40 -1 -60 7 -31 5 -38 -18 -56 -48 -38 -6 -74
44 -39 21 15 22 14 32 -22 15 -53 15 -52 -25 -46 -33 6 -36 4 -32 -18 2 -20 9
-24 46 -27 24 -2 42 -8 42 -15 0 -7 3 -22 6 -34 6 -21 3 -23 -28 -23 -19 0
-39 -5 -46 -12 -17 -17 -47 9 -31 29 17 19 -2 36 -40 35 -29 -1 -29 -1 -13 27
8 15 13 35 9 44 -11 28 -36 19 -54 -18 -11 -23 -22 -34 -31 -30 -8 3 -21 0
-28 -6 -20 -17 -17 -47 6 -54 21 -7 24 -31 11 -90 -7 -30 -7 -30 -19 -7 -7 12
-22 22 -33 22 -30 0 -21 -42 14 -58 34 -16 36 -42 3 -42 -14 0 -28 -5 -31 -10
-4 -7 -13 -7 -26 0 -21 12 -55 -1 -76 -29 -10 -15 -12 -14 -18 1 -4 9 -5 29
-3 45 2 22 12 32 45 47 41 19 58 39 47 57 -10 17 -38 9 -67 -18 l-30 -28 6 25
c4 14 7 39 7 57 0 25 4 30 18 26 21 -5 72 38 72 62 0 24 -28 18 -57 -12 l-25
-28 7 35 c12 56 23 70 56 70 32 0 49 24 31 42 -8 8 -16 8 -27 -2 -24 -20 -29
-5 -9 27 24 38 44 53 71 53 30 0 48 33 27 50 -11 10 -20 10 -40 1 -22 -10 -28
-8 -43 11 -11 13 -24 19 -34 15 -23 -9 -21 -30 3 -52 25 -23 25 -36 -1 -87
l-21 -42 -15 28 c-17 33 -56 33 -61 -1 -2 -16 4 -24 31 -33 34 -11 35 -12 26
-48 -18 -67 -17 -67 -44 -38 -24 26 -49 27 -59 0 -6 -15 4 -27 50 -53 27 -16
30 -23 26 -55 -5 -41 -8 -43 -34 -19 -15 13 -23 15 -36 6 -27 -17 -21 -45 13
-56 46 -15 55 -26 55 -68 l0 -38 -34 20 c-29 17 -35 18 -46 4 -17 -21 4 -45
40 -45 34 0 47 -15 52 -59 3 -34 2 -34 -37 -35 -36 -1 -40 -4 -40 -26 0 -24 3
-25 50 -22 l51 2 16 -44 c9 -24 14 -47 11 -50 -4 -3 -23 -6 -43 -6 -20 0 -41
-5 -48 -12 -16 -16 -15 -53 2 -86 7 -15 31 -113 51 -219 21 -105 40 -196 44
-201 3 -5 87 -11 186 -13 l180 -4 48 180 c26 99 57 203 67 230 26 67 25 90 -7
114 l-26 21 18 60 c17 56 22 62 62 80 44 19 57 45 28 57 -9 3 -25 -3 -35 -12
-26 -24 -34 -14 -26 30 6 28 15 39 42 52 24 12 34 23 34 40 0 29 -17 29 -47 1
l-23 -21 -1 34 c0 19 -2 44 -5 57 -3 20 0 23 20 20 25 -3 56 17 56 37 0 22
-29 40 -42 27 -17 -17 -38 -15 -32 3 11 28 -5 64 -32 71 -18 5 -32 0 -49 -16
l-24 -23 -7 27 c-7 29 1 42 38 60 27 14 35 48 15 65 -12 9 -20 6 -40 -19 -14
-16 -28 -30 -30 -30 -8 0 -29 88 -23 98 3 5 22 13 41 16 26 5 35 12 35 26 0
28 -33 43 -56 25 -26 -19 -34 -18 -34 4 0 10 -9 29 -19 42 l-20 24 -9 -25z
m-61 -340 c11 0 19 -7 19 -17 0 -10 7 -27 15 -37 19 -25 19 -56 1 -56 -8 0
-24 -9 -37 -20 -21 -17 -22 -21 -9 -30 8 -6 25 -9 38 -7 19 4 22 0 22 -28 0
-29 -2 -31 -28 -27 -18 2 -33 -2 -41 -12 -8 -9 -20 -16 -29 -16 -8 0 -24 -8
-35 -17 -18 -17 -19 -17 -15 12 3 27 7 31 43 35 32 4 40 9 40 25 0 26 -31 31
-56 9 -20 -18 -20 -18 -17 21 3 37 5 40 48 50 29 7 46 17 48 28 5 25 -24 32
-53 13 -33 -22 -36 -20 -29 12 14 57 24 74 40 68 9 -3 24 -6 35 -6z m233 -5
c4 -13 -20 -35 -38 -35 -8 0 -7 35 1 43 11 12 31 8 37 -8z m-54 -62 c0 -14 -8
-32 -17 -39 -23 -17 -33 -17 -33 0 0 24 -20 29 -41 10 -24 -22 -31 -15 -23 22
5 29 8 30 60 31 52 1 54 0 54 -24z m78 -65 c3 -46 2 -48 -22 -48 -19 0 -26 5
-26 19 0 10 -3 33 -6 51 -7 30 -6 31 22 28 27 -3 29 -6 32 -50z m-62 -47 c7
-34 -1 -169 -10 -178 -8 -9 -46 18 -46 32 0 18 -23 19 -51 4 -18 -9 -20 -8
-17 17 2 21 11 30 36 38 18 6 37 18 42 26 29 46 -9 64 -51 24 l-29 -28 0 46
c0 51 2 53 77 53 41 0 43 -2 49 -34z m-325 -41 c30 -17 24 -40 -11 -40 -19 0
-33 -6 -37 -16 -7 -19 15 -36 40 -28 14 4 17 -1 17 -25 0 -26 -4 -31 -24 -31
-38 0 -42 -30 -6 -43 26 -10 30 -16 28 -42 -3 -25 -8 -30 -34 -33 -34 -3 -55
16 -72 66 -10 30 -9 35 19 60 21 19 28 32 24 45 -9 23 -32 22 -47 -3 -19 -30
-26 -25 -34 26 -7 48 4 68 32 57 7 -2 21 0 31 6 23 13 49 14 74 1z m389 -30
c0 -19 -7 -33 -19 -40 -28 -14 -31 -13 -31 14 0 37 10 56 31 56 14 0 19 -7 19
-30z m-205 -30 c13 -21 -5 -46 -32 -45 -38 0 -44 -31 -9 -45 31 -12 32 -19 6
-70 -19 -37 -23 -40 -63 -40 -50 0 -67 13 -67 52 0 25 4 28 33 28 45 0 65 14
48 34 -10 11 -18 12 -42 4 -36 -12 -43 -7 -36 24 5 18 21 28 69 44 75 26 85
27 93 14z m185 -97 c0 -10 -9 -37 -20 -60 -13 -31 -25 -43 -40 -43 -19 0 -19
2 -6 23 8 12 18 39 21 60 5 27 12 37 26 37 12 0 19 -7 19 -17z m-120 -8 c7 -8
19 -15 27 -15 22 0 26 -26 8 -54 -15 -23 -24 -26 -72 -26 -55 0 -55 0 -50 28
12 59 26 82 51 82 13 0 29 -7 36 -15z"/>
<path d="M2634 1525 c-3 -14 -4 -34 -1 -45 6 -24 3 -25 -28 -4 -20 13 -28 14
-40 4 -31 -26 -9 -69 43 -85 17 -5 22 -12 17 -23 -31 -79 -40 -146 -40 -287 1
-131 4 -162 27 -240 14 -49 27 -96 29 -104 3 -9 -9 -18 -31 -25 -19 -5 -38
-15 -42 -20 -16 -23 -8 -65 15 -83 22 -17 25 -32 41 -198 21 -218 24 -232 45
-241 9 -3 95 -9 191 -11 l175 -6 28 104 c15 57 36 136 47 174 11 39 25 88 30
111 7 28 18 44 35 52 19 9 25 19 25 42 0 42 -16 70 -42 70 -16 0 -19 4 -14 23
23 77 47 228 53 323 l6 111 29 0 c30 0 92 49 82 65 -3 4 -19 8 -36 8 -25 0
-29 3 -25 20 3 12 -2 27 -11 36 -14 15 -17 14 -32 -6 l-16 -21 -12 25 c-23 51
-42 26 -42 -54 0 -27 -5 -52 -10 -55 -6 -4 -26 -37 -45 -73 l-34 -67 -1 60
c-1 55 -20 179 -35 232 -6 19 -2 23 29 28 56 11 76 55 24 55 -16 0 -19 5 -16
25 3 15 -1 30 -10 37 -12 10 -19 7 -38 -17 l-24 -30 0 27 c0 32 -9 58 -21 58
-17 0 -31 -80 -19 -113 9 -26 7 -36 -8 -57 -28 -38 -57 -98 -77 -160 -10 -30
-21 -58 -24 -63 -4 -4 -22 41 -40 100 -18 60 -43 125 -56 145 l-24 37 20 47
c20 43 20 47 4 63 -15 15 -17 15 -31 -3 -15 -21 -16 -21 -33 12 -15 29 -29 28
-37 -3z"/>
<path d="M4014 1193 c12 -53 19 -133 11 -133 -4 0 -20 11 -37 25 -34 29 -46
31 -55 9 -10 -27 14 -64 42 -64 30 0 32 -16 4 -50 -14 -17 -22 -21 -26 -12 -9
23 -33 41 -48 36 -25 -10 -28 -43 -7 -78 l19 -33 -23 -39 c-27 -45 -31 -100
-8 -132 14 -20 14 -22 -4 -22 -17 0 -20 9 -24 80 -3 53 -10 86 -21 97 -14 17
-14 20 4 42 21 26 25 66 7 77 -10 7 -26 -8 -68 -65 -15 -20 -15 -20 -45 6
l-29 26 47 39 c48 41 58 67 33 87 -19 16 -61 -19 -77 -64 -14 -38 -24 -44 -33
-19 -11 28 -6 69 10 92 8 12 10 22 5 22 -6 0 -18 -14 -27 -31 -14 -29 -14 -51
2 -93 4 -11 -5 -20 -34 -31 -43 -18 -61 -43 -40 -57 19 -11 34 -10 75 7 19 8
39 15 44 15 15 0 79 -62 79 -76 0 -17 -5 -17 -47 -2 -38 14 -53 3 -53 -39 0
-27 14 -36 56 -35 22 1 32 -3 29 -11 -2 -7 -6 -24 -9 -39 -10 -42 -46 -38 -77
10 -13 20 -42 46 -63 56 -34 17 -45 18 -84 7 -33 -9 -48 -9 -58 0 -21 18 -99
2 -134 -28 -40 -33 -29 -47 31 -40 45 6 63 -3 39 -18 -30 -19 -50 -86 -50
-168 l0 -84 -40 -18 c-48 -22 -74 -49 -67 -70 7 -18 48 -20 65 -3 9 9 12 9 12
-1 0 -7 -17 -31 -39 -52 -38 -38 -38 -49 0 -29 15 9 21 7 26 -7 3 -10 15 -28
26 -40 44 -49 65 30 26 94 -13 21 -18 40 -13 51 4 9 10 62 13 117 l6 100 22
-37 c32 -54 53 -50 53 8 0 38 -5 51 -30 74 l-29 27 36 43 c35 41 84 70 118 70
14 0 14 -3 -2 -24 -25 -31 -32 -166 -9 -166 10 0 16 -17 21 -58 15 -145 46
-357 53 -363 25 -23 343 -50 371 -31 7 5 26 65 42 133 15 68 39 158 53 199 20
64 30 78 61 98 37 24 37 24 31 75 -4 29 -16 66 -27 84 -24 38 -17 41 29 13 36
-22 71 -88 79 -150 4 -26 -1 -46 -16 -71 -27 -44 -28 -100 0 -125 25 -23 48
-11 63 34 9 24 14 29 26 22 8 -5 25 -10 36 -10 26 0 74 36 74 55 0 9 -9 5 -25
-10 -33 -34 -67 -32 -99 6 -14 17 -26 34 -26 39 0 5 -3 15 -6 24 -5 13 2 16
40 16 35 0 46 4 46 16 0 24 -56 74 -83 74 -16 0 -31 11 -48 37 -32 49 -68 73
-117 80 -39 5 -41 7 -35 35 5 28 4 29 -23 26 -21 -2 -33 -12 -43 -33 -8 -16
-18 -32 -24 -34 -5 -2 -24 -16 -42 -32 -18 -16 -38 -29 -44 -29 -18 0 -34 46
-27 75 7 26 9 27 50 21 33 -5 48 -3 60 9 20 20 20 29 1 45 -9 7 -27 9 -47 5
l-33 -6 48 46 c37 36 53 46 74 43 24 -3 29 -9 34 -41 8 -50 21 -62 48 -48 28
15 27 29 -6 63 -14 15 -25 30 -22 32 8 8 93 -14 113 -29 17 -13 17 -17 5 -47
-17 -40 -14 -54 17 -95 31 -41 42 -41 56 -2 9 28 12 29 27 15 10 -9 25 -16 35
-16 25 0 84 32 68 38 -8 2 -19 -1 -25 -7 -6 -6 -23 -11 -39 -11 -21 0 -34 10
-59 48 -18 26 -43 59 -56 73 l-24 26 51 5 c62 6 76 18 61 47 -17 31 -71 28
-112 -6 -30 -26 -39 -28 -121 -28 -48 0 -87 2 -85 5 1 3 13 28 26 56 17 38 31
54 56 62 40 15 68 45 63 68 -5 29 -24 27 -62 -7 -20 -17 -39 -29 -42 -26 -3 3
-8 24 -11 46 -3 23 -10 41 -15 41 -6 0 -8 -12 -4 -27z m-171 -378 c5 -28 6
-65 2 -82 -5 -29 -10 -33 -37 -33 -29 0 -30 1 -24 33 4 17 10 56 13 85 5 41 9
52 22 50 10 -2 18 -20 24 -53z m-179 -66 c14 -17 26 -35 26 -40 0 -5 -31 -9
-70 -9 l-70 0 38 39 c20 22 40 40 44 40 3 1 18 -13 32 -30z m434 -16 l3 -43
-58 1 c-32 1 -70 4 -86 8 -26 6 -27 7 -12 28 16 23 95 53 130 50 16 -2 21 -11
23 -44z"/>
</g>
</svg>
