  0
SECTION
  2
HEADER
  9
$ACADVER
  1
AC1014
  9
$HANDSEED
  5
FFFF
  9
$INSUNITS
 70
     0
  9
$MEASUREMENT
 70
     1
  0
ENDSEC
  0
SECTION
  2
TABLES
  0
TABLE
  2
VPORT
  5
8
330
0
100
AcDbSymbolTable
 70
     4
  0
VPORT
  5
2E
330
8
100
AcDbSymbolTableRecord
100
AcDbViewportTableRecord
  2
*ACTIVE
 70
     0
 10
0.0
 20
0.0
 11
1.0
 21
1.0
 12
210.0
 22
148.5
 13
0.0
 23
0.0
 14
10.0
 24
10.0
 15
10.0
 25
10.0
 16
0.0
 26
0.0
 36
1.0
 17
0.0
 27
0.0
 37
0.0
 40
341.0
 41
1.24
 42
50.0
 43
0.0
 44
0.0
 50
0.0
 51
0.0
 71
     0
 72
   100
 73
     1
 74
     3
 75
     0
 76
     0
 77
     0
 78
     0
  0
ENDTAB
  0
TABLE
  2
LTYPE
  5
5
330
0
100
AcDbSymbolTable
 70
     1
  0
LTYPE
  5
14
330
5
100
AcDbSymbolTableRecord
100
AcDbLinetypeTableRecord
  2
BYBLOCK
 70
     0
  3

 72
    65
 73
     0
 40
0.0
  0
LTYPE
  5
15
330
5
100
AcDbSymbolTableRecord
100
AcDbLinetypeTableRecord
  2
BYLAYER
 70
     0
  3

 72
    65
 73
     0
 40
0.0
  0
LTYPE
  5
16
330
5
100
AcDbSymbolTableRecord
100
AcDbLinetypeTableRecord
  2
CONTINUOUS
 70
     0
  3
Solid line
 72
    65
 73
     0
 40
0.0
  0
ENDTAB
  0
TABLE
  2
LAYER
  5
2
100
AcDbSymbolTable
 70
1
  0
LAYER
  5
50
100
AcDbSymbolTableRecord
100
AcDbLayerTableRecord
  2
0
 70
0
  6
CONTINUOUS
  0
ENDTAB
  0
TABLE
  2
STYLE
  5
3
330
0
100
AcDbSymbolTable
 70
     1
  0
STYLE
  5
11
330
3
100
AcDbSymbolTableRecord
100
AcDbTextStyleTableRecord
  2
STANDARD
 70
     0
 40
0.0
 41
1.0
 50
0.0
 71
     0
 42
2.5
  3
txt
  4

  0
ENDTAB
  0
TABLE
  2
VIEW
  5
6
330
0
100
AcDbSymbolTable
 70
     0
  0
ENDTAB
  0
TABLE
  2
UCS
  5
7
330
0
100
AcDbSymbolTable
 70
     0
  0
ENDTAB
  0
TABLE
  2
APPID
  5
9
330
0
100
AcDbSymbolTable
 70
     2
  0
APPID
  5
12
330
9
100
AcDbSymbolTableRecord
100
AcDbRegAppTableRecord
  2
ACAD
 70
     0
  0
ENDTAB
  0
TABLE
  2
DIMSTYLE
  5
A
330
0
100
AcDbSymbolTable
 70
     1
  0
DIMSTYLE
105
27
330
A
100
AcDbSymbolTableRecord
100
AcDbDimStyleTableRecord
  2
ISO-25
 70
     0
  3

  4

  5

  6

  7

 40
1.0
 41
2.5
 42
0.625
 43
3.75
 44
1.25
 45
0.0
 46
0.0
 47
0.0
 48
0.0
140
2.5
141
2.5
142
0.0
143
0.03937007874016
144
1.0
145
0.0
146
1.0
147
0.625
 71
     0
 72
     0
 73
     0
 74
     0
 75
     0
 76
     0
 77
     1
 78
     8
170
     0
171
     3
172
     1
173
     0
174
     0
175
     0
176
     0
177
     0
178
     0
270
     2
271
     2
272
     2
273
     2
274
     3
340
11
275
     0
280
     0
281
     0
282
     0
283
     0
284
     8
285
     0
286
     0
287
     3
288
     0
  0
ENDTAB
  0
TABLE
  2
BLOCK_RECORD
  5
1
330
0
100
AcDbSymbolTable
 70
     1
  0
BLOCK_RECORD
  5
1F
330
1
100
AcDbSymbolTableRecord
100
AcDbBlockTableRecord
  2
*MODEL_SPACE
  0
BLOCK_RECORD
  5
1B
330
1
100
AcDbSymbolTableRecord
100
AcDbBlockTableRecord
  2
*PAPER_SPACE
  0
ENDTAB
  0
ENDSEC
  0
SECTION
  2
BLOCKS
  0
BLOCK
  5
20
330
1F
100
AcDbEntity
  8
0
100
AcDbBlockBegin
  2
*MODEL_SPACE
 70
     0
 10
0.0
 20
0.0
 30
0.0
  3
*MODEL_SPACE
  1

  0
ENDBLK
  5
21
330
1F
100
AcDbEntity
  8
0
100
AcDbBlockEnd
  0
BLOCK
  5
1C
330
1B
100
AcDbEntity
 67
     1
  8
0
100
AcDbBlockBegin
  2
*PAPER_SPACE
  1

  0
ENDBLK
  5
1D
330
1B
100
AcDbEntity
 67
     1
  8
0
100
AcDbBlockEnd
  0
ENDSEC
  0
SECTION
  2
ENTITIES
  0
LWPOLYLINE
  5
100
100
AcDbEntity
  8
0
 62
7
100
AcDbPolyline
 90
1268
 70
1
 10
909.500000
 20
1804.100000
 30
0.0
 10
886.500000
 20
1803.500000
 30
0.0
 10
884.700000
 20
1798.000000
 30
0.0
 10
883.770313
 20
1794.576562
 30
0.0
 10
882.587500
 20
1789.287500
 30
0.0
 10
881.310938
 20
1782.854688
 30
0.0
 10
880.100000
 20
1776.000000
 30
0.0
 10
871.509375
 20
1728.860938
 30
0.0
 10
861.250000
 20
1675.187500
 30
0.0
 10
852.340625
 20
1630.495313
 30
0.0
 10
849.335547
 20
1616.365820
 30
0.0
 10
848.360498
 20
1612.203735
 30
0.0
 10
847.800000
 20
1610.300000
 30
0.0
 10
846.814062
 20
1608.475000
 30
0.0
 10
845.612500
 20
1606.725000
 30
0.0
 10
844.354688
 20
1605.237500
 30
0.0
 10
843.200000
 20
1604.200000
 30
0.0
 10
841.026562
 20
1602.826563
 30
0.0
 10
835.637500
 20
1600.412500
 30
0.0
 10
795.000000
 20
1583.800000
 30
0.0
 10
765.150000
 20
1571.612500
 30
0.0
 10
741.900000
 20
1561.900000
 30
0.0
 10
728.621875
 20
1556.460938
 30
0.0
 10
723.812109
 20
1554.673633
 30
0.0
 10
719.900000
 20
1553.412500
 30
0.0
 10
716.644141
 20
1552.606055
 30
0.0
 10
713.803125
 20
1552.182813
 30
0.0
 10
711.135547
 20
1552.071289
 30
0.0
 10
708.400000
 20
1552.200000
 30
0.0
 10
705.440625
 20
1552.621875
 30
0.0
 10
702.875000
 20
1553.400000
 30
0.0
 10
700.271875
 20
1554.703125
 30
0.0
 10
697.200000
 20
1556.700000
 30
0.0
 10
662.882812
 20
1580.431250
 30
0.0
 10
614.062500
 20
1613.875000
 30
0.0
 10
570.060938
 20
1643.831250
 30
0.0
 10
555.905273
 20
1653.376563
 30
0.0
 10
550.200000
 20
1657.100000
 30
0.0
 10
548.716602
 20
1657.546094
 30
0.0
 10
546.957813
 20
1657.837500
 30
0.0
 10
545.023242
 20
1657.978906
 30
0.0
 10
543.012500
 20
1657.975000
 30
0.0
 10
541.025195
 20
1657.830469
 30
0.0
 10
539.160938
 20
1657.550000
 30
0.0
 10
537.519336
 20
1657.138281
 30
0.0
 10
536.200000
 20
1656.600000
 30
0.0
 10
534.020435
 20
1654.776074
 30
0.0
 10
529.436914
 20
1650.474219
 30
0.0
 10
514.439063
 20
1635.831250
 30
0.0
 10
493.968555
 20
1615.460156
 30
0.0
 10
470.787500
 20
1592.150000
 30
0.0
 10
447.658008
 20
1568.689844
 30
0.0
 10
427.342188
 20
1547.868750
 30
0.0
 10
412.602148
 20
1532.475781
 30
0.0
 10
408.186206
 20
1527.686426
 30
0.0
 10
406.200000
 20
1525.300000
 30
0.0
 10
403.100000
 20
1520.200000
 30
0.0
 10
410.400000
 20
1508.800000
 30
0.0
 10
419.018750
 20
1495.495313
 30
0.0
 10
428.875000
 20
1480.737500
 30
0.0
 10
441.393750
 20
1462.435938
 30
0.0
 10
458.000000
 20
1438.500000
 30
0.0
 10
474.065625
 20
1415.304688
 30
0.0
 10
487.375000
 20
1395.812500
 30
0.0
 10
498.246875
 20
1379.564063
 30
0.0
 10
507.000000
 20
1366.100000
 30
0.0
 10
512.300000
 20
1357.800000
 30
0.0
 10
510.500000
 20
1352.600000
 30
0.0
 10
506.209375
 20
1341.320313
 30
0.0
 10
499.425000
 20
1324.612500
 30
0.0
 10
491.178125
 20
1304.998437
 30
0.0
 10
482.500000
 20
1285.000000
 30
0.0
 10
472.225000
 20
1261.312500
 30
0.0
 10
463.900000
 20
1241.600000
 30
0.0
 10
458.764063
 20
1229.751563
 30
0.0
 10
456.698242
 20
1225.510742
 30
0.0
 10
454.837500
 20
1222.187500
 30
0.0
 10
453.084570
 20
1219.628320
 30
0.0
 10
451.342188
 20
1217.679688
 30
0.0
 10
449.513086
 20
1216.188086
 30
0.0
 10
447.500000
 20
1215.000000
 30
0.0
 10
444.029492
 20
1213.947070
 30
0.0
 10
436.667188
 20
1212.239063
 30
0.0
 10
411.012500
 20
1207.012500
 30
0.0
 10
372.026563
 20
1199.629688
 30
0.0
 10
321.200000
 20
1190.400000
 30
0.0
 10
308.303125
 20
1188.053125
 30
0.0
 10
295.500000
 20
1185.575000
 30
0.0
 10
276.100000
 20
1181.500000
 30
0.0
 10
261.300000
 20
1177.900000
 30
0.0
 10
260.600000
 20
1168.800000
 30
0.0
 10
260.379688
 20
1158.221875
 30
0.0
 10
260.187500
 20
1136.150000
 30
0.0
 10
260.000000
 20
1070.500000
 30
0.0
 10
260.000000
 20
981.300000
 30
0.0
 10
265.800000
 20
978.700000
 30
0.0
 10
268.042383
 20
977.769531
 30
0.0
 10
270.426562
 20
976.937500
 30
0.0
 10
273.413086
 20
976.105469
 30
0.0
 10
277.462500
 20
975.175000
 30
0.0
 10
290.592187
 20
972.625000
 30
0.0
 10
313.500000
 20
968.500000
 30
0.0
 10
371.596875
 20
958.040625
 30
0.0
 10
411.375000
 20
950.525000
 30
0.0
 10
425.044922
 20
947.736328
 30
0.0
 10
434.915625
 20
945.521875
 30
0.0
 10
441.247266
 20
943.827734
 30
0.0
 10
443.167236
 20
943.158936
 30
0.0
 10
444.300000
 20
942.600000
 30
0.0
 10
446.266602
 20
941.222461
 30
0.0
 10
447.939062
 20
939.679688
 30
0.0
 10
449.613867
 20
937.356445
 30
0.0
 10
451.587500
 20
933.637500
 30
0.0
 10
454.156445
 20
927.907617
 30
0.0
 10
457.617188
 20
919.551563
 30
0.0
 10
468.400000
 20
892.500000
 30
0.0
 10
492.100000
 20
833.500000
 30
0.0
 10
496.548242
 20
822.367383
 30
0.0
 10
499.973438
 20
813.420313
 30
0.0
 10
502.458789
 20
806.322461
 30
0.0
 10
504.087500
 20
800.737500
 30
0.0
 10
504.942773
 20
796.329102
 30
0.0
 10
505.106372
 20
794.461011
 30
0.0
 10
505.107813
 20
792.760938
 30
0.0
 10
504.957495
 20
791.186841
 30
0.0
 10
504.665820
 20
789.696680
 30
0.0
 10
503.700000
 20
786.800000
 30
0.0
 10
499.931250
 20
780.776562
 30
0.0
 10
490.875000
 20
767.187500
 30
0.0
 10
462.300000
 20
725.300000
 30
0.0
 10
433.060938
 20
682.762500
 30
0.0
 10
416.562500
 20
658.525000
 30
0.0
 10
408.707813
 20
646.550000
 30
0.0
 10
406.741602
 20
643.274219
 30
0.0
 10
405.400000
 20
640.800000
 30
0.0
 10
402.900000
 20
635.800000
 30
0.0
 10
406.900000
 20
630.700000
 30
0.0
 10
413.450000
 20
623.682812
 30
0.0
 10
428.325000
 20
608.462500
 30
0.0
 10
474.200000
 20
562.300000
 30
0.0
 10
507.506250
 20
529.170313
 30
0.0
 10
527.200000
 20
509.962500
 30
0.0
 10
533.149219
 20
504.422070
 30
0.0
 10
537.143750
 20
500.973438
 30
0.0
 10
539.666406
 20
499.153711
 30
0.0
 10
540.526660
 20
498.710034
 30
0.0
 10
541.200000
 20
498.500000
 30
0.0
 10
543.334961
 20
498.126562
 30
0.0
 10
544.369556
 20
498.099219
 30
0.0
 10
545.529688
 20
498.268750
 30
0.0
 10
546.925952
 20
498.703125
 30
0.0
 10
548.668945
 20
499.470312
 30
0.0
 10
553.637500
 20
502.275000
 30
0.0
 10
561.320117
 20
507.226563
 30
0.0
 10
572.601562
 20
514.868750
 30
0.0
 10
609.500000
 20
540.400000
 30
0.0
 10
644.050000
 20
564.075000
 30
0.0
 10
672.300000
 20
583.100000
 30
0.0
 10
687.500000
 20
593.184375
 30
0.0
 10
692.205469
 20
595.949609
 30
0.0
 10
694.078613
 20
596.829639
 30
0.0
 10
695.725000
 20
597.400000
 30
0.0
 10
697.214355
 20
597.679736
 30
0.0
 10
698.616406
 20
597.687891
 30
0.0
 10
700.000879
 20
597.443506
 30
0.0
 10
701.437500
 20
596.965625
 30
0.0
 10
704.746094
 20
595.385547
 30
0.0
 10
709.100000
 20
593.100000
 30
0.0
 10
722.496875
 20
586.145313
 30
0.0
 10
738.200000
 20
577.662500
 30
0.0
 10
754.803125
 20
568.448437
 30
0.0
 10
770.900000
 20
559.300000
 30
0.0
 10
786.062500
 20
550.625000
 30
0.0
 10
790.770313
 20
548.050000
 30
0.0
 10
792.600000
 20
547.200000
 30
0.0
 10
801.600000
 20
583.850000
 30
0.0
 10
822.900000
 20
671.500000
 30
0.0
 10
839.009375
 20
738.326563
 30
0.0
 10
847.825000
 20
775.837500
 30
0.0
 10
850.101172
 20
786.239258
 30
0.0
 10
851.278125
 20
792.479688
 30
0.0
 10
851.597266
 20
795.614648
 30
0.0
 10
851.510596
 20
796.347534
 30
0.0
 10
851.300000
 20
796.700000
 30
0.0
 10
849.775000
 20
797.612500
 30
0.0
 10
848.400000
 20
798.000000
 30
0.0
 10
846.932422
 20
796.521289
 30
0.0
 10
843.221875
 20
792.282812
 30
0.0
 10
830.075000
 20
776.712500
 30
0.0
 10
810.965625
 20
753.660938
 30
0.0
 10
787.900000
 20
725.500000
 30
0.0
 10
760.306250
 20
691.871875
 30
0.0
 10
741.750000
 20
669.625000
 30
0.0
 10
735.521094
 20
662.365234
 30
0.0
 10
731.143750
 20
657.465625
 30
0.0
 10
728.482031
 20
654.764453
 30
0.0
 10
727.752051
 20
654.187744
 30
0.0
 10
727.400000
 20
654.100000
 30
0.0
 10
727.354150
 20
654.480103
 30
0.0
 10
727.562891
 20
655.378320
 30
0.0
 10
728.796875
 20
658.851562
 30
0.0
 10
734.900000
 20
673.362500
 30
0.0
 10
746.553125
 20
699.592188
 30
0.0
 10
764.600000
 20
739.500000
 30
0.0
 10
791.712500
 20
799.362500
 30
0.0
 10
799.967188
 20
817.785938
 30
0.0
 10
803.000000
 20
824.800000
 30
0.0
 10
802.807812
 20
825.289062
 30
0.0
 10
802.287500
 20
825.937500
 30
0.0
 10
800.600000
 20
827.300000
 30
0.0
 10
800.165771
 20
827.557104
 30
0.0
 10
799.657422
 20
827.674023
 30
0.0
 10
798.972705
 20
827.569165
 30
0.0
 10
798.009375
 20
827.160938
 30
0.0
 10
794.837891
 20
825.108008
 30
0.0
 10
789.325000
 20
820.862500
 30
0.0
 10
780.652734
 20
813.771680
 30
0.0
 10
768.003125
 20
803.182812
 30
0.0
 10
727.500000
 20
768.900000
 30
0.0
 10
692.384375
 20
739.195312
 30
0.0
 10
670.525000
 20
721.012500
 30
0.0
 10
663.693359
 20
715.529883
 30
0.0
 10
659.128125
 20
712.073437
 30
0.0
 10
656.480078
 20
710.358398
 30
0.0
 10
655.765869
 20
710.064917
 30
0.0
 10
655.400000
 20
710.100000
 30
0.0
 10
654.841406
 20
710.472266
 30
0.0
 10
654.550000
 20
710.903125
 30
0.0
 10
654.802344
 20
711.826172
 30
0.0
 10
655.875000
 20
713.675000
 30
0.0
 10
661.587500
 20
721.884375
 30
0.0
 10
673.900000
 20
739.000000
 30
0.0
 10
683.639063
 20
752.714063
 30
0.0
 10
692.787500
 20
766.062500
 30
0.0
 10
702.517187
 20
780.779688
 30
0.0
 10
714.000000
 20
798.600000
 30
0.0
 10
718.147266
 20
804.660156
 30
0.0
 10
722.615625
 20
810.368750
 30
0.0
 10
727.369922
 20
815.692969
 30
0.0
 10
732.375000
 20
820.600000
 30
0.0
 10
737.595703
 20
825.057031
 30
0.0
 10
742.996875
 20
829.031250
 30
0.0
 10
748.543359
 20
832.489844
 30
0.0
 10
754.200000
 20
835.400000
 30
0.0
 10
758.457227
 20
837.246094
 30
0.0
 10
762.682812
 20
838.825000
 30
0.0
 10
766.995117
 20
840.160156
 30
0.0
 10
771.512500
 20
841.275000
 30
0.0
 10
776.353320
 20
842.192969
 30
0.0
 10
781.635937
 20
842.937500
 30
0.0
 10
787.478711
 20
843.532031
 30
0.0
 10
794.000000
 20
844.000000
 30
0.0
 10
803.479883
 20
844.708203
 30
0.0
 10
811.901562
 20
845.634375
 30
0.0
 10
819.725586
 20
846.893359
 30
0.0
 10
827.412500
 20
848.600000
 30
0.0
 10
835.422852
 20
850.869141
 30
0.0
 10
844.217188
 20
853.815625
 30
0.0
 10
854.256055
 20
857.554297
 30
0.0
 10
866.000000
 20
862.200000
 30
0.0
 10
885.029688
 20
869.700000
 30
0.0
 10
899.062500
 20
874.950000
 30
0.0
 10
909.439062
 20
878.400000
 30
0.0
 10
913.675195
 20
879.590625
 30
0.0
 10
917.500000
 20
880.500000
 30
0.0
 10
922.298438
 20
881.423437
 30
0.0
 10
926.862500
 20
881.812500
 30
0.0
 10
932.870312
 20
881.695312
 30
0.0
 10
942.000000
 20
881.100000
 30
0.0
 10
951.278906
 20
880.582031
 30
0.0
 10
960.056250
 20
880.537500
 30
0.0
 10
968.430469
 20
880.980469
 30
0.0
 10
976.500000
 20
881.925000
 30
0.0
 10
984.363281
 20
883.385156
 30
0.0
 10
992.118750
 20
885.375000
 30
0.0
 10
999.864844
 20
887.908594
 30
0.0
 10
1007.700000
 20
891.000000
 30
0.0
 10
1014.457813
 20
893.982812
 30
0.0
 10
1020.362500
 20
896.937500
 30
0.0
 10
1027.935938
 20
901.223438
 30
0.0
 10
1039.700000
 20
908.200000
 30
0.0
 10
1056.000000
 20
914.500000
 30
0.0
 10
1058.100000
 20
913.337500
 30
0.0
 10
1059.000000
 20
912.700000
 30
0.0
 10
1053.600000
 20
894.700000
 30
0.0
 10
1050.976562
 20
886.293750
 30
0.0
 10
1048.737500
 20
879.950000
 30
0.0
 10
1046.779687
 20
875.406250
 30
0.0
 10
1045.874023
 20
873.727344
 30
0.0
 10
1045.000000
 20
872.400000
 30
0.0
 10
1043.634375
 20
870.125000
 30
0.0
 10
1042.325000
 20
867.400000
 30
0.0
 10
1041.203125
 20
864.525000
 30
0.0
 10
1040.400000
 20
861.800000
 30
0.0
 10
1039.593555
 20
858.742871
 30
0.0
 10
1038.664062
 20
855.900781
 30
0.0
 10
1037.596289
 20
853.261426
 30
0.0
 10
1036.375000
 20
850.812500
 30
0.0
 10
1034.984961
 20
848.541699
 30
0.0
 10
1033.410938
 20
846.436719
 30
0.0
 10
1031.637695
 20
844.485254
 30
0.0
 10
1029.650000
 20
842.675000
 30
0.0
 10
1027.432617
 20
840.993652
 30
0.0
 10
1024.970313
 20
839.428906
 30
0.0
 10
1022.247852
 20
837.968457
 30
0.0
 10
1019.250000
 20
836.600000
 30
0.0
 10
1015.961523
 20
835.311230
 30
0.0
 10
1012.367188
 20
834.089844
 30
0.0
 10
1004.200000
 20
831.800000
 30
0.0
 10
1001.463379
 20
831.050903
 30
0.0
 10
998.985156
 20
830.218164
 30
0.0
 10
996.756543
 20
829.286108
 30
0.0
 10
994.768750
 20
828.239063
 30
0.0
 10
993.012988
 20
827.061353
 30
0.0
 10
991.480469
 20
825.737305
 30
0.0
 10
990.162402
 20
824.251245
 30
0.0
 10
989.050000
 20
822.587500
 30
0.0
 10
988.134473
 20
820.730396
 30
0.0
 10
987.407031
 20
818.664258
 30
0.0
 10
986.858887
 20
816.373413
 30
0.0
 10
986.481250
 20
813.842188
 30
0.0
 10
986.265332
 20
811.054907
 30
0.0
 10
986.202344
 20
807.995898
 30
0.0
 10
986.500000
 20
801.000000
 30
0.0
 10
987.033398
 20
795.640625
 30
0.0
 10
987.879688
 20
791.425000
 30
0.0
 10
988.453491
 20
789.716797
 30
0.0
 10
989.145508
 20
788.259375
 30
0.0
 10
989.969067
 20
787.041016
 30
0.0
 10
990.937500
 20
786.050000
 30
0.0
 10
992.064136
 20
785.274609
 30
0.0
 10
993.362305
 20
784.703125
 30
0.0
 10
994.845337
 20
784.323828
 30
0.0
 10
996.526562
 20
784.125000
 30
0.0
 10
998.419312
 20
784.094922
 30
0.0
 10
1000.536914
 20
784.221875
 30
0.0
 10
1005.500000
 20
784.900000
 30
0.0
 10
1008.667187
 20
785.532031
 30
0.0
 10
1011.675000
 20
786.318750
 30
0.0
 10
1014.570313
 20
787.283594
 30
0.0
 10
1017.400000
 20
788.450000
 30
0.0
 10
1020.210938
 20
789.841406
 30
0.0
 10
1023.050000
 20
791.481250
 30
0.0
 10
1025.964062
 20
793.392969
 30
0.0
 10
1029.000000
 20
795.600000
 30
0.0
 10
1033.172656
 20
799.110156
 30
0.0
 10
1039.281250
 20
804.668750
 30
0.0
 10
1054.400000
 20
819.100000
 30
0.0
 10
1068.543750
 20
833.231250
 30
0.0
 10
1073.433594
 20
838.414844
 30
0.0
 10
1075.900000
 20
841.400000
 30
0.0
 10
1077.675000
 20
846.007812
 30
0.0
 10
1081.025000
 20
856.137500
 30
0.0
 10
1085.462500
 20
870.298438
 30
0.0
 10
1090.500000
 20
887.000000
 30
0.0
 10
1096.771875
 20
908.551563
 30
0.0
 10
1100.625000
 20
922.537500
 30
0.0
 10
1101.802734
 20
927.340820
 30
0.0
 10
1102.565625
 20
931.029688
 30
0.0
 10
1102.976953
 20
933.863086
 30
0.0
 10
1103.100000
 20
936.100000
 30
0.0
 10
1102.926758
 20
940.661133
 30
0.0
 10
1102.257812
 20
944.895313
 30
0.0
 10
1101.094336
 20
948.803711
 30
0.0
 10
1099.437500
 20
952.387500
 30
0.0
 10
1097.288477
 20
955.647852
 30
0.0
 10
1094.648438
 20
958.585938
 30
0.0
 10
1091.518555
 20
961.202930
 30
0.0
 10
1087.900000
 20
963.500000
 30
0.0
 10
1084.684375
 20
965.150000
 30
0.0
 10
1083.255859
 20
965.679688
 30
0.0
 10
1081.750000
 20
966.050000
 30
0.0
 10
1077.915625
 20
966.425000
 30
0.0
 10
1072.000000
 20
966.500000
 30
0.0
 10
1066.929688
 20
966.395313
 30
0.0
 10
1060.912500
 20
966.112500
 30
0.0
 10
1049.000000
 20
965.200000
 30
0.0
 10
1042.544531
 20
964.699414
 30
0.0
 10
1036.581250
 20
964.551563
 30
0.0
 10
1031.077344
 20
964.762305
 30
0.0
 10
1026.000000
 20
965.337500
 30
0.0
 10
1021.316406
 20
966.283008
 30
0.0
 10
1016.993750
 20
967.604688
 30
0.0
 10
1012.999219
 20
969.308398
 30
0.0
 10
1009.300000
 20
971.400000
 30
0.0
 10
1008.018750
 20
972.342187
 30
0.0
 10
1007.075000
 20
973.312500
 30
0.0
 10
1006.543750
 20
974.226562
 30
0.0
 10
1006.500000
 20
975.000000
 30
0.0
 10
1013.000000
 20
1013.000000
 30
0.0
 10
1017.310938
 20
1038.206250
 30
0.0
 10
1018.999414
 20
1047.228125
 30
0.0
 10
1020.487500
 20
1054.375000
 30
0.0
 10
1021.858398
 20
1060.031250
 30
0.0
 10
1023.195312
 20
1064.581250
 30
0.0
 10
1024.581445
 20
1068.409375
 30
0.0
 10
1026.100000
 20
1071.900000
 30
0.0
 10
1027.740234
 20
1075.200806
 30
0.0
 10
1029.584375
 20
1078.464258
 30
0.0
 10
1031.630078
 20
1081.688159
 30
0.0
 10
1033.875000
 20
1084.870312
 30
0.0
 10
1036.316797
 20
1088.008521
 30
0.0
 10
1038.953125
 20
1091.100586
 30
0.0
 10
1041.781641
 20
1094.144312
 30
0.0
 10
1044.800000
 20
1097.137500
 30
0.0
 10
1048.005859
 20
1100.077954
 30
0.0
 10
1051.396875
 20
1102.963477
 30
0.0
 10
1054.970703
 20
1105.791870
 30
0.0
 10
1058.725000
 20
1108.560938
 30
0.0
 10
1062.657422
 20
1111.268481
 30
0.0
 10
1066.765625
 20
1113.912305
 30
0.0
 10
1075.500000
 20
1119.000000
 30
0.0
 10
1081.600000
 20
1122.300000
 30
0.0
 10
1102.000000
 20
1105.700000
 30
0.0
 10
1115.497852
 20
1094.658984
 30
0.0
 10
1126.451562
 20
1085.359375
 30
0.0
 10
1135.213867
 20
1077.423828
 30
0.0
 10
1138.883472
 20
1073.849658
 30
0.0
 10
1142.137500
 20
1070.475000
 30
0.0
 10
1145.020044
 20
1067.252686
 30
0.0
 10
1147.575195
 20
1064.135547
 30
0.0
 10
1149.847046
 20
1061.076416
 30
0.0
 10
1151.879688
 20
1058.028125
 30
0.0
 10
1153.717212
 20
1054.943506
 30
0.0
 10
1155.403711
 20
1051.775391
 30
0.0
 10
1158.500000
 20
1045.000000
 30
0.0
 10
1159.977148
 20
1041.727319
 30
0.0
 10
1161.556250
 20
1038.698242
 30
0.0
 10
1163.233789
 20
1035.914966
 30
0.0
 10
1165.006250
 20
1033.379688
 30
0.0
 10
1166.870117
 20
1031.094604
 30
0.0
 10
1168.821875
 20
1029.061914
 30
0.0
 10
1170.858008
 20
1027.283813
 30
0.0
 10
1172.975000
 20
1025.762500
 30
0.0
 10
1175.169336
 20
1024.500171
 30
0.0
 10
1177.437500
 20
1023.499023
 30
0.0
 10
1179.775977
 20
1022.761255
 30
0.0
 10
1182.181250
 20
1022.289062
 30
0.0
 10
1184.649805
 20
1022.084644
 30
0.0
 10
1187.178125
 20
1022.150195
 30
0.0
 10
1189.762695
 20
1022.487915
 30
0.0
 10
1192.400000
 20
1023.100000
 30
0.0
 10
1193.921265
 20
1023.637402
 30
0.0
 10
1195.476367
 20
1024.413281
 30
0.0
 10
1197.052271
 20
1025.410645
 30
0.0
 10
1198.635938
 20
1026.612500
 30
0.0
 10
1201.774414
 20
1029.561719
 30
0.0
 10
1204.787500
 20
1033.125000
 30
0.0
 10
1207.570898
 20
1037.166406
 30
0.0
 10
1210.020313
 20
1041.550000
 30
0.0
 10
1212.031445
 20
1046.139844
 30
0.0
 10
1213.500000
 20
1050.800000
 30
0.0
 10
1215.100000
 20
1057.000000
 30
0.0
 10
1211.100000
 20
1073.700000
 30
0.0
 10
1205.835938
 20
1096.412500
 30
0.0
 10
1199.212500
 20
1125.875000
 30
0.0
 10
1192.382812
 20
1156.950000
 30
0.0
 10
1186.500000
 20
1184.500000
 30
0.0
 10
1183.915625
 20
1197.178125
 30
0.0
 10
1182.250000
 20
1206.425000
 30
0.0
 10
1181.409375
 20
1212.709375
 30
0.0
 10
1181.269141
 20
1214.887109
 30
0.0
 10
1181.300000
 20
1216.500000
 30
0.0
 10
1181.793945
 20
1219.852539
 30
0.0
 10
1182.720313
 20
1223.614063
 30
0.0
 10
1184.033398
 20
1227.677930
 30
0.0
 10
1185.687500
 20
1231.937500
 30
0.0
 10
1187.636914
 20
1236.286133
 30
0.0
 10
1189.835938
 20
1240.617188
 30
0.0
 10
1192.238867
 20
1244.824023
 30
0.0
 10
1194.800000
 20
1248.800000
 30
0.0
 10
1199.175000
 20
1255.575000
 30
0.0
 10
1200.396875
 20
1257.715625
 30
0.0
 10
1200.700000
 20
1258.600000
 30
0.0
 10
1200.192358
 20
1258.705054
 30
0.0
 10
1199.057617
 20
1258.690430
 30
0.0
 10
1195.210938
 20
1258.348438
 30
0.0
 10
1183.337500
 20
1256.737500
 30
0.0
 10
1169.945312
 20
1254.507812
 30
0.0
 10
1164.200195
 20
1253.392383
 30
0.0
 10
1159.900000
 20
1252.400000
 30
0.0
 10
1155.578711
 20
1251.289258
 30
0.0
 10
1152.029687
 20
1250.639063
 30
0.0
 10
1148.975195
 20
1250.534961
 30
0.0
 10
1147.546606
 20
1250.714429
 30
0.0
 10
1146.137500
 20
1251.062500
 30
0.0
 10
1144.713159
 20
1251.589868
 30
0.0
 10
1143.238867
 20
1252.307227
 30
0.0
 10
1140.001563
 20
1254.354688
 30
0.0
 10
1136.147852
 20
1257.290430
 30
0.0
 10
1131.400000
 20
1261.200000
 30
0.0
 10
1126.841211
 20
1264.876758
 30
0.0
 10
1122.379688
 20
1268.264063
 30
0.0
 10
1118.000195
 20
1271.372461
 30
0.0
 10
1113.687500
 20
1274.212500
 30
0.0
 10
1109.426367
 20
1276.794727
 30
0.0
 10
1105.201562
 20
1279.129688
 30
0.0
 10
1100.997852
 20
1281.227930
 30
0.0
 10
1096.800000
 20
1283.100000
 30
0.0
 10
1093.586328
 20
1284.334570
 30
0.0
 10
1089.765625
 20
1285.607813
 30
0.0
 10
1081.025000
 20
1288.087500
 30
0.0
 10
1072.021875
 20
1290.173438
 30
0.0
 10
1067.873047
 20
1290.954492
 30
0.0
 10
1064.200000
 20
1291.500000
 30
0.0
 10
1058.800000
 20
1292.200000
 30
0.0
 10
1070.500000
 20
1276.500000
 30
0.0
 10
1078.487500
 20
1265.500000
 30
0.0
 10
1080.723438
 20
1262.212500
 30
0.0
 10
1081.241992
 20
1261.351562
 30
0.0
 10
1081.300000
 20
1261.100000
 30
0.0
 10
1073.000000
 20
1265.100000
 30
0.0
 10
1066.049023
 20
1268.292969
 30
0.0
 10
1059.279688
 20
1270.993750
 30
0.0
 10
1052.554883
 20
1273.235156
 30
0.0
 10
1045.737500
 20
1275.050000
 30
0.0
 10
1038.690430
 20
1276.471094
 30
0.0
 10
1031.276563
 20
1277.531250
 30
0.0
 10
1023.358789
 20
1278.263281
 30
0.0
 10
1014.800000
 20
1278.700000
 30
0.0
 10
1008.082031
 20
1278.843164
 30
0.0
 10
1001.706250
 20
1278.814063
 30
0.0
 10
995.527344
 20
1278.599805
 30
0.0
 10
989.400000
 20
1278.187500
 30
0.0
 10
983.178906
 20
1277.564258
 30
0.0
 10
976.718750
 20
1276.717187
 30
0.0
 10
969.874219
 20
1275.633398
 30
0.0
 10
962.500000
 20
1274.300000
 30
0.0
 10
947.878125
 20
1271.704688
 30
0.0
 10
935.900000
 20
1270.037500
 30
0.0
 10
930.169922
 20
1269.466992
 30
0.0
 10
924.221875
 20
1269.026563
 30
0.0
 10
910.500000
 20
1268.400000
 30
0.0
 10
895.650000
 20
1267.700000
 30
0.0
 10
890.559375
 20
1267.331250
 30
0.0
 10
888.000000
 20
1267.000000
 30
0.0
 10
886.732812
 20
1266.550000
 30
0.0
 10
886.549805
 20
1266.261719
 30
0.0
 10
886.712500
 20
1265.875000
 30
0.0
 10
888.210938
 20
1264.637500
 30
0.0
 10
891.500000
 20
1262.500000
 30
0.0
 10
896.272461
 20
1259.657813
 30
0.0
 10
901.198438
 20
1257.312500
 30
0.0
 10
906.590820
 20
1255.398438
 30
0.0
 10
912.762500
 20
1253.850000
 30
0.0
 10
920.026367
 20
1252.601562
 30
0.0
 10
928.695312
 20
1251.587500
 30
0.0
 10
939.082227
 20
1250.742188
 30
0.0
 10
951.500000
 20
1250.000000
 30
0.0
 10
963.960938
 20
1249.093750
 30
0.0
 10
974.312500
 20
1247.850000
 30
0.0
 10
978.331055
 20
1247.160156
 30
0.0
 10
981.382812
 20
1246.456250
 30
0.0
 10
983.321289
 20
1245.761719
 30
0.0
 10
983.827271
 20
1245.425293
 30
0.0
 10
984.000000
 20
1245.100000
 30
0.0
 10
977.284375
 20
1243.392188
 30
0.0
 10
959.000000
 20
1239.162500
 30
0.0
 10
931.940625
 20
1233.076562
 30
0.0
 10
898.900000
 20
1225.800000
 30
0.0
 10
838.612500
 20
1212.400000
 30
0.0
 10
820.135938
 20
1208.193750
 30
0.0
 10
813.200000
 20
1206.500000
 30
0.0
 10
813.051611
 20
1206.256592
 30
0.0
 10
813.048828
 20
1205.944922
 30
0.0
 10
813.434375
 20
1205.153125
 30
0.0
 10
814.265234
 20
1204.197266
 30
0.0
 10
815.450000
 20
1203.150000
 30
0.0
 10
818.515625
 20
1201.071875
 30
0.0
 10
820.213672
 20
1200.186328
 30
0.0
 10
821.900000
 20
1199.500000
 30
0.0
 10
824.664648
 20
1198.744141
 30
0.0
 10
828.754688
 20
1197.840625
 30
0.0
 10
840.437500
 20
1195.675000
 30
0.0
 10
856.001563
 20
1193.171875
 30
0.0
 10
874.500000
 20
1190.500000
 30
0.0
 10
888.450000
 20
1188.475000
 30
0.0
 10
893.062500
 20
1187.687500
 30
0.0
 10
895.200000
 20
1187.200000
 30
0.0
 10
895.204834
 20
1187.032495
 30
0.0
 10
894.807422
 20
1186.717773
 30
0.0
 10
892.809375
 20
1185.648438
 30
0.0
 10
884.025000
 20
1181.762500
 30
0.0
 10
868.903125
 20
1175.570312
 30
0.0
 10
847.500000
 20
1167.100000
 30
0.0
 10
798.100000
 20
1147.600000
 30
0.0
 10
798.700000
 20
1144.600000
 30
0.0
 10
799.175000
 20
1142.350000
 30
0.0
 10
799.500000
 20
1141.300000
 30
0.0
 10
805.187500
 20
1140.475000
 30
0.0
 10
818.600000
 20
1138.900000
 30
0.0
 10
830.170313
 20
1137.510937
 30
0.0
 10
833.940430
 20
1136.869727
 30
0.0
 10
836.612500
 20
1136.187500
 30
0.0
 10
838.370508
 20
1135.406836
 30
0.0
 10
839.398438
 20
1134.470313
 30
0.0
 10
839.880273
 20
1133.320508
 30
0.0
 10
840.000000
 20
1131.900000
 30
0.0
 10
839.381128
 20
1131.189233
 30
0.0
 10
837.566211
 20
1129.649805
 30
0.0
 10
830.598438
 20
1124.267188
 30
0.0
 10
805.062500
 20
1105.562500
 30
0.0
 10
767.395313
 20
1078.701563
 30
0.0
 10
721.600000
 20
1046.600000
 30
0.0
 10
710.309180
 20
1038.930859
 30
0.0
 10
705.292114
 20
1035.775830
 30
0.0
 10
700.554688
 20
1033.040625
 30
0.0
 10
695.992456
 20
1030.700342
 30
0.0
 10
691.500977
 20
1028.730078
 30
0.0
 10
686.975806
 20
1027.104932
 30
0.0
 10
682.312500
 20
1025.800000
 30
0.0
 10
677.406616
 20
1024.790381
 30
0.0
 10
672.153711
 20
1024.051172
 30
0.0
 10
666.449341
 20
1023.557471
 30
0.0
 10
660.189062
 20
1023.284375
 30
0.0
 10
653.268433
 20
1023.206982
 30
0.0
 10
645.583008
 20
1023.300391
 30
0.0
 10
627.500000
 20
1023.900000
 30
0.0
 10
570.353125
 20
1026.315625
 30
0.0
 10
530.250000
 20
1028.225000
 30
0.0
 10
505.746875
 20
1029.721875
 30
0.0
 10
498.894141
 20
1030.344922
 30
0.0
 10
495.400000
 20
1030.900000
 30
0.0
 10
495.328320
 20
1030.956268
 30
0.0
 10
495.432422
 20
1031.050146
 30
0.0
 10
496.170313
 20
1031.351172
 30
0.0
 10
499.781250
 20
1032.409375
 30
0.0
 10
515.675000
 20
1036.375000
 30
0.0
 10
543.381250
 20
1042.853125
 30
0.0
 10
583.200000
 20
1051.900000
 30
0.0
 10
647.375000
 20
1066.437500
 30
0.0
 10
674.800000
 20
1072.800000
 30
0.0
 10
675.240625
 20
1073.207813
 30
0.0
 10
675.625000
 20
1074.037500
 30
0.0
 10
675.896875
 20
1075.148438
 30
0.0
 10
676.000000
 20
1076.400000
 30
0.0
 10
676.000000
 20
1079.600000
 30
0.0
 10
657.300000
 20
1083.900000
 30
0.0
 10
584.800000
 20
1100.987500
 30
0.0
 10
507.500000
 20
1119.500000
 30
0.0
 10
500.251563
 20
1121.317188
 30
0.0
 10
496.912500
 20
1122.337500
 30
0.0
 10
496.477539
 20
1122.651367
 30
0.0
 10
496.742188
 20
1122.889062
 30
0.0
 10
499.000000
 20
1123.300000
 30
0.0
 10
528.175000
 20
1124.625000
 30
0.0
 10
592.000000
 20
1127.000000
 30
0.0
 10
680.700000
 20
1130.400000
 30
0.0
 10
681.112500
 20
1131.500000
 30
0.0
 10
681.600000
 20
1133.800000
 30
0.0
 10
681.864063
 20
1135.509375
 30
0.0
 10
681.687500
 20
1136.600000
 30
0.0
 10
681.401758
 20
1136.989453
 30
0.0
 10
680.967188
 20
1137.315625
 30
0.0
 10
679.600000
 20
1137.900000
 30
0.0
 10
667.162500
 20
1143.128320
 30
0.0
 10
645.781250
 20
1152.557813
 30
0.0
 10
589.425000
 20
1177.987500
 30
0.0
 10
537.006250
 20
1202.123437
 30
0.0
 10
520.546875
 20
1209.935742
 30
0.0
 10
516.202539
 20
1212.118140
 30
0.0
 10
515.182690
 20
1212.695920
 30
0.0
 10
515.000000
 20
1212.900000
 30
0.0
 10
605.500000
 20
1199.500000
 30
0.0
 10
654.781250
 20
1192.215625
 30
0.0
 10
681.975000
 20
1188.400000
 30
0.0
 10
689.375000
 20
1187.529297
 30
0.0
 10
693.756250
 20
1187.209375
 30
0.0
 10
695.953125
 20
1187.334766
 30
0.0
 10
696.493164
 20
1187.531494
 30
0.0
 10
696.800000
 20
1187.800000
 30
0.0
 10
697.265625
 20
1188.570312
 30
0.0
 10
697.600000
 20
1189.462500
 30
0.0
 10
697.784375
 20
1190.373437
 30
0.0
 10
697.800000
 20
1191.200000
 30
0.0
 10
697.067383
 20
1191.980859
 30
0.0
 10
695.107813
 20
1193.584375
 30
0.0
 10
688.037500
 20
1198.875000
 30
0.0
 10
677.648438
 20
1206.303125
 30
0.0
 10
665.000000
 20
1215.100000
 30
0.0
 10
625.400000
 20
1242.307813
 30
0.0
 10
589.175000
 20
1267.462500
 30
0.0
 10
561.612500
 20
1286.860938
 30
0.0
 10
552.732031
 20
1293.244336
 30
0.0
 10
548.000000
 20
1296.800000
 30
0.0
 10
547.962292
 20
1296.876334
 30
0.0
 10
548.128418
 20
1296.880981
 30
0.0
 10
549.060156
 20
1296.679102
 30
0.0
 10
553.237500
 20
1295.457813
 30
0.0
 10
570.175000
 20
1289.962500
 30
0.0
 10
597.275000
 20
1280.810938
 30
0.0
 10
633.000000
 20
1268.500000
 30
0.0
 10
695.037500
 20
1247.062500
 30
0.0
 10
714.098438
 20
1240.614062
 30
0.0
 10
721.300000
 20
1238.300000
 30
0.0
 10
720.248633
 20
1239.616211
 30
0.0
 10
716.882812
 20
1243.317188
 30
0.0
 10
704.187500
 20
1256.837500
 30
0.0
 10
661.800000
 20
1301.100000
 30
0.0
 10
599.000000
 20
1366.400000
 30
0.0
 10
596.600000
 20
1369.100000
 30
0.0
 10
603.500000
 20
1365.800000
 30
0.0
 10
615.063281
 20
1360.078320
 30
0.0
 10
632.012500
 20
1351.339063
 30
0.0
 10
675.075000
 20
1328.562500
 30
0.0
 10
718.700000
 20
1304.979688
 30
0.0
 10
736.352344
 20
1295.232617
 30
0.0
 10
748.900000
 20
1288.100000
 30
0.0
 10
754.300000
 20
1284.900000
 30
0.0
 10
756.600000
 20
1287.100000
 30
0.0
 10
758.287500
 20
1288.900000
 30
0.0
 10
758.807812
 20
1289.631250
 30
0.0
 10
759.000000
 20
1290.100000
 30
0.0
 10
755.039062
 20
1296.057813
 30
0.0
 10
744.262500
 20
1311.737500
 30
0.0
 10
708.900000
 20
1362.700000
 30
0.0
 10
656.600000
 20
1437.500000
 30
0.0
 10
654.600000
 20
1440.500000
 30
0.0
 10
658.500000
 20
1437.500000
 30
0.0
 10
665.455469
 20
1432.126367
 30
0.0
 10
676.662500
 20
1423.217188
 30
0.0
 10
707.875000
 20
1398.012500
 30
0.0
 10
744.225000
 20
1368.326562
 30
0.0
 10
777.800000
 20
1340.600000
 30
0.0
 10
791.625000
 20
1329.150000
 30
0.0
 10
797.800000
 20
1324.300000
 30
0.0
 10
798.270313
 20
1324.325000
 30
0.0
 10
799.012500
 20
1324.650000
 30
0.0
 10
800.900000
 20
1325.900000
 30
0.0
 10
803.300000
 20
1327.700000
 30
0.0
 10
766.500000
 20
1408.600000
 30
0.0
 10
728.300000
 20
1493.000000
 30
0.0
 10
726.900000
 20
1496.500000
 30
0.0
 10
729.600000
 20
1493.500000
 30
0.0
 10
736.415625
 20
1485.754297
 30
0.0
 10
747.487500
 20
1472.859375
 30
0.0
 10
777.900000
 20
1436.975000
 30
0.0
 10
811.837500
 20
1396.553125
 30
0.0
 10
840.300000
 20
1362.300000
 30
0.0
 10
844.100000
 20
1357.745313
 30
0.0
 10
846.400000
 20
1355.412500
 30
0.0
 10
847.221875
 20
1354.906445
 30
0.0
 10
847.950000
 20
1354.748438
 30
0.0
 10
848.678125
 20
1354.869336
 30
0.0
 10
849.500000
 20
1355.200000
 30
0.0
 10
850.481250
 20
1355.746875
 30
0.0
 10
851.275000
 20
1356.425000
 30
0.0
 10
851.806250
 20
1357.140625
 30
0.0
 10
852.000000
 20
1357.800000
 30
0.0
 10
845.400000
 20
1385.700000
 30
0.0
 10
829.500000
 20
1450.800000
 30
0.0
 10
813.675000
 20
1515.487500
 30
0.0
 10
808.940625
 20
1535.245313
 30
0.0
 10
807.300000
 20
1542.600000
 30
0.0
 10
809.267188
 20
1539.368750
 30
0.0
 10
814.525000
 20
1530.193750
 30
0.0
 10
832.400000
 20
1498.475000
 30
0.0
 10
855.900000
 20
1456.368750
 30
0.0
 10
880.000000
 20
1412.800000
 30
0.0
 10
889.089063
 20
1396.503125
 30
0.0
 10
895.712500
 20
1385.025000
 30
0.0
 10
899.954688
 20
1378.234375
 30
0.0
 10
901.209180
 20
1376.555859
 30
0.0
 10
901.900000
 20
1376.000000
 30
0.0
 10
903.474414
 20
1376.035156
 30
0.0
 10
904.091772
 20
1376.280371
 30
0.0
 10
904.595313
 20
1376.881250
 30
0.0
 10
904.984595
 20
1377.990723
 30
0.0
 10
905.259180
 20
1379.761719
 30
0.0
 10
905.462500
 20
1385.900000
 30
0.0
 10
905.201758
 20
1396.519531
 30
0.0
 10
904.473438
 20
1412.843750
 30
0.0
 10
901.600000
 20
1467.500000
 30
0.0
 10
898.362500
 20
1530.962500
 30
0.0
 10
897.479688
 20
1550.370313
 30
0.0
 10
897.300000
 20
1557.600000
 30
0.0
 10
897.623047
 20
1557.334961
 30
0.0
 10
898.290625
 20
1555.967188
 30
0.0
 10
901.100000
 20
1548.737500
 30
0.0
 10
915.700000
 20
1508.000000
 30
0.0
 10
928.059375
 20
1472.525000
 30
0.0
 10
941.600000
 20
1433.075000
 30
0.0
 10
952.515625
 20
1400.787500
 30
0.0
 10
955.799609
 20
1390.810156
 30
0.0
 10
957.000000
 20
1386.800000
 30
0.0
 10
957.216992
 20
1386.477930
 30
0.0
 10
957.798437
 20
1386.323437
 30
0.0
 10
959.637500
 20
1386.437500
 30
0.0
 10
961.682812
 20
1386.982813
 30
0.0
 10
962.522070
 20
1387.367383
 30
0.0
 10
963.100000
 20
1387.800000
 30
0.0
 10
964.198438
 20
1395.021875
 30
0.0
 10
966.787500
 20
1414.150000
 30
0.0
 10
974.900000
 20
1476.500000
 30
0.0
 10
983.075000
 20
1539.825000
 30
0.0
 10
986.900000
 20
1568.500000
 30
0.0
 10
987.600000
 20
1572.500000
 30
0.0
 10
988.800000
 20
1566.000000
 30
0.0
 10
993.371875
 20
1536.831250
 30
0.0
 10
1000.550000
 20
1488.200000
 30
0.0
 10
1007.953125
 20
1436.343750
 30
0.0
 10
1013.200000
 20
1397.500000
 30
0.0
 10
1014.500000
 20
1387.600000
 30
0.0
 10
1017.700000
 20
1386.900000
 30
0.0
 10
1021.000000
 20
1386.300000
 30
0.0
 10
1024.000000
 20
1395.900000
 30
0.0
 10
1029.426758
 20
1412.520703
 30
0.0
 10
1037.151563
 20
1435.509375
 30
0.0
 10
1055.862500
 20
1490.100000
 30
0.0
 10
1072.867188
 20
1538.690625
 30
0.0
 10
1078.459180
 20
1554.179297
 30
0.0
 10
1080.130249
 20
1558.574561
 30
0.0
 10
1080.900000
 20
1560.300000
 30
0.0
 10
1081.044336
 20
1560.353711
 30
0.0
 10
1081.173438
 20
1560.223438
 30
0.0
 10
1081.362500
 20
1559.462500
 30
0.0
 10
1081.420312
 20
1558.120313
 30
0.0
 10
1081.300000
 20
1556.300000
 30
0.0
 10
1079.456250
 20
1523.426563
 30
0.0
 10
1076.300000
 20
1462.587500
 30
0.0
 10
1073.368750
 20
1403.904688
 30
0.0
 10
1072.200000
 20
1377.500000
 30
0.0
 10
1073.262500
 20
1377.150000
 30
0.0
 10
1075.300000
 20
1376.800000
 30
0.0
 10
1075.812036
 20
1376.780518
 30
0.0
 10
1076.340039
 20
1376.906641
 30
0.0
 10
1076.946851
 20
1377.286475
 30
0.0
 10
1077.695312
 20
1378.028125
 30
0.0
 10
1079.868555
 20
1381.029297
 30
0.0
 10
1083.362500
 20
1386.775000
 30
0.0
 10
1088.679883
 20
1396.130078
 30
0.0
 10
1096.323438
 20
1409.959375
 30
0.0
 10
1120.600000
 20
1454.500000
 30
0.0
 10
1148.906250
 20
1506.429688
 30
0.0
 10
1162.175000
 20
1530.487500
 30
0.0
 10
1164.881250
 20
1535.073242
 30
0.0
 10
1165.551758
 20
1536.031860
 30
0.0
 10
1165.881250
 20
1536.301562
 30
0.0
 10
1165.955273
 20
1536.032788
 30
0.0
 10
1165.859375
 20
1535.375977
 30
0.0
 10
1165.500000
 20
1533.500000
 30
0.0
 10
1163.350586
 20
1522.722656
 30
0.0
 10
1158.898438
 20
1502.237500
 30
0.0
 10
1146.062500
 20
1445.175000
 30
0.0
 10
1132.945312
 20
1388.375000
 30
0.0
 10
1128.141602
 20
1368.217969
 30
0.0
 10
1125.500000
 20
1357.900000
 30
0.0
 10
1125.418750
 20
1357.154688
 30
0.0
 10
1125.750000
 20
1356.437500
 30
0.0
 10
1126.456250
 20
1355.776563
 30
0.0
 10
1127.500000
 20
1355.200000
 30
0.0
 10
1129.437500
 20
1354.337500
 30
0.0
 10
1130.400000
 20
1354.000000
 30
0.0
 10
1137.250000
 20
1361.850000
 30
0.0
 10
1153.100000
 20
1380.800000
 30
0.0
 10
1186.095313
 20
1419.893750
 30
0.0
 10
1216.812500
 20
1455.725000
 30
0.0
 10
1239.598438
 20
1481.768750
 30
0.0
 10
1246.250586
 20
1489.081250
 30
0.0
 10
1248.082300
 20
1490.953320
 30
0.0
 10
1248.800000
 20
1491.500000
 30
0.0
 10
1246.018750
 20
1484.915625
 30
0.0
 10
1238.175000
 20
1467.250000
 30
0.0
 10
1212.100000
 20
1409.400000
 30
0.0
 10
1191.435937
 20
1363.812500
 30
0.0
 10
1180.512500
 20
1339.150000
 30
0.0
 10
1177.821680
 20
1332.579688
 30
0.0
 10
1176.507813
 20
1328.737500
 30
0.0
 10
1176.257007
 20
1327.578711
 30
0.0
 10
1176.218164
 20
1326.789063
 30
0.0
 10
1176.347192
 20
1326.264258
 30
0.0
 10
1176.600000
 20
1325.900000
 30
0.0
 10
1177.332813
 20
1325.139063
 30
0.0
 10
1178.112500
 20
1324.537500
 30
0.0
 10
1178.835938
 20
1324.142188
 30
0.0
 10
1179.400000
 20
1324.000000
 30
0.0
 10
1180.735938
 20
1324.770313
 30
0.0
 10
1183.562500
 20
1326.862500
 30
0.0
 10
1192.000000
 20
1333.700000
 30
0.0
 10
1227.593750
 20
1363.023438
 30
0.0
 10
1268.325000
 20
1396.012500
 30
0.0
 10
1302.868750
 20
1423.545312
 30
0.0
 10
1314.281250
 20
1432.415039
 30
0.0
 10
1319.900000
 20
1436.500000
 30
0.0
 10
1320.584570
 20
1436.950781
 30
0.0
 10
1320.769019
 20
1437.005371
 30
0.0
 10
1320.726562
 20
1436.768750
 30
0.0
 10
1319.595898
 20
1434.889844
 30
0.0
 10
1316.462500
 20
1430.250000
 30
0.0
 10
1269.300000
 20
1362.800000
 30
0.0
 10
1233.800000
 20
1311.750000
 30
0.0
 10
1222.978125
 20
1296.059375
 30
0.0
 10
1219.000000
 20
1290.100000
 30
0.0
 10
1219.192188
 20
1289.631250
 30
0.0
 10
1219.712500
 20
1288.900000
 30
0.0
 10
1221.400000
 20
1287.100000
 30
0.0
 10
1223.800000
 20
1284.900000
 30
0.0
 10
1297.600000
 20
1327.000000
 30
0.0
 10
1377.000000
 20
1372.200000
 30
0.0
 10
1378.243359
 20
1372.732422
 30
0.0
 10
1378.429541
 20
1372.617041
 30
0.0
 10
1378.284375
 20
1372.203125
 30
0.0
 10
1376.876953
 20
1370.347266
 30
0.0
 10
1373.775000
 20
1366.900000
 30
0.0
 10
1361.503125
 20
1354.171875
 30
0.0
 10
1339.500000
 20
1331.900000
 30
0.0
 10
1274.300000
 20
1266.000000
 30
0.0
 10
1252.000000
 20
1243.500000
 30
0.0
 10
1254.300000
 20
1240.800000
 30
0.0
 10
1256.500000
 20
1238.100000
 30
0.0
 10
1320.000000
 20
1259.300000
 30
0.0
 10
1366.082813
 20
1274.595313
 30
0.0
 10
1401.787500
 20
1286.262500
 30
0.0
 10
1424.948438
 20
1293.598438
 30
0.0
 10
1431.148242
 20
1295.422461
 30
0.0
 10
1433.400000
 20
1295.900000
 30
0.0
 10
1427.445312
 20
1291.667187
 30
0.0
 10
1410.962500
 20
1280.412500
 30
0.0
 10
1356.500000
 20
1243.700000
 30
0.0
 10
1279.100000
 20
1192.000000
 30
0.0
 10
1280.200000
 20
1188.900000
 30
0.0
 10
1280.834375
 20
1187.356250
 30
0.0
 10
1281.525000
 20
1186.525000
 30
0.0
 10
1282.478125
 20
1186.256250
 30
0.0
 10
1283.900000
 20
1186.400000
 30
0.0
 10
1291.507812
 20
1187.617383
 30
0.0
 10
1306.868750
 20
1189.801563
 30
0.0
 10
1352.075000
 20
1195.912500
 30
0.0
 10
1401.968750
 20
1202.417187
 30
0.0
 10
1439.000000
 20
1207.000000
 30
0.0
 10
1461.000000
 20
1209.500000
 30
0.0
 10
1463.012500
 20
1209.703125
 30
0.0
 10
1464.125000
 20
1209.700000
 30
0.0
 10
1464.355469
 20
1209.615234
 30
0.0
 10
1464.375000
 20
1209.471875
 30
0.0
 10
1463.800000
 20
1209.000000
 30
0.0
 10
1438.187500
 20
1197.875000
 30
0.0
 10
1378.900000
 20
1172.500000
 30
0.0
 10
1319.950000
 20
1147.262500
 30
0.0
 10
1295.200000
 20
1136.500000
 30
0.0
 10
1295.125000
 20
1135.375000
 30
0.0
 10
1295.500000
 20
1133.200000
 30
0.0
 10
1296.100000
 20
1130.200000
 30
0.0
 10
1310.300000
 20
1129.600000
 30
0.0
 10
1359.500000
 20
1127.500000
 30
0.0
 10
1402.409375
 20
1125.632812
 30
0.0
 10
1442.825000
 20
1123.737500
 30
0.0
 10
1472.928125
 20
1122.198437
 30
0.0
 10
1484.900000
 20
1121.400000
 30
0.0
 10
1485.050000
 20
1121.000000
 30
0.0
 10
1484.900000
 20
1120.600000
 30
0.0
 10
1457.737500
 20
1114.325000
 30
0.0
 10
1393.000000
 20
1099.800000
 30
0.0
 10
1301.500000
 20
1079.400000
 30
0.0
 10
1301.200000
 20
1076.200000
 30
0.0
 10
1301.118750
 20
1074.595313
 30
0.0
 10
1301.375000
 20
1073.562500
 30
0.0
 10
1302.043750
 20
1072.923438
 30
0.0
 10
1303.200000
 20
1072.500000
 30
0.0
 10
1370.625000
 20
1056.825000
 30
0.0
 10
1471.200000
 20
1032.900000
 30
0.0
 10
1480.837500
 20
1030.500000
 30
0.0
 10
1483.701563
 20
1029.693750
 30
0.0
 10
1484.700000
 20
1029.300000
 30
0.0
 10
1457.325000
 20
1028.075000
 30
0.0
 10
1392.000000
 20
1025.500000
 30
0.0
 10
1326.637500
 20
1022.875000
 30
0.0
 10
1299.300000
 20
1021.600000
 30
0.0
 10
1298.887500
 20
1020.350000
 30
0.0
 10
1298.400000
 20
1017.900000
 30
0.0
 10
1297.800000
 20
1014.500000
 30
0.0
 10
1308.200000
 20
1010.100000
 30
0.0
 10
1328.325977
 20
1001.325586
 30
0.0
 10
1352.001563
 20
990.754688
 30
0.0
 10
1402.187500
 20
967.837500
 30
0.0
 10
1424.790820
 20
957.298242
 30
0.0
 10
1443.129688
 20
948.576563
 30
0.0
 10
1455.250586
 20
942.575977
 30
0.0
 10
1458.368823
 20
940.878442
 30
0.0
 10
1459.085556
 20
940.404776
 30
0.0
 10
1459.200000
 20
940.200000
 30
0.0
 10
1433.351563
 20
943.789062
 30
0.0
 10
1376.387500
 20
952.037500
 30
0.0
 10
1317.379687
 20
960.717187
 30
0.0
 10
1285.400000
 20
965.600000
 30
0.0
 10
1283.645313
 20
965.809375
 30
0.0
 10
1283.028711
 20
965.751172
 30
0.0
 10
1282.537500
 20
965.550000
 30
0.0
 10
1282.135352
 20
965.180078
 30
0.0
 10
1281.785938
 20
964.615625
 30
0.0
 10
1281.100000
 20
962.800000
 30
0.0
 10
1280.512500
 20
960.981250
 30
0.0
 10
1280.450000
 20
959.800000
 30
0.0
 10
1280.639063
 20
959.342969
 30
0.0
 10
1280.987500
 20
958.918750
 30
0.0
 10
1282.200000
 20
958.000000
 30
0.0
 10
1299.345898
 20
946.407422
 30
0.0
 10
1320.835938
 20
931.578125
 30
0.0
 10
1368.612500
 20
898.050000
 30
0.0
 10
1390.781055
 20
882.271484
 30
0.0
 10
1409.057813
 20
869.096875
 30
0.0
 10
1421.383789
 20
859.986328
 30
0.0
 10
1424.671802
 20
857.411377
 30
0.0
 10
1425.700000
 20
856.400000
 30
0.0
 10
1418.942188
 20
858.548438
 30
0.0
 10
1400.812500
 20
864.662500
 30
0.0
 10
1341.500000
 20
885.000000
 30
0.0
 10
1281.987500
 20
905.387500
 30
0.0
 10
1263.748438
 20
911.535938
 30
0.0
 10
1256.900000
 20
913.700000
 30
0.0
 10
1260.817187
 20
909.401563
 30
0.0
 10
1271.887500
 20
897.837500
 30
0.0
 10
1308.700000
 20
860.000000
 30
0.0
 10
1349.250000
 20
818.437500
 30
0.0
 10
1373.300000
 20
793.600000
 30
0.0
 10
1385.500000
 20
780.600000
 30
0.0
 10
1359.000000
 20
794.200000
 30
0.0
 10
1334.709375
 20
806.823437
 30
0.0
 10
1306.350000
 20
821.912500
 30
0.0
 10
1276.340625
 20
838.145313
 30
0.0
 10
1247.100000
 20
854.200000
 30
0.0
 10
1223.800000
 20
867.200000
 30
0.0
 10
1221.300000
 20
864.700000
 30
0.0
 10
1218.800000
 20
862.200000
 30
0.0
 10
1222.100000
 20
857.400000
 30
0.0
 10
1274.300000
 20
782.700000
 30
0.0
 10
1308.762500
 20
733.287500
 30
0.0
 10
1319.173438
 20
718.195313
 30
0.0
 10
1322.900000
 20
712.600000
 30
0.0
 10
1322.000024
 20
713.105566
 30
0.0
 10
1319.647070
 20
714.816406
 30
0.0
 10
1311.089063
 20
721.443750
 30
0.0
 10
1282.112500
 20
744.650000
 30
0.0
 10
1244.079688
 20
775.656250
 30
0.0
 10
1205.100000
 20
807.900000
 30
0.0
 10
1190.939063
 20
819.612500
 30
0.0
 10
1186.493555
 20
823.164844
 30
0.0
 10
1183.387500
 20
825.475000
 30
0.0
 10
1181.308008
 20
826.763281
 30
0.0
 10
1179.942188
 20
827.250000
 30
0.0
 10
1178.977148
 20
827.155469
 30
0.0
 10
1178.100000
 20
826.700000
 30
0.0
 10
1177.120313
 20
825.965625
 30
0.0
 10
1176.337500
 20
825.175000
 30
0.0
 10
1175.835938
 20
824.421875
 30
0.0
 10
1175.700000
 20
823.800000
 30
0.0
 10
1187.087500
 20
798.187500
 30
0.0
 10
1214.000000
 20
738.600000
 30
0.0
 10
1240.775000
 20
679.287500
 30
0.0
 10
1251.800000
 20
654.400000
 30
0.0
 10
1250.557617
 20
655.543750
 30
0.0
 10
1247.204688
 20
659.275000
 30
0.0
 10
1234.162500
 20
674.500000
 30
0.0
 10
1212.664062
 20
700.075000
 30
0.0
 10
1182.700000
 20
736.000000
 30
0.0
 10
1135.600000
 20
792.500000
 30
0.0
 10
1133.143750
 20
795.231250
 30
0.0
 10
1131.550000
 20
796.575000
 30
0.0
 10
1130.900781
 20
796.820312
 30
0.0
 10
1130.256250
 20
796.831250
 30
0.0
 10
1128.700000
 20
796.300000
 30
0.0
 10
1127.645313
 20
795.695312
 30
0.0
 10
1126.787500
 20
794.987500
 30
0.0
 10
1126.210938
 20
794.260937
 30
0.0
 10
1126.000000
 20
793.600000
 30
0.0
 10
1128.519336
 20
782.805078
 30
0.0
 10
1135.167187
 20
755.521875
 30
0.0
 10
1155.387500
 20
673.550000
 30
0.0
 10
1175.739062
 20
591.803125
 30
0.0
 10
1182.550977
 20
564.801172
 30
0.0
 10
1185.300000
 20
554.400000
 30
0.0
 10
1185.787354
 20
554.468457
 30
0.0
 10
1186.981641
 20
554.914844
 30
0.0
 10
1191.234375
 20
556.812500
 30
0.0
 10
1205.400000
 20
563.725000
 30
0.0
 10
1223.690625
 20
573.075000
 30
0.0
 10
1242.000000
 20
582.800000
 30
0.0
 10
1256.500000
 20
590.475000
 30
0.0
 10
1266.800000
 20
595.600000
 30
0.0
 10
1274.000000
 20
599.000000
 30
0.0
 10
1288.300000
 20
589.900000
 30
0.0
 10
1301.557813
 20
581.225000
 30
0.0
 10
1317.037500
 20
570.825000
 30
0.0
 10
1336.323438
 20
557.612500
 30
0.0
 10
1361.000000
 20
540.500000
 30
0.0
 10
1383.028125
 20
525.265625
 30
0.0
 10
1401.325000
 20
512.825000
 30
0.0
 10
1414.634375
 20
504.021875
 30
0.0
 10
1419.026172
 20
501.248047
 30
0.0
 10
1421.700000
 20
499.700000
 30
0.0
 10
1423.394531
 20
498.926953
 30
0.0
 10
1425.037500
 20
498.409375
 30
0.0
 10
1426.642969
 20
498.149609
 30
0.0
 10
1428.225000
 20
498.150000
 30
0.0
 10
1429.797656
 20
498.412891
 30
0.0
 10
1431.375000
 20
498.940625
 30
0.0
 10
1432.971094
 20
499.735547
 30
0.0
 10
1434.600000
 20
500.800000
 30
0.0
 10
1436.948437
 20
502.892627
 30
0.0
 10
1441.631250
 20
507.369141
 30
0.0
 10
1456.650000
 20
522.115625
 30
0.0
 10
1499.850000
 20
565.275000
 30
0.0
 10
1542.600000
 20
608.546875
 30
0.0
 10
1557.056250
 20
623.433984
 30
0.0
 10
1561.373438
 20
628.001904
 30
0.0
 10
1563.300000
 20
630.200000
 30
0.0
 10
1564.871289
 20
632.727344
 30
0.0
 10
1565.426733
 20
633.879980
 30
0.0
 10
1565.801563
 20
635.025000
 30
0.0
 10
1565.975415
 20
636.212207
 30
0.0
 10
1565.927930
 20
637.491406
 30
0.0
 10
1565.638745
 20
638.912402
 30
0.0
 10
1565.087500
 20
640.525000
 30
0.0
 10
1563.117383
 20
644.524219
 30
0.0
 10
1559.854688
 20
649.887500
 30
0.0
 10
1555.136523
 20
657.013281
 30
0.0
 10
1548.800000
 20
666.300000
 30
0.0
 10
1527.587500
 20
697.350000
 30
0.0
 10
1500.600000
 20
736.500000
 30
0.0
 10
1477.987500
 20
769.600000
 30
0.0
 10
1470.604688
 20
780.656250
 30
0.0
 10
1467.300000
 20
785.900000
 30
0.0
 10
1466.028711
 20
788.728906
 30
0.0
 10
1465.248438
 20
791.468750
 30
0.0
 10
1465.058179
 20
792.888770
 30
0.0
 10
1465.009570
 20
794.386719
 30
0.0
 10
1465.362500
 20
797.750000
 30
0.0
 10
1466.357617
 20
801.825781
 30
0.0
 10
1468.045312
 20
806.881250
 30
0.0
 10
1470.475977
 20
813.183594
 30
0.0
 10
1473.700000
 20
821.000000
 30
0.0
 10
1482.212500
 20
841.925000
 30
0.0
 10
1493.500000
 20
870.500000
 30
0.0
 10
1507.857813
 20
906.828125
 30
0.0
 10
1512.904492
 20
919.075391
 30
0.0
 10
1516.862500
 20
928.100000
 30
0.0
 10
1519.981445
 20
934.443359
 30
0.0
 10
1522.510938
 20
938.646875
 30
0.0
 10
1523.632642
 20
940.115381
 30
0.0
 10
1524.700586
 20
941.251953
 30
0.0
 10
1525.745972
 20
942.124268
 30
0.0
 10
1526.800000
 20
942.800000
 30
0.0
 10
1529.444336
 20
943.859570
 30
0.0
 10
1534.360938
 20
945.220313
 30
0.0
 10
1541.975195
 20
946.967773
 30
0.0
 10
1552.712500
 20
949.187500
 30
0.0
 10
1585.257812
 20
955.385937
 30
0.0
 10
1635.400000
 20
964.500000
 30
0.0
 10
1678.287500
 20
972.387500
 30
0.0
 10
1692.760938
 20
975.145313
 30
0.0
 10
1699.800000
 20
976.600000
 30
0.0
 10
1702.587500
 20
977.470312
 30
0.0
 10
1705.150000
 20
978.537500
 30
0.0
 10
1707.337500
 20
979.735938
 30
0.0
 10
1709.000000
 20
981.000000
 30
0.0
 10
1712.000000
 20
983.800000
 30
0.0
 10
1712.000000
 20
1078.300000
 30
0.0
 10
1711.968750
 20
1132.168750
 30
0.0
 10
1711.750000
 20
1160.575000
 30
0.0
 10
1711.511719
 20
1167.901562
 30
0.0
 10
1711.156250
 20
1172.068750
 30
0.0
 10
1710.660156
 20
1174.145312
 30
0.0
 10
1710.000000
 20
1175.200000
 30
0.0
 10
1708.923438
 20
1176.318750
 30
0.0
 10
1707.462500
 20
1177.475000
 30
0.0
 10
1705.795313
 20
1178.518750
 30
0.0
 10
1704.100000
 20
1179.300000
 30
0.0
 10
1699.967187
 20
1180.418750
 30
0.0
 10
1691.662500
 20
1182.250000
 30
0.0
 10
1680.376563
 20
1184.531250
 30
0.0
 10
1667.300000
 20
1187.000000
 30
0.0
 10
1592.081250
 20
1201.048438
 30
0.0
 10
1547.950000
 20
1209.462500
 30
0.0
 10
1535.022656
 20
1212.057617
 30
0.0
 10
1526.843750
 20
1213.845313
 30
0.0
 10
1522.405469
 20
1215.025977
 30
0.0
 10
1521.274121
 20
1215.451294
 30
0.0
 10
1520.700000
 20
1215.800000
 30
0.0
 10
1518.886914
 20
1217.787695
 30
0.0
 10
1516.807812
 20
1220.864062
 30
0.0
 10
1514.327930
 20
1225.311523
 30
0.0
 10
1511.312500
 20
1231.412500
 30
0.0
 10
1507.626758
 20
1239.449414
 30
0.0
 10
1503.135937
 20
1249.704688
 30
0.0
 10
1491.200000
 20
1278.000000
 30
0.0
 10
1480.962500
 20
1302.325000
 30
0.0
 10
1471.700000
 20
1323.500000
 30
0.0
 10
1465.559375
 20
1337.509375
 30
0.0
 10
1463.631641
 20
1342.255859
 30
0.0
 10
1462.325000
 20
1345.950000
 30
0.0
 10
1461.533984
 20
1348.931641
 30
0.0
 10
1461.153125
 20
1351.540625
 30
0.0
 10
1461.076953
 20
1354.116797
 30
0.0
 10
1461.200000
 20
1357.000000
 30
0.0
 10
1461.518750
 20
1360.539062
 30
0.0
 10
1462.100000
 20
1363.337500
 30
0.0
 10
1463.056250
 20
1365.817188
 30
0.0
 10
1464.500000
 20
1368.400000
 30
0.0
 10
1514.500000
 20
1441.200000
 30
0.0
 10
1548.362500
 20
1490.500000
 30
0.0
 10
1559.148438
 20
1506.450000
 30
0.0
 10
1563.700000
 20
1513.400000
 30
0.0
 10
1564.551563
 20
1515.309375
 30
0.0
 10
1565.262500
 20
1517.425000
 30
0.0
 10
1565.767188
 20
1519.503125
 30
0.0
 10
1566.000000
 20
1521.300000
 30
0.0
 10
1565.871680
 20
1522.688086
 30
0.0
 10
1565.198437
 20
1524.323438
 30
0.0
 10
1563.547852
 20
1526.687695
 30
0.0
 10
1560.487500
 20
1530.262500
 30
0.0
 10
1555.584961
 20
1535.529492
 30
0.0
 10
1548.407813
 20
1542.970313
 30
0.0
 10
1525.500000
 20
1566.300000
 30
0.0
 10
1492.442188
 20
1599.490625
 30
0.0
 10
1461.512500
 20
1630.000000
 30
0.0
 10
1438.326562
 20
1652.334375
 30
0.0
 10
1431.392383
 20
1658.719141
 30
0.0
 10
1429.397095
 20
1660.415479
 30
0.0
 10
1428.500000
 20
1661.000000
 30
0.0
 10
1427.778931
 20
1660.848657
 30
0.0
 10
1426.636133
 20
1660.375195
 30
0.0
 10
1422.907813
 20
1658.345313
 30
0.0
 10
1416.959961
 20
1654.677148
 30
0.0
 10
1408.437500
 20
1649.137500
 30
0.0
 10
1382.248437
 20
1631.510938
 30
0.0
 10
1341.500000
 20
1603.600000
 30
0.0
 10
1290.450000
 20
1568.662500
 30
0.0
 10
1274.168750
 20
1557.714063
 30
0.0
 10
1267.300000
 20
1553.300000
 30
0.0
 10
1264.520898
 20
1552.387109
 30
0.0
 10
1261.623437
 20
1551.921875
 30
0.0
 10
1258.442383
 20
1551.939453
 30
0.0
 10
1254.812500
 20
1552.475000
 30
0.0
 10
1250.568555
 20
1553.563672
 30
0.0
 10
1245.545312
 20
1555.240625
 30
0.0
 10
1239.577539
 20
1557.541016
 30
0.0
 10
1232.500000
 20
1560.500000
 30
0.0
 10
1214.037500
 20
1568.187500
 30
0.0
 10
1185.000000
 20
1580.000000
 30
0.0
 10
1153.070312
 20
1593.007812
 30
0.0
 10
1136.262500
 20
1600.062500
 30
0.0
 10
1131.809570
 20
1602.122070
 30
0.0
 10
1129.073438
 20
1603.610938
 30
0.0
 10
1127.366211
 20
1604.834961
 30
0.0
 10
1126.000000
 20
1606.100000
 30
0.0
 10
1124.358398
 20
1607.870898
 30
0.0
 10
1122.954688
 20
1610.029688
 30
0.0
 10
1121.670508
 20
1613.020508
 30
0.0
 10
1120.387500
 20
1617.287500
 30
0.0
 10
1118.987305
 20
1623.274805
 30
0.0
 10
1117.351562
 20
1631.426563
 30
0.0
 10
1112.900000
 20
1656.000000
 30
0.0
 10
1101.776562
 20
1717.987500
 30
0.0
 10
1097.183398
 20
1742.442188
 30
0.0
 10
1093.212500
 20
1762.650000
 30
0.0
 10
1089.846289
 20
1778.695312
 30
0.0
 10
1087.067188
 20
1790.662500
 30
0.0
 10
1084.857617
 20
1798.635937
 30
0.0
 10
1083.960913
 20
1801.151367
 30
0.0
 10
1083.200000
 20
1802.700000
 30
0.0
 10
1081.539307
 20
1802.958521
 30
0.0
 10
1077.114453
 20
1803.207227
 30
0.0
 10
1061.290625
 20
1803.664062
 30
0.0
 10
1038.365234
 20
1804.048242
 30
0.0
 10
1010.975000
 20
1804.337500
 30
0.0
 10
953.346875
 20
1804.542188
 30
0.0
 10
928.382422
 20
1804.413086
 30
0.0
 10
909.500000
 20
1804.100000
 30
0.0
  0
LWPOLYLINE
  5
101
100
AcDbEntity
  8
0
 62
7
100
AcDbPolyline
 90
70
 70
1
 10
599.000000
 20
401.000000
 30
0.0
 10
595.330322
 20
400.430908
 30
0.0
 10
591.570703
 20
399.630078
 30
0.0
 10
587.739014
 20
398.607178
 30
0.0
 10
583.853125
 20
397.371875
 30
0.0
 10
579.930908
 20
395.933838
 30
0.0
 10
575.990234
 20
394.302734
 30
0.0
 10
572.048975
 20
392.488232
 30
0.0
 10
568.125000
 20
390.500000
 30
0.0
 10
564.236182
 20
388.347705
 30
0.0
 10
560.400391
 20
386.041016
 30
0.0
 10
556.635498
 20
383.589600
 30
0.0
 10
552.959375
 20
381.003125
 30
0.0
 10
549.389893
 20
378.291260
 30
0.0
 10
545.944922
 20
375.463672
 30
0.0
 10
542.642334
 20
372.530029
 30
0.0
 10
539.500000
 20
369.500000
 30
0.0
 10
536.444727
 20
365.922461
 30
0.0
 10
530.882812
 20
358.767187
 30
0.0
 10
511.812500
 20
333.137500
 30
0.0
 10
481.435938
 20
291.439062
 30
0.0
 10
438.900000
 20
232.500000
 30
0.0
 10
308.700000
 20
51.700000
 30
0.0
 10
272.100000
 20
1.000000
 30
0.0
 10
349.300000
 20
1.200000
 30
0.0
 10
426.400000
 20
1.500000
 30
0.0
 10
515.700000
 20
124.000000
 30
0.0
 10
578.962500
 20
210.587500
 30
0.0
 10
598.373438
 20
236.964063
 30
0.0
 10
605.700000
 20
246.700000
 30
0.0
 10
606.925781
 20
245.285742
 30
0.0
 10
610.087500
 20
241.160937
 30
0.0
 10
621.375000
 20
225.937500
 30
0.0
 10
657.900000
 20
175.700000
 30
0.0
 10
709.200000
 20
104.500000
 30
0.0
 10
625.500000
 20
104.000000
 30
0.0
 10
541.900000
 20
103.500000
 30
0.0
 10
505.000000
 20
52.500000
 30
0.0
 10
468.200000
 20
1.500000
 30
0.0
 10
585.000000
 20
1.200000
 30
0.0
 10
702.087500
 20
1.125000
 30
0.0
 10
819.400000
 20
1.200000
 30
0.0
 10
937.000000
 20
1.500000
 30
0.0
 10
810.400000
 20
181.500000
 30
0.0
 10
730.996875
 20
294.276562
 30
0.0
 10
706.460547
 20
328.704492
 30
0.0
 10
689.450000
 20
351.937500
 30
0.0
 10
683.161182
 20
360.163403
 30
0.0
 10
678.026953
 20
366.559570
 30
0.0
 10
673.805029
 20
371.448999
 30
0.0
 10
670.253125
 20
375.154688
 30
0.0
 10
667.128955
 20
377.999634
 30
0.0
 10
664.190234
 20
380.306836
 30
0.0
 10
657.900000
 20
384.600000
 30
0.0
 10
654.172241
 20
387.002319
 30
0.0
 10
650.451367
 20
389.221680
 30
0.0
 10
646.737231
 20
391.257935
 30
0.0
 10
643.029688
 20
393.110938
 30
0.0
 10
639.328589
 20
394.780542
 30
0.0
 10
635.633789
 20
396.266602
 30
0.0
 10
631.945142
 20
397.568970
 30
0.0
 10
628.262500
 20
398.687500
 30
0.0
 10
624.585718
 20
399.622046
 30
0.0
 10
620.914648
 20
400.372461
 30
0.0
 10
617.249146
 20
400.938599
 30
0.0
 10
613.589063
 20
401.320313
 30
0.0
 10
609.934253
 20
401.517456
 30
0.0
 10
606.284570
 20
401.529883
 30
0.0
 10
602.639868
 20
401.357446
 30
0.0
 10
599.000000
 20
401.000000
 30
0.0
  0
LWPOLYLINE
  5
102
100
AcDbEntity
  8
0
 62
7
100
AcDbPolyline
 90
26
 70
1
 10
1.000000
 20
200.500000
 30
0.0
 10
1.000000
 20
1.000000
 30
0.0
 10
63.000000
 20
1.000000
 30
0.0
 10
125.000000
 20
1.000000
 30
0.0
 10
125.000000
 20
76.000000
 30
0.0
 10
125.000000
 20
151.000000
 30
0.0
 10
230.300000
 20
151.000000
 30
0.0
 10
335.600000
 20
151.000000
 30
0.0
 10
375.100000
 20
201.900000
 30
0.0
 10
402.975000
 20
238.250000
 30
0.0
 10
414.800000
 20
253.900000
 30
0.0
 10
414.341699
 20
254.044189
 30
0.0
 10
412.839844
 20
254.176953
 30
0.0
 10
406.618750
 20
254.409375
 30
0.0
 10
380.700000
 20
254.750000
 30
0.0
 10
335.656250
 20
254.940625
 30
0.0
 10
270.100000
 20
255.000000
 30
0.0
 10
125.000000
 20
255.000000
 30
0.0
 10
125.200000
 20
275.800000
 30
0.0
 10
125.500000
 20
296.500000
 30
0.0
 10
240.700000
 20
297.000000
 30
0.0
 10
356.000000
 20
297.500000
 30
0.0
 10
395.400000
 20
348.800000
 30
0.0
 10
434.900000
 20
400.000000
 30
0.0
 10
217.900000
 20
400.000000
 30
0.0
 10
1.000000
 20
400.000000
 30
0.0
  0
LWPOLYLINE
  5
103
100
AcDbEntity
  8
0
 62
7
100
AcDbPolyline
 90
225
 70
1
 10
1084.000000
 20
399.400000
 30
0.0
 10
1072.500000
 20
397.900000
 30
0.0
 10
1065.741187
 20
396.918115
 30
0.0
 10
1059.013867
 20
395.665234
 30
0.0
 10
1052.335474
 20
394.149268
 30
0.0
 10
1045.723438
 20
392.378125
 30
0.0
 10
1039.195190
 20
390.359717
 30
0.0
 10
1032.768164
 20
388.101953
 30
0.0
 10
1026.459790
 20
385.612744
 30
0.0
 10
1020.287500
 20
382.900000
 30
0.0
 10
1014.268726
 20
379.971631
 30
0.0
 10
1008.420898
 20
376.835547
 30
0.0
 10
1002.761450
 20
373.499658
 30
0.0
 10
997.307813
 20
369.971875
 30
0.0
 10
992.077417
 20
366.260107
 30
0.0
 10
987.087695
 20
362.372266
 30
0.0
 10
982.356079
 20
358.316260
 30
0.0
 10
977.900000
 20
354.100000
 30
0.0
 10
974.510010
 20
350.612891
 30
0.0
 10
971.348828
 20
347.118750
 30
0.0
 10
968.410889
 20
343.605859
 30
0.0
 10
965.690625
 20
340.062500
 30
0.0
 10
963.182471
 20
336.476953
 30
0.0
 10
960.880859
 20
332.837500
 30
0.0
 10
958.780225
 20
329.132422
 30
0.0
 10
956.875000
 20
325.350000
 30
0.0
 10
955.159619
 20
321.478516
 30
0.0
 10
953.628516
 20
317.506250
 30
0.0
 10
952.276123
 20
313.421484
 30
0.0
 10
951.096875
 20
309.212500
 30
0.0
 10
950.085205
 20
304.867578
 30
0.0
 10
949.235547
 20
300.375000
 30
0.0
 10
948.542334
 20
295.723047
 30
0.0
 10
948.000000
 20
290.900000
 30
0.0
 10
947.561621
 20
284.713794
 30
0.0
 10
947.446094
 20
278.643164
 30
0.0
 10
947.652832
 20
272.688843
 30
0.0
 10
948.181250
 20
266.851562
 30
0.0
 10
949.030762
 20
261.132056
 30
0.0
 10
950.200781
 20
255.531055
 30
0.0
 10
951.690723
 20
250.049292
 30
0.0
 10
953.500000
 20
244.687500
 30
0.0
 10
955.628027
 20
239.446411
 30
0.0
 10
958.074219
 20
234.326758
 30
0.0
 10
960.837988
 20
229.329272
 30
0.0
 10
963.918750
 20
224.454688
 30
0.0
 10
967.315918
 20
219.703735
 30
0.0
 10
971.028906
 20
215.077148
 30
0.0
 10
975.057129
 20
210.575659
 30
0.0
 10
979.400000
 20
206.200000
 30
0.0
 10
984.085889
 20
201.938818
 30
0.0
 10
988.958984
 20
197.891797
 30
0.0
 10
994.023682
 20
194.057471
 30
0.0
 10
999.284375
 20
190.434375
 30
0.0
 10
1004.745459
 20
187.021045
 30
0.0
 10
1010.411328
 20
183.816016
 30
0.0
 10
1016.286377
 20
180.817822
 30
0.0
 10
1022.375000
 20
178.025000
 30
0.0
 10
1028.681592
 20
175.436084
 30
0.0
 10
1035.210547
 20
173.049609
 30
0.0
 10
1041.966260
 20
170.864111
 30
0.0
 10
1048.953125
 20
168.878125
 30
0.0
 10
1056.175537
 20
167.090186
 30
0.0
 10
1063.637891
 20
165.498828
 30
0.0
 10
1071.344580
 20
164.102588
 30
0.0
 10
1079.300000
 20
162.900000
 30
0.0
 10
1083.115430
 20
162.609375
 30
0.0
 10
1090.454688
 20
162.337500
 30
0.0
 10
1115.812500
 20
161.850000
 30
0.0
 10
1155.589063
 20
161.437500
 30
0.0
 10
1210.000000
 20
161.100000
 30
0.0
 10
1277.434375
 20
160.653125
 30
0.0
 10
1315.000000
 20
160.225000
 30
0.0
 10
1325.587891
 20
159.953516
 30
0.0
 10
1332.315625
 20
159.609375
 30
0.0
 10
1336.385547
 20
159.166797
 30
0.0
 10
1339.000000
 20
158.600000
 30
0.0
 10
1342.763086
 20
157.450195
 30
0.0
 10
1346.285937
 20
156.179688
 30
0.0
 10
1349.562695
 20
154.794336
 30
0.0
 10
1352.587500
 20
153.300000
 30
0.0
 10
1355.354492
 20
151.702539
 30
0.0
 10
1357.857812
 20
150.007812
 30
0.0
 10
1360.091602
 20
148.221680
 30
0.0
 10
1362.050000
 20
146.350000
 30
0.0
 10
1363.727148
 20
144.398633
 30
0.0
 10
1365.117188
 20
142.373437
 30
0.0
 10
1366.214258
 20
140.280273
 30
0.0
 10
1367.012500
 20
138.125000
 30
0.0
 10
1367.506055
 20
135.913477
 30
0.0
 10
1367.689063
 20
133.651563
 30
0.0
 10
1367.555664
 20
131.345117
 30
0.0
 10
1367.100000
 20
129.000000
 30
0.0
 10
1366.504395
 20
127.098193
 30
0.0
 10
1365.761719
 20
125.288672
 30
0.0
 10
1364.863184
 20
123.565283
 30
0.0
 10
1363.800000
 20
121.921875
 30
0.0
 10
1362.563379
 20
120.352295
 30
0.0
 10
1361.144531
 20
118.850391
 30
0.0
 10
1359.534668
 20
117.410010
 30
0.0
 10
1357.725000
 20
116.025000
 30
0.0
 10
1355.706738
 20
114.689209
 30
0.0
 10
1353.471094
 20
113.396484
 30
0.0
 10
1348.312500
 20
110.915625
 30
0.0
 10
1342.178906
 20
108.533203
 30
0.0
 10
1335.000000
 20
106.200000
 30
0.0
 10
1332.482617
 20
105.695703
 30
0.0
 10
1327.779687
 20
105.296875
 30
0.0
 10
1319.540039
 20
104.987109
 30
0.0
 10
1306.412500
 20
104.750000
 30
0.0
 10
1260.089063
 20
104.428125
 30
0.0
 10
1178.000000
 20
104.200000
 30
0.0
 10
1026.500000
 20
103.900000
 30
0.0
 10
992.700000
 20
60.200000
 30
0.0
 10
952.900000
 20
8.700000
 30
0.0
 10
946.900000
 20
1.000000
 30
0.0
 10
1145.200000
 20
1.200000
 30
0.0
 10
1343.500000
 20
1.500000
 30
0.0
 10
1355.500000
 20
3.800000
 30
0.0
 10
1362.965454
 20
5.276855
 30
0.0
 10
1370.214258
 20
6.933594
 30
0.0
 10
1377.250073
 20
8.771973
 30
0.0
 10
1384.076562
 20
10.793750
 30
0.0
 10
1390.697388
 20
13.000684
 30
0.0
 10
1397.116211
 20
15.394531
 30
0.0
 10
1403.336694
 20
17.977051
 30
0.0
 10
1409.362500
 20
20.750000
 30
0.0
 10
1415.197290
 20
23.715137
 30
0.0
 10
1420.844727
 20
26.874219
 30
0.0
 10
1426.308472
 20
30.229004
 30
0.0
 10
1431.592187
 20
33.781250
 30
0.0
 10
1436.699536
 20
37.532715
 30
0.0
 10
1441.634180
 20
41.485156
 30
0.0
 10
1446.399780
 20
45.640332
 30
0.0
 10
1451.000000
 20
50.000000
 30
0.0
 10
1454.553711
 20
53.626172
 30
0.0
 10
1457.810937
 20
57.184375
 30
0.0
 10
1460.803320
 20
60.719141
 30
0.0
 10
1463.562500
 20
64.275000
 30
0.0
 10
1466.120117
 20
67.896484
 30
0.0
 10
1468.507813
 20
71.628125
 30
0.0
 10
1470.757227
 20
75.514453
 30
0.0
 10
1472.900000
 20
79.600000
 30
0.0
 10
1475.838672
 20
85.859766
 30
0.0
 10
1478.296875
 20
91.971875
 30
0.0
 10
1480.300391
 20
98.060547
 30
0.0
 10
1481.875000
 20
104.250000
 30
0.0
 10
1483.046484
 20
110.664453
 30
0.0
 10
1483.840625
 20
117.428125
 30
0.0
 10
1484.283203
 20
124.665234
 30
0.0
 10
1484.400000
 20
132.500000
 30
0.0
 10
1484.202734
 20
140.349609
 30
0.0
 10
1483.665625
 20
147.634375
 30
0.0
 10
1482.758203
 20
154.483203
 30
0.0
 10
1481.450000
 20
161.025000
 30
0.0
 10
1479.710547
 20
167.388672
 30
0.0
 10
1477.509375
 20
173.703125
 30
0.0
 10
1474.816016
 20
180.097266
 30
0.0
 10
1471.600000
 20
186.700000
 30
0.0
 10
1469.284961
 20
190.977148
 30
0.0
 10
1466.879688
 20
195.004687
 30
0.0
 10
1464.331445
 20
198.851758
 30
0.0
 10
1461.587500
 20
202.587500
 30
0.0
 10
1458.595117
 20
206.281055
 30
0.0
 10
1455.301563
 20
210.001563
 30
0.0
 10
1451.654102
 20
213.818164
 30
0.0
 10
1447.600000
 20
217.800000
 30
0.0
 10
1443.750000
 20
221.338696
 30
0.0
 10
1439.740625
 20
224.753320
 30
0.0
 10
1435.576562
 20
228.041675
 30
0.0
 10
1431.262500
 20
231.201563
 30
0.0
 10
1426.803125
 20
234.230786
 30
0.0
 10
1422.203125
 20
237.127148
 30
0.0
 10
1417.467187
 20
239.888452
 30
0.0
 10
1412.600000
 20
242.512500
 30
0.0
 10
1407.606250
 20
244.997095
 30
0.0
 10
1402.490625
 20
247.340039
 30
0.0
 10
1397.257812
 20
249.539136
 30
0.0
 10
1391.912500
 20
251.592188
 30
0.0
 10
1386.459375
 20
253.496997
 30
0.0
 10
1380.903125
 20
255.251367
 30
0.0
 10
1375.248437
 20
256.853101
 30
0.0
 10
1369.500000
 20
258.300000
 30
0.0
 10
1360.916992
 20
260.310352
 30
0.0
 10
1353.054688
 20
261.820312
 30
0.0
 10
1348.813354
 20
262.412915
 30
0.0
 10
1344.055664
 20
262.910742
 30
0.0
 10
1332.062500
 20
263.662500
 30
0.0
 10
1315.217773
 20
264.156445
 30
0.0
 10
1291.664062
 20
264.473438
 30
0.0
 10
1217.000000
 20
264.900000
 30
0.0
 10
1150.231250
 20
265.290625
 30
0.0
 10
1114.400000
 20
265.700000
 30
0.0
 10
1104.886719
 20
265.976172
 30
0.0
 10
1099.268750
 20
266.334375
 30
0.0
 10
1096.266406
 20
266.800391
 30
0.0
 10
1094.600000
 20
267.400000
 30
0.0
 10
1092.809180
 20
268.450977
 30
0.0
 10
1091.260938
 20
269.657813
 30
0.0
 10
1089.954102
 20
271.026367
 30
0.0
 10
1088.887500
 20
272.562500
 30
0.0
 10
1088.059961
 20
274.272070
 30
0.0
 10
1087.470313
 20
276.160938
 30
0.0
 10
1087.117383
 20
278.234961
 30
0.0
 10
1087.000000
 20
280.500000
 30
0.0
 10
1087.127930
 20
282.901758
 30
0.0
 10
1087.517188
 20
285.089063
 30
0.0
 10
1088.175977
 20
287.072461
 30
0.0
 10
1089.112500
 20
288.862500
 30
0.0
 10
1090.334961
 20
290.469727
 30
0.0
 10
1091.851562
 20
291.904687
 30
0.0
 10
1093.670508
 20
293.177930
 30
0.0
 10
1095.800000
 20
294.300000
 30
0.0
 10
1100.500000
 20
296.500000
 30
0.0
 10
1246.700000
 20
297.000000
 30
0.0
 10
1392.900000
 20
297.500000
 30
0.0
 10
1432.000000
 20
348.200000
 30
0.0
 10
1459.525000
 20
384.150000
 30
0.0
 10
1471.000000
 20
399.400000
 30
0.0
 10
1454.543359
 20
399.596875
 30
0.0
 10
1411.121875
 20
399.737500
 30
0.0
 10
1279.075000
 20
399.850000
 30
0.0
 10
1146.240625
 20
399.737500
 30
0.0
 10
1101.834766
 20
399.596875
 30
0.0
 10
1084.000000
 20
399.400000
 30
0.0
  0
LWPOLYLINE
  5
104
100
AcDbEntity
  8
0
 62
7
100
AcDbPolyline
 90
24
 70
1
 10
1557.100000
 20
393.800000
 30
0.0
 10
1517.600000
 20
342.500000
 30
0.0
 10
1483.000000
 20
297.500000
 30
0.0
 10
1565.000000
 20
297.200000
 30
0.0
 10
1647.000000
 20
297.000000
 30
0.0
 10
1647.000000
 20
149.000000
 30
0.0
 10
1647.000000
 20
1.000000
 30
0.0
 10
1709.000000
 20
1.000000
 30
0.0
 10
1771.000000
 20
1.000000
 30
0.0
 10
1771.200000
 20
148.800000
 30
0.0
 10
1771.500000
 20
296.500000
 30
0.0
 10
1831.600000
 20
296.800000
 30
0.0
 10
1891.700000
 20
297.000000
 30
0.0
 10
1930.600000
 20
347.200000
 30
0.0
 10
1958.325000
 20
382.950000
 30
0.0
 10
1970.300000
 20
398.600000
 30
0.0
 10
1970.012964
 20
398.813477
 30
0.0
 10
1968.786523
 20
399.004688
 30
0.0
 10
1962.898438
 20
399.325000
 30
0.0
 10
1951.401758
 20
399.570312
 30
0.0
 10
1933.062500
 20
399.750000
 30
0.0
 10
1870.920312
 20
399.950000
 30
0.0
 10
1766.600000
 20
400.000000
 30
0.0
 10
1562.000000
 20
400.000000
 30
0.0
  0
ENDSEC
  0
SECTION
  2
OBJECTS
  0
DICTIONARY
  5
C
330
0
100
AcDbDictionary
  3
ACAD_GROUP
350
D
  3
ACAD_MLINESTYLE
350
17
  0
DICTIONARY
  5
D
330
C
100
AcDbDictionary
  0
DICTIONARY
  5
1A
330
C
100
AcDbDictionary
  0
DICTIONARY
  5
17
330
C
100
AcDbDictionary
  3
STANDARD
350
18
  0
DICTIONARY
  5
19
330
C
100
AcDbDictionary
  0
ENDSEC
  0
EOF
