  0
SECTION
  2
HEADER
  9
$ACADVER
  1
AC1014
  9
$HANDSEED
  5
FFFF
  9
$INSUNITS
 70
     0
  9
$MEASUREMENT
 70
     1
  0
ENDSEC
  0
SECTION
  2
TABLES
  0
TABLE
  2
VPORT
  5
8
330
0
100
AcDbSymbolTable
 70
     4
  0
VPORT
  5
2E
330
8
100
AcDbSymbolTableRecord
100
AcDbViewportTableRecord
  2
*ACTIVE
 70
     0
 10
0.0
 20
0.0
 11
1.0
 21
1.0
 12
210.0
 22
148.5
 13
0.0
 23
0.0
 14
10.0
 24
10.0
 15
10.0
 25
10.0
 16
0.0
 26
0.0
 36
1.0
 17
0.0
 27
0.0
 37
0.0
 40
341.0
 41
1.24
 42
50.0
 43
0.0
 44
0.0
 50
0.0
 51
0.0
 71
     0
 72
   100
 73
     1
 74
     3
 75
     0
 76
     0
 77
     0
 78
     0
  0
ENDTAB
  0
TABLE
  2
LTYPE
  5
5
330
0
100
AcDbSymbolTable
 70
     1
  0
LTYPE
  5
14
330
5
100
AcDbSymbolTableRecord
100
AcDbLinetypeTableRecord
  2
BYBLOCK
 70
     0
  3

 72
    65
 73
     0
 40
0.0
  0
LTYPE
  5
15
330
5
100
AcDbSymbolTableRecord
100
AcDbLinetypeTableRecord
  2
BYLAYER
 70
     0
  3

 72
    65
 73
     0
 40
0.0
  0
LTYPE
  5
16
330
5
100
AcDbSymbolTableRecord
100
AcDbLinetypeTableRecord
  2
CONTINUOUS
 70
     0
  3
Solid line
 72
    65
 73
     0
 40
0.0
  0
ENDTAB
  0
TABLE
  2
LAYER
  5
2
100
AcDbSymbolTable
 70
1
  0
LAYER
  5
50
100
AcDbSymbolTableRecord
100
AcDbLayerTableRecord
  2
0
 70
0
  6
CONTINUOUS
  0
ENDTAB
  0
TABLE
  2
STYLE
  5
3
330
0
100
AcDbSymbolTable
 70
     1
  0
STYLE
  5
11
330
3
100
AcDbSymbolTableRecord
100
AcDbTextStyleTableRecord
  2
STANDARD
 70
     0
 40
0.0
 41
1.0
 50
0.0
 71
     0
 42
2.5
  3
txt
  4

  0
ENDTAB
  0
TABLE
  2
VIEW
  5
6
330
0
100
AcDbSymbolTable
 70
     0
  0
ENDTAB
  0
TABLE
  2
UCS
  5
7
330
0
100
AcDbSymbolTable
 70
     0
  0
ENDTAB
  0
TABLE
  2
APPID
  5
9
330
0
100
AcDbSymbolTable
 70
     2
  0
APPID
  5
12
330
9
100
AcDbSymbolTableRecord
100
AcDbRegAppTableRecord
  2
ACAD
 70
     0
  0
ENDTAB
  0
TABLE
  2
DIMSTYLE
  5
A
330
0
100
AcDbSymbolTable
 70
     1
  0
DIMSTYLE
105
27
330
A
100
AcDbSymbolTableRecord
100
AcDbDimStyleTableRecord
  2
ISO-25
 70
     0
  3

  4

  5

  6

  7

 40
1.0
 41
2.5
 42
0.625
 43
3.75
 44
1.25
 45
0.0
 46
0.0
 47
0.0
 48
0.0
140
2.5
141
2.5
142
0.0
143
0.03937007874016
144
1.0
145
0.0
146
1.0
147
0.625
 71
     0
 72
     0
 73
     0
 74
     0
 75
     0
 76
     0
 77
     1
 78
     8
170
     0
171
     3
172
     1
173
     0
174
     0
175
     0
176
     0
177
     0
178
     0
270
     2
271
     2
272
     2
273
     2
274
     3
340
11
275
     0
280
     0
281
     0
282
     0
283
     0
284
     8
285
     0
286
     0
287
     3
288
     0
  0
ENDTAB
  0
TABLE
  2
BLOCK_RECORD
  5
1
330
0
100
AcDbSymbolTable
 70
     1
  0
BLOCK_RECORD
  5
1F
330
1
100
AcDbSymbolTableRecord
100
AcDbBlockTableRecord
  2
*MODEL_SPACE
  0
BLOCK_RECORD
  5
1B
330
1
100
AcDbSymbolTableRecord
100
AcDbBlockTableRecord
  2
*PAPER_SPACE
  0
ENDTAB
  0
ENDSEC
  0
SECTION
  2
BLOCKS
  0
BLOCK
  5
20
330
1F
100
AcDbEntity
  8
0
100
AcDbBlockBegin
  2
*MODEL_SPACE
 70
     0
 10
0.0
 20
0.0
 30
0.0
  3
*MODEL_SPACE
  1

  0
ENDBLK
  5
21
330
1F
100
AcDbEntity
  8
0
100
AcDbBlockEnd
  0
BLOCK
  5
1C
330
1B
100
AcDbEntity
 67
     1
  8
0
100
AcDbBlockBegin
  2
*PAPER_SPACE
  1

  0
ENDBLK
  5
1D
330
1B
100
AcDbEntity
 67
     1
  8
0
100
AcDbBlockEnd
  0
ENDSEC
  0
SECTION
  2
ENTITIES
  0
LWPOLYLINE
  5
100
100
AcDbEntity
  8
0
 62
7
100
AcDbPolyline
 90
17
 70
1
 10
45.597000
 20
6.518000
 30
0.0
 10
45.389500
 20
4.850141
 30
0.0
 10
45.113320
 20
4.301732
 30
0.0
 10
44.707250
 20
3.909875
 30
0.0
 10
44.160086
 20
3.649221
 30
0.0
 10
43.460625
 20
3.494422
 30
0.0
 10
41.560000
 20
3.401000
 30
0.0
 10
39.997531
 20
3.585891
 30
0.0
 10
38.943000
 20
4.082875
 30
0.0
 10
38.346719
 20
4.805422
 30
0.0
 10
38.159000
 20
5.667000
 30
0.0
 10
38.347219
 20
6.557891
 30
0.0
 10
38.920750
 20
7.239625
 30
0.0
 10
39.892906
 20
7.675547
 30
0.0
 10
41.277000
 20
7.829000
 30
0.0
 10
45.597000
 20
7.829000
 30
0.0
 10
45.597000
 20
6.518000
 30
0.0
  0
LWPOLYLINE
  5
101
100
AcDbEntity
  8
0
 62
7
100
AcDbPolyline
 90
47
 70
1
 10
45.597000
 20
0.213000
 30
0.0
 10
49.210000
 20
0.213000
 30
0.0
 10
49.210000
 20
12.467000
 30
0.0
 10
49.070471
 20
13.991863
 30
0.0
 10
48.664891
 20
15.258281
 30
0.0
 10
48.012771
 20
16.283246
 30
0.0
 10
47.133625
 20
17.083750
 30
0.0
 10
46.046963
 20
17.676785
 30
0.0
 10
44.772297
 20
18.079344
 30
0.0
 10
43.329139
 20
18.308418
 30
0.0
 10
41.737000
 20
18.381000
 30
0.0
 10
39.849266
 20
18.240625
 30
0.0
 10
38.217375
 20
17.788250
 30
0.0
 10
36.831297
 20
16.977000
 30
0.0
 10
35.681000
 20
15.760000
 30
0.0
 10
38.514000
 20
13.600000
 30
0.0
 10
39.050031
 20
14.249359
 30
0.0
 10
39.749000
 20
14.676625
 30
0.0
 10
40.680469
 20
14.911328
 30
0.0
 10
41.914000
 20
14.983000
 30
0.0
 10
43.580016
 20
14.862078
 30
0.0
 10
44.724875
 20
14.468625
 30
0.0
 10
45.385047
 20
13.756609
 30
0.0
 10
45.597000
 20
12.680000
 30
0.0
 10
45.597000
 20
10.803000
 30
0.0
 10
40.603000
 20
10.803000
 30
0.0
 10
39.243691
 20
10.692340
 30
0.0
 10
38.061594
 20
10.376156
 30
0.0
 10
37.057949
 20
9.878145
 30
0.0
 10
36.234000
 20
9.222000
 30
0.0
 10
35.590988
 20
8.431418
 30
0.0
 10
35.130156
 20
7.530094
 30
0.0
 10
34.852746
 20
6.541723
 30
0.0
 10
34.760000
 20
5.490000
 30
0.0
 10
34.868234
 20
4.359182
 30
0.0
 10
35.187688
 20
3.317203
 30
0.0
 10
35.710484
 20
2.383154
 30
0.0
 10
36.428750
 20
1.576125
 30
0.0
 10
37.334609
 20
0.915205
 30
0.0
 10
38.420188
 20
0.419484
 30
0.0
 10
39.677609
 20
0.108053
 30
0.0
 10
41.099000
 20
-0.000000
 30
0.0
 10
42.717297
 20
0.107828
 30
0.0
 10
43.950375
 20
0.438125
 30
0.0
 10
44.864516
 20
1.001109
 30
0.0
 10
45.526000
 20
1.807000
 30
0.0
 10
45.597000
 20
1.807000
 30
0.0
  0
LWPOLYLINE
  5
102
100
AcDbEntity
  8
0
 62
7
100
AcDbPolyline
 90
23
 70
1
 10
53.178000
 20
0.213000
 30
0.0
 10
56.790000
 20
0.213000
 30
0.0
 10
56.790000
 20
11.016000
 30
0.0
 10
56.868053
 20
11.929244
 30
0.0
 10
57.088922
 20
12.707453
 30
0.0
 10
57.432674
 20
13.354717
 30
0.0
 10
57.879375
 20
13.875125
 30
0.0
 10
59.001891
 20
14.551734
 30
0.0
 10
60.297000
 20
14.770000
 30
0.0
 10
61.510125
 20
14.566125
 30
0.0
 10
62.670000
 20
13.883000
 30
0.0
 10
65.290000
 20
17.000000
 30
0.0
 10
64.444547
 20
17.574375
 30
0.0
 10
63.546125
 20
18.009250
 30
0.0
 10
62.581141
 20
18.284750
 30
0.0
 10
61.536000
 20
18.381000
 30
0.0
 10
60.158234
 20
18.248094
 30
0.0
 10
58.906375
 20
17.849500
 30
0.0
 10
57.800578
 20
17.185406
 30
0.0
 10
56.861000
 20
16.256000
 30
0.0
 10
56.790000
 20
16.256000
 30
0.0
 10
56.790000
 20
18.168000
 30
0.0
 10
53.178000
 20
18.168000
 30
0.0
  0
LWPOLYLINE
  5
103
100
AcDbEntity
  8
0
 62
7
100
AcDbPolyline
 90
28
 70
1
 10
72.553000
 20
14.770000
 30
0.0
 10
73.671318
 20
14.637031
 30
0.0
 10
74.526047
 20
14.264438
 30
0.0
 10
75.152471
 20
13.691688
 30
0.0
 10
75.585875
 20
12.958250
 30
0.0
 10
75.861545
 20
12.103594
 30
0.0
 10
76.014766
 20
11.167188
 30
0.0
 10
76.095000
 20
9.207000
 30
0.0
 10
76.014766
 20
7.227203
 30
0.0
 10
75.861545
 20
6.285217
 30
0.0
 10
75.585875
 20
5.427125
 30
0.0
 10
75.152471
 20
4.691893
 30
0.0
 10
74.526047
 20
4.118484
 30
0.0
 10
73.671318
 20
3.745865
 30
0.0
 10
72.553000
 20
3.613000
 30
0.0
 10
71.423129
 20
3.738646
 30
0.0
 10
70.559719
 20
4.093734
 30
0.0
 10
69.927074
 20
4.645486
 30
0.0
 10
69.489500
 20
5.361125
 30
0.0
 10
69.211301
 20
6.207873
 30
0.0
 10
69.056781
 20
7.152953
 30
0.0
 10
68.976000
 20
9.207000
 30
0.0
 10
69.056781
 20
11.242281
 30
0.0
 10
69.211301
 20
12.181816
 30
0.0
 10
69.489500
 20
13.025000
 30
0.0
 10
69.927074
 20
13.738621
 30
0.0
 10
70.559719
 20
14.289469
 30
0.0
 10
71.423129
 20
14.644332
 30
0.0
  0
LWPOLYLINE
  5
104
100
AcDbEntity
  8
0
 62
7
100
AcDbPolyline
 90
29
 70
1
 10
76.095000
 20
0.213000
 30
0.0
 10
79.707000
 20
0.213000
 30
0.0
 10
79.707000
 20
25.430000
 30
0.0
 10
76.095000
 20
25.430000
 30
0.0
 10
76.095000
 20
16.256000
 30
0.0
 10
75.061187
 20
17.125922
 30
0.0
 10
73.961000
 20
17.796625
 30
0.0
 10
72.767813
 20
18.228266
 30
0.0
 10
71.455000
 20
18.381000
 30
0.0
 10
69.920484
 20
18.205250
 30
0.0
 10
68.608625
 20
17.717500
 30
0.0
 10
67.515953
 20
16.977000
 30
0.0
 10
66.639000
 20
16.043000
 30
0.0
 10
66.021281
 20
15.055875
 30
0.0
 10
65.629500
 20
13.795750
 30
0.0
 10
65.423719
 20
11.950250
 30
0.0
 10
65.364000
 20
9.207000
 30
0.0
 10
65.423719
 20
6.445797
 30
0.0
 10
65.629500
 20
4.590875
 30
0.0
 10
66.021281
 20
3.326766
 30
0.0
 10
66.639000
 20
2.338000
 30
0.0
 10
67.515953
 20
1.404844
 30
0.0
 10
68.608625
 20
0.664250
 30
0.0
 10
69.920484
 20
0.176031
 30
0.0
 10
71.455000
 20
-0.000000
 30
0.0
 10
72.797766
 20
0.152469
 30
0.0
 10
74.040875
 20
0.580750
 30
0.0
 10
75.151047
 20
1.241156
 30
0.0
 10
76.095000
 20
2.090000
 30
0.0
  0
LWPOLYLINE
  5
105
100
AcDbEntity
  8
0
 62
7
100
AcDbPolyline
 90
16
 70
1
 10
118.186000
 20
6.518000
 30
0.0
 10
117.978500
 20
4.850141
 30
0.0
 10
117.702320
 20
4.301732
 30
0.0
 10
117.296250
 20
3.909875
 30
0.0
 10
116.749086
 20
3.649221
 30
0.0
 10
116.049625
 20
3.494422
 30
0.0
 10
114.149000
 20
3.401000
 30
0.0
 10
112.587109
 20
3.585891
 30
0.0
 10
111.532875
 20
4.082875
 30
0.0
 10
110.936703
 20
4.805422
 30
0.0
 10
110.749000
 20
5.667000
 30
0.0
 10
110.937203
 20
6.557891
 30
0.0
 10
111.510625
 20
7.239625
 30
0.0
 10
112.482484
 20
7.675547
 30
0.0
 10
113.866000
 20
7.829000
 30
0.0
 10
118.186000
 20
7.829000
 30
0.0
  0
LWPOLYLINE
  5
106
100
AcDbEntity
  8
0
 62
7
100
AcDbPolyline
 90
48
 70
1
 10
118.186000
 20
0.213000
 30
0.0
 10
121.799000
 20
0.213000
 30
0.0
 10
121.799000
 20
12.467000
 30
0.0
 10
121.659430
 20
13.991863
 30
0.0
 10
121.253750
 20
15.258281
 30
0.0
 10
120.601508
 20
16.283246
 30
0.0
 10
119.722250
 20
17.083750
 30
0.0
 10
118.635523
 20
17.676785
 30
0.0
 10
117.360875
 20
18.079344
 30
0.0
 10
115.917852
 20
18.308418
 30
0.0
 10
114.326000
 20
18.381000
 30
0.0
 10
112.438531
 20
18.240625
 30
0.0
 10
110.806250
 20
17.788250
 30
0.0
 10
109.419594
 20
16.977000
 30
0.0
 10
108.269000
 20
15.760000
 30
0.0
 10
111.103000
 20
13.600000
 30
0.0
 10
111.638719
 20
14.249359
 30
0.0
 10
112.337000
 20
14.676625
 30
0.0
 10
113.267781
 20
14.911328
 30
0.0
 10
114.501000
 20
14.983000
 30
0.0
 10
116.167594
 20
14.862078
 30
0.0
 10
117.312750
 20
14.468625
 30
0.0
 10
117.973031
 20
13.756609
 30
0.0
 10
118.185000
 20
12.680000
 30
0.0
 10
118.185000
 20
10.803000
 30
0.0
 10
113.191000
 20
10.803000
 30
0.0
 10
111.831936
 20
10.692340
 30
0.0
 10
110.649859
 20
10.376156
 30
0.0
 10
109.646072
 20
9.878145
 30
0.0
 10
108.821875
 20
9.222000
 30
0.0
 10
108.178568
 20
8.431418
 30
0.0
 10
107.717453
 20
7.530094
 30
0.0
 10
107.439830
 20
6.541723
 30
0.0
 10
107.347000
 20
5.490000
 30
0.0
 10
107.455277
 20
4.359182
 30
0.0
 10
107.774844
 20
3.317203
 30
0.0
 10
108.297801
 20
2.383154
 30
0.0
 10
109.016250
 20
1.576125
 30
0.0
 10
109.922293
 20
0.915205
 30
0.0
 10
111.008031
 20
0.419484
 30
0.0
 10
112.265566
 20
0.108053
 30
0.0
 10
113.687000
 20
-0.000000
 30
0.0
 10
115.304891
 20
0.107828
 30
0.0
 10
116.538125
 20
0.438125
 30
0.0
 10
117.452797
 20
1.001109
 30
0.0
 10
118.115000
 20
1.807000
 30
0.0
 10
118.185000
 20
1.807000
 30
0.0
 10
118.185000
 20
0.213000
 30
0.0
  0
LWPOLYLINE
  5
107
100
AcDbEntity
  8
0
 62
7
100
AcDbPolyline
 90
24
 70
1
 10
125.768000
 20
0.213000
 30
0.0
 10
129.379000
 20
0.213000
 30
0.0
 10
129.379000
 20
11.016000
 30
0.0
 10
129.456969
 20
11.929244
 30
0.0
 10
129.677625
 20
12.707453
 30
0.0
 10
130.021094
 20
13.354717
 30
0.0
 10
130.467500
 20
13.875125
 30
0.0
 10
131.589625
 20
14.551734
 30
0.0
 10
132.885000
 20
14.770000
 30
0.0
 10
134.098500
 20
14.566125
 30
0.0
 10
135.258000
 20
13.883000
 30
0.0
 10
137.879000
 20
17.000000
 30
0.0
 10
137.033266
 20
17.574375
 30
0.0
 10
136.134375
 20
18.009250
 30
0.0
 10
135.169297
 20
18.284750
 30
0.0
 10
134.125000
 20
18.381000
 30
0.0
 10
132.747391
 20
18.248094
 30
0.0
 10
131.495875
 20
17.849500
 30
0.0
 10
130.390422
 20
17.185406
 30
0.0
 10
129.451000
 20
16.256000
 30
0.0
 10
129.379000
 20
16.256000
 30
0.0
 10
129.379000
 20
18.168000
 30
0.0
 10
125.768000
 20
18.168000
 30
0.0
 10
125.768000
 20
0.213000
 30
0.0
  0
LWPOLYLINE
  5
108
100
AcDbEntity
  8
0
 62
7
100
AcDbPolyline
 90
14
 70
1
 10
141.559000
 20
10.803000
 30
0.0
 10
141.654748
 20
11.765557
 30
0.0
 10
141.881734
 20
12.606578
 30
0.0
 10
142.228322
 20
13.323967
 30
0.0
 10
142.682875
 20
13.915625
 30
0.0
 10
143.233756
 20
14.379455
 30
0.0
 10
143.869328
 20
14.713359
 30
0.0
 10
145.348000
 20
14.983000
 30
0.0
 10
146.821750
 20
14.713359
 30
0.0
 10
147.453016
 20
14.379455
 30
0.0
 10
148.000000
 20
13.915625
 30
0.0
 10
148.452297
 20
13.323967
 30
0.0
 10
148.799500
 20
12.606578
 30
0.0
 10
149.137000
 20
10.803000
 30
0.0
  0
LWPOLYLINE
  5
109
100
AcDbEntity
  8
0
 62
7
100
AcDbPolyline
 90
43
 70
1
 10
152.748000
 20
7.827000
 30
0.0
 10
152.748000
 20
10.804000
 30
0.0
 10
152.592699
 20
12.461518
 30
0.0
 10
152.149469
 20
13.945141
 30
0.0
 10
151.452316
 20
15.240350
 30
0.0
 10
150.535250
 20
16.332625
 30
0.0
 10
149.432277
 20
17.207447
 30
0.0
 10
148.177406
 20
17.850297
 30
0.0
 10
146.804645
 20
18.246654
 30
0.0
 10
145.348000
 20
18.382000
 30
0.0
 10
144.033389
 20
18.271008
 30
0.0
 10
142.727109
 20
17.918938
 30
0.0
 10
141.480619
 20
17.297148
 30
0.0
 10
140.345375
 20
16.377000
 30
0.0
 10
139.372834
 20
15.129852
 30
0.0
 10
138.614453
 20
13.527063
 30
0.0
 10
138.121689
 20
11.539992
 30
0.0
 10
137.946000
 20
9.140000
 30
0.0
 10
138.137316
 20
6.632174
 30
0.0
 10
138.673094
 20
4.604078
 30
0.0
 10
139.496074
 20
3.010912
 30
0.0
 10
140.549000
 20
1.807875
 30
0.0
 10
141.774613
 20
0.950166
 30
0.0
 10
143.115656
 20
0.392984
 30
0.0
 10
144.514871
 20
0.091529
 30
0.0
 10
145.915000
 20
0.001000
 30
0.0
 10
147.694328
 20
0.165906
 30
0.0
 10
149.393875
 20
0.682750
 30
0.0
 10
150.973984
 20
1.584719
 30
0.0
 10
152.395000
 20
2.905000
 30
0.0
 10
149.774000
 20
5.137000
 30
0.0
 10
148.905406
 20
4.401688
 30
0.0
 10
147.927500
 20
3.856500
 30
0.0
 10
146.890344
 20
3.517563
 30
0.0
 10
145.844000
 20
3.401000
 30
0.0
 10
144.947848
 20
3.470676
 30
0.0
 10
144.128219
 20
3.679406
 30
0.0
 10
143.398355
 20
4.026746
 30
0.0
 10
142.771500
 20
4.512250
 30
0.0
 10
142.260895
 20
5.135473
 30
0.0
 10
141.879781
 20
5.895969
 30
0.0
 10
141.641402
 20
6.793293
 30
0.0
 10
141.559000
 20
7.827000
 30
0.0
  0
LWPOLYLINE
  5
10a
100
AcDbEntity
  8
0
 62
7
100
AcDbPolyline
 90
28
 70
1
 10
11.191000
 20
37.534000
 30
0.0
 10
11.000875
 20
34.798125
 30
0.0
 10
10.728203
 20
33.988141
 30
0.0
 10
10.306000
 20
33.284000
 30
0.0
 10
9.802047
 20
32.765281
 30
0.0
 10
9.119125
 20
32.349500
 30
0.0
 10
8.303641
 20
32.073219
 30
0.0
 10
7.402000
 20
31.973000
 30
0.0
 10
6.499797
 20
32.073078
 30
0.0
 10
5.684125
 20
32.349125
 30
0.0
 10
5.001391
 20
32.764859
 30
0.0
 10
4.498000
 20
33.284000
 30
0.0
 10
4.075641
 20
33.988687
 30
0.0
 10
3.802625
 20
34.802500
 30
0.0
 10
3.612000
 20
37.569000
 30
0.0
 10
3.802625
 20
40.305625
 30
0.0
 10
4.075641
 20
41.115703
 30
0.0
 10
4.498000
 20
41.819000
 30
0.0
 10
5.001391
 20
42.337719
 30
0.0
 10
5.684125
 20
42.753500
 30
0.0
 10
6.499797
 20
43.029781
 30
0.0
 10
7.402000
 20
43.130000
 30
0.0
 10
8.303641
 20
43.029922
 30
0.0
 10
9.119125
 20
42.753875
 30
0.0
 10
9.802047
 20
42.338141
 30
0.0
 10
10.306000
 20
41.819000
 30
0.0
 10
10.728203
 20
41.115156
 30
0.0
 10
11.000875
 20
40.301250
 30
0.0
  0
LWPOLYLINE
  5
10b
100
AcDbEntity
  8
0
 62
7
100
AcDbPolyline
 90
32
 70
1
 10
0.000000
 20
37.569000
 30
0.0
 10
0.110016
 20
35.060906
 30
0.0
 10
0.455625
 20
33.226500
 30
0.0
 10
1.060172
 20
31.836844
 30
0.0
 10
1.947000
 20
30.663000
 30
0.0
 10
2.824375
 20
29.840250
 30
0.0
 10
3.997250
 20
29.100750
 30
0.0
 10
5.508750
 20
28.567125
 30
0.0
 10
7.402000
 20
28.362000
 30
0.0
 10
9.294672
 20
28.567125
 30
0.0
 10
10.805875
 20
29.100750
 30
0.0
 10
11.978641
 20
29.840250
 30
0.0
 10
12.856000
 20
30.663000
 30
0.0
 10
13.742984
 20
31.836984
 30
0.0
 10
14.347875
 20
33.226875
 30
0.0
 10
14.693828
 20
35.061328
 30
0.0
 10
14.804000
 20
37.569000
 30
0.0
 10
14.693828
 20
40.057281
 30
0.0
 10
14.347875
 20
41.881250
 30
0.0
 10
13.742984
 20
43.266844
 30
0.0
 10
12.856000
 20
44.440000
 30
0.0
 10
11.978641
 20
45.263063
 30
0.0
 10
10.805875
 20
46.003250
 30
0.0
 10
9.294672
 20
46.537562
 30
0.0
 10
7.402000
 20
46.743000
 30
0.0
 10
5.508750
 20
46.537562
 30
0.0
 10
3.997250
 20
46.003250
 30
0.0
 10
2.824375
 20
45.263062
 30
0.0
 10
1.947000
 20
44.440000
 30
0.0
 10
1.060172
 20
43.266422
 30
0.0
 10
0.455625
 20
41.880875
 30
0.0
 10
0.110016
 20
40.057141
 30
0.0
  0
LWPOLYLINE
  5
10c
100
AcDbEntity
  8
0
 62
7
100
AcDbPolyline
 90
14
 70
1
 10
38.278000
 20
39.162000
 30
0.0
 10
38.374078
 20
40.125131
 30
0.0
 10
38.601312
 20
40.966422
 30
0.0
 10
38.948078
 20
41.683846
 30
0.0
 10
39.402750
 20
42.275375
 30
0.0
 10
39.953703
 20
42.738982
 30
0.0
 10
40.589312
 20
43.072641
 30
0.0
 10
42.068000
 20
43.342000
 30
0.0
 10
43.541609
 20
43.072641
 30
0.0
 10
44.172752
 20
42.738982
 30
0.0
 10
44.719625
 20
42.275375
 30
0.0
 10
45.171857
 20
41.683846
 30
0.0
 10
45.519078
 20
40.966422
 30
0.0
 10
45.857000
 20
39.162000
 30
0.0
  0
LWPOLYLINE
  5
10d
100
AcDbEntity
  8
0
 62
7
100
AcDbPolyline
 90
43
 70
1
 10
49.469000
 20
36.188000
 30
0.0
 10
49.469000
 20
39.163000
 30
0.0
 10
49.313656
 20
40.821178
 30
0.0
 10
48.870312
 20
42.305297
 30
0.0
 10
48.173000
 20
43.600861
 30
0.0
 10
47.255750
 20
44.693375
 30
0.0
 10
46.152594
 20
45.568342
 30
0.0
 10
44.897563
 20
46.211266
 30
0.0
 10
43.524687
 20
46.607650
 30
0.0
 10
42.068000
 20
46.743000
 30
0.0
 10
40.753102
 20
46.631922
 30
0.0
 10
39.446687
 20
46.279625
 30
0.0
 10
38.200180
 20
45.657516
 30
0.0
 10
37.065000
 20
44.737000
 30
0.0
 10
36.092570
 20
43.489484
 30
0.0
 10
35.334312
 20
41.886375
 30
0.0
 10
34.841648
 20
39.899078
 30
0.0
 10
34.666000
 20
37.499000
 30
0.0
 10
34.857314
 20
34.991834
 30
0.0
 10
35.393078
 20
32.964234
 30
0.0
 10
36.216021
 20
31.371424
 30
0.0
 10
37.268875
 20
30.168625
 30
0.0
 10
38.494369
 20
29.311061
 30
0.0
 10
39.835234
 20
28.753953
 30
0.0
 10
41.234201
 20
28.452525
 30
0.0
 10
42.634000
 20
28.362000
 30
0.0
 10
44.413906
 20
28.526906
 30
0.0
 10
46.113750
 20
29.043750
 30
0.0
 10
47.693969
 20
29.945719
 30
0.0
 10
49.115000
 20
31.266000
 30
0.0
 10
46.494000
 20
33.496000
 30
0.0
 10
45.626109
 20
32.761531
 30
0.0
 10
44.648625
 20
32.216250
 30
0.0
 10
43.611328
 20
31.876844
 30
0.0
 10
42.564000
 20
31.760000
 30
0.0
 10
41.667805
 20
31.829680
 30
0.0
 10
40.848062
 20
32.038437
 30
0.0
 10
40.118039
 20
32.385852
 30
0.0
 10
39.491000
 20
32.871500
 30
0.0
 10
38.980211
 20
33.494961
 30
0.0
 10
38.598937
 20
34.255812
 30
0.0
 10
38.360445
 20
35.153633
 30
0.0
 10
38.278000
 20
36.188000
 30
0.0
  0
LWPOLYLINE
  5
10e
100
AcDbEntity
  8
0
 62
7
100
AcDbPolyline
 90
32
 70
1
 10
52.552000
 20
28.575000
 30
0.0
 10
56.164000
 20
28.575000
 30
0.0
 10
56.164000
 20
39.268000
 30
0.0
 10
56.434063
 20
40.902766
 30
0.0
 10
56.754203
 20
41.564107
 30
0.0
 10
57.182250
 20
42.115375
 30
0.0
 10
58.315562
 20
42.869547
 30
0.0
 10
59.741000
 20
43.129000
 30
0.0
 10
61.146203
 20
42.869547
 30
0.0
 10
62.269125
 20
42.115375
 30
0.0
 10
62.694643
 20
41.564107
 30
0.0
 10
63.013484
 20
40.902766
 30
0.0
 10
63.283000
 20
39.268000
 30
0.0
 10
63.283000
 20
28.575000
 30
0.0
 10
66.895000
 20
28.575000
 30
0.0
 10
66.895000
 20
40.509000
 30
0.0
 10
66.752594
 20
41.946551
 30
0.0
 10
66.353312
 20
43.201781
 30
0.0
 10
65.739063
 20
44.271809
 30
0.0
 10
64.951750
 20
45.153750
 30
0.0
 10
64.033281
 20
45.844723
 30
0.0
 10
63.025562
 20
46.341844
 30
0.0
 10
61.970500
 20
46.642230
 30
0.0
 10
60.910000
 20
46.743000
 30
0.0
 10
59.532250
 20
46.610094
 30
0.0
 10
58.280500
 20
46.211500
 30
0.0
 10
57.175000
 20
45.547406
 30
0.0
 10
56.236000
 20
44.618000
 30
0.0
 10
56.164000
 20
44.618000
 30
0.0
 10
56.164000
 20
46.530000
 30
0.0
 10
52.552000
 20
46.530000
 30
0.0
 10
52.552000
 20
28.575000
 30
0.0
  0
LWPOLYLINE
  5
10f
100
AcDbEntity
  8
0
 62
7
100
AcDbPolyline
 90
68
 70
1
 10
76.662000
 20
31.584000
 30
0.0
 10
78.458844
 20
30.169156
 30
0.0
 10
80.385250
 20
29.162500
 30
0.0
 10
82.424531
 20
28.560844
 30
0.0
 10
84.560000
 20
28.361000
 30
0.0
 10
86.079389
 20
28.454561
 30
0.0
 10
87.485047
 20
28.731109
 30
0.0
 10
88.749588
 20
29.184447
 30
0.0
 10
89.845625
 20
29.808375
 30
0.0
 10
90.745771
 20
30.596693
 30
0.0
 10
91.422641
 20
31.543203
 30
0.0
 10
91.848846
 20
32.641705
 30
0.0
 10
91.997000
 20
33.886000
 30
0.0
 10
91.925883
 20
34.930271
 30
0.0
 10
91.706687
 20
35.901734
 30
0.0
 10
91.330648
 20
36.783736
 30
0.0
 10
90.789000
 20
37.559625
 30
0.0
 10
90.072977
 20
38.212748
 30
0.0
 10
89.173812
 20
38.726453
 30
0.0
 10
88.082742
 20
39.084088
 30
0.0
 10
86.791000
 20
39.269000
 30
0.0
 10
83.816000
 20
39.480000
 30
0.0
 10
82.683469
 20
39.696563
 30
0.0
 10
81.952750
 20
40.092000
 30
0.0
 10
81.560656
 20
40.606688
 30
0.0
 10
81.444000
 20
41.181000
 30
0.0
 10
81.601672
 20
42.040781
 30
0.0
 10
82.121125
 20
42.725250
 30
0.0
 10
83.072016
 20
43.177594
 30
0.0
 10
84.524000
 20
43.341000
 30
0.0
 10
85.899922
 20
43.220219
 30
0.0
 10
87.132875
 20
42.880250
 30
0.0
 10
88.265891
 20
42.354656
 30
0.0
 10
89.342000
 20
41.677000
 30
0.0
 10
91.572000
 20
44.296000
 30
0.0
 10
90.166984
 20
45.305781
 30
0.0
 10
88.566125
 20
46.076500
 30
0.0
 10
86.705953
 20
46.568219
 30
0.0
 10
84.523000
 20
46.741000
 30
0.0
 10
83.147553
 20
46.653223
 30
0.0
 10
81.878734
 20
46.390719
 30
0.0
 10
80.740205
 20
45.954730
 30
0.0
 10
79.755625
 20
45.346500
 30
0.0
 10
78.948654
 20
44.567270
 30
0.0
 10
78.342953
 20
43.618281
 30
0.0
 10
77.962182
 20
42.500777
 30
0.0
 10
77.830000
 20
41.216000
 30
0.0
 10
77.930168
 20
40.122734
 30
0.0
 10
78.219594
 20
39.154625
 30
0.0
 10
78.681660
 20
38.314203
 30
0.0
 10
79.299750
 20
37.604000
 30
0.0
 10
80.057246
 20
37.026547
 30
0.0
 10
80.937531
 20
36.584375
 30
0.0
 10
81.923988
 20
36.280016
 30
0.0
 10
83.000000
 20
36.116000
 30
0.0
 10
86.188000
 20
35.833000
 30
0.0
 10
87.054672
 20
35.691281
 30
0.0
 10
87.751375
 20
35.386250
 30
0.0
 10
88.215391
 20
34.861844
 30
0.0
 10
88.384000
 20
34.062000
 30
0.0
 10
88.119266
 20
33.059953
 30
0.0
 10
87.382875
 20
32.340375
 30
0.0
 10
86.261547
 20
31.906359
 30
0.0
 10
84.842000
 20
31.761000
 30
0.0
 10
83.159906
 20
31.906219
 30
0.0
 10
81.690250
 20
32.340000
 30
0.0
 10
80.379969
 20
33.059531
 30
0.0
 10
79.176000
 20
34.062000
 30
0.0
  0
LWPOLYLINE
  5
110
100
AcDbEntity
  8
0
 62
7
100
AcDbPolyline
 90
28
 70
1
 10
105.242000
 20
37.534000
 30
0.0
 10
105.052250
 20
34.798125
 30
0.0
 10
104.779625
 20
33.988141
 30
0.0
 10
104.357000
 20
33.284000
 30
0.0
 10
103.853609
 20
32.765281
 30
0.0
 10
103.170875
 20
32.349500
 30
0.0
 10
102.355203
 20
32.073219
 30
0.0
 10
101.453000
 20
31.973000
 30
0.0
 10
100.551672
 20
32.073078
 30
0.0
 10
99.736125
 20
32.349125
 30
0.0
 10
99.053516
 20
32.764859
 30
0.0
 10
98.551000
 20
33.284000
 30
0.0
 10
98.128062
 20
33.988687
 30
0.0
 10
97.854750
 20
34.802500
 30
0.0
 10
97.664000
 20
37.569000
 30
0.0
 10
97.854750
 20
40.305625
 30
0.0
 10
98.128062
 20
41.115703
 30
0.0
 10
98.551000
 20
41.819000
 30
0.0
 10
99.053516
 20
42.337719
 30
0.0
 10
99.736125
 20
42.753500
 30
0.0
 10
100.551672
 20
43.029781
 30
0.0
 10
101.453000
 20
43.130000
 30
0.0
 10
102.355203
 20
43.029922
 30
0.0
 10
103.170875
 20
42.753875
 30
0.0
 10
103.853609
 20
42.338141
 30
0.0
 10
104.357000
 20
41.819000
 30
0.0
 10
104.779625
 20
41.115156
 30
0.0
 10
105.052250
 20
40.301250
 30
0.0
  0
LWPOLYLINE
  5
111
100
AcDbEntity
  8
0
 62
7
100
AcDbPolyline
 90
32
 70
1
 10
94.051000
 20
37.569000
 30
0.0
 10
94.161328
 20
35.060906
 30
0.0
 10
94.507625
 20
33.226500
 30
0.0
 10
95.112859
 20
31.836844
 30
0.0
 10
96.000000
 20
30.663000
 30
0.0
 10
96.877203
 20
29.840250
 30
0.0
 10
98.049625
 20
29.100750
 30
0.0
 10
99.560484
 20
28.567125
 30
0.0
 10
101.453000
 20
28.362000
 30
0.0
 10
103.346672
 20
28.567125
 30
0.0
 10
104.858125
 20
29.100750
 30
0.0
 10
106.030766
 20
29.840250
 30
0.0
 10
106.908000
 20
30.663000
 30
0.0
 10
107.794828
 20
31.836984
 30
0.0
 10
108.399375
 20
33.226875
 30
0.0
 10
108.744984
 20
35.061328
 30
0.0
 10
108.855000
 20
37.569000
 30
0.0
 10
108.744984
 20
40.057281
 30
0.0
 10
108.399375
 20
41.881250
 30
0.0
 10
107.794828
 20
43.266844
 30
0.0
 10
106.908000
 20
44.440000
 30
0.0
 10
106.030766
 20
45.263063
 30
0.0
 10
104.858125
 20
46.003250
 30
0.0
 10
103.346672
 20
46.537562
 30
0.0
 10
101.453000
 20
46.743000
 30
0.0
 10
99.560484
 20
46.537562
 30
0.0
 10
98.049625
 20
46.003250
 30
0.0
 10
96.877203
 20
45.263062
 30
0.0
 10
96.000000
 20
44.440000
 30
0.0
 10
95.112859
 20
43.266422
 30
0.0
 10
94.507625
 20
41.880875
 30
0.0
 10
94.161328
 20
40.057141
 30
0.0
  0
LWPOLYLINE
  5
112
100
AcDbEntity
  8
0
 62
7
100
AcDbPolyline
 90
32
 70
1
 10
111.939000
 20
34.594000
 30
0.0
 10
112.081518
 20
33.157109
 30
0.0
 10
112.481391
 20
31.902375
 30
0.0
 10
113.097100
 20
30.832703
 30
0.0
 10
113.887125
 20
29.951000
 30
0.0
 10
114.809947
 20
29.260172
 30
0.0
 10
115.824047
 20
28.763125
 30
0.0
 10
116.887904
 20
28.462766
 30
0.0
 10
117.960000
 20
28.362000
 30
0.0
 10
119.316531
 20
28.494906
 30
0.0
 10
120.557750
 20
28.893500
 30
0.0
 10
121.659844
 20
29.557594
 30
0.0
 10
122.599000
 20
30.487000
 30
0.0
 10
122.669000
 20
30.487000
 30
0.0
 10
122.669000
 20
28.573000
 30
0.0
 10
126.280000
 20
28.573000
 30
0.0
 10
126.280000
 20
46.530000
 30
0.0
 10
122.669000
 20
46.530000
 30
0.0
 10
122.669000
 20
35.835000
 30
0.0
 10
122.399469
 20
34.201078
 30
0.0
 10
122.080590
 20
33.539771
 30
0.0
 10
121.655000
 20
32.988375
 30
0.0
 10
120.531781
 20
32.233734
 30
0.0
 10
119.126000
 20
31.974000
 30
0.0
 10
117.701141
 20
32.233734
 30
0.0
 10
116.568125
 20
32.988375
 30
0.0
 10
116.140150
 20
33.539771
 30
0.0
 10
115.820047
 20
34.201078
 30
0.0
 10
115.550000
 20
35.835000
 30
0.0
 10
115.550000
 20
46.530000
 30
0.0
 10
111.939000
 20
46.530000
 30
0.0
 10
111.939000
 20
34.594000
 30
0.0
  0
LWPOLYLINE
  5
113
100
AcDbEntity
  8
0
 62
7
100
AcDbPolyline
 90
24
 70
1
 10
130.242000
 20
28.575000
 30
0.0
 10
133.855000
 20
28.575000
 30
0.0
 10
133.855000
 20
39.376000
 30
0.0
 10
133.932969
 20
40.289818
 30
0.0
 10
134.153625
 20
41.068297
 30
0.0
 10
134.497094
 20
41.715596
 30
0.0
 10
134.943500
 20
42.235875
 30
0.0
 10
136.065625
 20
42.912016
 30
0.0
 10
137.361000
 20
43.130000
 30
0.0
 10
138.574500
 20
42.926375
 30
0.0
 10
139.734000
 20
42.245000
 30
0.0
 10
142.355000
 20
45.362000
 30
0.0
 10
141.508703
 20
45.936375
 30
0.0
 10
140.610375
 20
46.371250
 30
0.0
 10
139.645859
 20
46.646750
 30
0.0
 10
138.601000
 20
46.743000
 30
0.0
 10
137.223078
 20
46.610094
 30
0.0
 10
135.970875
 20
46.211500
 30
0.0
 10
134.864734
 20
45.547406
 30
0.0
 10
133.925000
 20
44.618000
 30
0.0
 10
133.855000
 20
44.618000
 30
0.0
 10
133.855000
 20
46.530000
 30
0.0
 10
130.242000
 20
46.530000
 30
0.0
 10
130.242000
 20
28.575000
 30
0.0
  0
LWPOLYLINE
  5
114
100
AcDbEntity
  8
0
 62
7
100
AcDbPolyline
 90
50
 70
1
 10
153.859000
 20
33.850000
 30
0.0
 10
153.124922
 20
33.093500
 30
0.0
 10
152.261375
 20
32.499750
 30
0.0
 10
151.285141
 20
32.111875
 30
0.0
 10
150.213000
 20
31.973000
 30
0.0
 10
149.168264
 20
32.052197
 30
0.0
 10
148.242484
 20
32.294203
 30
0.0
 10
147.441932
 20
32.705639
 30
0.0
 10
146.772875
 20
33.293125
 30
0.0
 10
146.241584
 20
34.063283
 30
0.0
 10
145.854328
 20
35.022734
 30
0.0
 10
145.617377
 20
36.178100
 30
0.0
 10
145.537000
 20
37.536000
 30
0.0
 10
145.617336
 20
38.904707
 30
0.0
 10
145.854188
 20
40.068031
 30
0.0
 10
146.241320
 20
41.033027
 30
0.0
 10
146.772500
 20
41.806750
 30
0.0
 10
147.441492
 20
42.396254
 30
0.0
 10
148.242063
 20
42.808594
 30
0.0
 10
149.167977
 20
43.050824
 30
0.0
 10
150.213000
 20
43.130000
 30
0.0
 10
151.285281
 20
42.991125
 30
0.0
 10
152.261750
 20
42.603250
 30
0.0
 10
153.125344
 20
42.009500
 30
0.0
 10
153.859000
 20
41.253000
 30
0.0
 10
156.515000
 20
43.626000
 30
0.0
 10
155.234453
 20
44.875359
 30
0.0
 10
153.730875
 20
45.862125
 30
0.0
 10
152.008109
 20
46.510078
 30
0.0
 10
150.070000
 20
46.743000
 30
0.0
 10
148.530525
 20
46.617516
 30
0.0
 10
147.049516
 20
46.230562
 30
0.0
 10
145.672217
 20
45.566391
 30
0.0
 10
144.443875
 20
44.609250
 30
0.0
 10
143.409736
 20
43.343391
 30
0.0
 10
142.615047
 20
41.753062
 30
0.0
 10
142.105053
 20
39.822516
 30
0.0
 10
141.925000
 20
37.536000
 30
0.0
 10
142.105053
 20
35.259803
 30
0.0
 10
142.615047
 20
33.337172
 30
0.0
 10
143.409736
 20
31.752674
 30
0.0
 10
144.443875
 20
30.490875
 30
0.0
 10
145.672217
 20
29.536342
 30
0.0
 10
147.049516
 20
28.873641
 30
0.0
 10
148.530525
 20
28.487338
 30
0.0
 10
150.070000
 20
28.362000
 30
0.0
 10
152.008672
 20
28.595031
 30
0.0
 10
153.731625
 20
29.243000
 30
0.0
 10
155.235016
 20
30.229219
 30
0.0
 10
156.515000
 20
31.477000
 30
0.0
  0
LWPOLYLINE
  5
115
100
AcDbEntity
  8
0
 62
7
100
AcDbPolyline
 90
14
 70
1
 10
161.047000
 20
39.162000
 30
0.0
 10
161.142748
 20
40.125131
 30
0.0
 10
161.369734
 20
40.966422
 30
0.0
 10
161.716322
 20
41.683846
 30
0.0
 10
162.170875
 20
42.275375
 30
0.0
 10
162.721756
 20
42.738982
 30
0.0
 10
163.357328
 20
43.072641
 30
0.0
 10
164.836000
 20
43.342000
 30
0.0
 10
166.309469
 20
43.072641
 30
0.0
 10
166.940488
 20
42.738982
 30
0.0
 10
167.487250
 20
42.275375
 30
0.0
 10
167.939418
 20
41.683846
 30
0.0
 10
168.286656
 20
40.966422
 30
0.0
 10
168.625000
 20
39.162000
 30
0.0
  0
LWPOLYLINE
  5
116
100
AcDbEntity
  8
0
 62
7
100
AcDbPolyline
 90
43
 70
1
 10
172.238000
 20
36.188000
 30
0.0
 10
172.238000
 20
39.163000
 30
0.0
 10
172.082531
 20
40.821178
 30
0.0
 10
171.638875
 20
42.305297
 30
0.0
 10
170.941156
 20
43.600861
 30
0.0
 10
170.023500
 20
44.693375
 30
0.0
 10
168.920031
 20
45.568342
 30
0.0
 10
167.664875
 20
46.211266
 30
0.0
 10
166.292156
 20
46.607650
 30
0.0
 10
164.836000
 20
46.743000
 30
0.0
 10
163.520814
 20
46.631922
 30
0.0
 10
162.214266
 20
46.279625
 30
0.0
 10
160.967740
 20
45.657516
 30
0.0
 10
159.832625
 20
44.737000
 30
0.0
 10
158.860307
 20
43.489484
 30
0.0
 10
158.102172
 20
41.886375
 30
0.0
 10
157.609607
 20
39.899078
 30
0.0
 10
157.434000
 20
37.499000
 30
0.0
 10
157.625316
 20
34.991834
 30
0.0
 10
158.161094
 20
32.964234
 30
0.0
 10
158.984074
 20
31.371424
 30
0.0
 10
160.037000
 20
30.168625
 30
0.0
 10
161.262613
 20
29.311061
 30
0.0
 10
162.603656
 20
28.753953
 30
0.0
 10
164.002871
 20
28.452525
 30
0.0
 10
165.403000
 20
28.362000
 30
0.0
 10
167.182609
 20
28.526906
 30
0.0
 10
168.882625
 20
29.043750
 30
0.0
 10
170.462828
 20
29.945719
 30
0.0
 10
171.883000
 20
31.266000
 30
0.0
 10
169.262000
 20
33.496000
 30
0.0
 10
168.393687
 20
32.761531
 30
0.0
 10
167.416250
 20
32.216250
 30
0.0
 10
166.379188
 20
31.876844
 30
0.0
 10
165.332000
 20
31.760000
 30
0.0
 10
164.435848
 20
31.829680
 30
0.0
 10
163.616219
 20
32.038437
 30
0.0
 10
162.886355
 20
32.385852
 30
0.0
 10
162.259500
 20
32.871500
 30
0.0
 10
161.748895
 20
33.494961
 30
0.0
 10
161.367781
 20
34.255812
 30
0.0
 10
161.129402
 20
35.153633
 30
0.0
 10
161.047000
 20
36.188000
 30
0.0
  0
LWPOLYLINE
  5
117
100
AcDbEntity
  8
0
 62
7
100
AcDbPolyline
 90
55
 70
1
 10
17.873000
 20
0.213000
 30
0.0
 10
17.873000
 20
46.529000
 30
0.0
 10
21.499000
 20
46.529000
 30
0.0
 10
21.499000
 20
44.652000
 30
0.0
 10
22.443375
 20
45.501687
 30
0.0
 10
23.553500
 20
46.162000
 30
0.0
 10
24.796375
 20
46.589812
 30
0.0
 10
26.139000
 20
46.742000
 30
0.0
 10
27.673250
 20
46.565969
 30
0.0
 10
28.985500
 20
46.077750
 30
0.0
 10
30.078750
 20
45.337156
 30
0.0
 10
30.956000
 20
44.404000
 30
0.0
 10
31.573141
 20
43.415203
 30
0.0
 10
31.964625
 20
42.150875
 30
0.0
 10
32.170297
 20
40.295359
 30
0.0
 10
32.230000
 20
37.533000
 30
0.0
 10
32.170297
 20
34.791750
 30
0.0
 10
31.964625
 20
32.946750
 30
0.0
 10
31.573141
 20
31.686375
 30
0.0
 10
30.956000
 20
30.699000
 30
0.0
 10
30.078750
 20
29.765844
 30
0.0
 10
28.985500
 20
29.025250
 30
0.0
 10
27.673250
 20
28.537031
 30
0.0
 10
26.139000
 20
28.361000
 30
0.0
 10
24.826188
 20
28.513734
 30
0.0
 10
23.633000
 20
28.945375
 30
0.0
 10
22.532813
 20
29.616078
 30
0.0
 10
21.499000
 20
30.486000
 30
0.0
 10
21.486000
 20
16.256000
 30
0.0
 10
22.466469
 20
17.185406
 30
0.0
 10
23.593000
 20
17.849500
 30
0.0
 10
24.852281
 20
18.248094
 30
0.0
 10
26.231000
 20
18.381000
 30
0.0
 10
27.291500
 20
18.280234
 30
0.0
 10
28.346563
 20
17.979875
 30
0.0
 10
29.354281
 20
17.482828
 30
0.0
 10
30.272750
 20
16.792000
 30
0.0
 10
31.060063
 20
15.910297
 30
0.0
 10
31.674312
 20
14.840625
 30
0.0
 10
32.073594
 20
13.585891
 30
0.0
 10
32.216000
 20
12.149000
 30
0.0
 10
32.216000
 20
0.213000
 30
0.0
 10
28.604000
 20
0.213000
 30
0.0
 10
28.604000
 20
10.908000
 30
0.0
 10
28.334484
 20
12.542766
 30
0.0
 10
28.015643
 20
13.204107
 30
0.0
 10
27.590125
 20
13.755375
 30
0.0
 10
26.467203
 20
14.509547
 30
0.0
 10
25.062000
 20
14.769000
 30
0.0
 10
23.636719
 20
14.509547
 30
0.0
 10
22.503750
 20
13.755375
 30
0.0
 10
22.075887
 20
13.204107
 30
0.0
 10
21.755906
 20
12.542766
 30
0.0
 10
21.486000
 20
10.908000
 30
0.0
 10
21.486000
 20
0.213000
 30
0.0
  0
LWPOLYLINE
  5
118
100
AcDbEntity
  8
0
 62
7
100
AcDbPolyline
 90
28
 70
1
 10
25.041000
 20
31.973000
 30
0.0
 10
26.170871
 20
32.098664
 30
0.0
 10
27.034281
 20
32.453500
 30
0.0
 10
27.666926
 20
33.004273
 30
0.0
 10
28.104500
 20
33.717750
 30
0.0
 10
28.382699
 20
34.560695
 30
0.0
 10
28.537219
 20
35.499875
 30
0.0
 10
28.618000
 20
37.534000
 30
0.0
 10
28.537219
 20
39.589203
 30
0.0
 10
28.382699
 20
40.534639
 30
0.0
 10
28.104500
 20
41.381625
 30
0.0
 10
27.666926
 20
42.097408
 30
0.0
 10
27.034281
 20
42.649234
 30
0.0
 10
26.170871
 20
43.004350
 30
0.0
 10
25.041000
 20
43.130000
 30
0.0
 10
23.922969
 20
42.997049
 30
0.0
 10
23.068375
 20
42.624203
 30
0.0
 10
22.441969
 20
42.050475
 30
0.0
 10
22.008500
 20
41.314875
 30
0.0
 10
21.732719
 20
40.456416
 30
0.0
 10
21.579375
 20
39.514109
 30
0.0
 10
21.499000
 20
37.534000
 30
0.0
 10
21.579234
 20
35.574125
 30
0.0
 10
21.732455
 20
34.638039
 30
0.0
 10
22.008125
 20
33.783750
 30
0.0
 10
22.441529
 20
33.050680
 30
0.0
 10
23.067953
 20
32.478250
 30
0.0
 10
23.922682
 20
32.105883
 30
0.0
  0
LWPOLYLINE
  5
119
100
AcDbEntity
  8
0
 62
7
100
AcDbPolyline
 90
140
 70
1
 10
149.462000
 20
107.443000
 30
0.0
 10
135.640000
 20
104.871000
 30
0.0
 10
134.310625
 20
104.407625
 30
0.0
 10
133.327000
 20
103.720000
 30
0.0
 10
132.584250
 20
102.900750
 30
0.0
 10
131.990000
 20
101.786000
 30
0.0
 10
127.019000
 20
89.371000
 30
0.0
 10
126.707375
 20
88.346000
 30
0.0
 10
126.629000
 20
87.447000
 30
0.0
 10
126.804875
 20
86.104125
 30
0.0
 10
127.469000
 20
84.666000
 30
0.0
 10
135.303000
 20
73.250000
 30
0.0
 10
126.521000
 20
64.469000
 30
0.0
 10
115.337000
 20
72.145000
 30
0.0
 10
113.936125
 20
72.792125
 30
0.0
 10
112.632000
 20
72.963000
 30
0.0
 10
111.533750
 20
72.841375
 30
0.0
 10
110.356000
 20
72.395000
 30
0.0
 10
110.355000
 20
72.395000
 30
0.0
 10
107.452000
 20
70.844000
 30
0.0
 10
97.708000
 20
94.391000
 30
0.0
 10
98.376000
 20
94.919000
 30
0.0
 10
100.544158
 20
96.541598
 30
0.0
 10
102.498016
 20
98.412656
 30
0.0
 10
104.214521
 20
100.508949
 30
0.0
 10
105.670625
 20
102.807250
 30
0.0
 10
106.843275
 20
105.284332
 30
0.0
 10
107.709422
 20
107.916969
 30
0.0
 10
108.246014
 20
110.681934
 30
0.0
 10
108.430000
 20
113.556000
 30
0.0
 10
108.314503
 20
115.837485
 30
0.0
 10
107.976229
 20
118.052973
 30
0.0
 10
107.426375
 20
120.191263
 30
0.0
 10
106.676141
 20
122.241156
 30
0.0
 10
105.736725
 20
124.191452
 30
0.0
 10
104.619326
 20
126.030949
 30
0.0
 10
103.335143
 20
127.748449
 30
0.0
 10
101.895375
 20
129.332750
 30
0.0
 10
100.311220
 20
130.772653
 30
0.0
 10
98.593877
 20
132.056957
 30
0.0
 10
96.754545
 20
133.174462
 30
0.0
 10
94.804422
 20
134.113969
 30
0.0
 10
92.754707
 20
134.864276
 30
0.0
 10
90.616600
 20
135.414184
 30
0.0
 10
88.401298
 20
135.752492
 30
0.0
 10
86.120000
 20
135.868000
 30
0.0
 10
83.838867
 20
135.752492
 30
0.0
 10
81.623684
 20
135.414184
 30
0.0
 10
79.485651
 20
134.864276
 30
0.0
 10
77.435969
 20
134.113969
 30
0.0
 10
75.485837
 20
133.174462
 30
0.0
 10
73.646457
 20
132.056957
 30
0.0
 10
71.929028
 20
130.772653
 30
0.0
 10
70.344750
 20
129.332750
 30
0.0
 10
68.904824
 20
127.748449
 30
0.0
 10
67.620449
 20
126.030949
 30
0.0
 10
66.502827
 20
124.191452
 30
0.0
 10
65.563156
 20
122.241156
 30
0.0
 10
64.812638
 20
120.191263
 30
0.0
 10
64.262473
 20
118.052973
 30
0.0
 10
63.923860
 20
115.837485
 30
0.0
 10
63.808000
 20
113.556000
 30
0.0
 10
63.992605
 20
110.681977
 30
0.0
 10
64.529594
 20
107.917125
 30
0.0
 10
65.395973
 20
105.284648
 30
0.0
 10
66.568750
 20
102.807750
 30
0.0
 10
68.024934
 20
100.509633
 30
0.0
 10
69.741531
 20
98.413500
 30
0.0
 10
71.695551
 20
96.542555
 30
0.0
 10
73.864000
 20
94.920000
 30
0.0
 10
74.532000
 20
94.392000
 30
0.0
 10
64.789000
 20
70.844000
 30
0.0
 10
61.886000
 20
72.395000
 30
0.0
 10
60.694125
 20
72.844000
 30
0.0
 10
59.605000
 20
72.963000
 30
0.0
 10
58.295625
 20
72.790500
 30
0.0
 10
56.897000
 20
72.141000
 30
0.0
 10
45.720000
 20
64.469000
 30
0.0
 10
36.936000
 20
73.250000
 30
0.0
 10
44.771000
 20
84.670000
 30
0.0
 10
45.431875
 20
86.104250
 30
0.0
 10
45.609000
 20
87.447000
 30
0.0
 10
45.526750
 20
88.356375
 30
0.0
 10
45.221000
 20
89.367000
 30
0.0
 10
40.242000
 20
101.809000
 30
0.0
 10
39.646250
 20
102.914250
 30
0.0
 10
38.908000
 20
103.724000
 30
0.0
 10
37.923500
 20
104.408625
 30
0.0
 10
36.588000
 20
104.872000
 30
0.0
 10
22.777000
 20
107.442000
 30
0.0
 10
22.776000
 20
119.861000
 30
0.0
 10
37.000000
 20
122.510000
 30
0.0
 10
38.305750
 20
122.960500
 30
0.0
 10
39.277000
 20
123.621000
 30
0.0
 10
40.013375
 20
124.399250
 30
0.0
 10
40.623000
 20
125.467000
 30
0.0
 10
40.625000
 20
125.466000
 30
0.0
 10
45.635000
 20
137.156000
 30
0.0
 10
45.979000
 20
138.211125
 30
0.0
 10
46.074000
 20
139.192000
 30
0.0
 10
45.903000
 20
140.512125
 30
0.0
 10
45.255000
 20
141.935000
 30
0.0
 10
36.939000
 20
154.052000
 30
0.0
 10
45.721000
 20
162.834000
 30
0.0
 10
58.069000
 20
154.359000
 30
0.0
 10
59.506625
 20
153.698000
 30
0.0
 10
60.843000
 20
153.526000
 30
0.0
 10
61.755750
 20
153.606500
 30
0.0
 10
62.769000
 20
153.915000
 30
0.0
 10
74.123000
 20
158.562000
 30
0.0
 10
75.228375
 20
159.170500
 30
0.0
 10
76.030000
 20
159.914000
 30
0.0
 10
76.699125
 20
160.886250
 30
0.0
 10
77.156000
 20
162.190000
 30
0.0
 10
79.910000
 20
176.994000
 30
0.0
 10
92.328000
 20
176.994000
 30
0.0
 10
95.080000
 20
162.204000
 30
0.0
 10
95.541125
 20
160.884875
 30
0.0
 10
96.210000
 20
159.913000
 30
0.0
 10
97.016125
 20
159.165875
 30
0.0
 10
98.129000
 20
158.556000
 30
0.0
 10
109.485000
 20
153.907000
 30
0.0
 10
110.484750
 20
153.603875
 30
0.0
 10
111.393000
 20
153.522000
 30
0.0
 10
112.726750
 20
153.695500
 30
0.0
 10
114.167000
 20
154.355000
 30
0.0
 10
126.519000
 20
162.833000
 30
0.0
 10
135.300000
 20
154.050000
 30
0.0
 10
126.995000
 20
141.947000
 30
0.0
 10
126.335000
 20
140.525000
 30
0.0
 10
126.161000
 20
139.190000
 30
0.0
 10
126.251625
 20
138.235750
 30
0.0
 10
126.574000
 20
137.220000
 30
0.0
 10
131.612000
 20
125.464000
 30
0.0
 10
131.613000
 20
125.464000
 30
0.0
 10
132.224500
 20
124.395875
 30
0.0
 10
132.962000
 20
123.618000
 30
0.0
 10
133.928875
 20
122.959000
 30
0.0
 10
135.234000
 20
122.507000
 30
0.0
 10
149.462000
 20
119.861000
 30
0.0
  0
LWPOLYLINE
  5
11a
100
AcDbEntity
  8
0
 62
7
100
AcDbPolyline
 90
148
 70
1
 10
152.336000
 20
123.390000
 30
0.0
 10
135.897000
 20
126.447000
 30
0.0
 10
135.311125
 20
126.748875
 30
0.0
 10
134.924000
 20
127.284000
 30
0.0
 10
129.885000
 20
139.040000
 30
0.0
 10
129.767500
 20
139.684875
 30
0.0
 10
129.965000
 20
140.311000
 30
0.0
 10
139.543000
 20
154.271000
 30
0.0
 10
139.684750
 20
154.856625
 30
0.0
 10
139.438000
 20
155.407000
 30
0.0
 10
127.475000
 20
167.370000
 30
0.0
 10
126.925125
 20
167.617500
 30
0.0
 10
126.340000
 20
167.475000
 30
0.0
 10
112.135000
 20
157.727000
 30
0.0
 10
111.507375
 20
157.526875
 30
0.0
 10
110.858000
 20
157.635000
 30
0.0
 10
99.462000
 20
162.300000
 30
0.0
 10
98.925375
 20
162.678625
 30
0.0
 10
98.622000
 20
163.262000
 30
0.0
 10
95.457000
 20
180.265000
 30
0.0
 10
95.143750
 20
180.779875
 30
0.0
 10
94.580000
 20
180.994000
 30
0.0
 10
77.660000
 20
180.994000
 30
0.0
 10
77.097125
 20
180.779875
 30
0.0
 10
76.784000
 20
180.265000
 30
0.0
 10
73.620000
 20
163.262000
 30
0.0
 10
73.317000
 20
162.678625
 30
0.0
 10
72.780000
 20
162.300000
 30
0.0
 10
61.383000
 20
157.635000
 30
0.0
 10
60.732875
 20
157.526875
 30
0.0
 10
60.106000
 20
157.727000
 30
0.0
 10
45.902000
 20
167.475000
 30
0.0
 10
45.315625
 20
167.617500
 30
0.0
 10
44.766000
 20
167.370000
 30
0.0
 10
32.802000
 20
155.407000
 30
0.0
 10
32.554875
 20
154.856625
 30
0.0
 10
32.697000
 20
154.271000
 30
0.0
 10
42.276000
 20
140.311000
 30
0.0
 10
42.471875
 20
139.684875
 30
0.0
 10
42.355000
 20
139.040000
 30
0.0
 10
37.315000
 20
127.284000
 30
0.0
 10
36.929000
 20
126.748875
 30
0.0
 10
36.342000
 20
126.447000
 30
0.0
 10
19.904000
 20
123.390000
 30
0.0
 10
19.388750
 20
123.075500
 30
0.0
 10
19.175000
 20
122.512000
 30
0.0
 10
19.176000
 20
105.593000
 30
0.0
 10
19.390125
 20
105.028375
 30
0.0
 10
19.905000
 20
104.715000
 30
0.0
 10
35.940000
 20
101.731000
 30
0.0
 10
36.520625
 20
101.428000
 30
0.0
 10
36.892000
 20
100.888000
 30
0.0
 10
41.898000
 20
88.383000
 30
0.0
 10
42.004625
 20
87.732875
 30
0.0
 10
41.803000
 20
87.106000
 30
0.0
 10
32.695000
 20
73.833000
 30
0.0
 10
32.553250
 20
73.246875
 30
0.0
 10
32.800000
 20
72.696000
 30
0.0
 10
44.765000
 20
60.733000
 30
0.0
 10
45.314625
 20
60.487000
 30
0.0
 10
45.901000
 20
60.628000
 30
0.0
 10
58.939000
 20
69.577000
 30
0.0
 10
59.558375
 20
69.761625
 30
0.0
 10
60.189000
 20
69.620000
 30
0.0
 10
65.939000
 20
66.550000
 30
0.0
 10
66.489500
 20
66.512875
 30
0.0
 10
66.884000
 20
66.898000
 30
0.0
 10
78.740000
 20
95.545000
 30
0.0
 10
78.755375
 20
96.142000
 30
0.0
 10
78.392000
 20
96.616000
 30
0.0
 10
76.953000
 20
97.497000
 30
0.0
 10
76.043000
 20
98.194000
 30
0.0
 10
74.181580
 20
99.553977
 30
0.0
 10
72.503828
 20
101.127750
 30
0.0
 10
71.029631
 20
102.895586
 30
0.0
 10
69.778875
 20
104.837750
 30
0.0
 10
68.771447
 20
106.934508
 30
0.0
 10
68.027234
 20
109.166125
 30
0.0
 10
67.566123
 20
111.512867
 30
0.0
 10
67.408000
 20
113.955000
 30
0.0
 10
67.504612
 20
115.868124
 30
0.0
 10
67.788174
 20
117.725977
 30
0.0
 10
68.249278
 20
119.519153
 30
0.0
 10
68.878516
 20
121.238250
 30
0.0
 10
69.666478
 20
122.873862
 30
0.0
 10
70.603756
 20
124.416586
 30
0.0
 10
71.680941
 20
125.857017
 30
0.0
 10
72.888625
 20
127.185750
 30
0.0
 10
74.217399
 20
128.393382
 30
0.0
 10
75.657854
 20
129.470508
 30
0.0
 10
77.200581
 20
130.407724
 30
0.0
 10
78.836172
 20
131.195625
 30
0.0
 10
80.555218
 20
131.824808
 30
0.0
 10
82.348311
 20
132.285867
 30
0.0
 10
84.206041
 20
132.569399
 30
0.0
 10
86.119000
 20
132.666000
 30
0.0
 10
88.031948
 20
132.569399
 30
0.0
 10
89.889646
 20
132.285867
 30
0.0
 10
91.682690
 20
131.824808
 30
0.0
 10
93.401672
 20
131.195625
 30
0.0
 10
95.037187
 20
130.407724
 30
0.0
 10
96.579830
 20
129.470508
 30
0.0
 10
98.020195
 20
128.393382
 30
0.0
 10
99.348875
 20
127.185750
 30
0.0
 10
100.556466
 20
125.857017
 30
0.0
 10
101.633561
 20
124.416586
 30
0.0
 10
102.570754
 20
122.873862
 30
0.0
 10
103.358641
 20
121.238250
 30
0.0
 10
103.987814
 20
119.519153
 30
0.0
 10
104.448869
 20
117.725977
 30
0.0
 10
104.732400
 20
115.868124
 30
0.0
 10
104.829000
 20
113.955000
 30
0.0
 10
104.670918
 20
111.512867
 30
0.0
 10
104.209906
 20
109.166125
 30
0.0
 10
103.465816
 20
106.934508
 30
0.0
 10
102.458500
 20
104.837750
 30
0.0
 10
101.207809
 20
102.895586
 30
0.0
 10
99.733594
 20
101.127750
 30
0.0
 10
98.055707
 20
99.553977
 30
0.0
 10
96.194000
 20
98.194000
 30
0.0
 10
95.286000
 20
97.497000
 30
0.0
 10
93.847000
 20
96.616000
 30
0.0
 10
93.484750
 20
96.142000
 30
0.0
 10
93.499000
 20
95.545000
 30
0.0
 10
105.354000
 20
66.897000
 30
0.0
 10
105.748125
 20
66.512250
 30
0.0
 10
106.299000
 20
66.549000
 30
0.0
 10
112.049000
 20
69.619000
 30
0.0
 10
112.680000
 20
69.761000
 30
0.0
 10
113.299000
 20
69.576000
 30
0.0
 10
126.338000
 20
60.627000
 30
0.0
 10
126.923875
 20
60.486000
 30
0.0
 10
127.473000
 20
60.732000
 30
0.0
 10
139.438000
 20
72.695000
 30
0.0
 10
139.685500
 20
73.245875
 30
0.0
 10
139.543000
 20
73.832000
 30
0.0
 10
130.434000
 20
87.105000
 30
0.0
 10
130.233625
 20
87.731875
 30
0.0
 10
130.340000
 20
88.382000
 30
0.0
 10
135.346000
 20
100.887000
 30
0.0
 10
135.716875
 20
101.427000
 30
0.0
 10
136.297000
 20
101.730000
 30
0.0
 10
152.332000
 20
104.714000
 30
0.0
 10
152.846500
 20
105.027375
 30
0.0
 10
153.061000
 20
105.592000
 30
0.0
 10
153.063000
 20
122.511000
 30
0.0
 10
152.849875
 20
123.075375
 30
0.0
 10
152.336000
 20
123.390000
 30
0.0
  0
ENDSEC
  0
SECTION
  2
OBJECTS
  0
DICTIONARY
  5
C
330
0
100
AcDbDictionary
  3
ACAD_GROUP
350
D
  3
ACAD_MLINESTYLE
350
17
  0
DICTIONARY
  5
D
330
C
100
AcDbDictionary
  0
DICTIONARY
  5
1A
330
C
100
AcDbDictionary
  0
DICTIONARY
  5
17
330
C
100
AcDbDictionary
  3
STANDARD
350
18
  0
DICTIONARY
  5
19
330
C
100
AcDbDictionary
  0
ENDSEC
  0
EOF
